<?xml version="1.0" encoding="utf-8"?>
<!-- Generator: Adobe Illustrator 22.0.1, SVG Export Plug-In . SVG Version: 6.00 Build 0)  -->
<svg version="1.1" id="Ebene_1" xmlns="http://www.w3.org/2000/svg" xmlns:xlink="http://www.w3.org/1999/xlink" x="0px" y="0px"
	 viewBox="0 0 144 170" style="enable-background:new 0 0 144 170;" xml:space="preserve">
<style type="text/css">
	.st0{fill:#020000;}
</style>
<title>BRLO_logo_2</title>
<g id="Layer_1-2">
	<path class="st0" d="M57.7,24.5h-5.4V10.8h5.3L57.7,24.5z M63.6,35.4c3.7-0.5,5.1-2,5.1-5.7V5.3c0-3.6-1.7-5.3-5.3-5.3H41.5V61
		h10.8V36.4h0.3L59.7,61h10.8l-7.4-25.5C63.2,35.4,63.4,35.4,63.6,35.4"/>
	<path class="st0" d="M120.1,11.3h5.1v38.5h-5.1V11.3z M143.6,34.3v-8h-7.4V5.5c0-3-1.1-4.8-3.5-5.4c-0.5-0.1-1-0.2-1.5-0.2h-16.8
		c-3.4,0-5.1,1.8-5.1,5.3v2.4l0,0v48c0,3.5,1.8,5.3,5.1,5.3h16.8c0.5,0,1,0,1.5-0.2c2.4-0.6,3.5-2.3,3.5-5.4V34.3L143.6,34.3z"/>
	<polygon class="st0" points="96,50.3 90,50.3 90,32.1 98.2,27.9 95.3,22.1 90,24.8 90,0 79.4,0 79.4,30.3 72.4,33.9 75.3,39.7 
		79.4,37.6 79.4,60.9 103.3,60.9 103.3,60.9 104.1,60.9 104.1,45.8 96,45.8 	"/>
	<path class="st0" d="M18.3,11.1h5.2V25h-5.2V11.1z M18.3,36.1h5.2v14h-5.2L18.3,36.1z M34.3,8V5.3c0-3.6-1.7-5.3-5.3-5.3H7.6v26.2
		H0.4v8.2h7.2V61h21.5c3.4,0,5.2-1.8,5.2-5.3V37.1c0-0.7-0.3-1.4-0.8-1.9c-1.5-1.6-3-3.1-4.6-4.7c1.7-1.7,3.2-3.2,4.6-4.7
		c0.5-0.5,0.7-1.2,0.8-1.9C34.4,18.5,34.3,13.3,34.3,8L34.3,8z"/>
	<path class="st0" d="M29.6,77.5h-2.3v-5.9h2.3V77.5z M32.2,82.2c1.6-0.2,2.2-0.8,2.2-2.5V69.2c0.1-1.1-0.6-2.1-1.7-2.2
		c-0.2,0-0.4,0-0.6,0h-9.5v26.3h4.7V82.7h0.1l3.1,10.6h4.7l-3.1-11L32.2,82.2"/>
	<polygon class="st0" points="78.3,67 73.7,67 73.7,77.6 71.4,77.6 71.4,67 66.7,67 66.7,93.3 71.4,93.3 71.4,82.2 73.7,82.2 
		73.7,93.3 78.3,93.3 	"/>
	<polygon class="st0" points="136.2,67 128.9,67 128.6,67 128.2,67 126.3,67 126.3,68.9 126.3,70.4 126.3,89.9 126.3,91.3 
		126.3,93.3 128.2,93.3 128.9,93.3 136.2,93.3 136.2,88.7 130.9,88.7 130.9,82.2 136.2,82.2 136.2,77.6 130.9,77.6 130.9,71.6 
		136.2,71.6 	"/>
	<polygon class="st0" points="63.3,93.3 63.3,67 58.7,67 58.7,88.7 56.4,88.7 56.4,67 55.8,67 51.8,67 49.3,67 45,67 44.8,67 
		44.8,88.7 42.4,88.7 42.4,67 37.8,67 37.8,80.1 37.8,83.2 37.8,93.3 48.7,93.3 48.7,93.3 49.3,93.3 49.3,71.6 51.8,71.6 51.8,80.1 
		51.8,83.2 51.8,93.3 62.7,93.3 62.7,93.3 	"/>
	<path class="st0" d="M123.1,69c0-1.1-0.9-2-2-2h-7.7c-1.1,0-2,0.9-2,2v4.4c0,0.6,0.1,1.2,0.4,1.8l6.6,11.8v1.6h-2.3v-2.3h-4.7v5
		c0,1.1,0.9,2,2,2h7.7c1.1,0,2-0.9,2-2v-4.6c0-0.6-0.1-1.1-0.3-1.6l-6.7-11.8v-1.6h2.4v2.3h4.7L123.1,69z"/>
	<path class="st0" d="M12.2,71.8h2.2v6h-2.2V71.8z M12.2,82.5h2.2v6.1h-2.2L12.2,82.5z M19.1,70.4v-1.2c0.2-1.1-0.6-2.1-1.7-2.3
		c-0.2,0-0.4,0-0.6,0H7.6v26.3h9.3c1.1,0.2,2.1-0.6,2.3-1.7c0-0.2,0-0.4,0-0.6v-8c0-0.3-0.1-0.6-0.4-0.8c-0.6-0.7-1.3-1.3-2-2
		c0.7-0.7,1.4-1.4,2-2c0.2-0.2,0.3-0.5,0.3-0.8L19.1,70.4L19.1,70.4z"/>
	<path class="st0" d="M103.8,67v21.7h-2.3V67h-4.7v24.3c0,1.1,0.9,2,2,2h7.7c1.1,0,2-0.9,2-2V67H103.8z"/>
	<path class="st0" d="M88.7,88.7h-2.3v-17h2.3L88.7,88.7z M92.8,67.6c-0.4-0.4-0.9-0.6-1.4-0.6h-7.7c-1.1,0-2,0.9-2,2v22.3
		c0,1.1,0.9,2,2,2h7.7c1.1,0,2-0.9,2-2V69C93.4,68.5,93.2,68,92.8,67.6L92.8,67.6z"/>
	<path class="st0" d="M12.2,170H7.5V99.7h4.7V170z M21.8,170h-4.7V99.7h4.7V170z M31.3,170h-4.7V99.7h4.7V170z M40.9,170h-4.7V99.7
		h4.7L40.9,170z M50.4,170h-4.7V99.7h4.7V170z M60,170h-4.7V99.7H60V170z M69.6,170h-4.7V99.7h4.7V170z M79.1,170h-4.7V99.7h4.7V170
		z M88.7,170H84V99.7h4.7L88.7,170z M98.2,170h-4.7V99.7h4.7L98.2,170z M107.8,170h-4.7V99.7h4.7V170z M117.4,170h-4.7V99.7h4.7V170
		z M126.9,170h-4.7V99.7h4.7V170z M136.5,170h-4.7V99.7h4.7V170z"/>
</g>
</svg>
