<?xml version="1.0" encoding="utf-8"?>
<!-- Generator: Adobe Illustrator 18.1.1, SVG Export Plug-In . SVG Version: 6.00 Build 0)  -->
<svg version="1.1" id="Layer_1" xmlns="http://www.w3.org/2000/svg" xmlns:xlink="http://www.w3.org/1999/xlink" x="0px" y="0px"
	 viewBox="296 19 1616 732" enable-background="new 296 19 1616 732" xml:space="preserve">
<g>
	<path d="M1093.3,262.2c-16.9,0-28.2-12-28.2-27.7s11.3-27.7,28.2-27.7c16.8,0,28.1,12.1,28.1,27.7
		C1121.4,250.1,1110.2,262.2,1093.3,262.2z M1093.3,217.2c-9.7,0-15.3,6.5-15.3,17.3c0,10.9,5.7,17.3,15.3,17.3
		c9.6,0,15.2-6.4,15.2-17.3C1108.6,223.7,1102.9,217.2,1093.3,217.2z"/>
	<path d="M1156.3,243.5v18.1h-12.6v-54.2h19.1c15.2,0,21.8,7.7,21.8,17.7c0,10.8-6.8,18.4-21.8,18.4L1156.3,243.5L1156.3,243.5z
		 M1156.3,234h6.5c6.5,0,9.2-3.3,9.2-8.9c0-4.9-2.9-8.3-9.2-8.3h-6.5V234z"/>
	<path d="M1242.5,207.4v9.7h-22.2v12.6h17v9.3h-17v12.9h22.2v9.7h-34.9v-54.2L1242.5,207.4L1242.5,207.4z"/>
	<path d="M1279.6,209.3l25.7,32.5c-0.2-2.1-0.3-4.1-0.3-5.8v-28.7h11.1v54.2h-6.5c-1.9,0-3.2-0.5-4.4-2.1l-25.5-32.3
		c0.1,1.9,0.3,3.7,0.3,5.3v29h-11.1v-54.2h6.6C1277.6,207.4,1278.3,207.7,1279.6,209.3z"/>
</g>
<g>
	<path d="M1080.5,329.8h2c1.9,0,3.2-0.6,4-1.7l12.2-17.7c1.3-1.9,2.9-2.5,5.4-2.5h10.9l-16.1,21.9c-1.2,1.6-2.4,2.6-3.7,3.3
		c1.9,0.7,3.4,1.8,4.7,3.9l16.4,25.1h-11.2c-2.9,0-3.9-0.8-4.9-2.3l-12.3-18.9c-0.9-1.4-2.1-1.9-4.5-1.9h-3v23.1H1068v-54.2h12.6
		V329.8z"/>
	<path d="M1151.1,309.8l25.7,32.5c-0.2-2.1-0.3-4.1-0.3-5.8v-28.7h11.1v54.2h-6.5c-1.9,0-3.2-0.5-4.4-2.1l-25.5-32.3
		c0.1,1.9,0.3,3.7,0.3,5.3v29h-11.1v-54.2h6.6C1149.1,307.9,1149.7,308.1,1151.1,309.8z"/>
	<path d="M1239.8,362.7c-16.9,0-28.2-12-28.2-27.7s11.3-27.7,28.2-27.7c16.8,0,28.1,12.1,28.1,27.7
		C1267.9,350.6,1256.6,362.7,1239.8,362.7z M1239.8,317.7c-9.7,0-15.3,6.5-15.3,17.3c0,10.9,5.7,17.3,15.3,17.3
		c9.6,0,15.2-6.4,15.2-17.3C1255,324.2,1249.4,317.7,1239.8,317.7z"/>
	<path d="M1281.7,307.9h10.6c2.2,0,3.7,1.1,4.2,2.7l7.4,28.3c0.5,1.8,1,3.9,1.3,6.2c0.5-2.3,1.1-4.4,1.7-6.2l8.8-28.3
		c0.4-1.4,2-2.7,4.1-2.7h3.7c2.2,0,3.6,1,4.2,2.7l8.7,28.3c0.6,1.7,1.2,3.7,1.6,5.9c0.4-2.2,0.8-4.2,1.3-5.9l7.4-28.3
		c0.4-1.5,2-2.7,4.1-2.7h9.9l-16.7,54.2h-11.4l-10.2-33.6c-0.3-1-0.7-2.3-1.1-3.7c-0.3,1.4-0.7,2.6-1.1,3.7l-10.3,33.6h-11.4
		L1281.7,307.9z"/>
	<path d="M1395.8,352h20.1v10h-32.7v-54.2h12.6L1395.8,352L1395.8,352z"/>
	<path d="M1477.5,307.9v9.7h-22.2v12.6h17v9.3h-17v12.9h22.2v9.7h-34.9v-54.2L1477.5,307.9L1477.5,307.9z"/>
	<path d="M1524.9,362.1h-21v-54.2h21c16.8,0,28.1,11.5,28.1,27.1C1553.1,350.6,1541.8,362.1,1524.9,362.1z M1524.9,317.5h-8.4v34.8
		h8.4c9.6,0,15.2-6.6,15.2-17.4C1540.2,324.2,1534.5,317.5,1524.9,317.5z"/>
	<path d="M1609.4,351.3v-8.2h-5.4c-1.6,0-2.5-0.9-2.5-2.2V334h19.3v22.9c-5.5,4.1-11.9,5.8-20.8,5.8c-15.8,0-27.7-11.8-27.7-27.7
		c0-16.2,11.2-27.7,28.6-27.7c9.1,0,15.8,3.1,20.2,7.3l-3.6,5.5c-0.7,1-1.7,1.7-2.8,1.7c-0.7,0-1.5-0.3-2.3-0.7
		c-4-2.4-6.8-3.4-11.8-3.4c-9.4,0-15.3,6.9-15.3,17.3c0,11.5,6.7,18,15.8,18C1604.4,353,1607,352.4,1609.4,351.3z"/>
	<path d="M1681.1,307.9v9.7h-22.2v12.6h17v9.3h-17v12.9h22.2v9.7h-34.9v-54.2L1681.1,307.9L1681.1,307.9z"/>
</g>
<path d="M1102.8,408.4v9.7h-22.2v13.7h18.5v9.7h-18.5v21.1H1068v-54.2H1102.8L1102.8,408.4z"/>
<path d="M1185.2,435.4c0,3.9-0.7,7.6-2,10.9c-1.4,3.4-3.3,6.3-5.7,8.8c-2.5,2.5-5.4,4.4-8.9,5.9c-3.5,1.4-7.3,2.1-11.5,2.1
	s-8.1-0.7-11.5-2.1c-3.5-1.4-6.4-3.4-8.9-5.9c-2.5-2.5-4.4-5.4-5.7-8.8c-1.4-3.4-2-7-2-10.9c0-3.9,0.7-7.6,2-10.9
	c1.4-3.4,3.3-6.3,5.7-8.8c2.5-2.5,5.4-4.4,8.9-5.8c3.5-1.4,7.3-2.1,11.5-2.1s8.1,0.7,11.5,2.1s6.4,3.4,8.9,5.9
	c2.5,2.5,4.4,5.4,5.7,8.8C1184.5,427.9,1185.2,431.5,1185.2,435.4z M1172.3,435.4c0-2.7-0.3-5.1-1-7.2c-0.7-2.1-1.7-4-3-5.4
	c-1.3-1.5-2.9-2.6-4.8-3.4c-1.9-0.8-4-1.2-6.4-1.2c-2.4,0-4.6,0.4-6.5,1.2c-1.9,0.8-3.5,1.9-4.8,3.4c-1.3,1.5-2.3,3.3-3,5.4
	c-0.7,2.1-1,4.6-1,7.2c0,2.7,0.3,5.1,1,7.3c0.7,2.1,1.7,4,3,5.4c1.3,1.5,2.9,2.6,4.8,3.4c1.9,0.8,4.1,1.2,6.5,1.2
	c2.4,0,4.5-0.4,6.4-1.2s3.5-1.9,4.8-3.4c1.3-1.5,2.3-3.3,3-5.4C1172,440.6,1172.3,438.1,1172.3,435.4z"/>
<path d="M1236.1,452.6c1.7,0,3.2-0.3,4.5-0.8c1.3-0.6,2.4-1.4,3.4-2.4c0.9-1,1.6-2.3,2.1-3.8c0.5-1.5,0.7-3.2,0.7-5.1v-32.1h12.6
	v32.1c0,3.3-0.5,6.4-1.6,9.1c-1.1,2.8-2.6,5.2-4.6,7.2s-4.5,3.6-7.3,4.7c-2.9,1.1-6.1,1.7-9.7,1.7c-3.6,0-6.9-0.6-9.7-1.7
	c-2.9-1.1-5.3-2.7-7.3-4.7c-2-2-3.5-4.4-4.6-7.2c-1.1-2.8-1.6-5.8-1.6-9.1v-32.1h12.6v32.1c0,1.9,0.2,3.6,0.7,5.1
	c0.5,1.5,1.2,2.8,2.1,3.8c0.9,1.1,2,1.9,3.4,2.4C1232.9,452.3,1234.4,452.6,1236.1,452.6z"/>
<path d="M1297.8,408.4c0.4,0,0.7,0.1,1,0.3c0.3,0.1,0.6,0.3,0.9,0.6c0.3,0.2,0.6,0.6,0.9,1l25.7,32.5c-0.1-1-0.2-2.1-0.2-3
	c-0.1-1-0.1-1.9-0.1-2.8v-28.7h11.1v54.2h-6.5c-1,0-1.8-0.1-2.5-0.4s-1.3-0.8-1.9-1.6l-25.6-32.3c0.1,0.9,0.1,1.9,0.2,2.8
	c0.1,0.9,0.1,1.8,0.1,2.5v29h-11.1v-54.2h6.6C1297,408.4,1297.5,408.4,1297.8,408.4z"/>
<path d="M1417.5,435.4c0,3.9-0.7,7.5-2,10.8c-1.4,3.3-3.3,6.2-5.7,8.6c-2.5,2.4-5.4,4.3-8.9,5.7c-3.5,1.4-7.3,2-11.5,2h-21.1v-54.2
	h21.1c4.2,0,8.1,0.7,11.5,2s6.4,3.2,8.9,5.7c2.5,2.4,4.4,5.3,5.7,8.6C1416.9,427.9,1417.5,431.5,1417.5,435.4z M1404.7,435.4
	c0-2.7-0.3-5.1-1-7.3c-0.7-2.2-1.7-4-3-5.5c-1.3-1.5-2.9-2.7-4.8-3.5c-1.9-0.8-4-1.2-6.4-1.2h-8.4v34.8h8.4c2.4,0,4.6-0.4,6.4-1.2
	c1.9-0.8,3.5-2,4.8-3.5c1.3-1.5,2.3-3.3,3-5.5C1404.3,440.6,1404.7,438.1,1404.7,435.4z"/>
<path d="M1496.3,462.5h-9.7c-1.1,0-2-0.3-2.7-0.8c-0.7-0.5-1.2-1.2-1.5-2l-3.2-9.4h-20.6l-3.2,9.4c-0.2,0.7-0.7,1.3-1.5,1.9
	s-1.6,0.8-2.6,0.8h-9.8l21-54.2h12.9L1496.3,462.5z M1461.5,441.8h14.8l-5-14.8c-0.3-0.9-0.7-2.1-1.1-3.3c-0.4-1.3-0.9-2.7-1.3-4.1
	c-0.4,1.5-0.8,2.9-1.2,4.2s-0.8,2.4-1.2,3.3L1461.5,441.8z"/>
<path d="M1562.4,408.4v10h-15.2v44.2h-12.6v-44.2h-15.2v-10H1562.4z"/>
<path d="M1603.6,462.5H1591v-54.2h12.6V462.5z"/>
<path d="M1689.5,435.4c0,3.9-0.7,7.6-2,10.9c-1.4,3.4-3.3,6.3-5.7,8.8c-2.5,2.5-5.4,4.4-8.9,5.9c-3.5,1.4-7.3,2.1-11.5,2.1
	s-8.1-0.7-11.5-2.1c-3.5-1.4-6.4-3.4-8.9-5.9c-2.5-2.5-4.4-5.4-5.7-8.8c-1.4-3.4-2-7-2-10.9c0-3.9,0.7-7.6,2-10.9
	c1.4-3.4,3.3-6.3,5.7-8.8c2.5-2.5,5.4-4.4,8.9-5.8s7.3-2.1,11.5-2.1s8.1,0.7,11.5,2.1s6.4,3.4,8.9,5.9c2.5,2.5,4.4,5.4,5.7,8.8
	C1688.8,427.9,1689.5,431.5,1689.5,435.4z M1676.6,435.4c0-2.7-0.3-5.1-1-7.2c-0.7-2.1-1.7-4-3-5.4c-1.3-1.5-2.9-2.6-4.8-3.4
	c-1.9-0.8-4-1.2-6.4-1.2c-2.4,0-4.6,0.4-6.5,1.2c-1.9,0.8-3.5,1.9-4.8,3.4c-1.3,1.5-2.3,3.3-3,5.4c-0.7,2.1-1,4.6-1,7.2
	c0,2.7,0.3,5.1,1,7.3c0.7,2.1,1.7,4,3,5.4c1.3,1.5,2.9,2.6,4.8,3.4c1.9,0.8,4.1,1.2,6.5,1.2c2.4,0,4.6-0.4,6.4-1.2
	c1.9-0.8,3.5-1.9,4.8-3.4c1.3-1.5,2.3-3.3,3-5.4C1676.3,440.6,1676.6,438.1,1676.6,435.4z"/>
<path d="M1725.8,408.4c0.4,0,0.7,0.1,1,0.3c0.3,0.1,0.6,0.3,0.9,0.6c0.3,0.2,0.6,0.6,0.9,1l25.7,32.5c-0.1-1-0.2-2.1-0.2-3
	c-0.1-1-0.1-1.9-0.1-2.8v-28.7h11.1v54.2h-6.5c-1,0-1.8-0.1-2.5-0.4c-0.7-0.3-1.3-0.8-1.9-1.6l-25.6-32.3c0.1,0.9,0.1,1.9,0.2,2.8
	c0,0.9,0.1,1.8,0.1,2.5v29h-11.1v-54.2h6.6C1725,408.4,1725.4,408.4,1725.8,408.4z"/>
<rect x="844.3" y="57.3" transform="matrix(0.8011 0.5985 -0.5985 0.8011 256.3572 -482.9025)" width="21" height="173.9"/>
<rect x="778.3" y="114.4" transform="matrix(0.8951 0.4459 -0.4459 0.8951 152.4499 -335.3137)" width="21" height="83.8"/>
<rect x="742.2" y="50.7" transform="matrix(0.9603 0.2789 -0.2789 0.9603 62.3815 -205.3179)" width="21" height="131.7"/>
<polygon points="707.2,173.5 686.3,171.4 694.9,88.1 715.8,90.2 "/>
<polygon points="647.9,172.7 640.7,79.1 661.7,77.5 668.8,171.1 "/>
<polygon points="610.3,180.9 594.1,118.8 614.4,113.4 630.7,175.6 "/>
<rect x="553.8" y="161.2" transform="matrix(0.4219 0.9066 -0.9066 0.4219 488.2641 -422.3281)" width="43.1" height="21"/>
<polygon points="542.6,216.5 532.9,202.7 550,190.6 559.8,204.4 "/>
<polygon points="514.6,242.8 465.3,194.4 480,179.4 529.3,227.8 "/>
<polygon points="491.7,273.7 415.5,221.4 427.3,204 503.5,256.3 "/>
<polygon points="474.7,308.1 426.7,286.8 435.2,267.6 483.2,288.9 "/>
<polygon points="321.9,310.6 464.1,345 469.1,324.6 326.9,290.2 "/>
<rect x="354.8" y="359.2" transform="matrix(0.9983 5.810062e-02 -5.810062e-02 0.9983 22.1683 -23.0749)" width="106.3" height="21"/>
<rect x="400.2" y="365.6" transform="matrix(0.1209 0.9927 -0.9927 0.1209 775.3928 -40.7632)" width="21" height="103.6"/>
<rect x="448.2" y="440.2" transform="matrix(0.2964 0.9551 -0.9551 0.2964 754.6339 -119.8547)" width="21" height="24.1"/>
<rect x="435.6" y="460.7" transform="matrix(0.462 0.8869 -0.8869 0.462 687.2136 -124.3156)" width="21" height="87.2"/>
<rect x="457.8" y="498.3" transform="matrix(0.613 0.7901 -0.7901 0.613 612.0375 -158.9827)" width="21" height="94"/>
<rect x="490.5" y="532.9" transform="matrix(0.7443 0.6678 -0.6678 0.7443 514.5299 -186.6312)" width="21" height="91.6"/>
<rect x="540.7" y="564.4" transform="matrix(0.8516 0.5242 -0.5242 0.8516 388.7362 -202.0417)" width="21" height="42.3"/>
<polygon points="576.5,665.2 556.9,657.5 586.9,580.8 606.4,588.5 "/>
<rect x="615.7" y="594.7" transform="matrix(0.9815 0.1916 -0.1916 0.9815 132.7768 -108.2696)" width="21" height="75.6"/>
<polygon points="681.5,652 660.4,651.7 661.1,599.2 682.2,599.5 "/>
<polygon points="716.4,698.4 699.5,598.2 720.3,594.7 737.1,694.9 "/>
<rect x="726.8" y="605.1" transform="matrix(0.3389 0.9408 -0.9408 0.3389 1079.9528 -305.6551)" width="61.4" height="21"/>
<polygon points="772.7,575.8 849,705.8 867.1,695.3 790.9,565.3 "/>
<polygon points="817.2,567.6 805.6,555.7 820.8,541.2 832.4,553.1 "/>
<polygon points="885.8,572.1 833.4,529.2 846.7,512.9 899.1,555.9 "/>
<polygon points="910.1,528.2 856.6,498.5 866.8,480.2 920.3,509.9 "/>
<polygon points="899.7,473 873.8,464.2 880.6,444.3 906.4,453.1 "/>
<rect x="885.8" y="412.5" transform="matrix(0.9891 0.1474 -0.1474 0.9891 72.4758 -131.9794)" width="81.9" height="21"/>
<polygon points="888.9,389.2 888.2,368.2 940.2,366.5 940.8,387.5 "/>
<rect x="905.5" y="300.8" transform="matrix(0.2096 0.9778 -0.9778 0.2096 1050.2811 -631.894)" width="21" height="65.7"/>
<polygon points="876.5,313.6 868.5,294.2 910,277.1 918,296.6 "/>
<polygon points="860.5,278.7 849.2,261.1 958.9,190.7 970.2,208.4 "/>
<polygon points="838.5,247.3 824.2,231.9 840.7,216.4 855.1,231.8 "/>
<g>
	<path d="M658.4,369.4c-1.7-1.9-3.7-3.4-6.2-4.5c-2.4-1-5.2-1.6-8.3-1.6h-10.8v45H644c3.1,0,5.9-0.5,8.3-1.6c2.4-1,4.5-2.5,6.2-4.5
		s3-4.3,3.9-7.1c0.9-2.8,1.3-5.9,1.3-9.4c0-3.5-0.4-6.6-1.3-9.4C661.4,373.7,660.1,371.3,658.4,369.4z"/>
	<path d="M806.7,389.5l-0.5-15.4l-46.7,1.4l45.7-9.7l-3.2-15.1l-45.7,9.7l43.2-17.7l-5.8-14.2l-43.2,17.7l39.3-25.1l-8.3-13
		l-39.4,25.2l34.2-31.8l-10.5-11.3L731.7,322l28-37.4l-12.3-9.2l-28,37.4l20.9-41.8l-13.8-6.9l-20.9,41.8l13.1-44.8l-14.8-4.3
		l-13.1,44.8l4.9-46.4l-15.3-1.6l-5.1,48.1l-3.8-48.2l-15.4,1.2l3.6,46.5L648,256l-14.9,3.9l11.9,45.2l-19.8-42.3l-14,6.5l19.8,42.3
		l-27-38.1l-12.6,8.9l27,38.1l-33.4-32.7l-10.8,11l33.4,32.7L569,305.3l-8.6,12.8l38.7,26.2l-42.7-18.9l-6.2,14.1l42.7,18.9
		l-45.4-11l-3.6,15l45.4,11l-46.6-2.7l-0.9,15.4l46.6,2.7l-46.4,5.7l1.9,15.3l46.4-5.7l-44.6,13.9l4.6,14.7l44.6-13.9l-41.4,21.6
		l7.1,13.7l41.4-21.6L565,461l9.4,12.2l36.9-28.6l-31.2,34.8l11.5,10.3l31.2-34.8l-24.5,39.8l13.1,8.1l24.5-39.8l-17,43.5l14.3,5.6
		l17-43.5l-9,45.8l15.1,3l8.9-45.8l-0.6,46.7l15.4,0.2l0.6-46.7l7.7,46.1l15.2-2.5l-7.7-46l15.8,43.9l14.5-5.2l-15.8-43.9l23.4,40.4
		l13.3-7.7l-23.4-40.4l30.2,35.6l11.7-10l-30.2-35.6l36.1,29.6l9.8-11.9l-36.1-29.6l40.8,22.7l7.5-13.5l-40.8-22.7l44.2,15.1l5-14.6
		l-44.2-15.1l46.2,6.9l2.3-15.2L760,391L806.7,389.5z M677.6,399.8c-1.7,4.3-4.2,8-7.4,11.1c-3.2,3.1-7,5.6-11.4,7.3
		c-4.5,1.7-9.4,2.6-14.9,2.6h-27.2v-69.9H644c5.4,0,10.4,0.9,14.9,2.6c4.5,1.8,8.3,4.2,11.4,7.3c3.2,3.1,5.6,6.8,7.4,11.1
		s2.6,8.9,2.6,13.9C680.2,390.9,679.4,395.5,677.6,399.8z M733,363.3h-28.7v16.3h22v12h-22v16.7H733v12.5h-45v-69.9h45V363.3z"/>
</g>
<g>
	<path d="M1112.8,524.2c0,4-0.6,7.6-1.9,10.8c-1.3,3.3-3,6-5.3,8.4c-2.3,2.3-5,4.1-8.3,5.4c-3.2,1.3-6.8,1.9-10.7,1.9h-19.8v-53
		h19.8c3.9,0,7.4,0.6,10.7,1.9c3.2,1.3,6,3.1,8.3,5.4c2.3,2.3,4.1,5.1,5.3,8.4C1112.2,516.6,1112.8,520.2,1112.8,524.2z
		 M1105.4,524.2c0-3.3-0.4-6.2-1.3-8.7c-0.9-2.6-2.1-4.7-3.8-6.5c-1.6-1.8-3.6-3.1-5.9-4.1c-2.3-0.9-4.9-1.4-7.7-1.4h-12.6v41.4
		h12.6c2.8,0,5.4-0.5,7.7-1.4c2.3-0.9,4.3-2.3,5.9-4.1c1.6-1.8,2.9-3.9,3.8-6.5C1105,530.3,1105.4,527.4,1105.4,524.2z"/>
	<path d="M1177.1,497.6v5.8h-25.5v17.6h20.6v5.6h-20.6v18.1h25.5v5.8h-32.7v-53L1177.1,497.6L1177.1,497.6z"/>
	<path d="M1230,544.9c2.2,0,4.2-0.4,5.9-1.1c1.7-0.7,3.2-1.8,4.4-3.1c1.2-1.3,2.1-2.9,2.7-4.8c0.6-1.8,0.9-3.9,0.9-6.1v-32.2h7.1
		v32.2c0,3.1-0.5,5.9-1.5,8.5c-1,2.6-2.4,4.9-4.2,6.8s-4,3.4-6.6,4.5c-2.6,1.1-5.6,1.6-8.8,1.6c-3.3,0-6.2-0.5-8.8-1.6
		c-2.6-1.1-4.8-2.6-6.7-4.5c-1.8-1.9-3.2-4.2-4.2-6.8c-1-2.6-1.5-5.5-1.5-8.5v-32.2h7.1v32.2c0,2.2,0.3,4.3,0.9,6.1
		c0.6,1.9,1.5,3.4,2.7,4.8c1.2,1.3,2.7,2.4,4.4,3.1C1225.8,544.6,1227.8,544.9,1230,544.9z"/>
	<path d="M1321.4,497.6v6h-17.1v47h-7.2v-47h-17.2v-6L1321.4,497.6L1321.4,497.6z"/>
	<path d="M1378,505.9c-0.2,0.4-0.5,0.6-0.7,0.8c-0.2,0.2-0.6,0.3-1,0.3c-0.4,0-0.9-0.2-1.5-0.6c-0.6-0.4-1.3-0.9-2.1-1.4
		c-0.9-0.5-1.9-1-3.1-1.4c-1.2-0.4-2.6-0.6-4.3-0.6c-1.6,0-3,0.2-4.3,0.6c-1.2,0.4-2.3,1-3.1,1.8c-0.8,0.7-1.4,1.6-1.9,2.6
		c-0.4,1-0.6,2.1-0.6,3.2c0,1.5,0.4,2.7,1.1,3.7c0.7,1,1.7,1.8,2.9,2.5c1.2,0.7,2.6,1.3,4.1,1.8s3.1,1,4.7,1.6
		c1.6,0.5,3.1,1.2,4.7,1.8c1.5,0.7,2.9,1.5,4.1,2.6c1.2,1,2.2,2.3,2.9,3.8c0.7,1.5,1.1,3.4,1.1,5.5c0,2.3-0.4,4.5-1.2,6.5
		s-1.9,3.8-3.5,5.3c-1.5,1.5-3.4,2.7-5.6,3.6s-4.7,1.3-7.5,1.3c-3.4,0-6.6-0.6-9.4-1.9c-2.8-1.2-5.2-2.9-7.2-5.1l2.1-3.4
		c0.2-0.3,0.4-0.5,0.7-0.7c0.3-0.2,0.6-0.3,0.9-0.3c0.5,0,1.1,0.3,1.8,0.8c0.7,0.6,1.5,1.2,2.5,1.8c1,0.7,2.2,1.3,3.6,1.8
		s3.2,0.8,5.2,0.8c1.7,0,3.2-0.2,4.6-0.7c1.3-0.5,2.5-1.1,3.4-2c0.9-0.9,1.6-1.9,2.1-3.1c0.5-1.2,0.7-2.5,0.7-4
		c0-1.6-0.4-2.9-1.1-3.9c-0.7-1-1.7-1.9-2.9-2.6c-1.2-0.7-2.5-1.3-4.1-1.8c-1.5-0.5-3.1-1-4.7-1.5s-3.1-1.1-4.7-1.8
		c-1.5-0.7-2.9-1.5-4.1-2.6c-1.2-1.1-2.1-2.4-2.9-4c-0.7-1.6-1.1-3.6-1.1-5.9c0-1.9,0.4-3.7,1.1-5.4c0.7-1.8,1.8-3.3,3.2-4.7
		c1.4-1.4,3.1-2.4,5.1-3.3c2-0.8,4.4-1.2,7-1.2c3,0,5.7,0.5,8.1,1.4c2.4,0.9,4.6,2.3,6.4,4.1L1378,505.9z"/>
	<path d="M1449.3,539.7c0.4,0,0.8,0.2,1.1,0.5l2.8,3.1c-2.2,2.5-4.8,4.5-7.9,5.9c-3.1,1.4-6.8,2.1-11.2,2.1c-3.8,0-7.3-0.7-10.4-2
		s-5.8-3.2-8-5.5s-3.9-5.2-5.1-8.6c-1.2-3.3-1.8-7-1.8-11s0.6-7.7,1.9-11c1.3-3.3,3.1-6.2,5.5-8.6s5.2-4.2,8.4-5.6
		c3.3-1.3,6.9-2,10.8-2c3.9,0,7.3,0.6,10.1,1.8c2.8,1.2,5.3,2.8,7.5,4.9l-2.3,3.3c-0.2,0.2-0.4,0.5-0.6,0.6c-0.2,0.2-0.5,0.2-1,0.2
		c-0.3,0-0.7-0.1-1-0.4c-0.4-0.2-0.8-0.5-1.3-0.9c-0.5-0.3-1.1-0.7-1.7-1.1s-1.5-0.8-2.4-1.1s-2-0.6-3.2-0.9s-2.6-0.4-4.2-0.4
		c-2.8,0-5.4,0.5-7.8,1.5c-2.4,1-4.4,2.4-6.1,4.2c-1.7,1.8-3,4-4,6.6c-1,2.6-1.4,5.5-1.4,8.7c0,3.3,0.5,6.3,1.4,8.8s2.2,4.8,3.9,6.6
		c1.6,1.8,3.6,3.2,5.8,4.1c2.2,0.9,4.7,1.4,7.3,1.4c1.6,0,3-0.1,4.3-0.3s2.4-0.5,3.5-0.9c1.1-0.4,2.1-0.9,3-1.5
		c0.9-0.6,1.9-1.3,2.8-2.2C1448.5,539.9,1448.9,539.7,1449.3,539.7z"/>
	<path d="M1527.6,550.6h-7.2v-24.1h-28.6v24.1h-7.2v-53h7.2v23.6h28.6v-23.6h7.2V550.6z"/>
	<path d="M1569.6,544.6h22.9v6h-30.1v-53h7.2V544.6z"/>
	<path d="M1666,550.6h-5.5c-0.6,0-1.2-0.2-1.6-0.5s-0.7-0.7-0.9-1.2l-5-12.8h-23.8l-5,12.8c-0.2,0.4-0.5,0.8-0.9,1.2
		c-0.4,0.3-0.9,0.5-1.6,0.5h-5.6l21.2-53h7.3L1666,550.6z M1631.2,531h19.8l-8.3-21.6c-0.5-1.3-1.1-3-1.6-5c-0.3,1-0.5,1.9-0.8,2.8
		c-0.3,0.9-0.5,1.6-0.8,2.2L1631.2,531z"/>
	<path d="M1699.7,497.9c0.3,0.2,0.7,0.5,1.1,1l30.7,40c-0.1-0.6-0.1-1.3-0.1-1.9c0-0.6,0-1.2,0-1.8v-37.6h6.3v53h-3.6
		c-0.6,0-1-0.1-1.4-0.3c-0.4-0.2-0.8-0.5-1.1-1l-30.7-39.9c0,0.6,0.1,1.2,0.1,1.8c0,0.6,0,1.1,0,1.6v37.8h-6.3v-53h3.7
		C1698.9,497.6,1699.4,497.7,1699.7,497.9z"/>
	<path d="M1818.4,524.2c0,4-0.6,7.6-1.9,10.8c-1.3,3.3-3,6-5.3,8.4s-5,4.1-8.3,5.4c-3.2,1.3-6.8,1.9-10.7,1.9h-19.8v-53h19.8
		c3.9,0,7.4,0.6,10.7,1.9c3.2,1.3,6,3.1,8.3,5.4c2.3,2.3,4.1,5.1,5.3,8.4C1817.8,516.6,1818.4,520.2,1818.4,524.2z M1811,524.2
		c0-3.3-0.4-6.2-1.3-8.7c-0.9-2.6-2.1-4.7-3.8-6.5c-1.6-1.8-3.6-3.1-5.9-4.1c-2.3-0.9-4.9-1.4-7.7-1.4h-12.6v41.4h12.6
		c2.8,0,5.4-0.5,7.7-1.4s4.3-2.3,5.9-4.1c1.6-1.8,2.9-3.9,3.8-6.5C1810.6,530.3,1811,527.4,1811,524.2z"/>
</g>
</svg>
