<?xml version="1.0" encoding="utf-8"?>
<!-- Generator: Adobe Illustrator 18.1.1, SVG Export Plug-In . SVG Version: 6.00 Build 0)  -->
<svg version="1.1" id="Layer_1" xmlns="http://www.w3.org/2000/svg" xmlns:xlink="http://www.w3.org/1999/xlink" x="0px" y="0px"
	 viewBox="0 0 551 460" enable-background="new 0 0 551 460" xml:space="preserve">
<g>
	<defs>
		<rect id="SVGID_1_" y="79" width="551" height="318"/>
	</defs>
	<clipPath id="SVGID_2_">
		<use xlink:href="#SVGID_1_"  overflow="visible"/>
	</clipPath>
	<path clip-path="url(#SVGID_2_)" fill="#1A171C" d="M84.9,242.6l0.3-33.2l34.1-10.7l-31.5-16.8L87.6,146l57.9,30.8v-25.9h31.3v29.8
		l58.3-18.3l0.3,33.3l-34.2,10.6l31.6,16.8l-0.1,35.9l-55.9-29.7v115.5h-31.3V223.7L84.9,242.6 M154.8,83.8c-0.1,0-0.2,0-0.3,0
		c-1.2,0.2-2.1,2.5-3.1,4c-0.3,0.4,0,1.2-0.2,1.7c-1.3,3.2-2.3,6.6-4,9.7c-1.6,2.9-3.6,5.6-5.9,7.9c-0.8,0.8-1.6,1.1-2.5,1.1
		c-1.5,0-3.1-0.7-4.6-0.9c-3.9-0.4-7.1-2.1-9.6-5.2c-2-2.5-4.1-5-5.9-7.3c-2.1-3.6-5-4.5-5.8-4.5c0,0-0.1,0-0.1,0
		c-2.5,0.2-3.4,2-3.4,4.4c-0.1,3.7-0.3,7.5-0.4,11.2c-0.2,5.8-2.3,10.3-7.9,12.7c-0.8,0.3-1.4,1.2-1.5,1.2c-0.5,0-1,0.1-1.5,0.1
		c-6.8,0-11.6-3.9-16.5-7.3c-0.6-0.4-4.8-4.7-7.5-4.7c-0.4,0-0.8,0.1-1.2,0.4c-2.2,1.6-2.1,3.7-1.5,6.8c1,3.9,1.9,7.2,2.8,10.5
		c1,3.6,0.8,7.1-1.2,10.3c-1.5,2.3-3.3,4.5-5.3,6.2c-0.9,0.8-2.4,1.3-3.6,1.3c-0.3,0-0.6,0-0.9-0.1c-6.2-1.8-12.2-4.1-18.4-5.9
		c-0.3-0.1-0.6-0.1-1-0.1c-1.2,0-2.5,0.5-3.5,1.1c-1.8,1.2-1.2,3.1-0.3,4.7c2.1,3.6,4.2,7.1,6.3,10.7c2.6,4.5,3.1,9.3,0.2,13.4
		c-1.8,2.5-2.6,6.5-7,6.5c-0.3,0-0.7,0-1.1-0.1c-2.5-0.3-5.1-0.4-7.6-0.4c-1.1,0-2.2,0-3.3,0c-1.1,0-2.2,0-3.3,0c-0.7,0-1.5,0-2.2,0
		c-0.2,0-0.4,0-0.6,0c-1.8,0-3.5,0.3-4.3,2.3c-0.9,2.2,0.4,3.6,1.7,4.9c3,2.9,6.1,5.6,9.1,8.5c4,3.9,4.8,9.4,2.9,14.7
		c-2,5.9-8,6.3-12.1,9.4c-0.3,0.3-0.9,0.2-1.4,0.3c-2.5,0.2-5,0.4-7.5,0.7c-1.9,0.3-3.7,0.9-4,3.2c-0.4,2.4,1.1,3.6,3,4.6
		c3.4,1.8,6.8,3.5,10.3,5.2c4.6,2.3,7.2,6.1,7.5,11.2c0.4,5.4-2,9.6-6.6,12.3c-3.5,2.1-7,3.9-10.6,5.9c-1.8,1-3.7,2.4-2.7,4.6
		c0.6,1.4,2.4,2.8,3.9,3.3c3.5,1,7.1,1.5,10.7,2.1c5.3,0.8,9.2,3.4,11.1,8.6c1.8,5.1,0.8,9.7-2.8,13.7c-2.7,3-5.6,5.8-8.4,8.7
		c-1.3,1.4-2.7,2.7-1.6,4.9c0.9,1.9,2.4,2.4,4.1,2.4c0.4,0,0.7,0,1.1-0.1c3.7-0.4,7.5-0.7,11.2-1.1c0.7-0.1,1.4-0.1,2.1-0.1
		c4.2,0,7.7,1.6,10.3,5.2c3.1,4.4,3.5,9.1,1.1,14c-1.8,3.6-3.7,7.2-5.6,10.7c-0.9,1.8-1.6,3.8,0.2,5.1c0.9,0.6,2.2,0.9,3.4,0.9
		c0.5,0,1-0.1,1.4-0.2c3.8-1.1,7.4-2.7,11-4.2c1.9-0.8,3.8-1.1,5.6-1.1c7.7,0,13.9,6.5,12.6,15.2c-0.6,4.2-1.6,8.3-2.4,12.5
		c-0.3,1.9-0.2,4.1,2,4.7c0.4,0.1,0.8,0.2,1.3,0.2c1.1,0,2.4-0.3,3.2-0.9c3-1.9,5.8-4.1,8.5-6.4c2.9-2.5,6-4,9.4-4
		c1.6,0,3.3,0.3,5.1,1.1c5.5,2.2,7.7,6.7,8.2,12.3c0.3,3.6,0.3,7.3,0.9,10.9c0.3,1.4,1.7,3.3,3,3.8c0.2,0.1,0.4,0.1,0.6,0.1
		c1.2,0,2.8-0.9,3.6-1.8c2.6-3,4.8-6.2,7-9.5c2.7-4,6.4-6.1,11-6.1c0.4,0,0.9,0,1.4,0.1c5.2,0.5,8.9,3.4,10.9,8.3
		c1.5,3.7,2.7,7.6,4.5,11.2c0.7,1.3,2.4,2.6,3.8,3c0.2,0.1,0.5,0.1,0.7,0.1c1.6,0,2.5-1.5,3.1-3.1c1.3-3.6,2.4-7.3,3.9-10.8
		c0.7-1.8,1.6-3.7,2.8-5.1c2.6-3,6.2-4.5,9.8-4.5c3.4,0,6.8,1.4,9.3,4.1c3.1,3.3,5.5,7.2,8.6,10.5c1,1.1,2.9,1.7,4.4,1.7
		c0.1,0,0.1,0,0.2,0c2.1-0.1,2.6-2,2.7-4c0.1-3.2,0.5-6.5,0.5-9.7c0-6.1,2.2-10.8,7.7-13.5c1.9-0.9,3.8-1.4,5.7-1.4
		c3.1,0,6.1,1.3,9,3.4c2.5,1.9,5,3.8,7.5,5.7c1.2,0.9,2.4,1.7,3.7,1.7c0.7,0,1.4-0.2,2.2-0.7c2.2-1.4,1.7-3.6,1.3-5.6
		c-0.7-3.2-1.5-6.3-2.3-9.5c-1.4-5.3-0.6-10,3.4-13.9c2.7-2.5,5.7-3.7,8.9-3.7c1.7,0,3.5,0.3,5.3,1c3.6,1.3,7.2,2.6,10.8,3.9
		c0.7,0.2,1.3,0.4,1.9,0.4c1.1,0,2-0.4,2.9-1.5c1.3-1.5,1.1-3,0.2-4.6c-1.8-3.1-3.5-6.2-5.3-9.2c-2.9-4.7-3.6-9.6-0.8-14.5
		c2.8-4.7,7-6.7,12.2-6.7c0.3,0,0.7,0,1,0c3.3,0.2,6.7,0.4,10,0.6c0.4,0,0.9,0,1.3,0c1.8,0,3.5-0.4,4.4-2.6c1.1-2.5-0.7-3.8-2.2-5.3
		c-2.2-2.1-4.4-4.2-6.7-6.2c-4.2-3.7-6.1-8.1-4.9-13.7c1.3-5.7,5.2-8.8,10.7-10.2c3.4-0.8,6.9-1.6,10.4-2.4c2.2-0.5,4.1-1.3,4.3-3.8
		c0.3-2.5-1.5-3.7-3.5-4.6c-3.2-1.6-6.4-3-9.5-4.7c-9.6-5.1-10-17.6-0.8-23.3c3.4-2.1,7-4,10.5-6c1.8-1.1,3.5-2.6,2.6-4.7
		c-0.6-1.4-2.4-2.8-4-3.2c-3.3-1-6.7-1.4-10.1-1.9c-5.5-0.8-9.4-3.5-11.1-8.9c-1.7-5.2-0.4-9.9,3.4-13.9c2.6-2.7,5.2-5.4,7.8-8.1
		c1.5-1.6,2.6-3.3,1.5-5.5c-0.8-1.8-2.2-2.2-3.7-2.2c-0.5,0-1.1,0-1.6,0.1c-3.1,0.3-6.3,0.7-9.4,1.2c-1.1,0.2-2.2,0.3-3.2,0.3
		c-4.1,0-7.5-1.7-10.2-5.2c-3.5-4.6-3.5-9.7-0.9-14.8c1.7-3.3,3.4-6.6,5.1-10c1-1.9,1.7-3.8-0.1-5.7c-0.9-1-1.8-1.3-2.8-1.3
		c-0.9,0-1.9,0.3-2.9,0.8c-3.4,1.5-6.9,2.9-10.3,4.5c-1.7,0.8-3.4,1.1-5,1.1c-2.1,0-4.1-0.6-6.1-1.6c-5-2.7-7.7-7.9-6.8-13.6
		c0.7-4.3,1.6-8.5,2.3-12.8c0.3-2,0.4-3.9-1.8-5.2c-0.7-0.4-1.4-0.6-2-0.6c-1.1,0-2.2,0.6-3.1,1.4c-1.2,1.1-2.5,2.2-3.4,3.6
		c-3.3,4.9-6.9,7.2-11.7,7.2c-1.6,0-3.3-0.2-5.2-0.7c-6-1.5-9.5-5.9-10.3-12.9c-0.5-4.2-0.8-8.4-1.5-12.6c-0.2-1.1-1.7-2.5-2.8-2.8
		c-0.2,0-0.3-0.1-0.5-0.1c-1,0-2.4,0.6-3,1.4c-2.7,3.5-5.4,7-7.6,10.8c-2,3.5-5.1,4.6-8.5,5.3c-0.9,0.2-1.7,0.2-2.5,0.2
		c-5.1,0-9.4-2.9-11.7-7.8c-1.9-4.2-3.4-8.6-5.6-12.7C158.1,85.1,156.1,83.8,154.8,83.8"/>
	<polygon clip-path="url(#SVGID_2_)" fill="#1A171C" points="329.2,149.4 320.6,149.4 320.6,137.4 353.3,137.4 353.3,149.4 
		344.8,149.4 344.8,226.4 329.2,226.4 	"/>
	<path clip-path="url(#SVGID_2_)" fill="#1A171C" d="M397.1,226.4h-15.6v-32.5c0-1.7-1.3-2.7-2.5-2.7h-2.5v35.2h-15.5v-89h22.9
		c9,0,13.2,3.9,13.2,14.2v19.7c0,9-2.6,12.9-8.6,14c6,1,8.6,5,8.6,13.9V226.4z M381.5,151.6c0-1.9-1.2-2.8-2.4-2.8h-2.6v30.8h2.5
		c1.2,0,2.5-1,2.5-2.7V151.6z"/>
	<path clip-path="url(#SVGID_2_)" fill="#1A171C" d="M413.4,137.4h23.5l8.5,89h-14.9l-1.7-22.4h-7.6l-1.6,22.4h-15L413.4,137.4z
		 M422,191.9h5.9l-3-39.2L422,191.9z"/>
	<polygon clip-path="url(#SVGID_2_)" fill="#1A171C" points="468,226.4 452.5,226.4 452.5,137.4 479.7,137.4 479.7,149.4 468,149.4 
		468,175.1 478.6,175.1 478.6,187.1 468,187.1 	"/>
	<path clip-path="url(#SVGID_2_)" fill="#1A171C" d="M523.6,213.1c0,10.6-3.6,14.2-12.4,14.2h-10.7c-9,0-13.1-4-13.1-14.2v-62.7
		c0-10.6,3.6-14.2,12.2-14.2h10.7c9,0,13.2,3.9,13.2,14.2V213.1z M507.9,150.4c0-1.9-1.2-2.8-2.4-2.8s-2.6,1-2.6,2.8v62.7
		c0,1.7,1.3,2.7,2.5,2.7s2.5-1,2.5-2.7V150.4z"/>
	<path clip-path="url(#SVGID_2_)" fill="#1A171C" d="M337.8,303.7v33h-15.5v-89h22.9c9,0,13.2,3.9,13.2,14.2v28.4
		C358.4,301.8,354.5,303.7,337.8,303.7 M342.8,261.9c0-1.9-1.2-2.8-2.4-2.8h-2.6v33h2.5c1.2,0,2.5-1,2.5-2.7V261.9z"/>
	<path clip-path="url(#SVGID_2_)" fill="#1A171C" d="M403.4,323.4c0,10.6-3.6,14.2-12.4,14.2h-10.7c-9,0-13.1-4-13.1-14.2v-62.7
		c0-10.6,3.6-14.2,12.2-14.2h10.7c9,0,13.2,3.9,13.2,14.2V323.4z M387.7,260.7c0-1.9-1.2-2.8-2.4-2.8s-2.6,1-2.6,2.8v62.7
		c0,1.7,1.3,2.7,2.5,2.7s2.5-1,2.5-2.7V260.7z"/>
	<path clip-path="url(#SVGID_2_)" fill="#1A171C" d="M428.2,303.7v33h-15.5v-89h22.9c9,0,13.2,3.9,13.2,14.2v28.4
		C448.8,301.8,444.9,303.7,428.2,303.7 M433.2,261.9c0-1.9-1.2-2.8-2.4-2.8h-2.6v33h2.5c1.2,0,2.5-1,2.5-2.7V261.9z"/>
</g>
</svg>
