<?xml version="1.0" encoding="utf-8"?>
<!-- Generator: Adobe Illustrator 23.0.3, SVG Export Plug-In . SVG Version: 6.00 Build 0)  -->
<svg version="1.1" id="Layer_1" xmlns="http://www.w3.org/2000/svg" xmlns:xlink="http://www.w3.org/1999/xlink" x="0px" y="0px"
	 viewBox="0 0 383 389" style="enable-background:new 0 0 383 389;" xml:space="preserve">
<style type="text/css">
	.st0{fill:#FFFFFF;}
	.st1{fill:none;}
</style>
<path class="st0" d="M88.9,70.2l0.3,2l0,0.3c28.5-22.3,64.3-35.6,103-35.6c28.1,0,54.7,7,78,19.4c0.5-1,1.2-1.9,2-2.7
	c-23.9-12.7-51.1-20-80-20c-40,0-76.7,13.8-105.9,37l0.5-0.1L88.9,70.2z"/>
<path class="st0" d="M92.1,100.8c27.1-26.1,62.7-40.5,100.1-40.5c28.9,0,56.8,8.6,80.4,24.5c0.4-2.6,0.8-5.3,1.1-7.9h-0.1l-2-0.2
	l0.2-2l0.1-1.2l0.1-1.2l0.2-2h0.4c-2.6-2.6-4-6.2-3.6-9.9c0-0.3,0.1-0.6,0.1-0.9c-23.5-12.6-49.8-19.2-77.1-19.2
	c-37.5,0-73.2,12.6-102.3,35.9l0.2,1.1l0.1,0.8c0.2,1.3-0.3,2.7-1.2,3.6l3,19.3C91.9,100.9,92,100.9,92.1,100.8"/>
<path class="st0" d="M77.7,79.6c0.1,1.1,1,1.8,2,1.9c2.8,17.1,5.7,34.3,8.5,51.4H88c-1.5,0.3-2.5,1.7-2.2,3.3c0.1,0.4,0.1,0.7,0.2,1
	c-1.8,0.3-3.5,0.6-5.3,0.9c0.1,0.8,0.3,1.6,0.4,2.4c0.9-0.1,1.7-0.3,2.5-0.4c1,5.6,2,11.3,3,16.9c-0.2,0-0.3,0.1-0.5,0.1
	c-0.7-3.8-1.3-7.5-2-11.3c-1.8,0.3-3.6,0.7-5.4,1c-0.1-1-0.3-1.9-0.5-2.9c-2.1,0.4-4.2,0.8-6.3,1.2c-0.2-1.3-0.5-2.5-0.7-3.7
	c-1.5,0.3-3,0.6-4.5,0.9c0.4,2,0.8,4,1.2,6c-1.2,0.2-2.4,0.4-3.6,0.7c0.8,3.8,1.6,7.5,2.4,11.2c-2.2,0.4-4.4,0.9-6.6,1.4
	c0.5,2.5,1.1,4.9,1.6,7.4h-0.2c0.5,2,0.9,4,1.4,6c42.5-9.6,85.9-14.4,129.2-14.4c43.3,0,86.7,4.8,129.2,14.4c0.5-2,0.9-4.1,1.4-6.1
	c2.3-10.4,4.7-20.9,7-31.4c-0.7-0.2-1.4-0.3-2.1-0.5c0.2-0.7,0.3-1.4,0.5-2.1c-1.4-0.3-2.7-0.6-4.1-0.9c-0.2,0.8-0.3,1.6-0.5,2.4
	c-2.9,1-5.8,2.1-8.6,3.1c-0.7,3.5-1.4,7.1-2.1,10.6c-1.1-0.3-2.3-0.5-3.4-0.7c0.4-1.7,0.7-3.3,1-5c-0.9-0.2-1.8-0.3-2.7-0.5
	c0.2-1.2,0.5-2.5,0.7-3.7c-5-5.3-10-10.5-15.3-15.6c-1.1,5.4-2.2,10.8-3.3,16.2c-1.1-0.2-2.1-0.3-3.2-0.5c-0.1,0.8-0.3,1.6-0.4,2.4
	c-0.9-0.1-1.8-0.3-2.7-0.4c0.3-2.3,0.7-4.5,1-6.7c-2.7-0.4-5.3-0.7-7.8-1.1c-0.3,2.4-0.7,4.9-1,7.3h-0.3c2.6-22,5.1-44,7.5-66
	c0.7,0.1,1.4,0.2,2.1,0.3c0.1-0.8,0.2-1.6,0.3-2.4c-0.8-0.1-1.7-0.2-2.5-0.3c0.1-0.7,0.2-1.3,0.3-2c4.1-0.9,7.4-4.1,8-8.4
	c0.6-4.3-1.8-8.4-5.6-10.3c0.2-1.2,0.3-2.4,0.5-3.6c0.4,0.1,0.9,0.1,1.3,0.2c0.1-0.5,0.1-1,0.2-1.5c-0.9-0.2-1.8-0.3-2.7-0.4
	c0.1-1,0.3-2.1,0.4-3.1c-0.1-0.1-0.3-0.1-0.4-0.1c0.1-0.6-0.3-1.3-0.9-1.6c1.7-13.2,3.4-26.3,5.1-39.5c0-0.2-0.2-0.5-0.5-0.5h-0.4h0
	c-0.3,0-0.5,0.2-0.5-0.1c-1.6,13.2-3.3,26.3-5,39.5c-0.7,0.2-1.2,0.7-1.3,1.4c-0.1-0.1-0.3-0.1-0.4-0.1c-0.1,1-0.3,2.1-0.4,3.1
	c-0.9-0.1-1.8-0.2-2.7-0.3c-0.1,0.5-0.1,1-0.2,1.5c0.4,0.1,0.9,0.1,1.3,0.2c-0.2,1.3-0.3,2.5-0.5,3.7c-4.2,0.9-7.4,4.3-7.9,8.6
	c-0.5,4.3,2,8.3,5.7,10.2c0,0.7-0.1,1.3-0.2,2c-0.8-0.1-1.7-0.2-2.5-0.3c-0.1,0.8-0.2,1.6-0.3,2.4c0.7,0.1,1.4,0.2,2.1,0.3
	c-2.8,19.6-5.6,39.2-8.3,58.8c-2.8-0.4-5.6-0.7-8.3-1c0.3-2.8,0.6-5.7,0.9-8.5c-5.9-0.7-11.7-1.2-17.6-1.7c-1,0.1-2.1,0.2-3.1,0.3
	c-0.7,10.9-1.5,21.9-2.3,32.8c-1.7,0-3.4,0.1-5.1,0.1c-0.7,0-1.5-0.1-2.3-0.1c0.2-2.6,0.3-5.1,0.5-7.7c-0.5,0-1.1-0.1-1.6-0.1
	c0.3-5,0.6-10.1,0.9-15.1h-0.4c0.5-1.1,0.9-2.2,1.4-3.3c0.9,0.1,1.7,0.1,2.6,0.2c0-0.6,0.1-1.3,0.1-1.9c-0.8-0.1-1.7-0.1-2.5-0.2
	c0.1-1.7,0.2-3.5,0.3-5.2c0.7,0,1.4,0.1,2.1,0.1c1.6-2.3,3.2-4.5,4.8-6.8c0.1-0.9,0.1-1.7,0.2-2.6c-3-0.2-6-0.4-8.9-0.6
	c0.1-1.8,0.2-3.5,0.3-5.3h0.1c0.7-1.2,1.3-2.5,2-3.8c0.9,0.1,1.8,0.1,2.7,0.2c0-0.5,0.1-1.1,0.1-1.6c-12.6-0.8-25.3-1.2-37.9-1.3V97
	h-3.8h-3.3v-0.2c-0.2-0.4-1.1-0.2-1.5-0.4c-0.4-0.2-0.2-2,0.3-2.4s0.2-1.5,1.4-1.5c1.1,0,1.1,1.8,1.2,2.5c0.1,0.7-0.6,1.2-0.3,1.6
	c0.1,0.1,0.1,0.1,0.2,0.1c0.3,0,0.7-0.8,0.9-2c0.2-1.5-0.3-2.2-0.5-2.8c-0.2-0.6,0.5-1.9,0.3-2.8c-0.2-0.9-0.7-1.2-0.7-1.6
	c0-0.2,0.1-0.2,0.3-0.2h0.2c0.3,0,0.6,0,0.8-0.3c0.5-0.5-0.2-1.1-0.3-1.5c-0.1-0.3,0.6-1,0.7-1.6c0.1-0.6-0.8-1.5-1.9-1.7h-0.1
	c-1.1,0-3,5-3.4,6c-0.4,1-1.8,0.2-2.5,1c-0.5,0.5-0.4,1-0.2,1.8c-0.6,0.1-1.3,0.3-1.9,0.5c-1.3-2.7-4-4.5-7.1-4.6
	c-0.1-0.8-0.1-1.5-0.1-2.3c1-0.3,1.7-1.2,1.7-2.3s-0.8-2-1.8-2.2v-1c0.2,0,0.4-0.1,0.6-0.3c1.2-1.3,2.4-2.6,3.6-3.8
	c0.5-0.5,0.5-1.2,0-1.7c-0.3-0.2-0.6-0.3-0.9-0.3c-0.3,0-0.7,0.1-0.9,0.4c-1.1,1.1-2.1,2.1-3.1,3.2c-1-1-2.1-2-3.2-3
	c-0.2-0.2-0.5-0.3-0.8-0.3c-0.3,0-0.7,0.1-0.9,0.4c-0.4,0.5-0.4,1.2,0.1,1.7c1.3,1.2,2.5,2.4,3.8,3.6c0.2,0.2,0.5,0.3,0.7,0.3v1
	c-1,0.3-1.7,1.2-1.7,2.3c0,1.1,0.8,2,1.8,2.2c0.1,0.8,0.1,1.5,0.1,2.3c-3.1,0.2-5.7,2.2-6.9,4.9c-0.6-0.1-1.3-0.3-1.9-0.4
	c0.1-0.8,0.2-1.3-0.3-1.8c-0.3-0.4-0.7-0.4-1.1-0.4h-0.5c-0.4,0-0.8-0.1-1-0.5c-0.4-0.9-2.6-5.8-3.7-5.8h-0.1
	c-1.1,0.3-2,1.2-1.8,1.8c0.2,0.6,0.9,1.2,0.8,1.6c-0.1,0.3-0.7,1-0.2,1.5c0.2,0.2,0.5,0.2,0.7,0.2h0.4c0.2,0,0.3,0.1,0.3,0.2
	c0,0.4-0.5,0.8-0.6,1.7c-0.1,0.9,0.6,2.2,0.5,2.8c-0.1,0.6-0.7,1.3-0.4,2.8c0.2,1.2,0.7,1.9,1,1.9c0.1,0,0.2,0,0.2-0.1
	c0.2-0.4-0.5-0.8-0.4-1.5c0-0.7-0.1-2.6,1.1-2.6c1.1,0,0.9,1,1.4,1.4c0.5,0.4,0.8,2.2,0.4,2.4c-0.4,0.2-1.3,0-1.5,0.4v0.2
	c-2.3,0.1-4.7,0.3-7.1,0.4c0.1,1.1,0.1,2.3,0.2,3.4c-12.6,0.8-25.2,1.9-37.8,3.4c0.1,0.5,0.1,1.1,0.2,1.6c0.9-0.1,1.8-0.2,2.7-0.3
	c0.8,1.2,1.5,2.5,2.2,3.7h0.1c0.2,1.8,0.4,3.5,0.6,5.3c-3,0.4-6,0.7-8.9,1.1c0.1,0.9,0.2,1.7,0.3,2.6c1.8,2.2,3.5,4.3,5.2,6.5
	c0.7,0,1.4-0.1,2.1-0.2c0.2,1.7,0.4,3.5,0.6,5.2c-0.8,0.1-1.7,0.2-2.5,0.3c0,0.6,0.1,1.3,0.2,1.9c0.9-0.1,1.7-0.2,2.6-0.3
	c0.3,0.7,0.6,1.3,0.9,1.9c-4.3,0.5-8.4,1-12.7,1.6c1,8,2.1,16,3.2,24c-1.2,0.2-2.3,0.3-3.5,0.5c-0.2-1.4-0.4-2.9-0.6-4.3
	c-0.1-0.9-0.2-1.7-0.3-2.5c-1.3,0.2-2.5,0.3-3.8,0.5c-0.8-5.7-1.7-11.3-2.5-17c0.9-0.2,1.7-0.3,2.5-0.4c-0.2-0.9-0.3-1.7-0.4-2.5
	c-1.9,0.2-3.7,0.5-5.6,0.8c0-0.4-0.1-0.7-0.1-1c-0.2-1.4-1.4-2.4-2.7-2.4h-0.4h-0.2c-2.7-17.2-5.4-34.3-8-51.5
	c0.9-0.4,1.5-1.4,1.3-2.4c0-0.2-0.1-0.5-0.1-0.8c-0.3-1.7-0.5-3.4-0.8-5.1c-0.6,0.1-1.1,0.2-1.7,0.3c-0.5,0.1-1.1,0.2-1.6,0.3
	c-0.3-1.4-0.5-2.8-0.7-4.2c0-0.1-0.1-0.3-0.1-0.4c0.3,0.1,0.5,0.1,0.8,0.1c0.8,0,1.7-0.4,2.3-1.1c1-1.3,0.8-3-0.5-4
	c-1.1,1.4-2.2,2.7-3.3,4.1c-0.2-0.1-0.4-0.2-0.6-0.3c0.1-0.2,0.1-0.5,0.1-0.7c-0.1-0.6-0.6-1-1.2-1h-0.2c-0.6,0.1-1.1,0.8-1,1.4
	c0,0.2,0.1,0.4,0.3,0.6c-0.2,0.1-0.4,0.3-0.5,0.5c-1.4-0.9-2.9-1.9-4.4-2.8c-0.9,1.3-0.5,3,0.8,3.9c0.5,0.4,1,0.5,1.6,0.5
	c0.6,0,1.2-0.2,1.7-0.5v0.4c0.2,1.4,0.5,2.8,0.7,4.2c-0.5,0.1-1.1,0.2-1.6,0.3c-0.6,0.1-1.1,0.2-1.7,0.3c0.3,1.7,0.6,3.4,0.9,5.1
	C77.6,79,77.7,79.3,77.7,79.6 M209.5,123.1c0-0.6,0.5-1,1-1c3.3,0.1,6.6,0.3,9.8,0.4c0.5,0,0.9,0.5,0.9,1.1
	c-0.5,10.2-0.9,20.3-1.4,30.4c0,0.2-0.1,0.3-0.1,0.4c-3.7-0.2-7.3-0.3-10.9-0.5c-0.1-0.2-0.1-0.3-0.1-0.4
	C208.9,143.3,209.2,133.2,209.5,123.1 M192.5,122.9c0-0.5,0.5-1,1-1c3.3,0,6.6,0,9.8,0.1c0.6,0.1,1,0.5,1,1.1
	c-0.2,10.1-0.4,20.3-0.6,30.4c0,0.2-0.1,0.3-0.1,0.4c-3.7-0.1-7.3-0.1-11-0.2c-0.1-0.2-0.1-0.3-0.1-0.4L192.5,122.9L192.5,122.9z
	 M167.1,121.2c5.9-0.3,11.8-0.4,17.7-0.5c0.6,0,1,0.4,1,1c0.1,10.7,0.2,21.4,0.3,32.1c-6.2,0.1-12.4,0.2-18.6,0.5
	c-0.5-10.7-0.9-21.4-1.3-32C166.1,121.7,166.6,121.2,167.1,121.2 M146.5,123.6c3.3-0.2,6.6-0.4,9.8-0.6h0.1c0.5,0,1,0.4,1,1
	c0.6,10.1,1.1,20.2,1.7,30.3c0.1,0.2,0,0.3,0,0.4c-3.7,0.2-7.3,0.4-11,0.7c0-0.1,0-0.2-0.3-0.4c-0.7-10.1-1.5-20.2-2.2-30.3
	C145.6,124.1,146,123.6,146.5,123.6 M129.1,125.8c3.2-0.3,6.5-0.6,9.7-0.9h0.1c0.5,0,1,0.5,1,1c0.8,10.1,1.7,20.2,2.5,30.3v0.4
	c-3.7,0.3-7.3,0.6-11,1c-0.1-0.1-0.1-0.2-0.1-0.5c-1-10-2.1-20.1-3.1-30.2C128.2,126.4,128.6,125.9,129.1,125.8"/>
<rect x="192.3" y="336.4" transform="matrix(0.477 -0.8789 0.8789 0.477 -195.2454 345.056)" class="st0" width="0.1" height="0.3"/>
<polygon class="st0" points="192.4,336.9 192.4,336.9 192.4,336.9 192.5,336.8 192.4,336.8 192.4,336.7 192.2,336.6 192.1,336.7 
	192.2,336.7 192.2,336.7 192.1,336.7 192.1,336.7 191.7,336.6 191.6,336.6 191.5,336.7 191.5,336.8 192.8,337.5 192.9,337.5 
	192.9,337.4 192.5,337 "/>
<path class="st0" d="M252.7,195c-0.1-0.1-0.2-0.4-0.6-0.5c-0.4-0.1-0.6,0.1-0.8,0.5c-1.7,4.3-2.6,6.5-4.3,10.7
	c3,0.3,4.5,0.4,7.5,0.8C253.9,201.9,253.5,199.6,252.7,195"/>
<path d="M133.6,359.4c-0.6-0.3-0.9-0.4-1.5-0.6c-0.8,2.4-1.2,3.7-2,6.1c0.8,0.3,1.3,0.4,2.1,0.7c1.2,0.4,2.1,0.1,2.5-1.4
	c0.2-0.7,0.3-1,0.5-1.7C135.8,360.6,135.3,359.9,133.6,359.4"/>
<path d="M136.3,351.2c-0.6-0.2-1-0.3-1.6-0.5c-0.7,2.1-1,3.2-1.7,5.3c0.5,0.2,0.8,0.3,1.4,0.4c1.3,0.4,2.3,0.1,2.7-1.5
	c0.1-0.4,0.2-0.7,0.3-1.1C137.8,352.4,137.5,351.6,136.3,351.2"/>
<path class="st0" d="M126.6,250.6c-2.6,0-4,1.6-4,4.3v8.9c0,2.7,1.4,4.3,4,4.3s4-1.6,4-4.3v-5.4h-3.8v2.5h1.2v3.1
	c0,1.3-0.5,1.7-1.4,1.7s-1.4-0.5-1.4-1.7v-9.2c0-1.2,0.5-1.7,1.4-1.7s1.4,0.5,1.4,1.7v1.8h2.6v-1.7
	C130.6,252.2,129.2,250.6,126.6,250.6"/>
<polygon class="st0" points="135,250.8 132.3,250.8 132.3,267.8 139.3,267.8 139.3,265.4 135,265.4 "/>
<path class="st0" d="M148.4,263.8v-8.9c0-2.7-1.5-4.3-4.1-4.3c-2.7,0-4.1,1.6-4.1,4.3v8.9c0,2.7,1.5,4.3,4.1,4.3
	C147,268.1,148.4,266.5,148.4,263.8 M145.7,264c0,1.2-0.5,1.7-1.4,1.7s-1.4-0.5-1.4-1.7v-9.2c0-1.2,0.5-1.7,1.4-1.7s1.4,0.5,1.4,1.7
	V264z"/>
<path class="st0" d="M158.3,263.8v-1.4c0-1.8-0.6-3.1-2-3.7c1.2-0.5,1.7-1.6,1.7-3.4v-0.6c0-2.6-1.2-3.9-4-4h-4v17.1h4.2
	C156.9,267.8,158.3,266.4,158.3,263.8 M152.8,253.3v-0.1h1.2c1,0,1.4,0.6,1.4,1.8v1c0,1.4-0.6,1.8-1.6,1.8h-1L152.8,253.3
	L152.8,253.3z M152.8,260.2v-0.1h1.2c1.2,0,1.7,0.5,1.7,2.1v1.5c0,1.3-0.5,1.7-1.4,1.7h-1.5V260.2z"/>
<path class="st0" d="M162.1,264.8h3.3l0.5,3.1h2.7l-2.9-17.1h-3.9l-2.7,17.1h2.5L162.1,264.8z M163.8,253.9l1.3,8.6h-2.6
	L163.8,253.9z"/>
<polygon class="st0" points="176.8,265.4 172.4,265.4 172.4,250.8 169.7,250.8 169.7,267.8 176.8,267.8 "/>
<polygon class="st0" points="183.9,255.7 185.9,267.8 188.4,267.8 190.3,255.6 190.3,267.9 192.8,267.9 192.8,250.8 189.1,250.8 
	187.3,262.9 185.3,250.7 181.7,250.7 181.7,267.8 183.9,267.8 "/>
<path class="st0" d="M198.6,268.1c2.7,0,4.1-1.6,4.1-4.3v-8.9c0-2.7-1.5-4.3-4.1-4.3c-2.7,0-4.1,1.6-4.1,4.3v8.9
	C194.6,266.5,196,268.1,198.6,268.1 M197.2,254.8c0-1.2,0.5-1.7,1.4-1.7s1.4,0.5,1.4,1.7v9.2c0,1.2-0.5,1.7-1.4,1.7
	s-1.4-0.5-1.4-1.7V254.8z"/>
<polygon class="st0" points="210.2,267.9 212.8,250.8 210.3,250.8 208.4,264.7 206.4,250.8 203.7,250.8 206.3,267.9 "/>
<polygon class="st0" points="221.4,265.4 216.8,265.4 216.8,260.4 220.5,260.4 220.5,258 216.8,258 216.8,253.1 221.4,253.1 
	221.4,250.7 214.1,250.7 214.1,267.8 221.4,267.8 "/>
<polygon class="st0" points="225.3,255.7 227.3,267.8 229.7,267.8 231.6,255.6 231.6,267.9 234.1,267.9 234.1,250.8 230.4,250.8 
	228.6,262.9 226.7,250.7 223.1,250.7 223.1,267.8 225.3,267.8 "/>
<polygon class="st0" points="243.3,265.4 238.7,265.4 238.7,260.4 242.4,260.4 242.4,258 238.7,258 238.7,253.1 243.3,253.1 
	243.3,250.7 236.1,250.7 236.1,267.8 243.3,267.8 "/>
<polygon class="st0" points="247.4,255.5 250.8,267.9 253.5,267.9 253.5,250.8 251.2,250.8 251.2,261 248.4,250.8 245,250.8 
	245,267.9 247.4,267.9 "/>
<polygon class="st0" points="257.3,267.8 260,267.8 260,253.2 262.8,253.2 262.8,250.8 254.5,250.8 254.5,253.2 257.3,253.2 "/>
<rect x="-0.2" class="st1" width="383" height="382"/>
<g>
	<path class="st0" d="M141.2,361.3l-2.3-0.8l-1.8,5.3l2.4,0.8c1.5,0.5,2.6-0.2,3.2-2C143.3,363,142.7,361.8,141.2,361.3z"/>
	<path class="st0" d="M144.5,357.8c0.6-1.8-0.4-2.6-1.8-3l-1.7-0.6l-1.5,4.6l1.9,0.6C143,359.9,144.1,359.2,144.5,357.8z"/>
	<path class="st0" d="M166,360.5l-2.2-0.4l-0.9,5.2l2,0.3c1.6,0.3,2.7-0.5,3-2.2C168.2,361.8,167.7,360.8,166,360.5z"/>
	<path class="st0" d="M223.3,359.9c-1.7,0.3-1.9,2.1-1,6.7c0.9,4.6,1.7,6.2,3.4,5.8s1.9-2.1,1-6.7
		C225.8,361.1,225,359.5,223.3,359.9z"/>
	<path class="st0" d="M244.6,354.2c-1.5,0.5-1.5,2.2-0.9,4c0.7,2.1,1.8,3.1,3.1,2.6c1.8-0.6,1.6-2.3,0.9-4.1
		C247.2,354.8,246.1,353.7,244.6,354.2z"/>
	<path class="st0" d="M383,195.9c-6.9-2.3-13.8-4.4-20.8-6.5c-4.9-50.6-31.5-94.9-70.4-123.1c-0.4,1-1,2-1.7,2.9
		c37.6,27.5,63.6,70.3,68.8,119.3c-1.3-0.4-2.7-0.8-4-1.1c-4.3-38.2-21.4-73.5-49.2-100.5c-5.7-5.6-11.8-10.7-18.1-15.3
		c-0.3,0.2-0.6,0.4-0.9,0.6l0.4,0.1l-0.3,2l-0.3,2.4l-0.3,2l-2-0.3h-0.1c-0.6,4.8-1.1,9.6-1.7,14.4c3.3,2.7,6.4,5.5,9.5,8.5
		c10.7,10.4,19.6,22.3,26.6,35.1c0.6-0.2,1.3-0.5,1.9-0.7l0.3-1.3l0.4-2l2,0.4c1.4,0.3,2.7,0.6,4.1,0.9l2,0.4l-0.4,2v0.1h0.2l2,0.4
		l-0.4,2l-3.5,15.7l-0.1,0.7c3.2,8.7,5.7,17.7,7.2,27c-94.5-23-191-23-285.5,0c4.3-26.1,15.6-50.4,32.8-70.6l-4.2-24.8
		c-27.9,27-45.1,62.5-49.4,100.8c-1.2,0.3-2.5,0.7-3.7,1c4.3-41.3,23.5-78.2,52-105.3c-0.8-0.6-1.4-1.6-1.6-2.6l-0.1-0.3
		c-29.6,27.9-49.4,66.3-53.6,109.1c-7,2-13.9,4.2-20.9,6.5c6.6,21.4,13.2,43,19.8,64.4v0l10.5,4.8c15.2,42.4,46.5,77.1,86.4,96.7
		c-1.1,2.8-2.2,5.5-3.2,8.3c53,19.4,105.5,19.4,158.6,0c-1.2-3.1-2.4-6.2-3.6-9.3c38.9-19.8,69.4-54,84.5-95.7l10.4-4.7l0,0
		c0,0,0,0,0,0C369.9,238.6,376.5,217.2,383,195.9z M298,225.6c2.3-11.4,3.4-17.1,5.7-28.5c0.1-0.4,0.6-0.6,1.2-0.6
		c2.7,0.6,4.1,0.9,6.9,1.4c0.6,0.1,0.9,0.6,0.9,1c-1.2,5.1-1.7,7.7-2.8,12.8c5.6-4.3,8.5-6.3,14.3-10.5c0.4-0.3,0.7-0.4,1.3-0.2
		c3.2,0.8,4.8,1.2,7.9,2c0.6,0.1,0.8,0.4,0.7,0.6c0,0.4-0.2,0.6-0.3,0.8c-6.3,4.1-9.4,6.2-15.6,10.5c3.2,6.3,5,9.7,8.4,17.3
		c0.1,0.2,0.1,0.4,0.1,0.5c-0.1,0.3-0.4,0.4-0.8,0.2c-3.4-0.9-5.1-1.3-8.4-2.2c-0.6-0.1-0.8-0.4-0.9-0.8c-2.8-6.3-4.3-9.4-7.1-15.6
		c-1.2,5.2-1.7,7.9-2.9,13.1c-0.1,0.4-0.6,0.7-1.2,0.6c-2.6-0.6-3.9-0.8-6.6-1.4C298.2,226.5,297.9,226,298,225.6z M270.9,208.6
		c0.3-2,0.4-3.1,0.8-5.1c1.4-9.7,9.4-11.8,17.6-10.4c3.8,0.6,6.7,1.7,7.6,2.2c0.7,0.3,1.2,0.6,0.9,1.2c-0.3,1.5-0.5,2.3-0.7,3.9
		c-0.1,0.5-0.4,0.8-1.2,0.6c-0.1,0-0.1,0-0.1-0.1c-2-0.5-4.8-1.2-7.6-1.7c-3.6-0.6-6.7,0.4-7.5,5.8c-0.4,2-0.5,3-0.8,5.1
		c-0.9,5.4,1.7,7.4,5.2,7.9c2.8,0.5,5.6,0.8,7.5,1c0.1,0,0.1,0,0.1,0.1c0.6,0.1,0.9,0.5,0.8,0.9c-0.3,1.6-0.4,2.4-0.8,3.9
		c-0.1,0.6-0.6,0.7-1.3,0.7c-1.2,0.1-4.1-0.1-7.5-0.6C276.3,222.7,269.5,218.4,270.9,208.6z M234,216.5c3.8-10,5.8-14.9,9.9-24.8
		c1.6-3.8,5.6-4.1,9.2-3.7c3.7,0.4,7.4,1.5,8.2,5.6c1.9,10.5,2.7,15.8,4.3,26.4c0,0.1,0.1,0.1,0,0.2c-0.2,0.5-0.5,0.6-1,0.5
		c-2.8-0.4-4.3-0.6-7.1-0.9c-0.5-0.1-0.9-0.4-0.9-0.9c-0.4-2.7-0.6-4.2-1-6.9c-4.2-0.5-6.3-0.7-10.4-1.2c-1,2.6-1.5,3.9-2.5,6.6
		c-0.1,0.4-0.6,0.7-1.1,0.6c-2.9-0.3-4.3-0.4-7-0.6c-0.5-0.1-0.9-0.3-0.8-0.7C233.9,216.6,234,216.6,234,216.5z M200.2,185.8
		c0-0.4,0.5-0.8,1.1-0.8c2.8,0.1,4.3,0.1,7.1,0.1c0.6,0,1.1,0.4,1.1,0.8c-0.1,4.4-0.2,6.6-0.4,11c5.2,0.1,7.7,0.3,12.9,0.6
		c0.3-4.4,0.4-6.6,0.6-11c0.1-0.4,0.5-0.8,1.2-0.7c2.8,0.1,4.3,0.3,7.1,0.4c0.6,0.1,1.1,0.4,1,0.9c-1.3,11.7-1.6,17.5-2.5,29.1
		c-0.1,0.4-0.5,0.8-1.1,0.8c-2.7-0.2-4-0.3-6.6-0.4c-0.6-0.1-0.9-0.4-0.9-0.9c0.3-4.8,0.4-7.1,0.6-11.9c-5.1-0.3-7.6-0.4-12.7-0.6
		c-0.1,4.8-0.3,7.1-0.4,11.9c0,0.4-0.4,0.8-1,0.8c-2.7-0.1-4-0.1-6.6-0.1c-0.6,0-1-0.4-1-0.9C199.9,203.3,200,197.4,200.2,185.8z
		 M182.4,184.6c5.8-0.1,8.3,0.3,10.3,0.4c0.8,0.1,1.1,0.3,1.1,0.8c-0.5,1.7-0.5,2.5-0.5,4c0,0.4-0.4,0.8-1.1,0.8
		c-4.3,0-6.5,0-10.6,0.1c-2.5,0.1-3.4,0.7-3.3,2.9c0.1,1.5,0.1,2.2,0.1,3.8c5.5-0.1,8.1-0.1,13.5-0.1c0.6,0,1.1,0.4,1.1,0.8v3.9
		c0,0.4-0.4,0.8-1,0.8c-5.4,0-8,0-13.4,0.1c0.1,1.7,0.1,2.6,0.1,4.4c0.1,2.2,0.9,2.8,3.4,2.7c4.2-0.1,6.3-0.1,10.3-0.1
		c0.6,0,1,0.4,1,0.8v3.8c0,0.6-0.3,0.8-1,0.9c-1.8,0.2-4.4,0.5-9.7,0.6c-6.6,0.1-12.3-1.1-12.5-8.6c-0.2-5.5-0.3-8.2-0.5-13.6
		C169.4,186.3,175.5,184.7,182.4,184.6z M142.6,186.8c2.8-0.3,4.2-0.4,7-0.6c0.6-0.1,1.1,0.3,1.2,0.8c0.6,8.5,0.9,12.8,1.5,21.3
		c0.1,2.2,1.1,2.7,3.5,2.6c3.5-0.2,5.3-0.3,8.7-0.4c0.6-0.1,1,0.3,1.1,0.8c0.1,1.5,0.1,2.3,0.1,3.8c0.1,0.6-0.3,0.8-1,0.9
		c-1.7,0.4-5.6,0.8-8.2,0.9c-6.6,0.4-12.4-0.4-13-7.9c-0.7-8.5-1.1-12.8-1.8-21.3C141.5,187.3,142,186.8,142.6,186.8z M126.7,188.2
		c3.8-0.4,6.9-0.3,7.9-0.1c0.8,0.1,1.2,0.2,1.3,0.8c0.1,1.6,0.2,2.4,0.4,4c0.1,0.5-0.3,0.9-0.9,0.9h-0.1c-2,0.1-5,0.1-7.8,0.5
		c-3.7,0.4-6.3,2.2-5.7,7.7c0.3,2,0.4,3.1,0.6,5.1c0.6,5.5,3.7,6.6,7.1,6.2c2.8-0.3,5.6-0.8,7.5-1.2h0.1c0.6-0.1,1,0.3,1.1,0.7
		c0.1,1.6,0.2,2.4,0.4,4c-0.2,0.6-0.5,0.8-1.3,1c-1,0.4-3.9,1.1-7.3,1.5c-7.6,0.9-15.3-1.4-16.6-11.1c-0.3-2-0.4-3.1-0.7-5.1
		C111.4,193.4,118.6,189.1,126.7,188.2z M75.8,196.4c3-0.6,4.6-0.9,7.5-1.5c0.5-0.1,0.9,0.1,1.2,0.5c3.2,4.1,4.7,6.2,7.6,10.4
		c0.4,0.4,0.5,0.6,0.9,0.4c0.4-0.1,0.5-0.1,0.6-0.8c1.4-5,2.2-7.4,3.8-12.5c0.1-0.4,0.4-0.8,0.9-0.9c3-0.5,4.6-0.7,7.5-1.2
		c0.5-0.1,0.9,0.1,0.9,0.5c0.4,0.4,0.4,0.6,0.4,0.6c-2.4,6.1-3.5,9.2-5.8,15.4c-0.7,2-1.7,3-2.9,3.7c0.8,4.5,1.2,6.8,1.9,11.3
		c0.1,0.4-0.3,0.9-0.9,0.9c-2.7,0.4-3.9,0.6-6.6,1.2c-0.6,0.1-1.1-0.2-1.2-0.6c-0.8-4.5-1.2-6.8-2.1-11.3c-1.3-0.2-2.6-0.8-4-2.5
		c-4.2-5-6.3-7.5-10.5-12.5c-0.1-0.1-0.1-0.2-0.1-0.3C75,196.9,75.3,196.6,75.8,196.4z M62.9,198.9c3.7-0.8,6.9-1.1,7.9-1
		c0.8,0,1.2,0.1,1.3,0.6c0.3,1.6,0.5,2.4,0.8,3.9c0.1,0.4-0.1,0.9-0.8,1c-0.1,0-0.1,0-0.1,0.1c-2,0.3-5,0.7-7.7,1.4
		c-3.5,0.8-6.1,3-4.8,8.3c0.4,2,0.7,3,1.2,5c1.3,5.3,4.4,6.1,7.8,5.3c2.7-0.6,5.5-1.4,7.3-1.9c0.1,0,0.1,0,0.1-0.1
		c0.6-0.1,1,0.1,1.2,0.6c0.3,1.6,0.5,2.4,0.8,3.9c0.1,0.6-0.2,0.9-0.9,1.2c-0.9,0.5-3.8,1.5-7.2,2.3c-7.5,1.7-15.4,0.4-17.9-9.2
		c-0.5-2-0.8-3-1.3-5C48.2,205.8,54.9,200.7,62.9,198.9z M118.5,358.7c-41.3-20.3-73.1-57.2-87-101.9c1.1-0.4,2.3-0.7,3.4-1
		c13.4,43.8,44.4,79.9,84.7,99.9C119.3,356.7,118.9,357.7,118.5,358.7z M54.1,250.3c91.4-24,184.8-24,276.3,0
		c-12.6,40.7-42.6,73.8-81.1,90.5c-40.1,12.1-79.2,11.3-119.6-2.5C93.9,320.9,66.2,289.1,54.1,250.3z M145.1,365.9
		c-0.9,2.6-3.2,3.6-6.1,2.6l-4.9-1.6l5.1-15.4l5,1.6c2.3,0.8,3.8,2.4,2.9,5.1c-0.6,1.9-1.8,2.8-3.4,2.7l0,0
		C145.3,361.9,146,363.2,145.1,365.9z M156.9,365.8l-5.6-1.4l-1.2,5l6.2,1.5l-0.5,2.1l-8.7-2.2l3.9-15.7l8.5,2.1l-0.5,2.1l-6-1.5
		l-1.1,4.4l5.6,1.4L156.9,365.8z M170.5,363.6c-0.4,2.1-1.5,3.5-3.3,3.5l0,0c1.6,0.4,2.2,1.4,1.9,3.7c-0.2,1.1-0.4,2.3-0.5,3.3
		c-0.1,0.8,0.2,1.2,0.5,1.5l-2.9-0.5c-0.2-0.3-0.2-0.8-0.2-1.5c0-0.5,0.1-1,0.2-1.4s0.1-1,0.2-1.6c0.2-1.8-0.2-2.6-1.9-2.9l-2.1-0.4
		l-1.2,6.9l-2.5-0.4l2.7-16l5.6,1C169.4,359.1,171.1,360.6,170.5,363.6z M180.6,376.7l-8.8-0.9l1.6-16.1l2.6,0.3l-1.4,13.9l6.2,0.6
		L180.6,376.7z M185.7,376.9l-2.6-0.1l0.8-16.2l2.6,0.1L185.7,376.9z M196.6,377l-4.9-12.3l0,0l0.2,12.4l-2.4,0l-0.3-16.2l3.2-0.1
		l4.9,12l0,0l-0.2-12.1l2.4,0l0.3,16.2L196.6,377z M209.4,376.3c-0.9-7,5.9-7.6,5.3-12.5c-0.2-1.3-0.9-2.3-2.3-2.2
		c-1.9,0.2-2,2-1.8,3.6l-2.4,0.3c-0.4-3.1,0.7-5.3,4.1-5.7c3.2-0.4,4.7,1.4,5,3.7c0.6,5.3-4.5,6.2-5.2,10.3l6.5-0.8l0.3,2.2
		L209.4,376.3z M226.1,374.2c-3,0.6-5.1-1-6.3-7.1c-1.2-6.1,0.1-8.4,3.2-9c3-0.6,5.1,1,6.3,7.1C230.4,371.4,229.1,373.6,226.1,374.2
		z M237.1,371.3l-3-11.3l-3.2,0.9l-0.4-1.6l0.2-0.1c1.5-0.4,3.1-1.2,3-3.3l-0.1-0.3l1.8-0.5l4.2,15.5L237.1,371.3z M249.3,367.9
		c-2.7,0.9-4.5,0.2-5.4-2.3l2.4-0.8c0.3,0.9,1.1,1.8,2.3,1.4c2.3-0.8,1.4-3.8,0.6-6.1l-0.1,0c-0.2,1.3-1,2.2-2.4,2.6
		c-2.1,0.7-4.3-0.2-5.3-3.2c-1.2-3.5-0.5-6.1,2.7-7.2c3.8-1.3,5.6,1.3,7.1,5.7C252.9,362.6,253.3,366.6,249.3,367.9z M267.9,357.7
		c-0.4-1-0.8-2-1.2-3c39.3-20.2,69.6-55.8,82.8-98.9c1.2,0.3,2.3,0.7,3.5,1C339.3,300.8,308.2,337.2,267.9,357.7z"/>
</g>
<g>
	<polygon class="st0" points="191.8,319.2 192.2,319.4 196.6,310.7 196.2,310.5 	"/>
	<polygon class="st0" points="191.8,319.6 192.2,319.4 191.8,319.2 	"/>
	
		<rect x="196.2" y="310.7" transform="matrix(0.4445 -0.8958 0.8958 0.4445 -169.4118 348.4725)" class="st0" width="0.1" height="0.3"/>
	
		<rect x="196.1" y="310.8" transform="matrix(0.4512 -0.8924 0.8924 0.4512 -169.8163 345.6947)" class="st0" width="0" height="0.3"/>
	<polygon class="st0" points="196,311 196.3,311.1 196.3,311.1 196.1,310.9 	"/>
	<polygon class="st0" points="196,311.1 196.3,311.2 196.3,311.1 196,311 	"/>
	<polygon class="st0" points="195.7,310.2 195.7,310.2 196.2,310.6 196.5,310.8 197.1,310.9 197.1,310.9 197.2,310.8 197.2,310.8 
		195.8,310.1 195.7,310.1 	"/>
	<polygon class="st0" points="191.7,320.1 191.4,319.9 186.8,328.5 187.1,328.7 	"/>
	<polygon class="st0" points="191.7,319.7 191.4,319.9 191.7,320.1 	"/>
	<polygon class="st0" points="187.2,328.4 187,328.3 187,328.3 187.2,328.4 	"/>
	
		<rect x="187.1" y="328.2" transform="matrix(0.4682 -0.8836 0.8836 0.4682 -190.5852 339.9272)" class="st0" width="0.1" height="0.3"/>
	<polygon class="st0" points="187.3,328.2 187.1,328.1 187.1,328.1 187.3,328.3 	"/>
	
		<rect x="187.3" y="327.9" transform="matrix(0.4809 -0.8768 0.8768 0.4809 -190.4512 334.5224)" class="st0" width="0.1" height="0.3"/>
	<polygon class="st0" points="187.7,329 187.6,329 187.2,328.6 186.8,328.4 186.3,328.2 186.2,328.2 186.2,328.4 186.2,328.4 
		187.5,329.1 187.6,329.1 	"/>
	<path class="st0" d="M189.3,316l-16.5-1.2c0,0-0.7,0.1-0.8,0.8c0,0.8-0.1,1.5-0.1,1.5h0l0,0l0.7-0.4l0.3,0.7l0.7-0.3l0.3,0.7
		l0.7-0.3l0.3,0.7l0.7-0.3l0.3,0.7l0.6-0.3l0.3,0.7l0.7-0.4l0.3,0.7l0.7-0.3l0.3,0.7l0.6-0.3l0.3,0.7l0.7-0.3l0.3,0.7l0.7-0.3
		l0.3,0.7l0.6-0.4l0.3,0.7l0.7-0.4l0.3,0.7l0.7-0.3l0.3,0.7l0.7-0.3l0.3,0.7l0.7-0.3l0.3,0.7l0.6-0.3l0.3,0.7v0l0.8,0.3h0.5l0.4-0.3
		l1.2-1.6L189.3,316z"/>
	<polygon class="st0" points="179.3,319 178.6,319.4 178.7,319.5 179.3,319.1 	"/>
	<polygon class="st0" points="176.4,318 175.8,318.4 175.8,318.4 176.4,318.1 	"/>
	
		<rect x="177.7" y="318.9" transform="matrix(0.8892 -0.4576 0.4576 0.8892 -126.1946 116.815)" class="st0" width="0.7" height="0.1"/>
	
		<rect x="174.8" y="317.9" transform="matrix(0.8991 -0.4378 0.4378 0.8991 -121.5121 108.7551)" class="st0" width="0.7" height="0.1"/>
	<polygon class="st0" points="177.3,318.4 176.7,318.7 176.8,318.8 177.4,318.5 	"/>
	<polygon class="st0" points="174.5,317.4 173.9,317.7 173.9,317.8 174.5,317.5 	"/>
	<polygon class="st0" points="172.6,316.7 171.9,317 171.9,317.2 171.9,317.2 172,317.1 172.6,316.8 	"/>
	
		<rect x="172.9" y="317.2" transform="matrix(0.8889 -0.4581 0.4581 0.8889 -126.0825 114.622)" class="st0" width="0.7" height="0.1"/>
	<polygon class="st0" points="189.3,316 189.2,316 190.1,320.9 188.8,322.5 188.5,322.7 188,322.7 187.3,322.5 187.3,322.5 
		188.1,322.8 188.5,322.8 188.9,322.5 190.2,321 	"/>
	<polygon class="st0" points="184.1,320.7 183.4,321 183.5,321.1 184.1,320.8 	"/>
	
		<rect x="184.4" y="321.2" transform="matrix(0.8944 -0.4472 0.4472 0.8944 -124.1606 116.522)" class="st0" width="0.7" height="0.1"/>
	
		<rect x="179.6" y="319.5" transform="matrix(0.8936 -0.4489 0.4489 0.8936 -124.3163 114.7709)" class="st0" width="0.7" height="0.1"/>
	<polygon class="st0" points="186.9,321.7 186.3,322.1 186.3,322.1 187,321.8 	"/>
	<polygon class="st0" points="186,321.4 185.4,321.7 185.4,321.8 186,321.5 	"/>
	
		<rect x="182.4" y="320.5" transform="matrix(0.8864 -0.4629 0.4629 0.8864 -127.6395 121.0329)" class="st0" width="0.7" height="0.1"/>
	<polygon class="st0" points="181.2,319.7 180.5,320 180.6,320.1 181.2,319.8 	"/>
	<polygon class="st0" points="182.1,320 181.5,320.4 181.6,320.5 182.2,320.1 	"/>
	<path class="st0" d="M192.4,321.6L192.4,321.6l-0.9,0.3c-0.5-0.3-0.8-0.8-1.1-2c-0.3-1.1,0.1-2,0.2-2.4l0.4-0.6l0.7-0.7
		c0.6,0,1.2,0.3,1.9,0.3c0.6,0,1.1-0.1,1.8-0.4l1-0.2c0.1-0.3-0.1-0.6-0.8-0.4c-1.1,0.3-1.2,0.6-2.1,0.5c-0.9-0.1-3.2-0.6-3.2-0.6
		s-1.5-0.4-1.6,0.5c-0.1,1-0.2,2.8-0.2,2.8s0.1,0.9,0.7,1.7c0.5,0.8,0.9,1.5,1.5,1.7c0.6,0.2,1.9,0.8,2.6,0.8l0.8-0.4
		C193.8,322.1,193.5,321.7,192.4,321.6"/>
	<path class="st0" d="M194.1,319.8c0.4-0.2,0.7-0.5-0.2-0.4h-0.8l0,0l0,0.5l0,0.1C193.5,320.1,193.6,320,194.1,319.8"/>
	<path class="st0" d="M195.4,316.1c-0.7,0.3-1.2,0.4-1.8,0.4c-0.6,0-1.2-0.3-1.9-0.3l-0.7,0.7l0.7-0.4c0.6-0.2,1.3,0.2,1.5,0.6
		l0.1,1l0.7,0c0.9-0.1,0.5,0.3,0.2,0.4l-0.9,0.2l-0.1,0.8h0.8c0.9-0.1,0.5,0.2,0.2,0.4c-0.5,0.2-0.6,0.3-1,0.3l-0.4,0.6l-0.2,0.7
		l-0.2,0.3c1.1,0.1,1.5,0.5,1.7,0.9c0.4-0.4,0.8-1,1.1-1.6c0.5-1,0.4-2.3,0.2-3c-0.1-0.7-0.5-0.9,0.3-1.4l0.7-0.7L195.4,316.1z"/>
	<path class="st0" d="M194,318.2h-0.7l0,0v0.4l0,0l0.9-0.2C194.5,318.4,194.9,318,194,318.2"/>
	<path class="st0" d="M193.5,320.9c0.3-0.1,0.5-0.4-0.1-0.3h-0.6l0,0l-0.1,0.3l0,0.1L193.5,320.9z"/>
	<polygon class="st0" points="190.2,317.1 190.4,316.7 189.8,317 	"/>
	<polygon class="st0" points="189.9,316.5 189.8,316.9 190.3,316.6 	"/>
	<polygon class="st0" points="190.3,316.6 189.8,316.9 189.8,317 189.8,317 190.4,316.7 190.4,316.7 	"/>
	<polygon class="st0" points="190.3,316.6 189.8,316.9 189.8,317 189.8,317 190.4,316.7 190.4,316.7 	"/>
	<polygon class="st0" points="189.9,318.7 189.8,318.4 189.7,318.9 	"/>
	<polygon class="st0" points="189.4,318.6 189.6,318.9 189.7,318.4 	"/>
	<polygon class="st0" points="189.7,318.4 189.7,318.4 189.6,318.9 189.7,318.9 189.7,318.9 189.8,318.4 	"/>
	<polygon class="st0" points="189.7,318.4 189.7,318.4 189.6,318.9 189.7,318.9 189.7,318.9 189.8,318.4 	"/>
	<polygon class="st0" points="214.5,294.3 214.3,294.8 214.5,295.2 214.5,294.8 	"/>
	<polygon class="st0" points="215.5,293.7 214.9,293.7 214.7,294.1 	"/>
	<polygon class="st0" points="216.5,294.1 216.3,293.7 215.7,293.7 	"/>
	<polygon class="st0" points="216.6,295.2 216.9,294.8 216.6,294.3 216.7,294.8 	"/>
	<polygon class="st0" points="216.5,295.5 215.7,295.9 216.3,295.9 	"/>
	<polygon class="st0" points="214.7,295.5 214.9,295.9 215.5,295.9 	"/>
	<polygon class="st0" points="215.6,293.6 215.5,293.7 215.7,293.7 	"/>
	<path class="st0" d="M214.7,295.5l-0.1-0.2L214.7,295.5z"/>
	<path class="st0" d="M216.5,294.1l0.1,0.2L216.5,294.1z"/>
	<polygon class="st0" points="215.6,295.9 215.7,295.9 215.5,295.9 	"/>
	<path class="st0" d="M214.5,294.3l0.1-0.2L214.5,294.3z"/>
	<path class="st0" d="M216.6,295.2l-0.1,0.2L216.6,295.2z"/>
	<path class="st0" d="M216.5,295.5l0.1-0.2l0.1-0.5l-0.1-0.5l-0.1-0.2l-0.8-0.4h-0.2l-0.8,0.4l-0.1,0.2l-0.1,0.5l0.1,0.5l0.1,0.2
		l0.8,0.4h0.2L216.5,295.5z M215.6,295.4l-0.6-0.6l0.6-0.6l0.6,0.6L215.6,295.4z"/>
	<path class="st0" d="M215.6,294.2l-0.6,0.6l0.6,0.6l0.6-0.6L215.6,294.2z M215.6,295.2l-0.5-0.5l0.5-0.5l0.5,0.5L215.6,295.2z"/>
	<polygon class="st0" points="217.1,293.7 216.9,294.1 217.1,294.5 217.1,294.1 	"/>
	<polygon class="st0" points="218.1,293 217.5,293 217.3,293.4 	"/>
	<polygon class="st0" points="219.1,293.4 218.8,293 218.3,293 	"/>
	<polygon class="st0" points="219.2,294.5 219.5,294.1 219.2,293.7 219.3,294.1 	"/>
	<polygon class="st0" points="219.1,294.8 218.3,295.2 218.8,295.2 	"/>
	<polygon class="st0" points="217.3,294.8 217.5,295.2 218.1,295.2 	"/>
	<polygon class="st0" points="218.2,293 218.1,293 218.3,293 	"/>
	<path class="st0" d="M217.3,294.8l-0.1-0.2L217.3,294.8z"/>
	<path class="st0" d="M219.1,293.4l0.1,0.2L219.1,293.4z"/>
	<polygon class="st0" points="218.2,295.2 218.3,295.2 218.1,295.2 	"/>
	<path class="st0" d="M217.1,293.7l0.1-0.2L217.1,293.7z"/>
	<path class="st0" d="M219.2,294.5l-0.1,0.2L219.2,294.5z"/>
	<path class="st0" d="M219.1,294.8l0.1-0.2l0.1-0.4l-0.1-0.4l-0.1-0.2l-0.8-0.4h-0.3l-0.8,0.4l-0.1,0.2l-0.1,0.4l0.1,0.4l0.1,0.2
		l0.8,0.5h0.3L219.1,294.8z M218.2,294.7l-0.6-0.6l0.6-0.6l0.6,0.6L218.2,294.7z"/>
	<path class="st0" d="M218.2,293.5l-0.6,0.6l0.6,0.6l0.6-0.6L218.2,293.5z M218.2,294.6l-0.4-0.5l0.4-0.5l0.5,0.5L218.2,294.6z"/>
	<polygon class="st0" points="219,291.7 218.8,292.2 219,292.6 218.9,292.2 	"/>
	<polygon class="st0" points="219.9,291 219.4,291 219.2,291.5 	"/>
	<polygon class="st0" points="221,291.5 220.7,291 220.2,291 	"/>
	<polygon class="st0" points="221.1,292.6 221.4,292.2 221.1,291.7 221.2,292.2 	"/>
	<polygon class="st0" points="221,292.9 220.2,293.3 220.7,293.3 	"/>
	<polygon class="st0" points="219.1,292.9 219.4,293.3 219.9,293.3 	"/>
	<polygon class="st0" points="220.1,291 219.9,291 220.2,291 	"/>
	<path class="st0" d="M219.1,292.9l-0.1-0.2L219.1,292.9z"/>
	<path class="st0" d="M221,291.5l0.1,0.2L221,291.5z"/>
	<polygon class="st0" points="220.1,293.3 220.2,293.3 219.9,293.3 	"/>
	<path class="st0" d="M219,291.7l0.1-0.2L219,291.7z"/>
	<path class="st0" d="M221.1,292.6l-0.1,0.2L221.1,292.6z"/>
	<path class="st0" d="M221,292.8l0.1-0.2l0.1-0.5l-0.1-0.4l-0.1-0.2l-0.8-0.5h-0.3l-0.8,0.5l-0.1,0.2l-0.1,0.4l0.1,0.5l0.1,0.2
		l0.8,0.5h0.3L221,292.8z M220.1,292.7l-0.6-0.6l0.6-0.6l0.6,0.6L220.1,292.7z"/>
	<path class="st0" d="M220.1,291.6l-0.6,0.6l0.6,0.6l0.6-0.6L220.1,291.6z M220.1,292.6l-0.5-0.5l0.5-0.5l0.5,0.5L220.1,292.6z"/>
	<polygon class="st0" points="218.9,289.1 218.6,289.5 218.9,290 218.8,289.5 	"/>
	<polygon class="st0" points="219.8,288.4 219.3,288.4 219,288.9 	"/>
	<polygon class="st0" points="220.8,288.8 220.6,288.4 220.1,288.4 	"/>
	<polygon class="st0" points="221,290 221.2,289.5 221,289.1 221.1,289.5 	"/>
	<polygon class="st0" points="220.8,290.2 220.1,290.7 220.6,290.7 	"/>
	<polygon class="st0" points="219,290.2 219.3,290.7 219.8,290.7 	"/>
	<polygon class="st0" points="219.9,288.4 219.8,288.4 220.1,288.4 	"/>
	<path class="st0" d="M219,290.2l-0.1-0.2L219,290.2z"/>
	<path class="st0" d="M220.8,288.8l0.1,0.2L220.8,288.8z"/>
	<polygon class="st0" points="219.9,290.7 220.1,290.7 219.8,290.7 	"/>
	<path class="st0" d="M218.9,289.1l0.1-0.2L218.9,289.1z"/>
	<path class="st0" d="M221,290l-0.1,0.2L221,290z"/>
	<path class="st0" d="M220.8,290.2l0.1-0.2l0.1-0.5l-0.1-0.4l-0.1-0.2l-0.8-0.5h-0.3l-0.8,0.5l-0.1,0.2l-0.1,0.4l0.1,0.5l0.1,0.2
		l0.8,0.5h0.3L220.8,290.2z M219.9,290.1l-0.6-0.6l0.6-0.6l0.6,0.6L219.9,290.1z"/>
	<path class="st0" d="M219.9,289l-0.6,0.6l0.6,0.6l0.6-0.6L219.9,289z M219.9,290l-0.5-0.5l0.5-0.5l0.5,0.5L219.9,290z"/>
	<polygon class="st0" points="217.1,287.1 216.8,287.5 217.1,288 217,287.5 	"/>
	<polygon class="st0" points="218,286.4 217.4,286.4 217.2,286.9 	"/>
	<polygon class="st0" points="219,286.9 218.7,286.4 218.2,286.4 	"/>
	<polygon class="st0" points="219.1,288 219.4,287.5 219.1,287.1 219.2,287.5 	"/>
	<polygon class="st0" points="219,288.2 218.2,288.7 218.7,288.7 	"/>
	<polygon class="st0" points="217.2,288.2 217.5,288.7 218,288.7 	"/>
	<polygon class="st0" points="218.1,286.4 218,286.4 218.2,286.4 	"/>
	<path class="st0" d="M217.2,288.2l-0.1-0.2L217.2,288.2z"/>
	<path class="st0" d="M219,286.9l0.1,0.2L219,286.9z"/>
	<polygon class="st0" points="218.1,288.7 218.2,288.7 218,288.7 	"/>
	<path class="st0" d="M217.1,287.1l0.1-0.2L217.1,287.1z"/>
	<path class="st0" d="M219.1,288l-0.1,0.2L219.1,288z"/>
	<path class="st0" d="M219,288.2l0.1-0.2l0.1-0.5l-0.1-0.4l-0.1-0.2l-0.8-0.4H218l-0.8,0.4l-0.1,0.2l-0.1,0.4l0.1,0.5l0.1,0.2
		l0.8,0.5h0.3L219,288.2z M218.1,288.1l-0.6-0.6l0.6-0.6l0.6,0.6L218.1,288.1z"/>
	<path class="st0" d="M218.1,287l-0.6,0.6l0.6,0.6l0.6-0.6L218.1,287z M218.1,288l-0.5-0.5l0.5-0.5l0.5,0.5L218.1,288z"/>
	<polygon class="st0" points="214.6,286.3 214.4,286.8 214.6,287.2 214.5,286.8 	"/>
	<polygon class="st0" points="215.5,285.6 215,285.6 214.7,286.1 	"/>
	<polygon class="st0" points="216.6,286.1 216.3,285.6 215.8,285.6 	"/>
	<polygon class="st0" points="216.7,287.2 217,286.8 216.7,286.3 216.8,286.8 	"/>
	<polygon class="st0" points="216.6,287.5 215.8,287.9 216.3,287.9 	"/>
	<polygon class="st0" points="214.7,287.5 215,287.9 215.5,287.9 	"/>
	<polygon class="st0" points="215.7,285.6 215.5,285.6 215.8,285.6 	"/>
	<path class="st0" d="M214.7,287.5l-0.1-0.2L214.7,287.5z"/>
	<path class="st0" d="M216.6,286.1l0.1,0.2L216.6,286.1z"/>
	<polygon class="st0" points="215.7,287.9 215.8,287.9 215.5,287.9 	"/>
	<path class="st0" d="M214.6,286.3l0.1-0.2L214.6,286.3z"/>
	<path class="st0" d="M216.7,287.2l-0.1,0.2L216.7,287.2z"/>
	<path class="st0" d="M216.6,287.5l0.1-0.2l0.1-0.5l-0.1-0.4l-0.1-0.2l-0.8-0.4h-0.3l-0.8,0.4l-0.1,0.2l-0.1,0.4l0.1,0.5l0.1,0.2
		l0.8,0.5h0.3L216.6,287.5z M215.7,287.4l-0.6-0.6l0.6-0.6l0.6,0.6L215.7,287.4z"/>
	<path class="st0" d="M215.7,286.2l-0.6,0.6l0.6,0.6l0.6-0.6L215.7,286.2z M215.7,287.3l-0.5-0.5l0.5-0.5l0.5,0.5L215.7,287.3z"/>
	<polygon class="st0" points="211.8,286.3 211.5,286.8 211.8,287.2 211.7,286.8 	"/>
	<polygon class="st0" points="212.7,285.6 212.2,285.6 211.9,286.1 	"/>
	<polygon class="st0" points="213.8,286.1 213.5,285.6 213,285.6 	"/>
	<polygon class="st0" points="213.9,287.2 214.2,286.8 213.9,286.3 214,286.8 	"/>
	<polygon class="st0" points="213.8,287.5 213,287.9 213.5,287.9 	"/>
	<polygon class="st0" points="211.9,287.5 212.2,287.9 212.7,287.9 	"/>
	<polygon class="st0" points="212.8,285.6 212.7,285.6 213,285.6 	"/>
	<path class="st0" d="M211.9,287.5l-0.1-0.2L211.9,287.5z"/>
	<path class="st0" d="M213.8,286.1l0.1,0.2L213.8,286.1z"/>
	<polygon class="st0" points="212.8,287.9 213,287.9 212.7,287.9 	"/>
	<path class="st0" d="M211.8,286.3l0.1-0.2L211.8,286.3z"/>
	<path class="st0" d="M213.9,287.2l-0.1,0.2L213.9,287.2z"/>
	<path class="st0" d="M213.8,287.5l0.1-0.2l0.1-0.5l-0.1-0.4l-0.1-0.2l-0.8-0.4h-0.3l-0.8,0.4l-0.1,0.2l-0.1,0.4l0.1,0.5l0.1,0.2
		l0.8,0.5h0.3L213.8,287.5z M212.8,287.4l-0.6-0.6l0.6-0.6l0.6,0.6L212.8,287.4z"/>
	<path class="st0" d="M212.8,286.2l-0.6,0.6l0.6,0.6l0.6-0.6L212.8,286.2z M212.8,287.3l-0.5-0.5l0.5-0.5l0.5,0.5L212.8,287.3z"/>
	<polygon class="st0" points="209.2,286.8 208.9,287.2 209.2,287.7 209.1,287.2 	"/>
	<polygon class="st0" points="210.1,286.1 209.6,286.1 209.3,286.6 	"/>
	<polygon class="st0" points="211.2,286.6 210.9,286.1 210.4,286.1 	"/>
	<polygon class="st0" points="211.3,287.7 211.6,287.2 211.3,286.8 211.4,287.2 	"/>
	<polygon class="st0" points="211.2,287.9 210.4,288.4 210.9,288.4 	"/>
	<polygon class="st0" points="209.3,287.9 209.6,288.4 210.1,288.4 	"/>
	<polygon class="st0" points="210.3,286.1 210.1,286.1 210.4,286.1 	"/>
	<path class="st0" d="M209.3,287.9l-0.1-0.2L209.3,287.9z"/>
	<path class="st0" d="M211.2,286.6l0.1,0.2L211.2,286.6z"/>
	<polygon class="st0" points="210.3,288.4 210.4,288.4 210.1,288.4 	"/>
	<path class="st0" d="M209.2,286.8l0.1-0.2L209.2,286.8z"/>
	<path class="st0" d="M211.3,287.7l-0.1,0.2L211.3,287.7z"/>
	<path class="st0" d="M211.2,287.9l0.1-0.2l0.1-0.4l-0.1-0.4l-0.1-0.2l-0.8-0.4h-0.3l-0.8,0.4l-0.1,0.2l-0.1,0.4l0.1,0.4l0.1,0.2
		l0.8,0.5h0.3L211.2,287.9z M210.3,287.8l-0.6-0.6l0.6-0.6l0.6,0.6L210.3,287.8z"/>
	<path class="st0" d="M210.3,286.7l-0.6,0.6l0.6,0.6l0.6-0.6L210.3,286.7z M210.3,287.7l-0.5-0.5l0.5-0.5l0.5,0.5L210.3,287.7z"/>
	<polygon class="st0" points="213.7,297 213.3,297.2 212.6,296.9 212.4,296.5 212.8,296.3 213.5,296.6 	"/>
	<polygon class="st0" points="210.5,294 211,295.3 211.3,295.6 209.2,295.3 209.3,294.2 	"/>
	<path class="st0" d="M211.2,292.3l-0.6,2.1l-1.7,0.4l-0.5-0.2c0,0,1-1.4,1.6-1.8C210.6,292.4,211.2,292.3,211.2,292.3"/>
	<path class="st0" d="M199.7,308.6c-0.6-0.4-1.4-0.3-1.8,0.2c-0.4,0.6-0.3,1.4,0.2,1.8c0.6,0.4,1.4,0.3,1.8-0.2
		C200.4,309.9,200.3,309.1,199.7,308.6 M198.3,310.5l-0.2-1.5l1.5-0.2l0.2,1.5L198.3,310.5z"/>
	<path class="st0" d="M199.6,308.8l-1.5,0.2l0.2,1.5l1.5-0.2L199.6,308.8z M198.4,310.3l-0.2-1.2l1.2-0.1l0.1,1.2L198.4,310.3z"/>
	<path class="st0" d="M214,294.4c-0.5-1.5-1-1.7-1-1.7l-0.4,1.9l-1.5,0.5l-3.7-1.2l-0.5,4.1l-9,10.7l-0.3,0.5
		c-0.1,0.4-0.1,1.1,0.5,1.5c0.9,0.6,1.6,0.2,1.9-0.2l8.6-11.4c0.1-0.1,0.8-0.5,1.6-0.8c1.2-0.5,2.6-1,2.8-1.2
		C213.2,296.9,214.5,296,214,294.4 M200,310.5c-0.4,0.6-1.2,0.7-1.8,0.2c-0.6-0.4-0.7-1.3-0.2-1.8c0.4-0.6,1.3-0.7,1.8-0.2
		C200.3,309.1,200.4,309.9,200,310.5 M207.8,299.3l-6.7,8.9l-0.9-0.1l-0.4-0.9l7.2-8.6l0.7,0L207.8,299.3z"/>
	<polygon class="st0" points="209.8,297.2 208.1,296.7 208.5,295 210.3,295.5 	"/>
	<polygon class="st0" points="209.9,296.9 210,296.2 210.2,295.7 210,295.7 209.9,295.4 209.6,295.5 209.4,295.3 209.2,295.4 
		209,295.2 208.7,295.4 208.6,295.1 208.5,295.1 208.1,296.4 208.2,296.4 208.3,296.6 208.6,296.5 208.8,296.8 209.1,296.6 
		209.2,296.9 209.5,296.7 209.7,297 209.9,296.9 	"/>
	<polygon class="st0" points="209.7,297 209.8,296 209.8,295.6 209.7,295.6 209.6,296.9 	"/>
	<polygon class="st0" points="209.3,296.8 209.4,295.8 209.4,295.5 209.3,295.5 209.1,296.7 	"/>
	<polygon class="st0" points="208.8,296.7 208.9,295.8 208.9,295.4 208.9,295.4 208.7,296.7 	"/>
	<polygon class="st0" points="208.4,296.6 208.5,295.6 208.5,295.3 208.5,295.3 208.3,296.5 	"/>
	<polygon class="st0" points="191.1,293.7 202.9,293.7 204.2,293.3 206,293.7 206,294.5 204.2,294.9 202.9,294.6 191.1,294.6 	"/>
	<path class="st0" d="M190.8,292.4c0,0,0,0.2-1,0.2c-1,0-1.1-0.2-1.1-0.2h-7.5c-0.7,0-1.2,0.5-1.2,1.2v1c0,0.7,0.5,1.2,1.2,1.2h7.5
		c0,0,0-0.2,1.1-0.2c1.1,0,0.9,0.2,0.9,0.2C191.5,295.8,191.5,292.4,190.8,292.4 M187.7,295.5h-6.6l-0.3-0.4l0.3-0.4h6.6l0.3,0.4
		L187.7,295.5z M187.7,293.7h-6.6l-0.3-0.4l0.3-0.4h6.6l0.3,0.4L187.7,293.7z"/>
	<polygon class="st0" points="189,295.1 189.1,295 190.6,295 190.7,295.1 190.6,295.2 189.1,295.2 	"/>
	<polygon class="st0" points="189,295.5 189.1,295.4 190.6,295.4 190.7,295.5 190.6,295.6 189.1,295.6 	"/>
	<polygon class="st0" points="189,292.7 189.1,292.6 190.6,292.6 190.7,292.7 190.6,292.7 189.1,292.7 	"/>
	<polygon class="st0" points="189,294.7 189.1,294.6 190.6,294.6 190.7,294.7 190.6,294.8 189.1,294.8 	"/>
	<polygon class="st0" points="189,294.3 189.1,294.2 190.6,294.2 190.7,294.3 190.6,294.4 189.1,294.4 	"/>
	<polygon class="st0" points="189,293.9 189.1,293.8 190.6,293.8 190.7,293.9 190.6,294 189.1,294 	"/>
	<polygon class="st0" points="189,293.5 189.1,293.4 190.6,293.4 190.7,293.5 190.6,293.6 189.1,293.6 	"/>
	<polygon class="st0" points="189,293.1 189.1,293 190.6,293 190.7,293.1 190.6,293.2 189.1,293.2 	"/>
	<polygon class="st0" points="190.8,292.5 191.2,292.2 191.5,292.5 191.5,295.7 191.2,296.1 190.8,295.7 	"/>
	<polygon class="st0" points="212.1,293.5 212.6,293.3 210.9,289 210.4,289.2 	"/>
	<polygon class="st0" points="210.4,289.4 211,289.2 211,289.1 210.4,289.3 	"/>
	<polygon class="st0" points="210.5,289.6 211.1,289.4 211,289.3 210.5,289.5 	"/>
	<polygon class="st0" points="210.5,289.8 211.2,289.6 211.1,289.5 210.5,289.7 	"/>
	<polygon class="st0" points="210.6,289.9 211.2,289.7 211.2,289.6 210.6,289.8 	"/>
	<polygon class="st0" points="210.7,290.1 211.3,289.9 211.2,289.8 210.6,290 	"/>
	<polygon class="st0" points="210.8,290.3 211.3,290 211.3,289.9 210.7,290.2 	"/>
	<polygon class="st0" points="210.8,290.4 211.4,290.2 211.4,290.1 210.8,290.3 	"/>
	<polygon class="st0" points="210.9,290.6 211.5,290.4 211.4,290.3 210.8,290.5 	"/>
	<polygon class="st0" points="210.9,290.7 211.5,290.5 211.5,290.4 210.9,290.6 	"/>
	<polygon class="st0" points="211,290.9 211.6,290.7 211.6,290.6 211,290.8 	"/>
	<polygon class="st0" points="211.1,291.1 211.7,290.9 211.6,290.8 211,291 	"/>
	<polygon class="st0" points="211.1,291.2 211.7,291 211.7,290.9 211.1,291.1 	"/>
	<polygon class="st0" points="211.2,291.4 211.8,291.2 211.8,291.1 211.2,291.3 	"/>
	<polygon class="st0" points="211.3,291.6 211.9,291.4 211.8,291.3 211.2,291.5 	"/>
	<polygon class="st0" points="211.3,291.7 211.9,291.5 211.9,291.4 211.3,291.6 	"/>
	<polygon class="st0" points="211.4,291.9 212,291.7 211.9,291.6 211.3,291.8 	"/>
	<polygon class="st0" points="211.5,292.1 212.1,291.9 212,291.8 211.4,292 	"/>
	<polygon class="st0" points="211.5,292.2 212.1,292 212.1,291.9 211.5,292.1 	"/>
	<polygon class="st0" points="211.6,292.4 212.2,292.2 212.1,292.1 211.6,292.3 	"/>
	<polygon class="st0" points="211.7,292.6 212.2,292.4 212.2,292.2 211.6,292.5 	"/>
	<polygon class="st0" points="211.7,292.7 212.3,292.5 212.3,292.4 211.7,292.6 	"/>
	<polygon class="st0" points="211.8,292.9 212.4,292.7 212.3,292.6 211.8,292.8 	"/>
	<polygon class="st0" points="211.8,293 212.4,292.9 212.4,292.7 211.8,292.9 	"/>
	<polygon class="st0" points="211.9,293.2 212.5,293 212.5,292.9 211.9,293.1 	"/>
	<polygon class="st0" points="212,293.4 212.6,293.2 212.5,293.1 211.9,293.3 	"/>
	<polygon class="st0" points="210.4,288.8 210.5,288.9 210.6,288.9 210.6,288.8 210.6,288.7 211.4,288.8 209.9,289.4 	"/>
	<polygon class="st0" points="182.5,295.7 182.1,295.4 179.7,299.3 180.1,299.5 	"/>
	<polygon class="st0" points="180.3,299.4 179.7,299 179.7,299.1 180.2,299.5 	"/>
	<polygon class="st0" points="180.4,299.2 179.8,298.9 179.8,299 180.3,299.3 	"/>
	<polygon class="st0" points="180.5,299.1 179.9,298.7 179.9,298.8 180.4,299.2 	"/>
	<polygon class="st0" points="180.5,298.9 180,298.6 180,298.7 180.5,299 	"/>
	<polygon class="st0" points="180.6,298.8 180.1,298.4 180.1,298.5 180.6,298.9 	"/>
	<polygon class="st0" points="180.7,298.6 180.2,298.3 180.1,298.4 180.7,298.7 	"/>
	<polygon class="st0" points="180.8,298.5 180.3,298.1 180.2,298.2 180.8,298.6 	"/>
	<polygon class="st0" points="180.9,298.3 180.4,298 180.3,298.1 180.9,298.4 	"/>
	<polygon class="st0" points="181,298.2 180.5,297.8 180.4,297.9 180.9,298.3 	"/>
	<polygon class="st0" points="181.1,298 180.6,297.7 180.5,297.8 181,298.1 	"/>
	<polygon class="st0" points="181.2,297.9 180.7,297.5 180.6,297.6 181.1,298 	"/>
	<polygon class="st0" points="181.3,297.7 180.8,297.4 180.7,297.5 181.2,297.8 	"/>
	<polygon class="st0" points="181.4,297.6 180.9,297.2 180.8,297.3 181.3,297.7 	"/>
	<polygon class="st0" points="181.5,297.4 180.9,297.1 180.9,297.2 181.4,297.5 	"/>
	<polygon class="st0" points="181.6,297.3 181,296.9 181,297 181.5,297.4 	"/>
	<polygon class="st0" points="181.7,297.1 181.1,296.8 181.1,296.9 181.6,297.2 	"/>
	<polygon class="st0" points="181.7,297 181.2,296.6 181.2,296.7 181.7,297.1 	"/>
	<polygon class="st0" points="181.8,296.8 181.3,296.5 181.3,296.6 181.8,296.9 	"/>
	<polygon class="st0" points="181.9,296.7 181.4,296.3 181.3,296.4 181.9,296.8 	"/>
	
		<rect x="181.7" y="296.1" transform="matrix(0.5637 -0.826 0.826 0.5637 -165.5468 279.4287)" class="st0" width="0.1" height="0.6"/>
	<polygon class="st0" points="182.1,296.4 181.6,296 181.5,296.1 182.1,296.5 	"/>
	<polygon class="st0" points="182.2,296.2 181.7,295.9 181.6,296 182.1,296.3 	"/>
	<polygon class="st0" points="182.3,296.1 181.8,295.7 181.7,295.8 182.2,296.2 	"/>
	<polygon class="st0" points="182.4,295.9 181.9,295.6 181.8,295.7 182.3,296 	"/>
	<polygon class="st0" points="182.5,295.8 182,295.4 181.9,295.5 182.4,295.9 	"/>
	<polygon class="st0" points="179.7,299.8 179.8,299.7 179.8,299.6 179.7,299.6 179.6,299.7 179.2,299 180.5,299.8 	"/>
	<path class="st0" d="M188.8,289.5l-0.3,0.1c-0.1,0-1.3-0.9-2.5-1.2c-0.9-0.3-1.6-0.4-2.2-0.1l-0.8,1v0.6l-0.9,0.3l-0.8,0.4
		c0,0-1.8-1.4-2.7-1c-0.9,0.4-2,1.1-2,1.1l-0.3-2.9l0.3,0l1.2-0.1c0.6-0.2,1.1-1.1,1.1-1.1s0.5-0.3,1.3-0.5c0.5-0.2,1.1-0.3,1.8-0.4
		c0.7-0.1,1.4,0,2.1,0.3C186.6,287,189.3,289,188.8,289.5"/>
	<path class="st0" d="M188.6,288.9l0.1,0.7c-0.2,0-3.1-2.4-4.6-1.8c-1.5,0.6-1.2,2.1-1.2,2.1l-0.8,0.1c-0.8,0.3-0.7,0.5-0.7,0.5
		s-2-1.7-2.8-1.4c-0.8,0.3-1.1,0.4-1.5,0.7l0,0l0.1,0.7l-1.4,0.6c0,0-0.4,0.2-0.8-1.4c-0.4-1.6-0.1-1.4-0.1-1.4l1.4-0.4l0.3,0.6
		l1.4-0.2l0.5-0.4l0.6-1.1c0,0,3.7-1.1,5.4-0.4C185.7,286.8,187.7,288.1,188.6,288.9"/>
	<path class="st0" d="M176.6,288.3l1.6-0.2l0.2-0.2l0.2,0.6l0.1,0.5l-0.3,0l-1,0.4c-0.6,0.3-0.6,0.4-0.6,0.4l-0.2-0.8l-0.3-0.9
		L176.6,288.3L176.6,288.3z"/>
	<polygon class="st0" points="177.2,290.6 177,290.9 175.7,291.3 175.4,291.1 174.4,288.3 174.6,288 175.9,287.5 176.2,287.7 	"/>
	<path class="st0" d="M190.7,312.9c0,0-0.2-1.5-1.4-5c-1.1-3.5-2.1-5.7-2.1-5.7l-0.1-0.3l-1.6-5.1l-2-6.1l-0.2-0.7l-0.1-0.3l-1,0.3
		l0.3,1.3c0.2,0.8,0.2,1.7,0.5,2.5c0.4,0.7,0.6,1.6,1,2.8c0.4,1.2,0.7,1.1,1.1,2c0.5,0.9,1,2.2,1,2.2s-0.5-0.9-1-1.8
		c-0.5-0.9-0.8-0.9-1.4-2.2c-0.5-1.3-0.7-2.9-1-3.3c-0.3-0.4-0.4-1.4-0.5-2.2l-0.4-1.1l-0.5,0.2l-0.2,0.1l-0.1,0l1.4,4.5l0.5,1.6
		l1.3,4.1l0,0.1l0.2,0.6l0.2,0.7l0.1,0.4l0.2,0.6c0,0,0.4,2.5,1.6,5.9c1.2,3.4,1.9,4.9,1.9,4.9v0l0.2,0.3l0.4,0.1l0.2-0.1l0.8-0.3
		l0.1,0l0.4-0.4L190.7,312.9L190.7,312.9L190.7,312.9L190.7,312.9z"/>
	<path class="st0" d="M182.2,291.1c0.1,0.8,0.2,1.9,0.5,2.3c0.3,0.4,0.5,1.9,1,3.3c0.5,1.3,0.9,1.3,1.4,2.2c0.5,0.9,1,1.8,1,1.8
		s-0.5-1.3-1-2.2c-0.5-0.9-0.8-0.8-1.1-2c-0.4-1.2-0.6-2-1-2.8c-0.4-0.7-0.4-1.6-0.5-2.5l-0.3-1.3l-0.3,0.1L182.2,291.1z"/>
	<path class="st0" d="M189.7,312.6l-0.3,1.4l0.8-0.3C190,313.1,189.9,312.6,189.7,312.6"/>
	<path class="st0" d="M188.4,312.6c0.2-0.4,0.5-1.8,0-2.9c-0.5-1.1-2.1-6-2.3-6.4l-0.9-0.8l-0.2,0.3l0.4,1.2c-0.1-0.6-0.1-1.1,0-1.1
		c0,0,0.5,0.8,0.9,1.9c0.4,1.1,2.1,6.1,2.1,6.7c0,0.5,0,0.7-0.1,0.8l-0.5-0.7l0.4,1.3L188.4,312.6z"/>
	<path class="st0" d="M190.2,313.1l0,0.6l0.4-0.4v-0.4l-3.6-11.1c0.1,0.6,2.1,6.8,2.3,7.7C189.7,310.5,190.3,312.5,190.2,313.1"/>
	<path class="st0" d="M183.1,296.7l-0.1-0.2l1.3,4.1l0.1-1.2C184.5,299.1,183.5,297.6,183.1,296.7"/>
	<path class="st0" d="M183.2,290.9c-0.1,0.5,0.7,3.2,1.1,4c0.2,0.4,0.7,1.2,1.1,1.9l-2-6.1L183.2,290.9z"/>
	<path class="st0" d="M181.8,292.1c0,0.9,0.3,1.8,0.6,2.1l0.6,0.3c0,0-0.8-0.4-1-1.6c-0.1-1.1-0.5-2.2-0.8-2.7l-0.2,0.1
		C181.4,290.8,181.8,291.5,181.8,292.1"/>
	<path class="st0" d="M189.7,312.6c0.1,0,0.3,0.6,0.5,1.2l0.1,0l0-0.6c0-0.6-0.6-2.6-0.8-3.6c-0.2-0.9-2.2-7.1-2.3-7.7l-1.6-5.1
		c-0.4-0.7-0.9-1.5-1.1-1.9c-0.4-0.8-1.1-3.5-1.1-4l0.2-0.3l-0.2-0.7l-0.2,1.2c0,0.5,0.4,1.9,0.8,3.1c0.4,1.3,1.2,2.4,1.7,3.2
		c0.4,0.7,0.4,1.4,0.8,2.8c0.4,1.4,0.1,0,0.3,0.6c0.2,0.6,0.4,1.5,0.7,2.7c0.3,1.2,2.2,7.2,2.2,8.2c0,0.2-0.2,1.8-0.3,2.3l0.2-0.1
		L189.7,312.6z"/>
	<path class="st0" d="M185.6,298.8l-0.4-1.1L185.6,298.8z"/>
	<path class="st0" d="M184.8,300.4l1.6,1.7l-0.8-1.5l-0.9-0.7c-0.3-0.4-1.1-2.7-1.6-3.9l-0.7-1.2l0.5,1.6l0.1,0.2
		c0.4,0.9,1.4,2.4,1.3,2.6l-0.1,1.2l0,0.1L184.8,300.4z"/>
	<path class="st0" d="M188.8,310.8c-0.1-1-2.3-6.7-2.4-7.1c-0.1-0.4-0.6-1.6-1.2-1.8l-0.4,0.4l0.2,0.6l0.2-0.3l0.9,0.8
		c0.2,0.4,1.8,5.3,2.3,6.4c0.5,1.1,0.2,2.5,0,2.9l-0.2,0.2l0.1,0.5C188.9,313.2,188.9,311.8,188.8,310.8"/>
	<path class="st0" d="M188.3,312.2c0.1,0,0.1-0.2,0.1-0.8c0-0.6-1.7-5.6-2.1-6.7c-0.4-1.1-0.9-1.8-0.9-1.8c-0.1,0-0.1,0.5,0,1.1
		l0.1,0.5c-0.1-0.6-0.1-1,0-1c0.2-0.1,2,5.4,2.2,6.1c0.2,0.7,0.6,2,0.5,2.1l-0.6-0.6l0.1,0.4L188.3,312.2z"/>
	<path class="st0" d="M183.1,289.6c0,0.2-0.4,0.4-1,0.6c-0.6,0.2-1.1,0.2-1.2,0.1c0-0.1,0.4-0.3,1.1-0.5
		C182.6,289.7,183.1,289.5,183.1,289.6"/>
	<polygon class="st0" points="168.7,298 168,297.5 168.5,296.8 169.2,297.3 	"/>
	<polygon class="st0" points="168.3,297.8 168.3,297.7 168.7,297 168.9,297 168.9,297.1 168.5,297.8 	"/>
	
		<rect x="169.8" y="297.1" transform="matrix(0.6104 -0.7921 0.7921 0.6104 -169.2959 250.7227)" class="st0" width="0.8" height="0.8"/>
	<polygon class="st0" points="169.9,297.8 169.9,297.7 170.4,297.1 170.5,297.1 170.5,297.2 170,297.8 	"/>
	<polygon class="st0" points="171.8,298.2 171.2,297.7 171.8,297.1 172.4,297.6 	"/>
	<polygon class="st0" points="171.5,298 171.5,297.9 172,297.3 172.1,297.3 172.1,297.4 171.6,298 	"/>
	<polygon class="st0" points="173.4,298.6 172.8,298 173.4,297.4 173.9,298 	"/>
	<polygon class="st0" points="173,298.3 173,298.2 173.6,297.7 173.7,297.7 173.7,297.8 173.1,298.3 	"/>
	
		<rect x="174.5" y="298.1" transform="matrix(0.7915 -0.6112 0.6112 0.7915 -145.9629 169.1362)" class="st0" width="0.8" height="0.8"/>
	<polygon class="st0" points="174.5,298.8 174.5,298.7 175.2,298.2 175.3,298.2 175.3,298.3 174.6,298.8 	"/>
	<polygon class="st0" points="176.3,299.7 175.9,299 176.5,298.5 177,299.2 	"/>
	<polygon class="st0" points="176,299.4 176,299.2 176.7,298.8 176.8,298.8 176.8,299 176.1,299.4 	"/>
	<polygon class="st0" points="177.7,300.4 177.3,299.7 178,299.3 178.4,300 	"/>
	<polygon class="st0" points="177.4,300.1 177.4,300 178.2,299.6 178.3,299.6 178.2,299.7 177.5,300.1 	"/>
	<polygon class="st0" points="179,301.2 178.7,300.5 179.4,300.2 179.7,300.9 	"/>
	<polygon class="st0" points="178.8,300.9 178.8,300.8 179.5,300.5 179.7,300.5 179.6,300.6 178.8,300.9 	"/>
	<polygon class="st0" points="180.2,302.2 180,301.4 180.7,301.2 181,302 	"/>
	<polygon class="st0" points="180,301.8 180.1,301.7 180.9,301.5 180.9,301.5 180.9,301.6 180.1,301.9 	"/>
	<polygon class="st0" points="181.4,303.2 181.2,302.5 182,302.3 182.1,303.1 	"/>
	<polygon class="st0" points="181.2,302.9 181.3,302.8 182.1,302.6 182.1,302.7 182.1,302.7 181.3,302.9 	"/>
	<polygon class="st0" points="182.4,304.4 182.3,303.6 183.1,303.5 183.2,304.3 	"/>
	<polygon class="st0" points="182.3,304 182.4,303.9 183.2,303.8 183.2,303.9 183.2,304 182.4,304.1 	"/>
	<polygon class="st0" points="183.4,305.6 183.3,304.8 184.1,304.8 184.2,305.6 	"/>
	<polygon class="st0" points="183.3,305.2 183.3,305.2 184.2,305.1 184.2,305.2 184.2,305.3 183.4,305.3 	"/>
	<polygon class="st0" points="184.2,307 184.2,306.2 185,306.2 185,307 	"/>
	<polygon class="st0" points="184.1,306.6 184.2,306.5 185,306.5 185.1,306.6 185,306.7 184.2,306.6 	"/>
	<polygon class="st0" points="184.9,308.3 185,307.5 185.8,307.7 185.7,308.5 	"/>
	<polygon class="st0" points="184.9,307.9 185,307.9 185.8,308 185.8,308.1 185.8,308.1 185,308 	"/>
	<polygon class="st0" points="185.5,309.8 185.7,309 186.5,309.2 186.3,310 	"/>
	<polygon class="st0" points="185.5,309.4 185.6,309.3 186.4,309.5 186.5,309.6 186.4,309.7 185.6,309.5 	"/>
	<polygon class="st0" points="186,311.3 186.2,310.5 187,310.8 186.7,311.5 	"/>
	<polygon class="st0" points="186,310.9 186.1,310.8 186.9,311.1 186.9,311.2 186.8,311.2 186.1,311 	"/>
	
		<rect x="186.4" y="312.1" transform="matrix(0.3783 -0.9257 0.9257 0.3783 -173.1698 367.2659)" class="st0" width="0.8" height="0.8"/>
	<polygon class="st0" points="186.4,312.4 186.5,312.4 187.2,312.7 187.3,312.8 187.2,312.8 186.4,312.5 	"/>
	<polygon class="st0" points="186.5,314.4 186.9,313.6 187.6,314 187.2,314.7 	"/>
	<polygon class="st0" points="186.6,314 186.7,313.9 187.4,314.3 187.5,314.4 187.4,314.4 186.6,314.1 	"/>
	<polygon class="st0" points="167.2,298 166.5,297.6 166.8,296.9 167.5,297.3 	"/>
	<polygon class="st0" points="166.8,297.9 166.7,297.8 167.1,297.1 167.2,297 167.3,297.2 166.9,297.9 	"/>
	
		<rect x="165" y="297.3" transform="matrix(0.3786 -0.9256 0.9256 0.3786 -172.7222 338.0633)" class="st0" width="0.8" height="0.8"/>
	<polygon class="st0" points="165.2,298.1 165.2,298 165.5,297.3 165.6,297.2 165.6,297.4 165.3,298.1 	"/>
	<polygon class="st0" points="164.1,298.6 163.3,298.3 163.6,297.5 164.3,297.8 	"/>
	<polygon class="st0" points="163.7,298.5 163.6,298.4 163.9,297.6 164,297.6 164,297.7 163.8,298.5 	"/>
	<polygon class="st0" points="162.6,299 161.8,298.8 162,298.1 162.8,298.2 	"/>
	<polygon class="st0" points="162.2,299 162.1,298.9 162.3,298.1 162.4,298.1 162.5,298.2 162.3,299 	"/>
	<polygon class="st0" points="161.2,299.6 160.4,299.5 160.5,298.7 161.3,298.8 	"/>
	<polygon class="st0" points="160.7,299.6 160.7,299.6 160.8,298.8 160.9,298.7 161,298.8 160.8,299.6 	"/>
	<polygon class="st0" points="159.8,300.3 159,300.3 159,299.5 159.8,299.5 	"/>
	<polygon class="st0" points="159.4,300.4 159.3,300.3 159.3,299.5 159.4,299.4 159.5,299.5 159.5,300.3 	"/>
	<polygon class="st0" points="158.5,301.2 157.7,301.2 157.6,300.4 158.4,300.4 	"/>
	<polygon class="st0" points="158.1,301.3 158,301.2 158,300.4 158,300.3 158.1,300.4 158.2,301.2 	"/>
	<polygon class="st0" points="157.2,302.1 156.4,302.2 156.3,301.4 157.1,301.3 	"/>
	<polygon class="st0" points="156.8,302.3 156.7,302.2 156.6,301.4 156.7,301.3 156.8,301.4 156.9,302.2 	"/>
	<polygon class="st0" points="156.1,303.2 155.3,303.3 155.1,302.5 155.9,302.4 	"/>
	<polygon class="st0" points="155.7,303.3 155.6,303.3 155.4,302.5 155.5,302.4 155.6,302.5 155.8,303.2 	"/>
	<polygon class="st0" points="155,304.3 154.3,304.5 154,303.8 154.8,303.5 	"/>
	<polygon class="st0" points="154.7,304.5 154.6,304.5 154.3,303.7 154.4,303.6 154.5,303.6 154.7,304.4 	"/>
	<polygon class="st0" points="154.1,305.6 153.3,305.9 153,305.1 153.8,304.8 	"/>
	<polygon class="st0" points="153.7,305.8 153.6,305.7 153.3,305 153.4,304.9 153.5,304.9 153.8,305.7 	"/>
	<polygon class="st0" points="153.2,306.9 152.5,307.2 152.1,306.5 152.9,306.1 	"/>
	<polygon class="st0" points="152.9,307.1 152.8,307.1 152.5,306.4 152.5,306.3 152.6,306.3 152.9,307 	"/>
	
		<rect x="151.6" y="307.7" transform="matrix(0.8499 -0.5269 0.5269 0.8499 -139.5572 126.3226)" class="st0" width="0.8" height="0.8"/>
	<polygon class="st0" points="152.2,308.5 152.1,308.5 151.7,307.8 151.7,307.7 151.8,307.7 152.2,308.4 	"/>
	<polygon class="st0" points="151.9,309.7 151.3,310.2 150.8,309.5 151.4,309 	"/>
	<polygon class="st0" points="151.7,310 151.5,310 151.1,309.3 151.1,309.2 151.2,309.2 151.7,309.9 	"/>
	<polygon class="st0" points="151.5,311.2 150.9,311.7 150.3,311.1 150.9,310.6 	"/>
	<polygon class="st0" points="151.2,311.5 151.1,311.5 150.5,310.9 150.6,310.8 150.7,310.8 151.2,311.4 	"/>
	<polygon class="st0" points="151.1,312.7 150.6,313.3 150,312.7 150.5,312.1 	"/>
	<polygon class="st0" points="150.9,313 150.8,313 150.2,312.5 150.2,312.4 150.3,312.4 150.9,312.9 	"/>
	<polygon class="st0" points="150.9,314.2 150.4,314.9 149.8,314.4 150.3,313.7 	"/>
	<polygon class="st0" points="150.7,314.6 150.6,314.6 150,314.1 150,314 150.1,314 150.7,314.5 	"/>
	<polygon class="st0" points="150.9,315.8 150.4,316.5 149.7,316 150.2,315.4 	"/>
	<polygon class="st0" points="150.7,316.2 150.6,316.2 149.9,315.8 149.9,315.6 150,315.6 150.7,316.1 	"/>
	<polygon class="st0" points="150.9,317.4 150.5,318.1 149.8,317.7 150.2,317 	"/>
	<polygon class="st0" points="150.8,317.7 150.7,317.8 150,317.4 149.9,317.3 150.1,317.3 150.8,317.6 	"/>
	
		<rect x="223" y="297" transform="matrix(0.7084 -0.7058 0.7058 0.7084 -144.7205 244.3873)" class="st0" width="0.8" height="0.8"/>
	<polygon class="st0" points="223.7,297.3 223.5,297.3 223.5,297 223.4,297 223.3,297 223.3,297.3 223.1,297.3 223,297.4 
		223.1,297.4 223.3,297.4 223.3,297.7 223.4,297.7 223.5,297.7 223.5,297.4 223.7,297.4 223.8,297.4 	"/>
	<polygon class="st0" points="222.4,297.4 221.9,298 221.3,297.5 221.8,296.9 	"/>
	<polygon class="st0" points="222.1,297.3 221.9,297.4 221.9,297.1 221.8,297 221.7,297.1 221.8,297.4 221.5,297.4 221.4,297.5 
		221.5,297.5 221.8,297.5 221.8,297.8 221.9,297.8 221.9,297.7 221.9,297.5 222.1,297.5 222.2,297.4 	"/>
	<polygon class="st0" points="220.8,297.5 220.4,298.2 219.7,297.7 220.2,297.1 	"/>
	<polygon class="st0" points="220.6,297.5 220.3,297.6 220.3,297.3 220.2,297.2 220.1,297.3 220.2,297.6 219.9,297.6 219.9,297.7 
		219.9,297.7 220.2,297.7 220.3,298 220.3,298 220.4,297.9 220.3,297.7 220.6,297.6 220.6,297.6 	"/>
	<polygon class="st0" points="219.2,297.8 218.8,298.5 218.2,298.1 218.6,297.4 	"/>
	<polygon class="st0" points="219,297.8 218.7,297.9 218.7,297.6 218.6,297.6 218.6,297.7 218.6,297.9 218.4,298 218.3,298.1 
		218.4,298.1 218.7,298 218.7,298.3 218.8,298.3 218.8,298.3 218.8,298 219,297.9 219.1,297.9 	"/>
	<polygon class="st0" points="217.7,298.3 217.4,299 216.7,298.6 217,297.9 	"/>
	<polygon class="st0" points="217.5,298.3 217.2,298.4 217.1,298.1 217.1,298.1 217,298.2 217.1,298.4 216.9,298.5 216.8,298.6 
		216.9,298.6 217.1,298.5 217.2,298.8 217.3,298.8 217.4,298.7 217.3,298.5 217.5,298.4 217.5,298.3 	"/>
	<polygon class="st0" points="216.2,298.8 215.9,299.5 215.2,299.3 215.5,298.6 	"/>
	<polygon class="st0" points="216,298.8 215.8,299 215.6,298.7 215.5,298.7 215.5,298.8 215.6,299 215.4,299.1 215.4,299.2 
		215.5,299.2 215.7,299.1 215.8,299.4 215.9,299.4 215.9,299.3 215.8,299.1 216,299 216.1,298.9 	"/>
	<polygon class="st0" points="214.8,299.5 214.6,300.3 213.8,300 214,299.3 	"/>
	<polygon class="st0" points="214.5,299.6 214.3,299.7 214.2,299.5 214.1,299.4 214.1,299.5 214.2,299.8 214,299.9 214,300 
		214.1,300 214.3,299.9 214.4,300.1 214.5,300.1 214.5,300 214.4,299.8 214.6,299.7 214.6,299.6 	"/>
	<polygon class="st0" points="213.4,300.3 213.3,301.1 212.5,300.9 212.6,300.2 	"/>
	<polygon class="st0" points="213.2,300.4 213,300.5 212.8,300.3 212.7,300.3 212.7,300.4 212.9,300.6 212.7,300.8 212.6,300.9 
		212.7,300.9 212.9,300.7 213.1,300.9 213.2,300.9 213.2,300.9 213,300.6 213.3,300.5 213.3,300.4 	"/>
	
		<rect x="211.3" y="301.2" transform="matrix(9.250117e-02 -0.9957 0.9957 9.250117e-02 -108.2098 484.4728)" class="st0" width="0.8" height="0.8"/>
	<polygon class="st0" points="211.9,301.3 211.7,301.5 211.5,301.3 211.5,301.3 211.4,301.4 211.6,301.6 211.4,301.7 211.4,301.8 
		211.5,301.9 211.7,301.7 211.9,301.9 212,301.9 212,301.8 211.8,301.6 212,301.4 212,301.3 	"/>
	<rect x="210.1" y="302.3" class="st0" width="0.8" height="0.8"/>
	<polygon class="st0" points="210.7,302.4 210.5,302.6 210.4,302.4 210.3,302.4 210.3,302.5 210.5,302.7 210.3,302.8 210.3,302.9 
		210.4,302.9 210.5,302.7 210.7,302.9 210.8,302.9 210.8,302.8 210.6,302.7 210.8,302.5 210.8,302.4 	"/>
	<polygon class="st0" points="209.8,303.4 209.9,304.2 209.1,304.2 209,303.5 	"/>
	<polygon class="st0" points="209.6,303.5 209.5,303.7 209.2,303.6 209.2,303.6 209.2,303.7 209.4,303.8 209.2,304 209.2,304.1 
		209.3,304.1 209.5,303.9 209.7,304.1 209.7,304.1 209.7,304 209.5,303.8 209.7,303.6 209.7,303.5 	"/>
	<polygon class="st0" points="208.8,304.6 208.9,305.4 208.2,305.5 208,304.8 	"/>
	<polygon class="st0" points="208.6,304.8 208.5,305 208.3,304.8 208.2,304.9 208.2,305 208.4,305.1 208.3,305.3 208.3,305.4 
		208.4,305.4 208.5,305.2 208.7,305.3 208.8,305.3 208.8,305.2 208.6,305.1 208.7,304.9 208.7,304.8 	"/>
	<polygon class="st0" points="207.9,306 208.1,306.7 207.4,306.9 207.1,306.2 	"/>
	<polygon class="st0" points="207.7,306.1 207.6,306.3 207.4,306.2 207.3,306.2 207.3,306.3 207.6,306.4 207.4,306.7 207.4,306.8 
		207.5,306.7 207.6,306.5 207.9,306.6 208,306.6 208,306.5 207.7,306.4 207.8,306.2 207.8,306.1 	"/>
	
		<rect x="206.5" y="307.4" transform="matrix(0.9396 -0.3422 0.3422 0.9396 -92.8468 89.3794)" class="st0" width="0.8" height="0.8"/>
	<polygon class="st0" points="207,307.5 206.9,307.7 206.6,307.6 206.5,307.7 206.6,307.7 206.8,307.9 206.7,308.1 206.7,308.2 
		206.8,308.1 206.9,307.9 207.1,308 207.2,308 207.2,307.9 207,307.8 207.1,307.6 207.1,307.5 	"/>
	<polygon class="st0" points="206.5,308.8 206.8,309.5 206.1,309.8 205.8,309.1 	"/>
	<polygon class="st0" points="206.3,309 206.3,309.2 206,309.1 205.9,309.2 206,309.2 206.2,309.3 206.1,309.6 206.2,309.7 
		206.2,309.6 206.3,309.4 206.6,309.5 206.7,309.4 206.6,309.3 206.4,309.3 206.4,309 206.4,308.9 	"/>
	<polygon class="st0" points="206,310.3 206.3,311 205.7,311.3 205.3,310.7 	"/>
	<polygon class="st0" points="205.8,310.5 205.8,310.7 205.5,310.7 205.4,310.7 205.5,310.8 205.7,310.8 205.7,311.1 205.7,311.2 
		205.8,311.1 205.9,310.9 206.1,311 206.2,310.9 206.1,310.8 205.9,310.8 206,310.5 205.9,310.4 	"/>
	<polygon class="st0" points="205.5,311.8 206,312.5 205.4,312.9 204.9,312.3 	"/>
	<polygon class="st0" points="205.5,312 205.4,312.3 205.1,312.2 205.1,312.3 205.1,312.4 205.4,312.4 205.3,312.7 205.4,312.7 
		205.5,312.7 205.5,312.4 205.8,312.5 205.8,312.4 205.8,312.4 205.5,312.3 205.6,312.1 205.5,312 	"/>
	
		<rect x="204.9" y="313.5" transform="matrix(0.7644 -0.6448 0.6448 0.7644 -154.0426 206.3121)" class="st0" width="0.8" height="0.8"/>
	<polygon class="st0" points="205.2,313.6 205.2,313.9 204.9,313.8 204.9,313.9 204.9,314 205.2,314 205.1,314.2 205.2,314.3 
		205.3,314.3 205.3,314 205.6,314 205.6,314 205.6,313.9 205.3,313.9 205.3,313.6 205.3,313.6 	"/>
	<polygon class="st0" points="205.2,315 205.7,315.5 205.2,316.1 204.6,315.5 	"/>
	<polygon class="st0" points="205.1,315.2 205.1,315.4 204.8,315.4 204.8,315.5 204.8,315.6 205.1,315.6 205.1,315.8 205.2,315.9 
		205.2,315.8 205.2,315.6 205.5,315.6 205.5,315.5 205.5,315.4 205.2,315.4 205.2,315.2 205.2,315.1 	"/>
	
		<rect x="204.8" y="316.7" transform="matrix(0.6359 -0.7717 0.7717 0.6359 -169.9933 273.832)" class="st0" width="0.8" height="0.8"/>
	<polygon class="st0" points="205.1,316.8 205.2,317 204.9,317.1 204.9,317.1 204.9,317.2 205.2,317.2 205.2,317.4 205.3,317.5 
		205.3,317.4 205.3,317.1 205.6,317.1 205.6,317.1 205.5,317 205.3,317 205.3,316.8 205.2,316.7 	"/>
	
		<rect x="224.6" y="297" transform="matrix(0.7667 -0.6421 0.6421 0.7667 -138.4663 213.8574)" class="st0" width="0.8" height="0.8"/>
	<polygon class="st0" points="225.3,297.4 225.1,297.4 225.1,297.1 225,297 225,297.1 224.9,297.4 224.7,297.3 224.6,297.4 
		224.7,297.5 224.9,297.5 224.9,297.8 225,297.8 225,297.8 225.1,297.5 225.3,297.5 225.4,297.5 	"/>
	<polygon class="st0" points="227.1,297.7 226.5,298.2 226.1,297.5 226.7,297.1 	"/>
	<polygon class="st0" points="226.9,297.6 226.6,297.6 226.7,297.3 226.6,297.3 226.6,297.3 226.5,297.6 226.3,297.5 226.2,297.6 
		226.2,297.6 226.5,297.7 226.5,297.9 226.5,298 226.6,298 226.6,297.7 226.9,297.8 226.9,297.7 	"/>
	<polygon class="st0" points="228.6,298.1 228,298.5 227.6,297.8 228.3,297.5 	"/>
	<polygon class="st0" points="228.5,298 228.2,297.9 228.3,297.7 228.2,297.6 228.1,297.7 228.1,297.9 227.8,297.8 227.7,297.9 
		227.8,298 228.1,298 228,298.3 228,298.4 228.1,298.3 228.2,298.1 228.4,298.1 228.5,298.1 	"/>
	
		<rect x="229.2" y="298.1" transform="matrix(0.9078 -0.4195 0.4195 0.9078 -104.0154 123.847)" class="st0" width="0.8" height="0.8"/>
	<polygon class="st0" points="230,298.5 229.7,298.4 229.8,298.2 229.8,298.1 229.7,298.1 229.6,298.4 229.4,298.3 229.3,298.3 
		229.3,298.4 229.6,298.5 229.5,298.8 229.5,298.8 229.6,298.8 229.7,298.5 229.9,298.6 230,298.6 	"/>
	<polygon class="st0" points="231.6,299.3 230.9,299.6 230.6,298.8 231.3,298.6 	"/>
	<polygon class="st0" points="231.4,299.2 231.2,299 231.3,298.8 231.3,298.7 231.2,298.8 231.1,299 230.8,298.9 230.8,298.9 
		230.8,299 231,299.1 230.9,299.3 231,299.4 231,299.4 231.1,299.2 231.4,299.3 231.4,299.2 	"/>
	<polygon class="st0" points="233,300.1 232.2,300.3 232,299.5 232.8,299.3 	"/>
	<polygon class="st0" points="232.8,299.9 232.6,299.8 232.7,299.6 232.7,299.5 232.6,299.5 232.5,299.7 232.3,299.6 232.2,299.6 
		232.2,299.7 232.4,299.8 232.3,300.1 232.3,300.2 232.4,300.1 232.5,299.9 232.8,300 232.9,300 	"/>
	<polygon class="st0" points="234.3,301 233.5,301.1 233.4,300.4 234.2,300.2 	"/>
	<polygon class="st0" points="234.2,300.8 233.9,300.7 234.1,300.4 234.1,300.4 234,300.4 233.9,300.6 233.6,300.4 233.5,300.5 
		233.5,300.5 233.8,300.7 233.6,300.9 233.6,301 233.7,301 233.9,300.8 234.1,300.9 234.2,300.9 	"/>
	
		<rect x="234.7" y="301.3" transform="matrix(0.9952 -9.819675e-02 9.819675e-02 0.9952 -28.4858 24.5435)" class="st0" width="0.8" height="0.8"/>
	<polygon class="st0" points="235.4,301.8 235.2,301.6 235.4,301.4 235.4,301.3 235.3,301.4 235.1,301.6 234.9,301.4 234.8,301.4 
		234.8,301.5 235,301.7 234.9,301.9 234.9,301.9 234.9,301.9 235.1,301.7 235.3,301.9 235.4,301.9 	"/>
	<rect x="235.9" y="302.3" class="st0" width="0.8" height="0.8"/>
	<polygon class="st0" points="236.5,302.9 236.4,302.7 236.5,302.5 236.5,302.5 236.5,302.5 236.3,302.6 236.1,302.5 236,302.5 
		236,302.5 236.2,302.7 236,302.9 236,303 236.1,303 236.3,302.8 236.5,303 236.5,303 	"/>
	<polygon class="st0" points="237.7,304.3 236.9,304.2 237,303.5 237.8,303.5 	"/>
	<polygon class="st0" points="237.6,304.1 237.4,303.9 237.6,303.7 237.6,303.6 237.6,303.6 237.4,303.8 237.2,303.6 237.1,303.6 
		237.1,303.7 237.3,303.9 237.1,304.1 237.1,304.1 237.2,304.1 237.3,304 237.5,304.2 237.6,304.2 	"/>
	<polygon class="st0" points="238.6,305.6 237.9,305.5 238,304.7 238.8,304.8 	"/>
	<polygon class="st0" points="238.5,305.4 238.4,305.2 238.6,305 238.6,304.9 238.5,304.9 238.3,305.1 238.2,304.9 238.1,304.8 
		238.1,304.9 238.2,305.1 238,305.3 238,305.4 238.1,305.4 238.3,305.2 238.4,305.5 238.5,305.5 	"/>
	<path class="st0" d="M223.4,298.3c-9.6,0-17.3,7.8-17.3,17.3c0,9.6,7.8,17.3,17.3,17.3c9.6,0,17.3-7.8,17.3-17.3
		C240.7,306,233,298.3,223.4,298.3 M238.9,315.6c0,0.6,0,1.1-0.1,1.6l-8.8-1.4l8.9-0.9V315.6z M228.6,318.8l-2.2-1.8l2.7,0.4
		l8.6,3.9l-0.6,1.3L228.6,318.8z M237.2,322.7c-0.4,0.7-0.8,1.4-1.2,2l-6.9-5.6L237.2,322.7z M207.9,315.6c0-0.6,0-1.1,0.1-1.7
		l8.8,1.4l-8.9,0.9L207.9,315.6z M218.2,312.4l2.1,1.8l-2.8-0.5l-8.6-3.9l0.6-1.3L218.2,312.4z M209.7,308.4c0.4-0.7,0.8-1.3,1.2-2
		l6.9,5.6L209.7,308.4z M223.9,316.1l-0.2,0.1l-0.2,0.1h-0.2l-0.2,0l-0.1-0.1l-0.1-0.1l-0.1-0.2l-0.1-0.2l0-0.2l0-0.2l0.1-0.2
		l0.1-0.1l0.2-0.1l0.2-0.1l0.2,0l0.1,0l0.2,0.1l0.1,0.1l0.1,0.2l0.1,0.2l0,0.2l0,0.2L224,316L223.9,316.1z M224.4,315.5L224.4,315.5
		L224.4,315.5L224.4,315.5L224.4,315.5z M224.5,315.3L224.5,315.3L224.5,315.3L224.5,315.3L224.5,315.3z M224.4,315.2L224.4,315.2
		L224.4,315.2L224.4,315.2L224.4,315.2z M224.4,315.1L224.4,315.1L224.4,315.1L224.4,315.1L224.4,315.1z M224.3,315L224.3,315
		L224.3,315L224.3,315L224.3,315z M224,314.8L224,314.8L224,314.8L224,314.8L224,314.8z M224,314.7L224,314.7L224,314.7L224,314.7
		L224,314.7z M223.8,314.7L223.8,314.7L223.8,314.7L223.8,314.7L223.8,314.7z M223.7,314.5L223.7,314.5l0-0.1L223.7,314.5
		L223.7,314.5z M223.6,314.6L223.6,314.6L223.6,314.6L223.6,314.6L223.6,314.6z M223.3,314.6L223.3,314.6L223.3,314.6L223.3,314.6
		L223.3,314.6z M223.2,314.5L223.2,314.5l0-0.1L223.2,314.5L223.2,314.5z M223.1,314.6L223.1,314.6L223.1,314.6L223.1,314.6
		L223.1,314.6z M222.9,314.6L222.9,314.6L222.9,314.6L222.9,314.6L222.9,314.6z M222.8,314.8L222.8,314.8L222.8,314.8L222.8,314.8
		L222.8,314.8z M222.5,315.2L222.5,315.2L222.5,315.2L222.5,315.2L222.5,315.2L222.5,315.2L222.5,315.2z M222.4,315.3L222.4,315.3
		L222.4,315.3L222.4,315.3L222.4,315.3z M222.4,315.4L222.4,315.4L222.4,315.4L222.4,315.4L222.4,315.4z M222.3,315.6L222.3,315.6
		L222.3,315.6L222.3,315.6L222.3,315.6z M222.4,315.7L222.4,315.7L222.4,315.7L222.4,315.7L222.4,315.7z M222.4,315.8L222.4,315.8
		L222.4,315.8L222.4,315.8L222.4,315.8z M222.5,315.9L222.5,315.9L222.5,315.9L222.5,315.9L222.5,315.9z M222.5,316.1L222.5,316.1
		L222.5,316.1L222.5,316.1L222.5,316.1z M222.6,316.2L222.6,316.2L222.6,316.2L222.6,316.2L222.6,316.2z M222.8,316.4L222.8,316.4
		L222.8,316.4L222.8,316.4L222.8,316.4z M222.8,316.5L222.8,316.5L222.8,316.5L222.8,316.5L222.8,316.5L222.8,316.5z M223,316.5
		L223,316.5L223,316.5L223,316.5L223,316.5z M223.1,316.6L223.1,316.6L223.1,316.6L223.1,316.6L223.1,316.6z M223.2,316.6
		L223.2,316.6L223.2,316.6L223.2,316.6L223.2,316.6z M223.5,316.6L223.5,316.6L223.5,316.6L223.5,316.6L223.5,316.6z M223.7,316.7
		L223.7,316.7L223.7,316.7L223.7,316.7L223.7,316.7z M223.7,316.5L223.7,316.5L223.7,316.5L223.7,316.5L223.7,316.5z M223.9,316.5
		L223.9,316.5L223.9,316.5L223.9,316.5L223.9,316.5z M224,316.4L224,316.4L224,316.4L224,316.4L224,316.4z M224.3,316L224.3,316
		L224.3,316L224.3,316L224.3,316z M224.5,315.9L224.5,315.9l0.1,0L224.5,315.9L224.5,315.9z M224.4,315.8L224.4,315.8L224.4,315.8
		L224.4,315.8L224.4,315.8z M224.5,315.6L224.5,315.6l0.1,0L224.5,315.6L224.5,315.6z M224.6,315.5L224.6,315.5l0.2,0L224.6,315.5
		L224.6,315.5z M224.8,315.3l0.1-0.2l0.3,0.1l-0.3,0.2L224.8,315.3z M224.7,315.2L224.7,315.2l0-0.2l0.2,0L224.7,315.2z
		 M224.7,314.9l0.1-0.2l0.3,0l-0.2,0.3L224.7,314.9z M224.5,314.9l-0.1,0l0-0.1l0.2,0L224.5,314.9z M224.3,314.9L224.3,314.9
		L224.3,314.9L224.3,314.9L224.3,314.9z M224.2,314.6v-0.1l0.1-0.1l0,0.2L224.2,314.6z M224.2,314.4l0-0.2l0.3-0.2l-0.1,0.3
		L224.2,314.4z M224,314.4L224,314.4l-0.1-0.1l0.1-0.1V314.4z M223.8,314.2l-0.1-0.2l0.2-0.3l0,0.3L223.8,314.2z M223.7,314.3
		L223.7,314.3l-0.2,0l0.1-0.1L223.7,314.3z M223.5,314.5L223.5,314.5L223.5,314.5L223.5,314.5L223.5,314.5z M223.3,314.4
		L223.3,314.4l0-0.2L223.3,314.4L223.3,314.4z M223.1,314.2l-0.1-0.1l0-0.3l0.2,0.3L223.1,314.2z M223,314.3l0,0.1l-0.1,0l0-0.2
		L223,314.3z M222.8,314.3l-0.2-0.1l0-0.3l0.3,0.2L222.8,314.3z M222.7,314.5L222.7,314.5l-0.1,0.1l0-0.2L222.7,314.5z M222.7,314.7
		L222.7,314.7L222.7,314.7L222.7,314.7L222.7,314.7z M222.7,314.9L222.7,314.9L222.7,314.9L222.7,314.9L222.7,314.9z M222.5,315
		L222.5,315L222.5,315L222.5,315L222.5,315L222.5,315L222.5,315z M222.3,315.1l-0.1,0l-0.1-0.1l0.2,0L222.3,315.1z M222.1,315.2
		l-0.2,0.1l-0.3-0.2l0.3,0L222.1,315.2z M222.1,315.3L222.1,315.3l0,0.2l-0.1-0.1L222.1,315.3z M222,315.5l-0.2,0.1l-0.3-0.1
		l0.3-0.1L222,315.5z M222.1,315.6l0.1,0.1l-0.1,0.1l-0.1-0.1L222.1,315.6z M222,315.9l-0.1,0.2l-0.3,0l0.3-0.2L222,315.9z
		 M222.2,316l0.1,0l0,0.1l-0.2,0L222.2,316z M222.2,316.3l-0.1,0.2l-0.4,0l0.2-0.3L222.2,316.3z M222.3,316.3l0.1,0v0.1l-0.2,0
		L222.3,316.3z M222.6,316.3L222.6,316.3L222.6,316.3L222.6,316.3L222.6,316.3z M222.6,316.5l0,0.1l-0.1,0v-0.2L222.6,316.5
		L222.6,316.5L222.6,316.5z M222.7,316.8l0,0.2l-0.3,0.2l0-0.3L222.7,316.8z M222.8,316.7l0.1,0l0,0.1l-0.1,0.1L222.8,316.7z
		 M223,316.9l0.1,0.2l-0.2,0.3l0-0.3L223,316.9z M223.1,316.9L223.1,316.9l0.2,0l-0.1,0.1L223.1,316.9z M223.3,316.7L223.3,316.7
		L223.3,316.7L223.3,316.7L223.3,316.7z M223.5,316.8L223.5,316.8l0,0.2L223.5,316.8L223.5,316.8z M223.7,317l0.2,0.1l-0.1,0.3
		l-0.2-0.3L223.7,317z M223.8,316.8l0-0.1l0.1,0.1l0,0.2L223.8,316.8z M224.1,316.8l0.2,0.1l0,0.3L224,317L224.1,316.8z
		 M224.1,316.7l0-0.1h0.1v0.2L224.1,316.7z M224.2,316.4L224.2,316.4L224.2,316.4L224.2,316.4L224.2,316.4z M224.2,316.2
		L224.2,316.2L224.2,316.2L224.2,316.2L224.2,316.2z M224.3,316.2L224.3,316.2L224.3,316.2L224.3,316.2L224.3,316.2z M224.5,316.1
		L224.5,316.1l0.2,0.1L224.5,316.1L224.5,316.1z M224.8,316l0.2-0.1l0.3,0.2l-0.3,0L224.8,316z M224.7,315.9L224.7,315.9l0-0.2
		l0.1,0.1L224.7,315.9z M224.8,315.6l0.2-0.1l0.3,0.1l-0.3,0.1L224.8,315.6z M225.1,315.4l0.3-0.2l0.8,0.1l-0.7,0.3L225.1,315.4z
		 M225.6,315.1l0.7-0.5l2.5-0.2l-2.4,0.9L225.6,315.1z M225.4,315L225,315l0.3-0.3l0.8-0.1L225.4,315z M225.4,314.5l0.5-0.7l2.4-0.9
		l-2.1,1.5L225.4,314.5z M225.2,314.5l-0.4,0l0.2-0.4l0.7-0.3L225.2,314.5z M224.7,314.6l-0.2,0l0-0.2l0.3-0.1L224.7,314.6z
		 M224.5,314.2l0-0.4l0.6-0.5l-0.3,0.7L224.5,314.2z M224.6,313.7l0.1-0.9l1.6-1.9l-1.1,2.3L224.6,313.7z M224.5,313.8l-0.3,0.2
		l0-0.4l0.5-0.6L224.5,313.8z M224.1,313.4l-0.1-0.9l1-2.3l-0.4,2.5L224.1,313.4z M224,313.6l-0.3,0.3l-0.1-0.4l0.3-0.7L224,313.6z
		 M223.6,314l-0.1,0.2l-0.1-0.2l0.1-0.3L223.6,314z M223.2,313.9l-0.2-0.3l0.1-0.8l0.3,0.7L223.2,313.9z M222.9,313.4l-0.5-0.7
		l-0.3-2.5l0.9,2.4L222.9,313.4z M222.9,313.6l-0.1,0.4l-0.3-0.2l-0.1-0.8L222.9,313.6z M222.4,313.6l-0.7-0.5l-0.9-2.4l1.5,2
		L222.4,313.6z M222.4,313.8l0,0.4l-0.4-0.2l-0.3-0.7L222.4,313.8z M222.4,314.3l0,0.2l-0.2,0l-0.1-0.3L222.4,314.3z M222.5,314.7
		v0.1l-0.1,0l0-0.2L222.5,314.7z M222.2,314.8l-0.2,0l-0.2-0.3l0.3,0.1L222.2,314.8z M221.8,314.9l-0.4,0l-0.6-0.5l0.8,0.1
		L221.8,314.9z M221.2,314.9l-0.9,0.1l-2.3-1l2.5,0.4L221.2,314.9z M221.4,315.1l0.3,0.3l-0.4,0.1l-0.7-0.3L221.4,315.1z
		 M221.2,315.5l-0.8,0.3l-2.5-0.4l2.5-0.2L221.2,315.5z M221.3,315.6l0.4,0.2l-0.3,0.2l-0.8-0.1L221.3,315.6z M221.2,316.1l-0.7,0.5
		l-2.5,0.3l2.4-0.9L221.2,316.1z M221.4,316.1l0.4,0l-0.3,0.3l-0.8,0.1L221.4,316.1z M221.4,316.7l-0.5,0.7l-2.4,0.9l2.1-1.5
		L221.4,316.7z M221.6,316.6l0.4,0l-0.2,0.4l-0.7,0.3L221.6,316.6z M222.2,316.6l0.2,0l0,0.2l-0.3,0.1L222.2,316.6z M222.3,316.9
		l-0.1,0.4l-0.6,0.4l0.3-0.7L222.3,316.9z M222.2,317.5l-0.1,0.8l-1.6,2l1-2.3L222.2,317.5z M222.4,317.4l0.3-0.2l0,0.4l-0.5,0.6
		L222.4,317.4z M222.8,317.7l0.1,0.9l-1,2.3l0.4-2.5L222.8,317.7z M222.9,317.6l0.2-0.3l0.1,0.4l-0.3,0.7L222.9,317.6z M223.2,317.2
		l0.1-0.2l0.1,0.2l-0.1,0.3L223.2,317.2z M223.6,317.3l0.2,0.3l-0.1,0.8l-0.3-0.7L223.6,317.3z M223.9,317.8l0.5,0.7l0.3,2.5
		l-0.9-2.4L223.9,317.8z M224,317.6l0.1-0.4l0.3,0.3l0.1,0.8L224,317.6z M224.5,317.6l0.7,0.6l0.9,2.4l-1.5-2L224.5,317.6z
		 M224.5,317.4l0-0.4l0.4,0.1l0.3,0.7L224.5,317.4z M224.4,316.8l0-0.2l0.2,0l0.1,0.3L224.4,316.8z M224.4,316.5l0-0.1h0.1l0.1,0.1
		L224.4,316.5z M224.6,316.3l0.2,0l0.2,0.3l-0.3,0L224.6,316.3z M225,316.3l0.4,0l0.6,0.5l-0.8-0.1L225,316.3z M225.6,316.2l0.8-0.1
		l2.3,1l-2.5-0.4L225.6,316.2z M225.4,316.1l-0.3-0.2l0.4-0.1l0.7,0.3L225.4,316.1z M225.7,315.6l0.8-0.3l2.5,0.4l-2.5,0.3
		L225.7,315.6z M226.8,315.2l2.6-1l9.4-0.9l0.1,1.4l-9.4,0.9L226.8,315.2z M229.9,314.1l8.3-3.1c0.2,0.7,0.4,1.5,0.5,2.3
		L229.9,314.1z M229.3,314.1l-2.8,0.3l2.3-1.6l8.8-3.3l0.5,1.4L229.3,314.1z M229.3,312.5l7.2-5.2c0.4,0.6,0.8,1.3,1.1,2
		L229.3,312.5z M228.8,312.6l-2.6,1l1.8-2.2l7.6-5.5l0.8,1.2L228.8,312.6z M225.9,313.7l-0.8,0.3l0.4-0.8l2.1-1.5L225.9,313.7z
		 M225.5,313l1.2-2.6l6-7.3l1.1,0.9l-6,7.3L225.5,313z M226.9,310l3.7-8.1c0.7,0.4,1.3,0.8,2,1.2L226.9,310z M226.6,310.4l-1.8,2.2
		l0.4-2.8l3.9-8.6l1.3,0.6L226.6,310.4z M225.3,309.3l1.4-8.8c0.8,0.2,1.5,0.4,2.2,0.7L225.3,309.3z M225.1,309.7l-1.2,2.6l-0.3-2.8
		l1.5-9.3l1.4,0.2L225.1,309.7z M223.8,312.5l-0.3,0.8l-0.3-0.8l0.4-2.5L223.8,312.5z M223.1,312.3l-1-2.6l-0.9-9.4l1.5-0.1l0.9,9.4
		L223.1,312.3z M221.9,309.1l-3.1-8.3c0.7-0.2,1.5-0.4,2.2-0.5L221.9,309.1z M222,309.7l0.3,2.8l-1.6-2.3l-3.3-8.8l1.3-0.5
		L222,309.7z M220.3,309.8l-5.2-7.2c0.6-0.4,1.3-0.8,2-1.1L220.3,309.8z M220.5,310.3l1,2.6l-2.2-1.8l-5.5-7.6l1.2-0.8L220.5,310.3z
		 M221.6,313.1l0.3,0.8l-0.8-0.4l-1.5-2.1L221.6,313.1z M222,314.1l0.1,0.4l-0.4-0.1l-0.4-0.6L222,314.1z M221.5,314.4l-0.9-0.1
		l-1.9-1.6l2.3,1L221.5,314.4z M217.1,313.7l-8.8-1.4c0.2-0.8,0.4-1.5,0.7-2.2L217.1,313.7z M217.5,313.9l2.6,1.2l-2.8,0.3l-9.3-1.5
		l0.2-1.4L217.5,313.9z M217.3,315.5l2.8,0.5l-2.6,1l-9.4,0.9l-0.1-1.4L217.3,315.5z M217,317.1l-8.4,3.2c-0.2-0.7-0.4-1.5-0.5-2.3
		L217,317.1z M217.5,317l2.8-0.3l-2.3,1.6l-8.9,3.4l-0.5-1.4L217.5,317z M217.6,318.7l-7.2,5.2c-0.4-0.7-0.8-1.3-1.1-2.1
		L217.6,318.7z M218.1,318.5l2.6-1l-1.8,2.2l-7.7,5.5l-0.8-1.2L218.1,318.5z M221,317.4l0.8-0.3l-0.3,0.8l-2,1.5L221,317.4z
		 M221.3,318.2l-1.2,2.6l-6,7.3l-1.1-0.9l6-7.3L221.3,318.2z M219.9,321.2l-3.6,8.2c-0.7-0.4-1.4-0.8-2-1.3L219.9,321.2z
		 M220.3,320.8l1.8-2.2l-0.4,2.8l-3.9,8.6l-1.3-0.6L220.3,320.8z M221.5,321.9l-1.4,8.8c-0.8-0.2-1.5-0.4-2.2-0.7L221.5,321.9z
		 M221.7,321.4l1.2-2.5l0.3,2.8l-1.5,9.3l-1.4-0.2L221.7,321.4z M223,318.6l0.4-0.8l0.3,0.8l-0.4,2.5L223,318.6z M223.7,318.9l1,2.6
		l0.9,9.4l-1.4,0.1l-0.9-9.4L223.7,318.9z M224.9,322l3.1,8.3c-0.7,0.2-1.5,0.4-2.3,0.5L224.9,322z M224.9,321.5l-0.3-2.8l1.6,2.3
		l3.3,8.8l-1.3,0.5L224.9,321.5z M226.5,321.4l5.2,7.2c-0.7,0.4-1.3,0.8-2.1,1.1L226.5,321.4z M226.4,320.9l-1-2.6l2.2,1.8l5.5,7.7
		l-1.2,0.8L226.4,320.9z M225.3,318l-0.3-0.8l0.8,0.4l1.5,2.1L225.3,318z M224.9,317l-0.1-0.4l0.4,0l0.4,0.6L224.9,317z
		 M225.3,316.8l0.8,0.1l2,1.6l-2.3-1L225.3,316.8z M229.7,317.5l8.8,1.5c-0.2,0.8-0.4,1.5-0.7,2.2L229.7,317.5z M229.2,317.3
		l-2.5-1.1l2.8-0.3l9.3,1.5l-0.2,1.4L229.2,317.3z M235.5,305.9l-7.2,5.2l5.6-6.9C234.4,304.7,235,305.3,235.5,305.9 M225.1,300.2
		l-1.4,8.8l-0.9-8.8l0.7,0C224,300.1,224.5,300.1,225.1,300.2 M213.7,303.5l5.2,7.2l-6.9-5.6C212.5,304.6,213.1,304,213.7,303.5
		 M211.9,305.2l7.3,6l1.6,2.3l-2.6-1.1l-7.3-6L211.9,305.2z M211.3,325.3l7.3-5.2l-5.7,6.9C212.4,326.5,211.8,325.9,211.3,325.3
		 M221.8,331l1.5-8.8l0.9,8.9l-0.7,0C222.8,331.1,222.3,331.1,221.8,331 M233.1,327.6l-5.2-7.2l6.9,5.6
		C234.3,326.6,233.8,327.2,233.1,327.6 M234.9,325.9l-7.3-6l-1.6-2.3l2.5,1.2l7.3,6L234.9,325.9z"/>
	<path class="st0" d="M168.7,298.6c-9.5,0-17.3,7.8-17.3,17.3c0,9.6,7.8,17.3,17.3,17.3c9.6,0,17.3-7.8,17.3-17.3
		C186,306.3,178.2,298.6,168.7,298.6 M184.2,315.9c0,0.6,0,1.1-0.1,1.6l-8.8-1.4l8.8-0.9L184.2,315.9z M173.9,319l-2.2-1.8l2.8,0.5
		l8.6,3.9l-0.6,1.3L173.9,319z M182.4,323c-0.4,0.7-0.8,1.4-1.2,2l-6.9-5.6L182.4,323z M153.2,315.9c0-0.6,0-1.1,0.1-1.7l8.8,1.4
		l-8.9,0.9L153.2,315.9z M163.5,312.7l2.1,1.8l-2.8-0.5l-8.6-3.9l0.6-1.3L163.5,312.7z M155,308.7c0.4-0.7,0.8-1.3,1.2-2l6.9,5.6
		L155,308.7z M169.2,316.4l-0.1,0.1l-0.2,0.1h-0.2l-0.2,0l-0.1-0.1l-0.1-0.1l-0.1-0.2L168,316l0-0.2l0-0.2l0.1-0.2l0.1-0.1l0.2-0.1
		l0.2-0.1l0.2,0l0.1,0l0.2,0.1l0.1,0.1l0.1,0.2l0,0.2l0,0.2l0,0.2l-0.1,0.2L169.2,316.4z M169.7,315.8L169.7,315.8L169.7,315.8
		L169.7,315.8L169.7,315.8z M169.8,315.6L169.8,315.6L169.8,315.6L169.8,315.6L169.8,315.6z M169.6,315.5L169.6,315.5L169.6,315.5
		L169.6,315.5L169.6,315.5z M169.7,315.4L169.7,315.4L169.7,315.4L169.7,315.4L169.7,315.4z M169.5,315.3L169.5,315.3L169.5,315.3
		L169.5,315.3L169.5,315.3z M169.3,315.1L169.3,315.1L169.3,315.1L169.3,315.1L169.3,315.1z M169.3,314.9L169.3,314.9L169.3,314.9
		L169.3,314.9L169.3,314.9L169.3,314.9z M169.1,314.9L169.1,314.9L169.1,314.9L169.1,314.9L169.1,314.9z M169,314.8L169,314.8l0-0.1
		L169,314.8L169,314.8z M168.9,314.9L168.9,314.9L168.9,314.9L168.9,314.9L168.9,314.9z M168.6,314.9L168.6,314.9L168.6,314.9
		L168.6,314.9L168.6,314.9z M168.4,314.8L168.4,314.8v-0.1V314.8L168.4,314.8z M168.4,314.9L168.4,314.9L168.4,314.9L168.4,314.9
		L168.4,314.9z M168.2,314.9L168.2,314.9L168.2,314.9L168.2,314.9L168.2,314.9z M168.1,315L168.1,315L168.1,315L168.1,315L168.1,315
		L168.1,315z M167.8,315.4L167.8,315.4L167.8,315.4L167.8,315.4L167.8,315.4z M167.7,315.6L167.7,315.6L167.7,315.6L167.7,315.6
		L167.7,315.6z M167.7,315.7L167.7,315.7L167.7,315.7L167.7,315.7L167.7,315.7z M167.6,315.8L167.6,315.8l-0.1,0L167.6,315.8
		L167.6,315.8z M167.7,315.9L167.7,315.9L167.7,315.9L167.7,315.9L167.7,315.9z M167.6,316.1L167.6,316.1L167.6,316.1L167.6,316.1
		L167.6,316.1z M167.8,316.2L167.8,316.2L167.8,316.2L167.8,316.2L167.8,316.2z M167.7,316.4L167.7,316.4L167.7,316.4L167.7,316.4
		L167.7,316.4z M167.9,316.4L167.9,316.4L167.9,316.4L167.9,316.4L167.9,316.4z M168.1,316.6L168.1,316.6L168.1,316.6L168.1,316.6
		L168.1,316.6z M168.1,316.8L168.1,316.8L168.1,316.8L168.1,316.8L168.1,316.8L168.1,316.8z M168.3,316.8L168.3,316.8L168.3,316.8
		L168.3,316.8L168.3,316.8z M168.4,316.9L168.4,316.9L168.4,316.9L168.4,316.9L168.4,316.9z M168.5,316.9L168.5,316.9L168.5,316.9
		L168.5,316.9L168.5,316.9z M168.8,316.9L168.8,316.9L168.8,316.9L168.8,316.9L168.8,316.9z M168.9,316.9L168.9,316.9L168.9,316.9
		L168.9,316.9L168.9,316.9z M169,316.8L169,316.8L169,316.8L169,316.8L169,316.8z M169.2,316.8L169.2,316.8L169.2,316.8L169.2,316.8
		L169.2,316.8z M169.3,316.7L169.3,316.7L169.3,316.7L169.3,316.7L169.3,316.7z M169.6,316.3L169.6,316.3L169.6,316.3L169.6,316.3
		L169.6,316.3z M169.7,316.2L169.7,316.2L169.7,316.2L169.7,316.2L169.7,316.2z M169.7,316L169.7,316L169.7,316L169.7,316L169.7,316
		z M169.8,315.9L169.8,315.9L169.8,315.9L169.8,315.9L169.8,315.9z M169.9,315.7L169.9,315.7l0.2,0L169.9,315.7L169.9,315.7z
		 M170.1,315.6l0.1-0.2l0.4,0.1l-0.3,0.2L170.1,315.6z M169.9,315.5l-0.1,0l0.1-0.1l0.2,0L169.9,315.5z M169.9,315.2l0.1-0.2l0.3,0
		l-0.2,0.3L169.9,315.2z M169.8,315.2l-0.1,0l0-0.1l0.2,0L169.8,315.2z M169.5,315.1L169.5,315.1L169.5,315.1L169.5,315.1
		L169.5,315.1z M169.5,314.9l0-0.1l0.2-0.1l0,0.2L169.5,314.9z M169.4,314.7l0-0.2l0.3-0.2l-0.1,0.3L169.4,314.7z M169.3,314.7
		l-0.1,0l0-0.1l0.1-0.1L169.3,314.7z M169.1,314.5l-0.1-0.2l0.2-0.3l0,0.3L169.1,314.5z M169,314.6L169,314.6l-0.2,0l0.1-0.1
		L169,314.6z M168.8,314.7L168.8,314.7h-0.1H168.8L168.8,314.7z M168.6,314.6L168.6,314.6l0-0.2L168.6,314.6L168.6,314.6z
		 M168.4,314.5l-0.2-0.1l0.1-0.3l0.2,0.3L168.4,314.5z M168.3,314.6l0,0.1l-0.1,0l0-0.2L168.3,314.6z M168,314.6l-0.2-0.1l0-0.3
		l0.3,0.2L168,314.6z M168,314.8L168,314.8l-0.1,0.1l0-0.2L168,314.8z M168,315L168,315L168,315L168,315L168,315z M167.9,315.2
		L167.9,315.2L167.9,315.2L167.9,315.2L167.9,315.2z M167.8,315.3L167.8,315.3L167.8,315.3L167.8,315.3L167.8,315.3z M167.6,315.4
		l-0.1,0l-0.1-0.1l0.2,0L167.6,315.4z M167.3,315.4l-0.2,0.1l-0.3-0.2l0.4,0L167.3,315.4z M167.4,315.6l0.1,0.1l-0.1,0.1l-0.1-0.1
		L167.4,315.6z M167.3,315.8l-0.2,0.1l-0.3-0.1l0.3-0.1L167.3,315.8z M167.4,315.9L167.4,315.9l0,0.2l-0.2-0.1L167.4,315.9z
		 M167.3,316.2l-0.1,0.1l-0.3,0l0.3-0.2L167.3,316.2z M167.4,316.3L167.4,316.3l0.1,0.1l-0.2,0L167.4,316.3z M167.4,316.5l-0.1,0.2
		l-0.4,0l0.2-0.3L167.4,316.5z M167.6,316.6l0.1,0l0,0.1h-0.2L167.6,316.6z M167.8,316.6L167.8,316.6L167.8,316.6L167.8,316.6
		L167.8,316.6z M167.9,316.8l0,0.1l-0.2,0l0-0.2L167.9,316.8L167.9,316.8z M167.9,317.1l0,0.2l-0.3,0.2l0-0.3L167.9,317.1z
		 M168.1,317l0.1,0l0,0.1l-0.1,0.1L168.1,317z M168.3,317.2l0.1,0.2l-0.2,0.3l0-0.4L168.3,317.2z M168.4,317.1L168.4,317.1l0.1,0
		l-0.1,0.1L168.4,317.1z M168.6,317L168.6,317l0.1,0L168.6,317L168.6,317z M168.8,317.1L168.8,317.1l0,0.2L168.8,317.1L168.8,317.1z
		 M169,317.2l0.2,0.1l0,0.3l-0.2-0.3L169,317.2z M169.1,317.1l0-0.1l0.1,0l0,0.2L169.1,317.1z M169.4,317.1l0.2,0.1l0,0.3l-0.3-0.2
		L169.4,317.1z M169.4,317l0-0.1h0.1l0,0.2L169.4,317z M169.4,316.7L169.4,316.7L169.4,316.7L169.4,316.7L169.4,316.7z M169.5,316.5
		L169.5,316.5L169.5,316.5L169.5,316.5L169.5,316.5z M169.6,316.4L169.6,316.4L169.6,316.4L169.6,316.4L169.6,316.4L169.6,316.4z
		 M169.8,316.4l0.1,0l0.1,0.1L169.8,316.4L169.8,316.4z M170.1,316.3l0.2-0.1l0.3,0.2l-0.3,0L170.1,316.3z M170,316.2L170,316.2
		l0-0.2l0.1,0.1L170,316.2z M170.1,315.9l0.2-0.1l0.3,0.1l-0.3,0.1L170.1,315.9z M170.4,315.7l0.4-0.2l0.8,0.1l-0.7,0.3L170.4,315.7
		z M170.9,315.3l0.7-0.5l2.5-0.2l-2.4,0.9L170.9,315.3z M170.7,315.3l-0.4-0.1l0.2-0.3l0.8-0.1L170.7,315.3z M170.7,314.8l0.5-0.7
		l2.4-0.9l-2.1,1.5L170.7,314.8z M170.5,314.8l-0.4,0l0.1-0.4l0.7-0.3L170.5,314.8z M169.9,314.9l-0.2,0l0-0.2l0.3-0.1L169.9,314.9z
		 M169.8,314.5l0.1-0.4l0.6-0.5l-0.3,0.7L169.8,314.5z M169.9,313.9l0.1-0.9l1.6-1.9l-1,2.3L169.9,313.9z M169.7,314.1l-0.3,0.2
		l0-0.4l0.5-0.6L169.7,314.1z M169.4,313.7l-0.1-0.9l1-2.3l-0.4,2.5L169.4,313.7z M169.2,313.9l-0.2,0.3l-0.1-0.4l0.3-0.7
		L169.2,313.9z M168.9,314.3l-0.1,0.2l-0.1-0.2l0.2-0.3L168.9,314.3z M168.5,314.2l-0.2-0.3l0.1-0.7l0.3,0.7L168.5,314.2z
		 M168.2,313.7l-0.5-0.7l-0.3-2.5l0.9,2.4L168.2,313.7z M168.1,313.9l-0.1,0.4l-0.3-0.2l-0.1-0.8L168.1,313.9z M167.6,313.9
		l-0.7-0.5l-0.9-2.4l1.5,2L167.6,313.9z M167.6,314.1l0,0.4l-0.4-0.2l-0.3-0.7L167.6,314.1z M167.7,314.6l0,0.2l-0.2,0l-0.1-0.3
		L167.7,314.6z M167.7,315l0,0.1l-0.1,0l-0.1-0.2L167.7,315z M167.5,315.1l-0.2,0l-0.2-0.3l0.4,0.1L167.5,315.1z M167.1,315.1
		l-0.4,0l-0.6-0.5l0.8,0.1L167.1,315.1z M166.5,315.2l-0.9,0.1l-2.3-1l2.5,0.4L166.5,315.2z M166.7,315.3l0.3,0.3l-0.4,0.2l-0.7-0.3
		L166.7,315.3z M166.4,315.8l-0.8,0.3l-2.5-0.4l2.5-0.2L166.4,315.8z M166.6,315.9l0.4,0.2l-0.3,0.2l-0.8-0.1L166.6,315.9z
		 M166.5,316.4l-0.7,0.5l-2.5,0.3l2.4-0.9L166.5,316.4z M166.7,316.4l0.4,0l-0.3,0.3l-0.8,0.1L166.7,316.4z M166.7,316.9l-0.5,0.7
		l-2.4,0.9l2.1-1.5L166.7,316.9z M166.9,316.9l0.4,0l-0.2,0.3l-0.7,0.3L166.9,316.9z M167.4,316.9l0.2,0l0,0.2l-0.3,0.1L167.4,316.9
		z M167.6,317.2l-0.1,0.4l-0.6,0.5l0.3-0.7L167.6,317.2z M167.5,317.8l-0.1,0.8l-1.6,2l1-2.3L167.5,317.8z M167.7,317.7l0.3-0.2
		l0,0.4l-0.5,0.6L167.7,317.7z M168,318l0.1,0.9l-1,2.3l0.4-2.5L168,318z M168.2,317.9l0.2-0.3l0.1,0.4l-0.3,0.7L168.2,317.9z
		 M168.5,317.5l0.1-0.2l0.1,0.2l-0.1,0.3L168.5,317.5z M168.9,317.6l0.2,0.3l-0.1,0.8l-0.3-0.7L168.9,317.6z M169.2,318.1l0.5,0.7
		l0.3,2.5l-0.9-2.4L169.2,318.1z M169.2,317.9l0.1-0.4l0.3,0.3l0.1,0.8L169.2,317.9z M169.8,317.9l0.7,0.6l0.9,2.4l-1.5-2.1
		L169.8,317.9z M169.8,317.7l0-0.4l0.4,0.2l0.3,0.7L169.8,317.7z M169.7,317.1l0-0.2l0.2,0l0.1,0.3L169.7,317.1z M169.7,316.7l0-0.1
		h0.1l0.1,0.1L169.7,316.7z M169.9,316.6l0.2,0l0.2,0.3l-0.3,0L169.9,316.6z M170.2,316.6l0.4,0l0.6,0.5l-0.8-0.1L170.2,316.6z
		 M170.8,316.5l0.8-0.1l2.3,1l-2.5-0.4L170.8,316.5z M170.7,316.4l-0.3-0.3l0.4-0.1l0.7,0.3L170.7,316.4z M170.9,315.9l0.8-0.3
		l2.5,0.4l-2.5,0.2L170.9,315.9z M172,315.5l2.6-1l9.4-0.9l0.1,1.4l-9.4,0.9L172,315.5z M175.2,314.3l8.3-3.1
		c0.2,0.7,0.4,1.5,0.5,2.3L175.2,314.3z M174.6,314.4l-2.8,0.3l2.3-1.6l8.8-3.3l0.5,1.3L174.6,314.4z M174.5,312.7l7.2-5.2
		c0.4,0.6,0.8,1.3,1.1,2L174.5,312.7z M174,312.9l-2.6,1l1.8-2.2l7.6-5.5l0.9,1.2L174,312.9z M171.1,314l-0.8,0.3l0.4-0.8l2.1-1.5
		L171.1,314z M170.8,313.3l1.2-2.6l5.9-7.3l1.1,0.9l-6,7.3L170.8,313.3z M172.2,310.2l3.7-8.1c0.7,0.4,1.3,0.8,2,1.2L172.2,310.2z
		 M171.8,310.7l-1.8,2.2l0.4-2.8l3.9-8.6l1.3,0.6L171.8,310.7z M170.6,309.5l1.4-8.8c0.8,0.2,1.5,0.4,2.2,0.7L170.6,309.5z
		 M170.4,310l-1.2,2.6l-0.3-2.8l1.5-9.3l1.4,0.2L170.4,310z M169.1,312.8l-0.4,0.8l-0.3-0.8l0.4-2.5L169.1,312.8z M168.4,312.6
		l-1-2.6l-0.9-9.4l1.4-0.1l0.9,9.4L168.4,312.6z M167.2,309.4l-3.2-8.3c0.7-0.2,1.5-0.4,2.3-0.5L167.2,309.4z M167.2,310l0.3,2.8
		l-1.6-2.3l-3.3-8.8l1.4-0.5L167.2,310z M165.6,310l-5.2-7.2c0.7-0.4,1.3-0.8,2.1-1.1L165.6,310z M165.7,310.5l1,2.6l-2.2-1.8
		l-5.5-7.6l1.2-0.8L165.7,310.5z M166.8,313.4l0.3,0.8l-0.8-0.4l-1.5-2L166.8,313.4z M167.2,314.4l0.1,0.4l-0.4-0.1l-0.4-0.6
		L167.2,314.4z M166.8,314.7l-0.9-0.1L164,313l2.3,1L166.8,314.7z M162.3,313.9l-8.7-1.4c0.2-0.8,0.4-1.5,0.7-2.2L162.3,313.9z
		 M162.8,314.2l2.6,1.2l-2.8,0.3l-9.3-1.5l0.2-1.4L162.8,314.2z M162.6,315.7l2.8,0.5l-2.6,1l-9.4,0.9l-0.1-1.4L162.6,315.7z
		 M162.3,317.4l-8.4,3.2c-0.2-0.7-0.4-1.5-0.5-2.3L162.3,317.4z M162.8,317.3l2.8-0.3l-2.3,1.6l-8.8,3.4l-0.5-1.4L162.8,317.3z
		 M162.9,319l-7.3,5.2c-0.4-0.7-0.8-1.3-1.1-2.1L162.9,319z M163.4,318.8l2.6-1l-1.8,2.2l-7.7,5.5l-0.8-1.2L163.4,318.8z
		 M166.2,317.7l0.8-0.3l-0.4,0.8l-2.1,1.5L166.2,317.7z M166.6,318.4l-1.2,2.6l-6,7.3l-1.1-0.9l6-7.3L166.6,318.4z M165.2,321.5
		l-3.7,8.2c-0.7-0.4-1.3-0.8-2-1.2L165.2,321.5z M165.5,321.1l1.8-2.2l-0.5,2.8l-3.9,8.6l-1.3-0.6L165.5,321.1z M166.8,322.2
		l-1.4,8.8c-0.8-0.2-1.5-0.4-2.2-0.7L166.8,322.2z M167,321.7l1.2-2.5l0.3,2.8l-1.5,9.3l-1.4-0.2L167,321.7z M168.3,318.9l0.4-0.8
		l0.3,0.8l-0.4,2.5L168.3,318.9z M169,319.2l1,2.6l0.9,9.4l-1.4,0.1l-0.9-9.4L169,319.2z M170.2,322.3l3.2,8.3
		c-0.7,0.2-1.5,0.4-2.3,0.5L170.2,322.3z M170.2,321.8l-0.3-2.8l1.6,2.3l3.3,8.8l-1.3,0.5L170.2,321.8z M171.8,321.7l5.2,7.2
		c-0.7,0.4-1.3,0.8-2.1,1.1L171.8,321.7z M171.6,321.2l-1-2.6l2.2,1.8l5.5,7.7l-1.2,0.9L171.6,321.2z M170.6,318.3l-0.3-0.8l0.8,0.4
		l1.5,2.1L170.6,318.3z M170.2,317.3L170,317l0.4,0l0.4,0.6L170.2,317.3z M170.6,317l0.8,0.1l2,1.6l-2.3-1L170.6,317z M175,317.8
		l8.8,1.5c-0.2,0.8-0.4,1.5-0.7,2.2L175,317.8z M174.5,317.5l-2.5-1.1l2.8-0.3l9.3,1.5l-0.2,1.4L174.5,317.5z M180.7,306.2l-7.2,5.2
		l5.6-6.9C179.7,305,180.2,305.6,180.7,306.2 M170.3,300.5l-1.4,8.8l-0.9-8.8l0.7,0C169.2,300.4,169.8,300.4,170.3,300.5 M159,303.8
		l5.2,7.2l-6.9-5.6C157.8,304.8,158.4,304.3,159,303.8 M157.2,305.5l7.3,6l1.6,2.3l-2.5-1.1l-7.3-6L157.2,305.5z M156.6,325.6
		l7.3-5.2l-5.7,6.9C157.6,326.8,157.1,326.2,156.6,325.6 M167,331.3l1.4-8.8l0.9,8.9l-0.7,0C168.1,331.4,167.6,331.4,167,331.3
		 M178.4,327.9l-5.2-7.2l6.9,5.6C179.6,326.9,179,327.5,178.4,327.9 M180.2,326.2l-7.3-6l-1.6-2.3l2.5,1.1l7.3,6L180.2,326.2z"/>
</g>
</svg>
