<?xml version="1.0" encoding="utf-8"?>
<!-- Generator: Adobe Illustrator 18.1.1, SVG Export Plug-In . SVG Version: 6.00 Build 0)  -->
<svg version="1.1" id="Layer_1" xmlns="http://www.w3.org/2000/svg" xmlns:xlink="http://www.w3.org/1999/xlink" x="0px" y="0px"
	 viewBox="-389 351 69.6 69.9" enable-background="new -389 351 69.6 69.9" xml:space="preserve">
<g>
	<path fill="#FFFFFF" d="M-343.3,386.1l-0.1,0.1c-0.3,0.8-0.5,1.2-0.8,1.9c0.5,0.1,0.8,0.1,1.4,0.1c-0.1-0.8-0.2-1.2-0.3-2.1
		L-343.3,386.1"/>
	<path fill="#FFFFFF" d="M-375.3,366.3c-0.2-0.1-0.3-0.3-0.3-0.5c-5.4,5-8.9,11.8-9.6,19.6c0.2-0.1,0.4-0.1,0.6-0.2
		C-383.8,377.7-380.5,371.2-375.3,366.3"/>
	<path fill="#FFFFFF" d="M-383.4,397.6c-0.2,0.1-0.4,0.1-0.6,0.2c2.6,8.2,8.5,15,16.2,18.8c0.1-0.2,0.1-0.4,0.2-0.6
		C-375.1,412.3-380.9,405.6-383.4,397.6"/>
	<path fill="#FFFFFF" d="M-335.8,363.3c-0.1,0.2-0.2,0.4-0.3,0.5c6.8,5,11.4,12.6,12.4,21.4c0.2,0.1,0.4,0.1,0.6,0.2
		C-324.1,376.3-328.8,368.4-335.8,363.3"/>
	<path fill="#FFFFFF" d="M-340.4,415.8c0.1,0.2,0.1,0.4,0.2,0.6c7.5-3.8,13.3-10.5,15.8-18.6c-0.2-0.1-0.4-0.1-0.6-0.2
		C-327.5,405.5-333.1,412.1-340.4,415.8"/>
	<path fill="#FFFFFF" d="M-372.8,364l0,0.1c5.2-4,11.5-6.3,18.6-6.3c5.1,0,9.9,1.3,14.2,3.5c0.1-0.2,0.2-0.3,0.4-0.5
		c-4.3-2.3-9.3-3.6-14.5-3.6c-7.2,0-13.7,2.3-19,6.4l0.3,0L-372.8,364z"/>
	<path fill="#FFFFFF" d="M-339.8,364.4l0-0.2l0-0.4c-0.5-0.5-0.7-1.1-0.6-1.7l0-0.2c-4.3-2.2-8.9-3.4-13.9-3.4
		c-6.8,0-13.2,2.2-18.5,6.4l0,0.1l0,0.1c0,0.2,0,0.5-0.2,0.6l0.6,3.5c4.9-4.7,11.2-7.2,18-7.2c5.2,0,10.3,1.5,14.5,4.4
		c0.1-0.5,0.1-0.9,0.2-1.4l0,0l-0.4-0.1l0-0.4L-339.8,364.4z"/>
	<path fill="#FFFFFF" d="M-374.3,371.5l-0.8-4.5c-5.1,4.9-8.1,11.1-8.8,18c1.3-0.4,2.5-0.7,3.8-1
		C-379.4,379.3-377.5,375.1-374.3,371.5"/>
	<path fill="#FFFFFF" d="M-333.4,366.9c-1-1-2.1-1.7-3.2-2.6l-0.1,1.3l-0.5-0.1l-0.3,2.6c0,0,1.1,0.9,1.6,1.5
		c1.9,1.9,3.4,3.8,4.6,6.1c0.2-0.1,0.3,0,0.4-0.1l0.2-0.7l1.8,0.3l-0.1,0.3l0.4,0.1l-0.8,3.5l-0.1,0.3c0.6,1.6,0.8,3.2,1.1,4.8
		c1.3,0.3,2.5,0.6,3.8,1C-325.2,378.1-328.4,371.8-333.4,366.9"/>
	<path fill="#FFFFFF" d="M-375.4,363.6c0.1,0.1,0.2,0.1,0.3,0.1c0.1,0,0.2,0,0.3-0.1l0,0.1c0,0.3,0.1,0.5,0.1,0.8
		c-0.1,0-0.2,0-0.3,0.1c-0.1,0-0.2,0-0.3,0.1c0.1,0.3,0.1,0.6,0.2,0.9l0,0.1c0,0.2,0.2,0.3,0.4,0.3c0.5,3.1,1,6.2,1.6,9.3l0,0
		c-0.3,0-0.4,0.3-0.4,0.6l0,0.2c-0.3,0.1-0.6,0.1-1,0.2c0,0.1,0.1,0.3,0.1,0.4c0.1,0,0.3-0.1,0.4-0.1c0.2,1,0.4,2,0.5,3l-0.8,0.1
		c-0.1-0.7-0.2-1.4-0.4-2c-0.3,0.1,0.1,0-0.3,0.1c0-0.2-0.1-0.4-0.1-0.5c-0.4,0.1-0.8,0.1-1.1,0.2c0-0.2-0.1-0.4-0.1-0.7
		c-0.3,0.1-0.5,0.1-0.8,0.2c0.1,0.4,0.1,0.7,0.2,1.1c-0.2,0-0.4,0.1-0.6,0.1c0.1,0.7,0.3,1.3,0.4,2c-0.4,0.1-0.8,0.2-1.2,0.3
		c0.1,0.4,0.2,0.9,0.3,1.3l0,0c0.1,0.4,0.2,0.4,0.2,0.7c7.7-1.7,15.6-2.6,23.5-2.6c7.9,0,15.8,0.9,23.5,2.6c0.1-0.4,0.2-0.4,0.2-0.7
		l0,0c0.4-1.9,0.8-3.8,1.3-5.7c-0.1,0-0.3-0.1-0.4-0.1c0-0.1,0.1-0.2,0.1-0.4c-0.2-0.1-0.5-0.1-0.7-0.2c0,0.1-0.1,0.3-0.1,0.4
		c-0.5,0.2-1,0.4-1.6,0.6c-0.1,0.6-0.3,1.3-0.4,1.9c-0.2,0-0.4-0.1-0.6-0.1c0.1-0.3,0.1-0.6,0.2-0.9c-0.2,0-0.3-0.1-0.5-0.1
		c0-0.2,0.1-0.4,0.1-0.7c-0.9-0.9-1.8-1.9-2.8-2.8c-0.2,1-0.4,1.9-0.6,2.9c-0.2,0-0.9-0.1-1.1-0.1c0.1-0.4,0.1-0.4,0.1-0.8
		c-0.5-0.1-1.5-0.2-1.5-0.2c0.5-4,0.8-6.6,1.2-10.6c0.1,0,0.3,0,0.4,0.1c0-0.1,0-0.3,0.1-0.4c-0.1,0-0.3,0-0.5-0.1
		c0-0.1,0-0.2,0-0.4c0.7-0.2,1.3-0.7,1.5-1.5c0.1-0.8-0.3-1.5-1-1.9c0-0.2,0.1-0.4,0.1-0.7c0.1,0,0.2,0,0.2,0c0-0.1,0-0.2,0-0.3
		c-0.2,0-0.3,0-0.5-0.1c0-0.2,0.1-0.4,0.1-0.6l-0.1,0c0-0.1-0.1-0.2-0.2-0.3c0.3-2.4,0.6-4.8,0.9-7.1l-0.1-0.1l-0.1,0l0,0l-0.1,0.1
		c-0.3,2.4-0.6,4.8-0.9,7.1c-0.1,0-0.2,0.1-0.2,0.2l-0.1,0c0,0.2,0,0.4-0.1,0.6c-0.2,0-0.3,0-0.5-0.1c0,0.1,0,0.2,0,0.3
		c0.1,0,0.2,0,0.2,0c0,0.2-0.1,0.4-0.1,0.7c-0.8,0.2-1.4,0.8-1.4,1.5c-0.1,0.8,0.3,1.5,1,1.8c0,0.1,0,0.2,0,0.4
		c-0.1,0-0.3,0-0.4-0.1c0,0.1,0,0.3-0.1,0.4c0.1,0,0.3,0,0.4,0c-0.5,3.5-1,7.1-1.5,10.6c-0.5-0.1-1-0.1-1.5-0.2
		c0.1-0.5,0.1-1,0.2-1.5c-1.1-0.1-2.1-0.2-3.2-0.3c-0.2,0-0.4,0-0.6,0c-0.1,2-0.3,3.9-0.4,5.9c-0.3,0-0.6,0-0.9,0
		c-0.1,0-0.3,0-0.4,0c0-0.5,0.1-0.9,0.1-1.4c-0.1,0-0.2,0-0.3,0c0.1-0.9,0.1-1.8,0.2-2.7l-0.1,0c0.1-0.2,0.2-0.4,0.3-0.6
		c0.2,0,0.3,0,0.5,0c0-0.1,0-0.2,0-0.4c-0.2,0-0.3,0-0.5,0c0-0.3,0-0.6,0.1-0.9c0.1,0,0.2,0,0.4,0c0.3-0.4,0.6-0.8,0.9-1.2
		c0-0.2,0-0.3,0-0.5c-0.5,0-1.1-0.1-1.6-0.1c0-0.3,0-0.6,0.1-1h0c0.1-0.2,0.2-0.5,0.4-0.7c0.2,0,0.3,0,0.5,0c0-0.1,0-0.2,0-0.3
		c-2.3-0.1-4.6-0.2-6.9-0.2c0-0.2,0-0.4,0-0.6c-0.2,0-0.5,0-0.7,0c-0.2,0-0.4,0-0.6,0l0,0l-0.3-0.1c-0.1,0,0-0.4,0.1-0.4
		c0.1-0.1,0-0.3,0.2-0.3h0c0.2,0,0.2,0.3,0.2,0.5s-0.1,0.2-0.1,0.3l0,0c0.1,0,0.1-0.1,0.2-0.4c0-0.3-0.1-0.4-0.1-0.5
		c0-0.1,0.1-0.3,0.1-0.5c0-0.2-0.1-0.2-0.1-0.3l0.1,0h0l0.1,0c0.1-0.1,0-0.2-0.1-0.3c0-0.1,0.1-0.2,0.1-0.3c0-0.1-0.1-0.3-0.3-0.3
		l0,0c-0.2,0-0.5,0.9-0.6,1.1c-0.1,0.2-0.3,0-0.4,0.2c-0.1,0.1-0.1,0.2,0,0.3c-0.1,0-0.2,0.1-0.3,0.1c-0.2-0.5-0.7-0.8-1.3-0.8
		c0-0.1,0-0.3,0-0.4c0.2,0,0.3-0.2,0.3-0.4c0-0.2-0.1-0.4-0.3-0.4l0-0.2l0.1-0.1c0.2-0.2,0.4-0.5,0.7-0.7c0.1-0.1,0.1-0.2,0-0.3
		l-0.2-0.1l-0.2,0.1c-0.2,0.2-0.4,0.4-0.6,0.6c-0.2-0.2-0.4-0.4-0.6-0.5l-0.2-0.1l-0.2,0.1c-0.1,0.1-0.1,0.2,0,0.3
		c0.2,0.2,0.5,0.4,0.7,0.6l0.1,0.1l0,0.2c-0.2,0-0.3,0.2-0.3,0.4c0,0.2,0.1,0.4,0.3,0.4c0,0.1,0,0.3,0,0.4c-0.6,0-1,0.4-1.2,0.9
		c-0.1,0-0.2-0.1-0.4-0.1c0-0.1,0-0.2,0-0.3l-0.2-0.1l-0.1,0l-0.2-0.1c-0.1-0.2-0.5-1.1-0.7-1.1l0,0c-0.2,0.1-0.4,0.2-0.3,0.3
		c0,0.1,0.2,0.2,0.1,0.3c0,0.1-0.1,0.2,0,0.3l0.1,0l0.1,0l0,0c0,0.1-0.1,0.1-0.1,0.3c0,0.2,0.1,0.4,0.1,0.5c0,0.1-0.1,0.2-0.1,0.5
		c0,0.2,0.1,0.4,0.2,0.4l0,0c0-0.1-0.1-0.2-0.1-0.3c0-0.1,0-0.5,0.2-0.5h0c0.2,0,0.2,0.2,0.3,0.3c0.1,0.1,0.1,0.4,0.1,0.4l-0.3,0.1
		v0c-0.4,0-0.9,0-1.3,0.1c0,0.2,0,0.4,0,0.6c-2.3,0.1-4.6,0.3-6.9,0.6c0,0.1,0,0.2,0,0.3c0.2,0,0.3,0,0.5-0.1
		c0.1,0.2,0.3,0.5,0.4,0.7l0,0c0,0.3,0.1,0.6,0.1,1c-0.5,0.1-1.1,0.1-1.6,0.2c0,0.2,0,0.3,0.1,0.5c0.3,0.4,0.6,0.8,0.9,1.2
		c0.1,0,0.2,0,0.4,0c0,0.3,0.1,0.6,0.1,0.9c-0.1,0-0.3,0-0.4,0.1c0,0.1,0,0.2,0,0.4c0.2,0,0.3,0,0.5-0.1c0.1,0.1,0.1,0.2,0.2,0.3
		c-0.8,0.1-1.5,0.2-2.3,0.3c0.2,1.4,0.4,2.9,0.6,4.3c-0.2,0-0.4,0.1-0.6,0.1c0-0.3-0.1-0.5-0.1-0.8c0-0.1,0-0.3-0.1-0.4
		c-0.2,0-0.5,0.1-0.7,0.1c-0.1-1-0.3-2-0.5-3.1c0.1,0,0.3,0,0.4-0.1c0-0.1,0-0.3-0.1-0.4c-0.3,0-0.7,0.1-1,0.1l0-0.2
		c0-0.3-0.2-0.4-0.5-0.4l-0.1,0l0,0c-0.5-3.1-1-6.2-1.5-9.3c0.2-0.1,0.3-0.2,0.2-0.4l0-0.2c0-0.3-0.1-0.6-0.1-0.9
		c-0.1,0-0.2,0-0.3,0c-0.1,0-0.2,0-0.3,0c0-0.3-0.1-0.5-0.1-0.8l0-0.1l0.1,0c0.2,0,0.3-0.1,0.4-0.2c0.2-0.2,0.1-0.5-0.1-0.7
		c-0.2,0.2-0.4,0.5-0.6,0.7l-0.1-0.1l0-0.1c0-0.1-0.1-0.2-0.2-0.2l0,0c-0.1,0-0.2,0.1-0.2,0.2l0.1,0.1l-0.1,0.1
		c-0.3-0.2-0.5-0.3-0.8-0.5C-375.7,363.1-375.6,363.4-375.4,363.6 M-351.1,373.5c0-0.1,0.1-0.2,0.2-0.2h0c0.6,0,1.2,0,1.8,0.1
		c0.1,0,0.2,0.1,0.2,0.2c-0.1,1.8-0.2,3.7-0.3,5.5l0,0.1c-0.7,0-1.3-0.1-2-0.1l0-0.1C-351.2,377.1-351.1,375.3-351.1,373.5
		 M-354.1,373.4c0-0.1,0.1-0.2,0.2-0.2c0.6,0,1.2,0,1.8,0c0.1,0,0.2,0.1,0.2,0.2c0,1.8-0.1,3.7-0.1,5.5l0,0.1c-0.7,0-1.3,0-2,0
		l0-0.1C-354.1,377.1-354.1,375.2-354.1,373.4 M-358.8,373.1c1.1,0,2.1-0.1,3.2-0.1h0c0.1,0,0.2,0.1,0.2,0.2c0,1.9,0,3.9,0.1,5.8
		c-1.1,0-2.3,0-3.4,0.1c-0.1-1.9-0.2-3.9-0.2-5.8C-359,373.2-358.9,373.1-358.8,373.1 M-362.5,373.5c0.6,0,1.2-0.1,1.8-0.1h0
		c0.1,0,0.2,0.1,0.2,0.2c0.1,1.8,0.2,3.7,0.3,5.5l0,0.1c-0.7,0-1.3,0.1-2,0.1l0-0.1l-0.4-5.5C-362.6,373.6-362.6,373.5-362.5,373.5
		 M-365.7,373.9c0.6-0.1,1.2-0.1,1.8-0.2h0c0.1,0,0.2,0.1,0.2,0.2c0.2,1.8,0.3,3.6,0.5,5.5l0,0.1c-0.7,0.1-1.3,0.1-2,0.2l0-0.1
		c-0.2-1.8-0.4-3.6-0.6-5.5C-365.8,374-365.8,374-365.7,373.9"/>
	<path fill="#FFFFFF" d="M-367.4,415.4c0.4-1.1,0.9-2.2,1.3-3.3c0.1,0.1,0.3,0.1,0.4,0.1c-6.5-3.1-11.5-8.9-13.7-15.8
		c-1.2,0.3-2.3,0.6-3.5,1C-380.3,405.3-374.7,411.8-367.4,415.4"/>
	<path fill="#FFFFFF" d="M-343.8,412.7c0.6-0.2,1.2-0.4,1.9-0.6c0.4,1,0.8,2.1,1.2,3.1c7.1-3.6,12.6-10.1,15-17.9
		c-1.2-0.3-2.3-0.7-3.5-1C-331.4,403.7-336.8,409.7-343.8,412.7"/>
	<path fill="#FFFFFF" d="M-319.4,386.2c-1.3-0.4-2.5-0.8-3.8-1.2c-0.2-0.1-0.4-0.1-0.6-0.2c-0.2-0.1-0.5-0.1-0.7-0.2
		c-1.3-0.4-2.5-0.7-3.8-1c-17.2-4.2-34.7-4.2-51.9,0c-1.3,0.3-2.5,0.6-3.8,1c-0.2,0.1-0.5,0.1-0.7,0.2c-0.2,0.1-0.4,0.1-0.6,0.2
		c-1.3,0.4-2.5,0.8-3.8,1.2c1.2,3.9,2.4,7.8,3.6,11.6c0.5-0.2,1-0.3,1.4-0.5c0.2-0.1,0.4-0.1,0.6-0.2c0.2-0.1,0.4-0.1,0.6-0.2
		c1.2-0.3,2.3-0.7,3.5-1c16.6-4.3,33.6-4.3,50.2,0c1.2,0.3,2.3,0.6,3.5,1c0.2,0.1,0.4,0.1,0.6,0.2c0.2,0.1,0.4,0.1,0.6,0.2
		c0.5,0.2,1,0.3,1.4,0.5C-321.8,393.9-320.6,390.1-319.4,386.2 M-375.1,391.9c-0.2,0.1-0.7,0.3-1.3,0.4c-1.4,0.3-2.8,0.1-3.2-1.7
		c-0.1-0.4-0.1-0.5-0.2-0.9c-0.4-1.7,0.8-2.6,2.2-3c0.7-0.1,1.2-0.2,1.4-0.2c0.1,0,0.2,0,0.2,0.1c0.1,0.3,0.1,0.4,0.1,0.7
		c0,0.1,0,0.2-0.1,0.2l0,0c-0.4,0.1-0.9,0.1-1.4,0.2c-0.5,0.1-1.2,0.1-0.9,1.5c0.1,0.4,0.1,0.5,0.2,0.9c0.2,1,0.8,1.1,1.4,1
		c0.5-0.1,1-0.3,1.3-0.4l0,0c0.1,0,0.2,0,0.2,0.1c0,0.3,0.1,0.4,0.1,0.7C-374.9,391.8-375,391.8-375.1,391.9 M-370.7,388.3
		c-0.1,0.4-0.3,0.5-0.5,0.7c0.1,0.8,0.2,1.2,0.3,2c0,0.1-0.1,0.2-0.2,0.2c-0.5,0.1-0.7,0.1-1.2,0.2c-0.1,0-0.2,0-0.2-0.1
		c-0.2-1-0.3-1.4-0.4-2c-0.2,0-0.5-0.1-0.7-0.5c-0.8-0.9-1.1-1.4-1.9-2.3l0-0.1c0-0.1,0-0.1,0.1-0.1c0.5-0.1,0.8-0.2,1.4-0.3
		c0.1,0,0.2,0,0.2,0.1c0.6,0.7,0.8,1.1,1.4,1.9l0.2,0.1c0.1,0,0.1,0,0.1-0.1c0.3-0.9,0.4-1.3,0.7-2.3c0-0.1,0.1-0.1,0.2-0.2
		c0.5-0.1,0.8-0.1,1.4-0.2c0.1,0,0.2,0,0.2,0.1l0,0.1C-370.1,386.6-370.3,387.2-370.7,388.3 M-364.1,390.2c-0.2,0.1-0.7,0.2-1.3,0.3
		c-1.4,0.2-2.8-0.2-3-2c-0.1-0.4-0.1-0.6-0.1-0.9c-0.2-1.8,1.1-2.5,2.5-2.7c0.7-0.1,1.2-0.1,1.4,0c0.1,0,0.2,0,0.2,0.1
		c0,0.3,0,0.4,0.1,0.7c0,0.1-0.1,0.2-0.2,0.2h0c-0.4,0-0.9,0-1.4,0.1c-0.7,0.1-1.1,0.4-1,1.4c0.1,0.4,0.1,0.6,0.1,0.9
		c0.1,1,0.7,1.2,1.3,1.1c0.5-0.1,1-0.1,1.4-0.2h0c0.1,0,0.2,0.1,0.2,0.1c0,0.3,0,0.4,0.1,0.7C-363.9,390.1-364,390.1-364.1,390.2
		 M-359.2,389.9c-0.3,0.1-1,0.1-1.5,0.2c-1.2,0.1-2.3-0.1-2.4-1.4c-0.1-1.5-0.2-2.3-0.3-3.8c0-0.1,0.1-0.2,0.2-0.2
		c0.5-0.1,0.8-0.1,1.3-0.1c0.1,0,0.2,0.1,0.2,0.1c0.1,1.5,0.2,2.3,0.3,3.8c0,0.4,0.2,0.5,0.6,0.5c0.6,0,1-0.1,1.6-0.1
		c0.1,0,0.2,0.1,0.2,0.1c0,0.3,0,0.4,0,0.7C-359,389.8-359.1,389.8-359.2,389.9 M-354,385.1c0,0.1-0.1,0.1-0.2,0.1
		c-0.8,0-1.2,0-1.9,0c-0.5,0-0.6,0.1-0.6,0.5c0,0.3,0,0.4,0,0.7c1,0,1.5,0,2.5,0c0.1,0,0.2,0.1,0.2,0.1v0.7c0,0.1-0.1,0.1-0.2,0.1
		c-1,0-1.5,0-2.4,0c0,0.3,0,0.5,0,0.8c0,0.4,0.2,0.5,0.6,0.5c0.8,0,1.1,0,1.9,0c0.1,0,0.2,0.1,0.2,0.1v0.7c0,0.1-0.1,0.1-0.2,0.2
		c-0.3,0-0.8,0.1-1.8,0.1c-1.2,0-2.2-0.2-2.3-1.5c0-1-0.1-1.5-0.1-2.5c-0.1-1.4,1.1-1.6,2.3-1.7c1.1,0,1.5,0.1,1.9,0.1
		c0.1,0,0.2,0.1,0.2,0.1C-354,384.7-354,384.8-354,385.1 M-347.4,389.9c0,0.1-0.1,0.1-0.2,0.1c-0.5,0-0.7-0.1-1.2-0.1
		c-0.1,0-0.2-0.1-0.2-0.2c0.1-0.9,0.1-1.3,0.1-2.2c-0.9-0.1-1.4-0.1-2.3-0.1c0,0.9-0.1,1.3-0.1,2.1c0,0.1-0.1,0.1-0.2,0.1
		c-0.5,0-0.7,0-1.2,0c-0.1,0-0.2-0.1-0.2-0.2c0-2.1,0.1-3.2,0.1-5.2c0-0.1,0.1-0.1,0.2-0.1c0.5,0,0.8,0,1.3,0c0.1,0,0.2,0.1,0.2,0.1
		c0,0.8,0,1.2-0.1,2c0.9,0,1.4,0.1,2.3,0.1c0.1-0.8,0.1-1.2,0.1-2c0-0.1,0.1-0.1,0.2-0.1c0.5,0,0.8,0.1,1.3,0.1
		c0.1,0,0.2,0.1,0.2,0.2C-347.2,386.7-347.3,387.8-347.4,389.9 M-340.9,390.6c0,0.1-0.1,0.1-0.2,0.1c-0.5-0.1-0.8-0.1-1.3-0.2
		c-0.1,0-0.2-0.1-0.2-0.2c-0.1-0.5-0.1-0.8-0.2-1.3c-0.8-0.1-1.1-0.1-1.9-0.2c-0.2,0.5-0.3,0.7-0.5,1.2c0,0.1-0.1,0.1-0.2,0.1
		c-0.5-0.1-0.8-0.1-1.3-0.1c-0.1,0-0.2-0.1-0.1-0.1l0,0c0.7-1.8,1.1-2.7,1.8-4.5c0.3-0.7,1-0.7,1.7-0.7c0.7,0.1,1.4,0.3,1.5,1
		C-341.3,387.7-341.1,388.7-340.9,390.6L-340.9,390.6L-340.9,390.6z M-335,386.3c-0.1,0.3-0.1,0.4-0.1,0.7c0,0.1-0.1,0.1-0.2,0.1
		l0,0c-0.4-0.1-0.9-0.2-1.4-0.3c-0.6-0.1-1.2,0.1-1.4,1c-0.1,0.4-0.1,0.5-0.1,0.9c-0.2,1,0.3,1.3,0.9,1.4c0.5,0.1,1,0.1,1.4,0.2l0,0
		c0.1,0,0.2,0.1,0.1,0.2c-0.1,0.3-0.1,0.4-0.1,0.7c0,0.1-0.1,0.1-0.2,0.1c-0.2,0-0.7,0-1.4-0.1c-1.4-0.2-2.6-1-2.3-2.8
		c0.1-0.4,0.1-0.6,0.1-0.9c0.3-1.8,1.7-2.1,3.2-1.9c0.7,0.1,1.2,0.3,1.4,0.4C-335,386.2-335,386.2-335,386.3 M-329.9,392.9
		c-0.6-0.2-0.9-0.2-1.5-0.4c-0.1,0-0.1-0.1-0.2-0.1c-0.5-1.1-0.8-1.7-1.3-2.8c-0.2,0.9-0.3,1.4-0.5,2.4c0,0.1-0.1,0.1-0.2,0.1
		c-0.5-0.1-0.7-0.1-1.2-0.2c-0.1,0-0.2-0.1-0.1-0.2c0.4-2.1,0.6-3.1,1-5.1c0-0.1,0.1-0.1,0.2-0.1c0.5,0.1,0.7,0.2,1.2,0.3
		c0.1,0,0.2,0.1,0.2,0.2c-0.2,0.9-0.3,1.4-0.5,2.3c1-0.8,1.6-1.1,2.6-1.9c0.1-0.1,0.1-0.1,0.2,0c0.6,0.1,0.9,0.2,1.4,0.4
		c0.1,0,0.1,0.1,0.1,0.1l-0.1,0.1c-1.1,0.7-1.7,1.1-2.8,1.9c0.6,1.1,0.9,1.8,1.5,3.1l0,0.1L-329.9,392.9z"/>
	<path fill="#FFFFFF" d="M-360.1,416c0-0.2,0-0.2,0.1-0.4c0-0.3,0-0.4-0.3-0.4c-0.1,0-0.2,0-0.3-0.1c-0.1,0.5-0.1,0.7-0.2,1.2
		c0.1,0,0.2,0,0.3,0C-360.3,416.3-360.2,416.3-360.1,416"/>
	<path fill="#FFFFFF" d="M-365.6,416.7c0.2,0.1,0.4,0,0.5-0.3c0-0.1,0.1-0.2,0.1-0.3c0.1-0.3,0-0.5-0.3-0.6c-0.1,0-0.2-0.1-0.3-0.1
		c-0.1,0.5-0.2,0.7-0.4,1.1C-365.8,416.6-365.7,416.6-365.6,416.7"/>
	<path fill="#FFFFFF" d="M-342.7,416.7c0.2-0.1,0.3-0.2,0.2-0.5c-0.1-0.3-0.1-0.4-0.2-0.7c-0.1-0.3-0.2-0.3-0.5-0.3
		c-0.2,0.1-0.3,0.2-0.2,0.5c0.1,0.3,0.1,0.4,0.2,0.7C-343.1,416.7-342.9,416.8-342.7,416.7"/>
	<path fill="#FFFFFF" d="M-340.5,414.9c-0.4-1.1-0.9-2.1-1.3-3.2c-0.6,0.2-1.3,0.4-1.9,0.6c-7.6,2.3-14.9,2.1-22.5-0.5
		c-0.1,0-0.3-0.1-0.4-0.1c-0.4,1.1-0.9,2.3-1.3,3.4c-0.1,0.2-0.1,0.4-0.2,0.5c-0.1,0.2-0.1,0.4-0.2,0.6c-0.2,0.5-0.4,1-0.6,1.5
		c9.9,3.6,19.7,3.6,29.6,0c-0.2-0.6-0.5-1.1-0.7-1.7c-0.1-0.2-0.1-0.4-0.2-0.6C-340.3,415.2-340.4,415-340.5,414.9 M-346.7,417.5
		c0.1,0.6-0.2,1-0.9,1.2c-0.7,0.1-1.1-0.2-1.2-0.8c-0.1-0.8-0.2-1.2-0.3-2c-0.1-0.6,0.2-1,0.8-1.1c0.6-0.1,1,0.2,1.2,0.8
		C-346.9,416.3-346.8,416.7-346.7,417.5 M-361.2,414.6c0.4,0.1,0.6,0.1,1,0.2c0.7,0.1,0.9,0.4,0.8,1c0,0.1,0,0.2,0,0.3
		c-0.1,0.4-0.2,0.6-0.6,0.7c0.3,0.2,0.4,0.5,0.3,0.9c0,0.2-0.1,0.4-0.1,0.6c0,0.2,0,0.3,0,0.5c-0.3,0-0.4-0.1-0.7-0.1
		c0-0.1,0-0.2,0-0.5c0-0.2,0.1-0.4,0.1-0.6c0.1-0.4-0.1-0.5-0.4-0.6c-0.1,0-0.1,0-0.2,0l-0.3,1.6c-0.3-0.1-0.4-0.1-0.7-0.1
		C-361.6,416.8-361.5,416.1-361.2,414.6 M-356.5,419.1c-0.3,0-0.4,0-0.7,0c0.1-1.5,0.2-2.3,0.3-3.9c0.3,0,0.4,0,0.6,0
		C-356.3,416.8-356.4,417.5-356.5,419.1 M-358.6,418.3c0.5,0.1,0.7,0.1,1.2,0.1c0,0.2,0,0.3,0,0.6c-0.8-0.1-1.1-0.1-1.9-0.2
		c0.2-1.5,0.3-2.3,0.5-3.8c0.3,0,0.4,0.1,0.6,0.1C-358.4,416.4-358.4,417-358.6,418.3 M-355.2,416.3c0,1.1,0,1.7-0.1,2.8
		c-0.3,0-0.4,0-0.6,0c0.1-1.5,0.1-2.3,0.2-3.9c0.3,0,0.5,0,0.8,0c0.2,0.9,0.4,1.4,0.7,2.3c0-0.9,0-1.4,0-2.3c0.2,0,0.3,0,0.6,0
		c0,1.5,0,2.3,0,3.9c-0.3,0-0.4,0-0.7,0C-354.8,418-354.9,417.5-355.2,416.3 M-350.1,416c0-0.3-0.2-0.4-0.4-0.4
		c-0.2,0-0.3,0.1-0.3,0.4c0,0.2,0,0.2,0,0.4c-0.2,0-0.4,0-0.6,0.1c0-0.2,0-0.2,0-0.4c0-0.6,0.3-1,0.9-1.1c0.6-0.1,1,0.2,1.1,0.9
		c0.2,1.2-1.1,1.8-1.1,2.4l0,0.1c0.5-0.1,0.8-0.1,1.3-0.1c0,0.2,0,0.3,0.1,0.5c-0.8,0.1-1.2,0.1-2.1,0.2c0-0.2,0-0.3,0-0.5
		C-351.3,417.4-349.9,417.1-350.1,416 M-365.8,417.4c-0.4-0.1-0.6-0.2-1.1-0.4c0.5-1.5,0.8-2.2,1.3-3.7c0.4,0.1,0.6,0.2,0.9,0.3
		c0.6,0.2,0.8,0.6,0.7,1.1l0,0.1c-0.1,0.4-0.3,0.6-0.6,0.6c0.3,0.2,0.4,0.5,0.3,0.9c0,0.1-0.1,0.2-0.1,0.3
		C-364.6,417.4-365.1,417.6-365.8,417.4 M-363.3,414.1c0.7,0.2,1,0.3,1.7,0.4c0,0.2-0.1,0.3-0.1,0.5c-0.4-0.1-0.7-0.1-1.1-0.3
		c-0.1,0.4-0.2,0.6-0.3,1.1c0.4,0.1,0.5,0.1,0.9,0.2c-0.1,0.2-0.1,0.3-0.1,0.5c-0.4-0.1-0.6-0.1-0.9-0.2c-0.1,0.4-0.2,0.7-0.3,1.1
		c0.5,0.1,0.7,0.2,1.2,0.3c0,0.2-0.1,0.3-0.1,0.5c-0.8-0.2-1.1-0.3-1.9-0.5C-363.9,416.3-363.7,415.6-363.3,414.1 M-345.1,418.1
		c-0.3-1.2-0.4-1.7-0.7-2.9c-0.2,0-0.3,0.1-0.5,0.1c0-0.2-0.1-0.3-0.1-0.4c0.5-0.1,0.6-0.4,0.6-0.6c0.2,0,0.3-0.1,0.4-0.1
		c0.4,1.5,0.6,2.2,1,3.8C-344.6,418-344.8,418-345.1,418.1 M-342.5,417.4c-0.7,0.2-1.1,0-1.3-0.6c-0.2-0.8-0.3-1.1-0.5-1.9
		c-0.2-0.6,0-1,0.7-1.3c0.6-0.2,1,0,1.2,0.6l0,0.1c-0.2,0.1-0.4,0.1-0.6,0.2l0-0.1c-0.1-0.3-0.2-0.3-0.4-0.3
		c-0.2,0.1-0.3,0.2-0.2,0.6c0.1,0.3,0.1,0.4,0.2,0.7c0-0.2,0.2-0.4,0.5-0.5c0.5-0.2,0.8,0.1,1,0.6c0.1,0.3,0.1,0.4,0.2,0.7
		C-341.6,416.7-341.8,417.2-342.5,417.4"/>
	<path fill="#FFFFFF" d="M-348.1,415.1c-0.2,0-0.3,0.2-0.3,0.4c0.1,0.8,0.2,1.2,0.3,2.1c0,0.3,0.2,0.4,0.4,0.3
		c0.2,0,0.3-0.2,0.3-0.4c-0.1-0.8-0.2-1.2-0.4-2.1C-347.8,415.2-347.9,415.1-348.1,415.1"/>
	<path fill="#FFFFFF" d="M-364.7,414.7c0-0.1,0-0.1,0.1-0.2c0.1-0.3,0-0.4-0.2-0.5c-0.1,0-0.2-0.1-0.3-0.1c-0.1,0.4-0.2,0.6-0.3,1
		c0.1,0,0.1,0,0.3,0.1C-364.9,415.1-364.8,415-364.7,414.7"/>
	<path fill="#FFFFFF" d="M-366.1,398h0.7v1c0,0.5-0.2,0.8-0.7,0.8c-0.5,0-0.7-0.3-0.7-0.8v-1.6c0-0.5,0.2-0.8,0.7-0.8
		c0.5,0,0.7,0.3,0.7,0.8v0.3h-0.5v-0.3c0-0.2-0.1-0.3-0.2-0.3c-0.2,0-0.3,0.1-0.3,0.3v1.7c0,0.2,0.1,0.3,0.3,0.3
		c0.2,0,0.2-0.1,0.2-0.3v-0.6h-0.2V398z"/>
	<polygon fill="#FFFFFF" points="-365.1,396.7 -364.6,396.7 -364.6,399.3 -363.8,399.3 -363.8,399.8 -365.1,399.8 	"/>
	<path fill="#FFFFFF" d="M-363.6,397.4c0-0.5,0.3-0.8,0.7-0.8c0.5,0,0.7,0.3,0.7,0.8v1.6c0,0.5-0.3,0.8-0.7,0.8
		c-0.5,0-0.7-0.3-0.7-0.8V397.4z M-363.2,399c0,0.2,0.1,0.3,0.2,0.3c0.2,0,0.3-0.1,0.3-0.3v-1.7c0-0.2-0.1-0.3-0.3-0.3
		c-0.2,0-0.2,0.1-0.2,0.3V399z"/>
	<path fill="#FFFFFF" d="M-360.4,397.4v0.1c0,0.3-0.1,0.5-0.3,0.6c0.3,0.1,0.4,0.3,0.4,0.7v0.2c0,0.5-0.2,0.7-0.7,0.7h-0.8v-3.1h0.7
		C-360.6,396.7-360.4,396.9-360.4,397.4 M-361.4,397.1v0.8h0.2c0.2,0,0.3-0.1,0.3-0.3v-0.2c0-0.2-0.1-0.3-0.2-0.3L-361.4,397.1
		L-361.4,397.1z M-361.4,398.4v0.9h0.3c0.2,0,0.2-0.1,0.2-0.3v-0.3c0-0.3-0.1-0.4-0.3-0.4L-361.4,398.4L-361.4,398.4z"/>
	<path fill="#FFFFFF" d="M-358.5,399.8h-0.5l-0.1-0.6h-0.6l-0.1,0.6h-0.4l0.5-3.1h0.7L-358.5,399.8z M-359.6,398.8h0.5l-0.2-1.6
		L-359.6,398.8z"/>
	<polygon fill="#FFFFFF" points="-358.3,396.7 -357.8,396.7 -357.8,399.3 -357,399.3 -357,399.8 -358.3,399.8 	"/>
	<polygon fill="#FFFFFF" points="-355.1,398.9 -354.8,396.7 -354.1,396.7 -354.1,399.8 -354.5,399.8 -354.5,397.5 -354.9,399.8 
		-355.3,399.8 -355.7,397.6 -355.7,399.8 -356.1,399.8 -356.1,396.7 -355.4,396.7 	"/>
	<path fill="#FFFFFF" d="M-353.8,397.4c0-0.5,0.3-0.8,0.7-0.8s0.7,0.3,0.7,0.8v1.6c0,0.5-0.3,0.8-0.7,0.8s-0.7-0.3-0.7-0.8V397.4z
		 M-353.3,399c0,0.2,0.1,0.3,0.2,0.3c0.2,0,0.2-0.1,0.2-0.3v-1.7c0-0.2-0.1-0.3-0.2-0.3c-0.2,0-0.2,0.1-0.2,0.3V399z"/>
	<polygon fill="#FFFFFF" points="-351.3,399.2 -350.9,396.7 -350.4,396.7 -350.9,399.8 -351.6,399.8 -352.1,396.7 -351.6,396.7 	"/>
	<polygon fill="#FFFFFF" points="-349.7,398 -349.1,398 -349.1,398.4 -349.7,398.4 -349.7,399.3 -348.9,399.3 -348.9,399.8 
		-350.2,399.8 -350.2,396.7 -348.9,396.7 -348.9,397.1 -349.7,397.1 	"/>
	<polygon fill="#FFFFFF" points="-347.6,398.9 -347.2,396.7 -346.6,396.7 -346.6,399.8 -347,399.8 -347,397.5 -347.4,399.8 
		-347.8,399.8 -348.2,397.6 -348.2,399.8 -348.6,399.8 -348.6,396.7 -347.9,396.7 	"/>
	<polygon fill="#FFFFFF" points="-345.7,398 -345.1,398 -345.1,398.4 -345.7,398.4 -345.7,399.3 -344.9,399.3 -344.9,399.8 
		-346.2,399.8 -346.2,396.7 -344.9,396.7 -344.9,397.1 -345.7,397.1 	"/>
	<polygon fill="#FFFFFF" points="-344.2,397.5 -344.2,399.8 -344.6,399.8 -344.6,396.7 -344,396.7 -343.5,398.5 -343.5,396.7 
		-343.1,396.7 -343.1,399.8 -343.6,399.8 	"/>
	<polygon fill="#FFFFFF" points="-342.9,396.7 -341.4,396.7 -341.4,397.1 -341.9,397.1 -341.9,399.8 -342.4,399.8 -342.4,397.1 
		-342.9,397.1 	"/>
	
		<rect x="-354.4" y="406.8" transform="matrix(0.8824 0.4706 -0.4706 0.8824 150.085 214.7263)" fill="#FFFFFF" width="0.1" height="1.4"/>
	<polygon fill="#FFFFFF" points="-354.8,408.2 -354.7,408.2 -354.8,408.2 	"/>
	
		<rect x="-354.1" y="406.9" transform="matrix(0.883 0.4694 -0.4694 0.883 149.5795 213.8374)" fill="#FFFFFF" width="0" height="0"/>
	
		<rect x="-354.1" y="406.9" transform="matrix(0.8805 0.4741 -0.4741 0.8805 150.6055 216.5249)" fill="#FFFFFF" width="0" height="0"/>
	<rect x="-354.1" y="407" transform="matrix(0.899 0.438 -0.438 0.899 142.4725 196.2156)" fill="#FFFFFF" width="0" height="0"/>
	
		<rect x="-354.2" y="407" transform="matrix(0.8986 0.4388 -0.4388 0.8986 142.6653 196.6662)" fill="#FFFFFF" width="0" height="0"/>
	<polygon fill="#FFFFFF" points="-354.2,406.8 -354.2,406.9 -354.1,406.9 -354.1,406.9 -354,407 -354,407 -354,406.9 -354,406.9 
		-354.2,406.8 -354.2,406.8 	"/>
	
		<rect x="-355.2" y="408.2" transform="matrix(-0.8928 -0.4505 0.4505 -0.8928 -856.4288 614.0258)" fill="#FFFFFF" width="0.1" height="1.4"/>
	<polygon fill="#FFFFFF" points="-354.8,408.2 -354.8,408.3 -354.8,408.3 	"/>
	<polygon fill="#FFFFFF" points="-355.4,409.5 -355.5,409.5 -355.5,409.5 -355.4,409.5 	"/>
	
		<rect x="-355.5" y="409.5" transform="matrix(-0.8642 -0.5032 0.5032 -0.8642 -868.7012 584.5452)" fill="#FFFFFF" width="0" height="0"/>
	
		<rect x="-355.5" y="409.5" transform="matrix(-0.9012 -0.4335 0.4335 -0.9012 -853.2858 624.446)" fill="#FFFFFF" width="0" height="0"/>
	
		<rect x="-355.5" y="409.5" transform="matrix(-0.883 -0.4694 0.4694 -0.883 -861.5061 604.2217)" fill="#FFFFFF" width="0" height="0"/>
	<polygon fill="#FFFFFF" points="-355.4,409.6 -355.4,409.6 -355.5,409.6 -355.5,409.5 -355.6,409.5 -355.6,409.5 -355.6,409.5 
		-355.6,409.5 -355.4,409.6 -355.4,409.6 	"/>
	<path fill="#FFFFFF" d="M-355.1,407.7l-2.4-0.2c0,0-0.1,0-0.1,0.1c0,0.1,0,0.2,0,0.2h0l0,0l0.1-0.1l0,0.1l0.1,0l0,0.1l0.1,0l0,0.1
		l0.1,0l0,0.1l0.1,0l0,0.1l0.1-0.1l0,0.1l0.1,0l0,0.1l0.1-0.1l0,0.1l0.1,0l0,0.1l0.1,0l0,0.1l0.1-0.1l0,0.1l0.1-0.1l0,0.1l0.1,0
		l0,0.1l0.1,0l0,0.1l0.1,0l0,0.1l0.1,0l0,0.1v0l0.1,0h0.1l0.1,0l0.2-0.2L-355.1,407.7z"/>
	
		<rect x="-356.7" y="408.2" transform="matrix(-0.8849 0.4657 -0.4657 -0.8849 -482.1972 935.5033)" fill="#FFFFFF" width="0.1" height="0"/>
	
		<rect x="-357.1" y="408" transform="matrix(-0.8917 0.4527 -0.4527 -0.8917 -490.7675 933.5193)" fill="#FFFFFF" width="0.1" height="0"/>
	
		<rect x="-356.9" y="408.1" transform="matrix(-0.8859 0.4638 -0.4638 -0.8859 -483.6196 935.2023)" fill="#FFFFFF" width="0.1" height="0"/>
	
		<rect x="-357.3" y="408" transform="matrix(-0.9055 0.4244 -0.4244 -0.9055 -507.5495 929.0186)" fill="#FFFFFF" width="0.1" height="0"/>
	
		<rect x="-357" y="408.1" transform="matrix(-0.8797 0.4755 -0.4755 -0.8797 -476.9169 936.8115)" fill="#FFFFFF" width="0.1" height="0"/>
	
		<rect x="-357.4" y="407.9" transform="matrix(-0.8879 0.46 -0.46 -0.8879 -487.0348 934.5406)" fill="#FFFFFF" width="0.1" height="0"/>
	<polygon fill="#FFFFFF" points="-357.6,407.8 -357.7,407.9 -357.7,407.9 -357.7,407.9 -357.7,407.9 -357.6,407.8 	"/>
	
		<rect x="-357.6" y="407.9" transform="matrix(-0.8859 0.4638 -0.4638 -0.8859 -485.0655 935.064)" fill="#FFFFFF" width="0.1" height="0"/>
	<polygon fill="#FFFFFF" points="-355.1,407.7 -355.1,407.7 -355,408.4 -355.2,408.7 -355.3,408.7 -355.3,408.7 -355.4,408.7 
		-355.4,408.7 -355.3,408.7 -355.3,408.7 -355.2,408.7 -355,408.4 	"/>
	
		<rect x="-356" y="408.4" transform="matrix(-0.8935 0.4491 -0.4491 -0.8935 -490.5778 933.2127)" fill="#FFFFFF" width="0.1" height="0"/>
	
		<rect x="-355.9" y="408.5" transform="matrix(-0.8866 0.4626 -0.4626 -0.8866 -482.3158 935.217)" fill="#FFFFFF" width="0.1" height="0"/>
	
		<rect x="-356.6" y="408.2" transform="matrix(-0.8944 0.4472 -0.4472 -0.8944 -492.845 932.8027)" fill="#FFFFFF" width="0.1" height="0"/>
	
		<rect x="-355.6" y="408.6" transform="matrix(-0.8925 0.451 -0.451 -0.8925 -488.5831 933.5835)" fill="#FFFFFF" width="0.1" height="0"/>
	
		<rect x="-355.7" y="408.5" transform="matrix(-0.903 0.4296 -0.4296 -0.903 -501.3513 930.2275)" fill="#FFFFFF" width="0.1" height="0"/>
	
		<rect x="-356.2" y="408.4" transform="matrix(-0.8821 0.4711 -0.4711 -0.8821 -477.8251 936.3564)" fill="#FFFFFF" width="0.1" height="0"/>
	
		<rect x="-356.4" y="408.3" transform="matrix(-0.9 0.4358 -0.4358 -0.9 -499.2076 931.0646)" fill="#FFFFFF" width="0.1" height="0"/>
	
		<rect x="-356.3" y="408.3" transform="matrix(-0.8859 0.4638 -0.4638 -0.8859 -482.4604 935.3136)" fill="#FFFFFF" width="0.1" height="0"/>
	<path fill="#FFFFFF" d="M-354.7,408.5L-354.7,408.5l-0.1,0c-0.1,0-0.1-0.1-0.2-0.3c0-0.2,0-0.3,0-0.4l0.1-0.1l0.1-0.1
		c0.1,0,0.2,0,0.3,0c0.1,0,0.2,0,0.3-0.1l0.2,0c0,0,0-0.1-0.1-0.1c-0.2,0.1-0.2,0.1-0.3,0.1c-0.1,0-0.5-0.1-0.5-0.1
		s-0.2-0.1-0.2,0.1c0,0.1,0,0.4,0,0.4s0,0.1,0.1,0.3c0.1,0.1,0.1,0.2,0.2,0.2c0.1,0,0.3,0.1,0.4,0.1l0.1-0.1
		C-354.5,408.6-354.5,408.5-354.7,408.5"/>
	<path fill="#FFFFFF" d="M-354.4,408.3C-354.4,408.2-354.3,408.2-354.4,408.3l-0.1-0.1l0,0l0,0.1l0,0
		C-354.5,408.3-354.5,408.3-354.4,408.3"/>
	<path fill="#FFFFFF" d="M-354.2,407.7c-0.1,0-0.2,0.1-0.3,0.1c-0.1,0-0.2,0-0.3,0l-0.1,0.1l0.1-0.1c0.1,0,0.2,0,0.2,0.1l0,0.2
		l0.1,0c0.1,0,0.1,0,0,0.1l-0.1,0l0,0.1h0.1c0.1,0,0.1,0,0,0.1c-0.1,0-0.1,0-0.2,0l-0.1,0.1l0,0.1l0,0c0.2,0,0.2,0.1,0.3,0.1
		c0.1-0.1,0.1-0.1,0.2-0.2c0.1-0.1,0.1-0.3,0-0.4C-354.3,407.9-354.3,407.8-354.2,407.7l0.2,0L-354.2,407.7z"/>
	<path fill="#FFFFFF" d="M-354.4,408h-0.1l0,0v0.1l0,0L-354.4,408C-354.4,408.1-354.3,408-354.4,408"/>
	<path fill="#FFFFFF" d="M-354.5,408.4C-354.5,408.4-354.4,408.4-354.5,408.4l-0.1,0l0,0l0,0l0,0L-354.5,408.4z"/>
	<polygon fill="#FFFFFF" points="-355,407.9 -355,407.8 -355.1,407.8 	"/>
	<polygon fill="#FFFFFF" points="-355,407.8 -355.1,407.8 -355,407.8 	"/>
	<polygon fill="#FFFFFF" points="-355,407.8 -355.1,407.8 -355.1,407.8 -355.1,407.8 -355,407.8 -355,407.8 	"/>
	<polygon fill="#FFFFFF" points="-355,407.8 -355.1,407.8 -355.1,407.8 -355.1,407.8 -355,407.8 -355,407.8 	"/>
	<polygon fill="#FFFFFF" points="-355,408.1 -355.1,408.1 -355.1,408.1 	"/>
	<polygon fill="#FFFFFF" points="-355.1,408.1 -355.1,408.1 -355.1,408.1 	"/>
	<polygon fill="#FFFFFF" points="-355.1,408.1 -355.1,408.1 -355.1,408.1 -355.1,408.1 -355.1,408.1 -355.1,408.1 	"/>
	<polygon fill="#FFFFFF" points="-355.1,408.1 -355.1,408.1 -355.1,408.1 -355.1,408.1 -355.1,408.1 -355.1,408.1 	"/>
	<polygon fill="#FFFFFF" points="-351.4,404.5 -351.5,404.6 -351.4,404.6 -351.4,404.6 	"/>
	<polygon fill="#FFFFFF" points="-351.3,404.4 -351.4,404.4 -351.4,404.5 	"/>
	<polygon fill="#FFFFFF" points="-351.1,404.5 -351.2,404.4 -351.2,404.4 	"/>
	<polygon fill="#FFFFFF" points="-351.1,404.6 -351.1,404.6 -351.1,404.5 -351.1,404.6 	"/>
	<polygon fill="#FFFFFF" points="-351.1,404.7 -351.2,404.7 -351.2,404.7 	"/>
	<polygon fill="#FFFFFF" points="-351.4,404.7 -351.4,404.7 -351.3,404.7 	"/>
	<polygon fill="#FFFFFF" points="-351.3,404.4 -351.3,404.4 -351.2,404.4 	"/>
	<path fill="#FFFFFF" d="M-351.4,404.7L-351.4,404.7L-351.4,404.7z"/>
	<path fill="#FFFFFF" d="M-351.1,404.5L-351.1,404.5L-351.1,404.5z"/>
	<polygon fill="#FFFFFF" points="-351.3,404.7 -351.2,404.7 -351.3,404.7 	"/>
	<path fill="#FFFFFF" d="M-351.4,404.5L-351.4,404.5L-351.4,404.5z"/>
	<path fill="#FFFFFF" d="M-351.1,404.6L-351.1,404.6L-351.1,404.6z"/>
	<path fill="#FFFFFF" d="M-351.1,404.7L-351.1,404.7l0-0.1l0-0.1l0,0l-0.1-0.1h0l-0.1,0.1l0,0l0,0.1l0,0.1l0,0l0.1,0.1h0
		L-351.1,404.7z M-351.3,404.7L-351.3,404.7v-0.2V404.7L-351.3,404.7z"/>
	<path fill="#FFFFFF" d="M-351.3,404.5L-351.3,404.5v0.2V404.5L-351.3,404.5z M-351.3,404.6L-351.3,404.6v-0.1V404.6L-351.3,404.6z"
		/>
	<polygon fill="#FFFFFF" points="-351,404.4 -351.1,404.5 -351,404.5 -351,404.5 	"/>
	<polygon fill="#FFFFFF" points="-350.9,404.3 -351,404.3 -351,404.4 	"/>
	<polygon fill="#FFFFFF" points="-350.7,404.4 -350.8,404.3 -350.9,404.3 	"/>
	<polygon fill="#FFFFFF" points="-350.7,404.5 -350.7,404.5 -350.7,404.4 -350.7,404.5 	"/>
	<polygon fill="#FFFFFF" points="-350.7,404.6 -350.9,404.6 -350.8,404.6 	"/>
	<polygon fill="#FFFFFF" points="-351,404.6 -351,404.6 -350.9,404.6 	"/>
	<polygon fill="#FFFFFF" points="-350.9,404.3 -350.9,404.3 -350.9,404.3 	"/>
	<path fill="#FFFFFF" d="M-351,404.6L-351,404.6L-351,404.6z"/>
	<path fill="#FFFFFF" d="M-350.7,404.4L-350.7,404.4L-350.7,404.4z"/>
	<polygon fill="#FFFFFF" points="-350.9,404.6 -350.9,404.6 -350.9,404.6 	"/>
	<path fill="#FFFFFF" d="M-351,404.4L-351,404.4L-351,404.4z"/>
	<path fill="#FFFFFF" d="M-350.7,404.5L-350.7,404.5L-350.7,404.5z"/>
	<path fill="#FFFFFF" d="M-350.7,404.6L-350.7,404.6L-350.7,404.6l0-0.2l0,0l-0.1-0.1h0l-0.1,0.1l0,0l0,0.1l0,0.1l0,0l0.1,0.1h0
		L-350.7,404.6z M-350.9,404.6L-350.9,404.6v-0.2V404.6L-350.9,404.6z"/>
	<path fill="#FFFFFF" d="M-350.9,404.4L-350.9,404.4v0.2V404.4L-350.9,404.4z M-350.9,404.5L-350.9,404.5v-0.1V404.5L-350.9,404.5z"
		/>
	<polygon fill="#FFFFFF" points="-350.8,404.1 -350.8,404.2 -350.8,404.3 -350.8,404.2 	"/>
	<polygon fill="#FFFFFF" points="-350.6,404 -350.7,404 -350.7,404.1 	"/>
	<polygon fill="#FFFFFF" points="-350.5,404.1 -350.5,404 -350.6,404 	"/>
	<polygon fill="#FFFFFF" points="-350.5,404.3 -350.4,404.2 -350.5,404.1 -350.4,404.2 	"/>
	<polygon fill="#FFFFFF" points="-350.5,404.3 -350.6,404.4 -350.5,404.4 	"/>
	<polygon fill="#FFFFFF" points="-350.7,404.3 -350.7,404.4 -350.6,404.4 	"/>
	<polygon fill="#FFFFFF" points="-350.6,404 -350.6,404 -350.6,404 	"/>
	<path fill="#FFFFFF" d="M-350.7,404.3L-350.7,404.3L-350.7,404.3z"/>
	<path fill="#FFFFFF" d="M-350.5,404.1L-350.5,404.1L-350.5,404.1z"/>
	<polygon fill="#FFFFFF" points="-350.6,404.4 -350.6,404.4 -350.6,404.4 	"/>
	<path fill="#FFFFFF" d="M-350.8,404.1L-350.8,404.1L-350.8,404.1z"/>
	<path fill="#FFFFFF" d="M-350.5,404.3L-350.5,404.3L-350.5,404.3z"/>
	<path fill="#FFFFFF" d="M-350.5,404.3L-350.5,404.3L-350.5,404.3l0-0.2l0,0l-0.1-0.1h0l-0.1,0.1l0,0l0,0.1l0,0.1l0,0l0.1,0.1h0
		L-350.5,404.3z M-350.6,404.3L-350.6,404.3v-0.2V404.3L-350.6,404.3z"/>
	<path fill="#FFFFFF" d="M-350.6,404.1L-350.6,404.1v0.2V404.1L-350.6,404.1z M-350.6,404.3L-350.6,404.3v-0.1V404.3L-350.6,404.3z"
		/>
	<polygon fill="#FFFFFF" points="-350.8,403.7 -350.8,403.8 -350.8,403.9 -350.8,403.8 	"/>
	<polygon fill="#FFFFFF" points="-350.6,403.6 -350.7,403.6 -350.8,403.7 	"/>
	<polygon fill="#FFFFFF" points="-350.5,403.7 -350.5,403.6 -350.6,403.6 	"/>
	<polygon fill="#FFFFFF" points="-350.5,403.9 -350.4,403.8 -350.5,403.7 -350.5,403.8 	"/>
	<polygon fill="#FFFFFF" points="-350.5,403.9 -350.6,404 -350.5,404 	"/>
	<polygon fill="#FFFFFF" points="-350.8,403.9 -350.7,404 -350.6,404 	"/>
	<polygon fill="#FFFFFF" points="-350.6,403.6 -350.6,403.6 -350.6,403.6 	"/>
	<path fill="#FFFFFF" d="M-350.8,403.9L-350.8,403.9L-350.8,403.9z"/>
	<path fill="#FFFFFF" d="M-350.5,403.7L-350.5,403.7L-350.5,403.7z"/>
	<polygon fill="#FFFFFF" points="-350.6,404 -350.6,404 -350.6,404 	"/>
	<path fill="#FFFFFF" d="M-350.8,403.7L-350.8,403.7L-350.8,403.7z"/>
	<path fill="#FFFFFF" d="M-350.5,403.9L-350.5,403.9L-350.5,403.9z"/>
	<path fill="#FFFFFF" d="M-350.5,403.9L-350.5,403.9L-350.5,403.9l0-0.2l0,0l-0.1-0.1h0l-0.1,0.1l0,0l0,0.1l0,0.1l0,0l0.1,0.1h0
		L-350.5,403.9z M-350.6,403.9L-350.6,403.9v-0.2V403.9L-350.6,403.9z"/>
	<path fill="#FFFFFF" d="M-350.6,403.7L-350.6,403.7v0.2V403.7L-350.6,403.7z M-350.6,403.9L-350.6,403.9v-0.1V403.9L-350.6,403.9z"
		/>
	<polygon fill="#FFFFFF" points="-351,403.4 -351.1,403.5 -351,403.6 -351.1,403.5 	"/>
	<polygon fill="#FFFFFF" points="-350.9,403.3 -351,403.3 -351,403.4 	"/>
	<polygon fill="#FFFFFF" points="-350.8,403.4 -350.8,403.3 -350.9,403.3 	"/>
	<polygon fill="#FFFFFF" points="-350.7,403.6 -350.7,403.5 -350.7,403.4 -350.7,403.5 	"/>
	<polygon fill="#FFFFFF" points="-350.8,403.6 -350.9,403.7 -350.8,403.7 	"/>
	<polygon fill="#FFFFFF" points="-351,403.6 -351,403.7 -350.9,403.7 	"/>
	<polygon fill="#FFFFFF" points="-350.9,403.3 -350.9,403.3 -350.9,403.3 	"/>
	<path fill="#FFFFFF" d="M-351,403.6L-351,403.6L-351,403.6z"/>
	<path fill="#FFFFFF" d="M-350.8,403.4L-350.8,403.4L-350.8,403.4z"/>
	<polygon fill="#FFFFFF" points="-350.9,403.7 -350.9,403.7 -350.9,403.7 	"/>
	<path fill="#FFFFFF" d="M-351,403.4L-351,403.4L-351,403.4z"/>
	<path fill="#FFFFFF" d="M-350.7,403.6L-350.7,403.6L-350.7,403.6z"/>
	<path fill="#FFFFFF" d="M-350.8,403.6L-350.8,403.6L-350.8,403.6l0-0.2l0,0l-0.1-0.1h0l-0.1,0.1l0,0l0,0.1l0,0.1l0,0l0.1,0.1h0
		L-350.8,403.6z M-350.9,403.6L-350.9,403.6v-0.2V403.6L-350.9,403.6z"/>
	<path fill="#FFFFFF" d="M-350.9,403.4L-350.9,403.4v0.2V403.4L-350.9,403.4z M-350.9,403.6L-350.9,403.6v-0.1V403.6L-350.9,403.6z"
		/>
	<polygon fill="#FFFFFF" points="-351.4,403.3 -351.4,403.4 -351.4,403.5 -351.4,403.4 	"/>
	<polygon fill="#FFFFFF" points="-351.3,403.2 -351.4,403.2 -351.4,403.3 	"/>
	<polygon fill="#FFFFFF" points="-351.1,403.3 -351.2,403.2 -351.2,403.2 	"/>
	<polygon fill="#FFFFFF" points="-351.1,403.5 -351.1,403.4 -351.1,403.3 -351.1,403.4 	"/>
	<polygon fill="#FFFFFF" points="-351.1,403.5 -351.2,403.6 -351.2,403.6 	"/>
	<polygon fill="#FFFFFF" points="-351.4,403.5 -351.4,403.6 -351.3,403.6 	"/>
	<polygon fill="#FFFFFF" points="-351.3,403.2 -351.3,403.2 -351.2,403.2 	"/>
	<path fill="#FFFFFF" d="M-351.4,403.5L-351.4,403.5L-351.4,403.5z"/>
	<path fill="#FFFFFF" d="M-351.1,403.3L-351.1,403.3L-351.1,403.3z"/>
	<polygon fill="#FFFFFF" points="-351.3,403.6 -351.2,403.6 -351.3,403.6 	"/>
	<path fill="#FFFFFF" d="M-351.4,403.3L-351.4,403.3L-351.4,403.3z"/>
	<path fill="#FFFFFF" d="M-351.1,403.5L-351.1,403.5L-351.1,403.5z"/>
	<path fill="#FFFFFF" d="M-351.1,403.5L-351.1,403.5L-351.1,403.5l0-0.2l0,0l-0.1-0.1h0l-0.1,0.1l0,0l0,0.1l0,0.1l0,0l0.1,0.1h0
		L-351.1,403.5z M-351.3,403.5L-351.3,403.5v-0.2V403.5L-351.3,403.5z"/>
	<path fill="#FFFFFF" d="M-351.3,403.3L-351.3,403.3v0.2V403.3L-351.3,403.3z M-351.3,403.5L-351.3,403.5v-0.1V403.5L-351.3,403.5z"
		/>
	<polygon fill="#FFFFFF" points="-351.8,403.3 -351.9,403.4 -351.8,403.5 -351.8,403.4 	"/>
	<polygon fill="#FFFFFF" points="-351.7,403.2 -351.8,403.2 -351.8,403.3 	"/>
	<polygon fill="#FFFFFF" points="-351.5,403.3 -351.6,403.2 -351.6,403.2 	"/>
	<polygon fill="#FFFFFF" points="-351.5,403.5 -351.5,403.4 -351.5,403.3 -351.5,403.4 	"/>
	<polygon fill="#FFFFFF" points="-351.5,403.5 -351.6,403.6 -351.6,403.6 	"/>
	<polygon fill="#FFFFFF" points="-351.8,403.5 -351.8,403.6 -351.7,403.6 	"/>
	<polygon fill="#FFFFFF" points="-351.7,403.2 -351.7,403.2 -351.6,403.2 	"/>
	<path fill="#FFFFFF" d="M-351.8,403.5L-351.8,403.5L-351.8,403.5z"/>
	<path fill="#FFFFFF" d="M-351.5,403.3L-351.5,403.3L-351.5,403.3z"/>
	<polygon fill="#FFFFFF" points="-351.7,403.6 -351.6,403.6 -351.7,403.6 	"/>
	<path fill="#FFFFFF" d="M-351.8,403.3L-351.8,403.3L-351.8,403.3z"/>
	<path fill="#FFFFFF" d="M-351.5,403.5L-351.5,403.5L-351.5,403.5z"/>
	<path fill="#FFFFFF" d="M-351.5,403.5L-351.5,403.5L-351.5,403.5l0-0.2l0,0l-0.1-0.1h0l-0.1,0.1l0,0l0,0.1l0,0.1l0,0l0.1,0.1h0
		L-351.5,403.5z M-351.7,403.5L-351.7,403.5v-0.2V403.5L-351.7,403.5z"/>
	<path fill="#FFFFFF" d="M-351.7,403.3L-351.7,403.3v0.2V403.3L-351.7,403.3z M-351.7,403.5L-351.7,403.5v-0.1V403.5L-351.7,403.5z"
		/>
	<polygon fill="#FFFFFF" points="-352.2,403.4 -352.2,403.5 -352.2,403.5 -352.2,403.5 	"/>
	<polygon fill="#FFFFFF" points="-352.1,403.3 -352.1,403.3 -352.2,403.4 	"/>
	<polygon fill="#FFFFFF" points="-351.9,403.4 -352,403.3 -352,403.3 	"/>
	<polygon fill="#FFFFFF" points="-351.9,403.5 -351.9,403.5 -351.9,403.4 -351.9,403.5 	"/>
	<polygon fill="#FFFFFF" points="-351.9,403.6 -352,403.6 -352,403.6 	"/>
	<polygon fill="#FFFFFF" points="-352.2,403.6 -352.1,403.6 -352.1,403.6 	"/>
	<polygon fill="#FFFFFF" points="-352,403.3 -352.1,403.3 -352,403.3 	"/>
	<path fill="#FFFFFF" d="M-352.2,403.6L-352.2,403.6L-352.2,403.6z"/>
	<path fill="#FFFFFF" d="M-351.9,403.4L-351.9,403.4L-351.9,403.4z"/>
	<polygon fill="#FFFFFF" points="-352,403.6 -352,403.6 -352.1,403.6 	"/>
	<path fill="#FFFFFF" d="M-352.2,403.4L-352.2,403.4L-352.2,403.4z"/>
	<path fill="#FFFFFF" d="M-351.9,403.5L-351.9,403.5L-351.9,403.5z"/>
	<path fill="#FFFFFF" d="M-351.9,403.6L-351.9,403.6L-351.9,403.6l0-0.2l0,0l-0.1-0.1h0l-0.1,0.1l0,0l0,0.1l0,0.1l0,0l0.1,0.1h0
		L-351.9,403.6z M-352,403.5L-352,403.5v-0.2V403.5L-352,403.5z"/>
	<path fill="#FFFFFF" d="M-352,403.4L-352,403.4v0.2V403.4L-352,403.4z M-352,403.5L-352,403.5v-0.1V403.5L-352,403.5z"/>
	<polygon fill="#FFFFFF" points="-351.5,404.9 -351.6,404.9 -351.7,404.9 -351.7,404.8 -351.7,404.8 -351.6,404.8 	"/>
	<polygon fill="#FFFFFF" points="-352,404.5 -351.9,404.6 -351.9,404.7 -352.2,404.6 -352.2,404.5 	"/>
	<path fill="#FFFFFF" d="M-351.9,404.2l-0.1,0.3l-0.2,0.1l-0.1,0c0,0,0.1-0.2,0.2-0.3C-352,404.2-351.9,404.2-351.9,404.2"/>
	<path fill="#FFFFFF" d="M-353.6,406.6c-0.1-0.1-0.2,0-0.3,0c-0.1,0.1-0.1,0.2,0,0.3c0.1,0.1,0.2,0.1,0.3,0
		C-353.5,406.8-353.5,406.7-353.6,406.6 M-353.8,406.9l0-0.2l0.2,0l0,0.2L-353.8,406.9z"/>
	<path fill="#FFFFFF" d="M-353.6,406.6l-0.2,0l0,0.2l0.2,0L-353.6,406.6z M-353.8,406.9l0-0.2l0.2,0l0,0.2L-353.8,406.9z"/>
	<path fill="#FFFFFF" d="M-351.5,404.5c-0.1-0.2-0.1-0.2-0.1-0.2l-0.1,0.3l-0.2,0.1l-0.5-0.2l-0.1,0.6l-1.3,1.6l0,0.1
		c0,0.1,0,0.2,0.1,0.2c0.1,0.1,0.2,0,0.3,0l1.3-1.7c0,0,0.1-0.1,0.2-0.1c0.2-0.1,0.4-0.2,0.4-0.2
		C-351.6,404.9-351.4,404.7-351.5,404.5 M-353.6,406.9c-0.1,0.1-0.2,0.1-0.3,0c-0.1-0.1-0.1-0.2,0-0.3c0.1-0.1,0.2-0.1,0.3,0
		C-353.5,406.7-353.5,406.8-353.6,406.9 M-352.4,405.2l-1,1.3l-0.1,0l-0.1-0.1l1.1-1.3l0.1,0L-352.4,405.2z"/>
	
		<rect x="-352.3" y="404.6" transform="matrix(-0.9638 -0.2668 0.2668 -0.9638 -799.6471 700.8969)" fill="#FFFFFF" width="0.3" height="0.3"/>
	<polygon fill="#FFFFFF" points="-352.1,404.9 -352.1,404.8 -352.1,404.7 -352.1,404.7 -352.1,404.7 -352.1,404.7 -352.2,404.7 
		-352.2,404.7 -352.2,404.6 -352.3,404.7 -352.3,404.6 -352.3,404.6 -352.4,404.8 -352.3,404.8 -352.3,404.8 -352.3,404.8 
		-352.3,404.9 -352.2,404.8 -352.2,404.9 -352.2,404.9 -352.1,404.9 -352.1,404.9 	"/>
	<polygon fill="#FFFFFF" points="-352.1,404.9 -352.1,404.7 -352.1,404.7 -352.1,404.7 -352.1,404.9 	"/>
	<polygon fill="#FFFFFF" points="-352.2,404.9 -352.2,404.7 -352.2,404.7 -352.2,404.7 -352.2,404.9 	"/>
	<polygon fill="#FFFFFF" points="-352.3,404.9 -352.2,404.7 -352.3,404.7 -352.3,404.7 -352.3,404.8 	"/>
	<polygon fill="#FFFFFF" points="-352.3,404.8 -352.3,404.7 -352.3,404.6 -352.3,404.6 -352.3,404.8 	"/>
	<polygon fill="#FFFFFF" points="-354.9,404.4 -353.1,404.4 -352.9,404.4 -352.7,404.4 -352.7,404.5 -352.9,404.6 -353.1,404.5 
		-354.9,404.6 	"/>
	<path fill="#FFFFFF" d="M-354.9,404.2c0,0,0,0-0.1,0c-0.1,0-0.2,0-0.2,0h-1.1c-0.1,0-0.2,0.1-0.2,0.2v0.1c0,0.1,0.1,0.2,0.2,0.2
		h1.1c0,0,0,0,0.2,0c0.2,0,0.1,0,0.1,0C-354.8,404.7-354.8,404.2-354.9,404.2 M-355.4,404.7h-1l0-0.1l0-0.1h1V404.7L-355.4,404.7z
		 M-355.4,404.4h-1l0-0.1l0-0.1h1V404.4L-355.4,404.4z"/>
	<polygon fill="#FFFFFF" points="-355.2,404.6 -355.2,404.6 -355,404.6 -354.9,404.6 -355,404.6 -355.2,404.6 	"/>
	<polygon fill="#FFFFFF" points="-355.2,404.7 -355.2,404.7 -355,404.7 -354.9,404.7 -355,404.7 -355.2,404.7 	"/>
	<polygon fill="#FFFFFF" points="-355.2,404.3 -355.2,404.2 -355,404.2 -354.9,404.3 -355,404.3 -355.2,404.3 	"/>
	<polygon fill="#FFFFFF" points="-355.2,404.6 -355.2,404.5 -355,404.5 -354.9,404.6 -355,404.6 -355.2,404.6 	"/>
	<polygon fill="#FFFFFF" points="-355.2,404.5 -355.2,404.5 -355,404.5 -354.9,404.5 -355,404.5 -355.2,404.5 	"/>
	<polygon fill="#FFFFFF" points="-355.2,404.4 -355.2,404.4 -355,404.4 -354.9,404.4 -355,404.5 -355.2,404.5 	"/>
	<polygon fill="#FFFFFF" points="-355.2,404.4 -355.2,404.4 -355,404.4 -354.9,404.4 -355,404.4 -355.2,404.4 	"/>
	<polygon fill="#FFFFFF" points="-355.2,404.3 -355.2,404.3 -355,404.3 -354.9,404.3 -355,404.3 -355.2,404.3 	"/>
	<polygon fill="#FFFFFF" points="-354.9,404.2 -354.9,404.2 -354.8,404.2 -354.8,404.7 -354.9,404.8 -354.9,404.7 	"/>
	
		<rect x="-351.9" y="403.7" transform="matrix(0.9368 -0.3498 0.3498 0.9368 -163.572 -97.5608)" fill="#FFFFFF" width="0.1" height="0.7"/>
	
		<rect x="-352" y="403.8" transform="matrix(0.9487 -0.3162 0.3162 0.9487 -145.727 -90.5814)" fill="#FFFFFF" width="0.1" height="0"/>
	
		<rect x="-352" y="403.8" transform="matrix(0.9471 -0.321 0.321 0.9471 -148.2376 -91.6139)" fill="#FFFFFF" width="0.1" height="0"/>
	
		<rect x="-352" y="403.8" transform="matrix(0.9476 -0.3193 0.3193 0.9476 -147.3697 -91.2473)" fill="#FFFFFF" width="0.1" height="0"/>
	
		<rect x="-352" y="403.8" transform="matrix(0.9503 -0.3114 0.3114 0.9503 -143.2502 -89.5196)" fill="#FFFFFF" width="0.1" height="0"/>
	
		<rect x="-352" y="403.8" transform="matrix(0.9438 -0.3306 0.3306 0.9438 -153.3005 -93.6441)" fill="#FFFFFF" width="0.1" height="0"/>
	
		<rect x="-352" y="403.9" transform="matrix(0.9444 -0.3289 0.3289 0.9444 -152.41 -93.2798)" fill="#FFFFFF" width="0.1" height="0"/>
	<polygon fill="#FFFFFF" points="-352,403.9 -351.9,403.9 -351.9,403.9 -352,403.9 	"/>
	
		<rect x="-352" y="403.9" transform="matrix(0.9348 -0.3551 0.3551 0.9348 -166.3761 -98.643)" fill="#FFFFFF" width="0.1" height="0"/>
	
		<rect x="-352" y="403.9" transform="matrix(0.9482 -0.3178 0.3178 0.9482 -146.6128 -90.8926)" fill="#FFFFFF" width="0.1" height="0"/>
	
		<rect x="-351.9" y="404" transform="matrix(0.9335 -0.3586 0.3586 0.9335 -168.2695 -99.3218)" fill="#FFFFFF" width="0.1" height="0"/>
	
		<rect x="-351.9" y="404" transform="matrix(0.9416 -0.3367 0.3367 0.9416 -156.5769 -94.8928)" fill="#FFFFFF" width="0.1" height="0"/>
	
		<rect x="-351.9" y="404" transform="matrix(0.9476 -0.3194 0.3194 0.9476 -147.481 -91.2288)" fill="#FFFFFF" width="0.1" height="0"/>
	
		<rect x="-351.9" y="404" transform="matrix(0.9482 -0.3178 0.3178 0.9482 -146.6418 -90.8753)" fill="#FFFFFF" width="0.1" height="0"/>
	
		<rect x="-351.9" y="404.1" transform="matrix(0.9547 -0.2977 0.2977 0.9547 -136.2404 -86.4263)" fill="#FFFFFF" width="0.1" height="0"/>
	
		<rect x="-351.9" y="404.1" transform="matrix(0.9482 -0.3178 0.3178 0.9482 -146.6575 -90.8672)" fill="#FFFFFF" width="0.1" height="0"/>
	
		<rect x="-351.9" y="404.1" transform="matrix(0.9508 -0.3098 0.3098 0.9508 -142.5077 -89.1186)" fill="#FFFFFF" width="0.1" height="0"/>
	
		<rect x="-351.9" y="404.1" transform="matrix(0.9471 -0.321 0.321 0.9471 -148.3469 -91.549)" fill="#FFFFFF" width="0.1" height="0"/>
	
		<rect x="-351.9" y="404.2" transform="matrix(0.9359 -0.3523 0.3523 0.9359 -164.9433 -98.0334)" fill="#FFFFFF" width="0.1" height="0"/>
	
		<rect x="-351.9" y="404.2" transform="matrix(0.9476 -0.3194 0.3194 0.9476 -147.5319 -91.1989)" fill="#FFFFFF" width="0.1" height="0"/>
	
		<rect x="-351.9" y="404.2" transform="matrix(0.9465 -0.3227 0.3227 0.9465 -149.264 -91.9025)" fill="#FFFFFF" width="0.1" height="0"/>
	
		<rect x="-351.8" y="404.2" transform="matrix(0.9471 -0.321 0.321 0.9471 -148.3759 -91.5314)" fill="#FFFFFF" width="0.1" height="0"/>
	
		<rect x="-351.8" y="404.3" transform="matrix(0.9404 -0.34 0.34 0.9404 -158.4139 -95.5228)" fill="#FFFFFF" width="0.1" height="0"/>
	
		<rect x="-351.8" y="404.3" transform="matrix(0.9471 -0.321 0.321 0.9471 -148.3906 -91.5224)" fill="#FFFFFF" width="0.1" height="0"/>
	
		<rect x="-351.8" y="404.3" transform="matrix(0.9513 -0.3082 0.3082 0.9513 -141.737 -88.7337)" fill="#FFFFFF" width="0.1" height="0"/>
	
		<rect x="-351.8" y="404.3" transform="matrix(0.9376 -0.3477 0.3477 0.9376 -162.5403 -97.0778)" fill="#FFFFFF" width="0.1" height="0"/>
	<polygon fill="#FFFFFF" points="-352,403.7 -352,403.7 -352,403.7 -352,403.7 -352,403.7 -351.9,403.7 -352.1,403.8 	"/>
	
		<rect x="-356.4" y="404.6" transform="matrix(-0.8452 -0.5345 0.5345 -0.8452 -873.9913 556.7733)" fill="#FFFFFF" width="0.1" height="0.7"/>
	
		<rect x="-356.6" y="405.2" transform="matrix(-0.8419 -0.5397 0.5397 -0.8419 -875.3552 553.9837)" fill="#FFFFFF" width="0.1" height="0"/>
	
		<rect x="-356.6" y="405.2" transform="matrix(-0.8287 -0.5597 0.5597 -0.8287 -878.7404 541.4713)" fill="#FFFFFF" width="0.1" height="0"/>
	
		<rect x="-356.5" y="405.2" transform="matrix(-0.8288 -0.5596 0.5596 -0.8288 -878.6797 541.5133)" fill="#FFFFFF" width="0.1" height="0"/>
	
		<rect x="-356.5" y="405.2" transform="matrix(-0.8239 -0.5668 0.5668 -0.8239 -879.8111 536.9321)" fill="#FFFFFF" width="0.1" height="0"/>
	
		<rect x="-356.5" y="405.1" transform="matrix(-0.8419 -0.5397 0.5397 -0.8419 -875.2081 553.8494)" fill="#FFFFFF" width="0.1" height="0"/>
	
		<rect x="-356.5" y="405.1" transform="matrix(-0.8337 -0.5522 0.5522 -0.8337 -877.3259 546.0444)" fill="#FFFFFF" width="0.1" height="0"/>
	
		<rect x="-356.5" y="405.1" transform="matrix(-0.8353 -0.5498 0.5498 -0.8353 -876.8837 547.5088)" fill="#FFFFFF" width="0.1" height="0"/>
	
		<rect x="-356.5" y="405.1" transform="matrix(-0.8222 -0.5692 0.5692 -0.8222 -880.038 535.2593)" fill="#FFFFFF" width="0.1" height="0"/>
	
		<rect x="-356.5" y="405" transform="matrix(-0.8321 -0.5547 0.5547 -0.8321 -877.6365 544.4022)" fill="#FFFFFF" width="0.1" height="0"/>
	
		<rect x="-356.4" y="405" transform="matrix(-0.82 -0.5724 0.5724 -0.82 -880.4737 533.1578)" fill="#FFFFFF" width="0.1" height="0"/>
	
		<rect x="-356.4" y="405" transform="matrix(-0.8239 -0.5668 0.5668 -0.8239 -879.5496 536.7012)" fill="#FFFFFF" width="0.1" height="0"/>
	<polygon fill="#FFFFFF" points="-356.3,405 -356.4,405 -356.4,405 -356.3,405 	"/>
	
		<rect x="-356.4" y="405" transform="matrix(-0.8337 -0.5522 0.5522 -0.8337 -877.0663 545.8137)" fill="#FFFFFF" width="0.1" height="0"/>
	
		<rect x="-356.4" y="404.9" transform="matrix(-0.8403 -0.5421 0.5421 -0.8403 -875.2937 552.0491)" fill="#FFFFFF" width="0.1" height="0"/>
	
		<rect x="-356.4" y="404.9" transform="matrix(-0.8321 -0.5547 0.5547 -0.8321 -877.4139 544.2033)" fill="#FFFFFF" width="0.1" height="0"/>
	
		<rect x="-356.4" y="404.9" transform="matrix(-0.8321 -0.5547 0.5547 -0.8321 -877.376 544.17)" fill="#FFFFFF" width="0.1" height="0"/>
	
		<rect x="-356.3" y="404.9" transform="matrix(-0.8222 -0.5692 0.5692 -0.8222 -879.7042 534.9653)" fill="#FFFFFF" width="0.1" height="0"/>
	
		<rect x="-356.3" y="404.8" transform="matrix(-0.837 -0.5472 0.5472 -0.837 -876.0275 548.762)" fill="#FFFFFF" width="0.1" height="0"/>
	<polygon fill="#FFFFFF" points="-356.2,404.9 -356.3,404.8 -356.3,404.8 -356.2,404.9 	"/>
	
		<rect x="-356.3" y="404.8" transform="matrix(-0.8205 -0.5717 0.5717 -0.8205 -879.9833 533.2897)" fill="#FFFFFF" width="0.1" height="0"/>
	
		<rect x="-356.3" y="404.8" transform="matrix(-0.843 -0.5379 0.5379 -0.843 -874.3009 554.4028)" fill="#FFFFFF" width="0.1" height="0"/>
	
		<rect x="-356.3" y="404.8" transform="matrix(-0.8477 -0.5305 0.5305 -0.8477 -872.9304 558.9053)" fill="#FFFFFF" width="0.1" height="0"/>
	
		<rect x="-356.3" y="404.7" transform="matrix(-0.8337 -0.5522 0.5522 -0.8337 -876.6932 545.4783)" fill="#FFFFFF" width="0.1" height="0"/>
	
		<rect x="-356.2" y="404.7" transform="matrix(-0.8337 -0.5522 0.5522 -0.8337 -876.6566 545.4478)" fill="#FFFFFF" width="0.1" height="0"/>
	
		<rect x="-356.2" y="404.7" transform="matrix(-0.8337 -0.5522 0.5522 -0.8337 -876.6176 545.4136)" fill="#FFFFFF" width="0.1" height="0"/>
	<polygon fill="#FFFFFF" points="-356.6,405.3 -356.5,405.3 -356.5,405.3 -356.6,405.3 -356.6,405.3 -356.6,405.2 -356.4,405.3 	"/>
	<path fill="#FFFFFF" d="M-355.2,403.8L-355.2,403.8c-0.1,0-0.2-0.1-0.4-0.2c-0.1,0-0.2-0.1-0.3,0l-0.1,0.1v0.1l-0.1,0l-0.1,0.1
		c0,0-0.3-0.2-0.4-0.1c-0.1,0.1-0.3,0.2-0.3,0.2l0-0.4l0,0l0.2,0c0.1,0,0.2-0.2,0.2-0.2s0.1,0,0.2-0.1c0.1,0,0.2,0,0.3-0.1
		c0.1,0,0.2,0,0.3,0C-355.5,403.4-355.1,403.7-355.2,403.8"/>
	<path fill="#FFFFFF" d="M-355.3,403.7L-355.3,403.7c0,0.1-0.4-0.3-0.7-0.2c-0.2,0.1-0.2,0.3-0.2,0.3l-0.1,0
		c-0.1,0.1-0.1,0.1-0.1,0.1s-0.3-0.2-0.4-0.2c-0.1,0-0.2,0.1-0.2,0.1l0,0l0,0.1l-0.2,0.1c0,0-0.1,0-0.1-0.2c-0.1-0.2,0-0.2,0-0.2
		l0.2-0.1l0,0.1l0.2,0l0.1-0.1l0.1-0.2c0,0,0.5-0.2,0.8-0.1C-355.7,403.4-355.4,403.6-355.3,403.7"/>
	<path fill="#FFFFFF" d="M-357,403.6l0.2,0l0,0l0,0.1l0,0.1l0,0l-0.1,0.1c-0.1,0-0.1,0.1-0.1,0.1l0-0.1L-357,403.6L-357,403.6
		L-357,403.6z"/>
	<polygon fill="#FFFFFF" points="-356.9,403.9 -357,404 -357.2,404.1 -357.2,404 -357.3,403.6 -357.3,403.6 -357.1,403.5 
		-357.1,403.5 	"/>
	<path fill="#FFFFFF" d="M-354.9,407.2c0,0,0-0.2-0.2-0.7c-0.2-0.5-0.3-0.8-0.3-0.8l0,0l-0.2-0.8l-0.3-0.9l0-0.1l0,0l-0.1,0l0,0.2
		c0,0.1,0,0.3,0.1,0.4c0.1,0.1,0.1,0.2,0.1,0.4c0.1,0.2,0.1,0.2,0.2,0.3c0.1,0.1,0.1,0.3,0.1,0.3s-0.1-0.1-0.1-0.3
		c-0.1-0.1-0.1-0.1-0.2-0.3c-0.1-0.2-0.1-0.4-0.2-0.5c0-0.1-0.1-0.2-0.1-0.3l-0.1-0.2l-0.1,0l0,0l0,0l0.2,0.7l0.1,0.2l0.2,0.6l0,0
		l0,0.1l0,0.1l0,0.1l0,0.1c0,0,0.1,0.4,0.2,0.9c0.2,0.5,0.3,0.7,0.3,0.7v0l0,0l0.1,0l0,0l0.1,0l0,0L-354.9,407.2L-354.9,407.2
		L-354.9,407.2z"/>
	<path fill="#FFFFFF" d="M-356.2,404c0,0.1,0,0.3,0.1,0.3c0,0.1,0.1,0.3,0.2,0.5c0.1,0.2,0.1,0.2,0.2,0.3c0.1,0.1,0.1,0.3,0.1,0.3
		s-0.1-0.2-0.1-0.3c-0.1-0.1-0.1-0.1-0.2-0.3c-0.1-0.2-0.1-0.3-0.1-0.4C-356.1,404.3-356.1,404.2-356.2,404l0-0.2l0,0L-356.2,404z"
		/>
	<path fill="#FFFFFF" d="M-355.1,407.2l0,0.2l0.1,0C-355,407.3-355.1,407.2-355.1,407.2"/>
	<path fill="#FFFFFF" d="M-355.3,407.2c0-0.1,0.1-0.3,0-0.4c-0.1-0.2-0.3-0.9-0.3-0.9l-0.1-0.1l0,0l0.1,0.2c0-0.1,0-0.2,0-0.2
		c0,0,0.1,0.1,0.1,0.3c0.1,0.2,0.3,0.9,0.3,1C-355.3,407.1-355.3,407.1-355.3,407.2l-0.1-0.2L-355.3,407.2L-355.3,407.2z"/>
	<path fill="#FFFFFF" d="M-355,407.3L-355,407.3L-355,407.3L-355,407.3l-0.5-1.7c0,0.1,0.3,1,0.3,1.1
		C-355.1,406.9-355,407.2-355,407.3"/>
	<path fill="#FFFFFF" d="M-356.1,404.9L-356.1,404.9l0.2,0.6l0-0.2C-355.9,405.2-356,405-356.1,404.9"/>
	<path fill="#FFFFFF" d="M-356,404c0,0.1,0.1,0.5,0.2,0.6c0,0.1,0.1,0.2,0.2,0.3L-356,404L-356,404z"/>
	<path fill="#FFFFFF" d="M-356.2,404.2c0,0.1,0,0.3,0.1,0.3l0.1,0.1c0,0-0.1-0.1-0.1-0.2c0-0.2-0.1-0.3-0.1-0.4l0,0
		C-356.3,404-356.2,404.1-356.2,404.2"/>
	<path fill="#FFFFFF" d="M-355.1,407.2c0,0,0,0.1,0.1,0.2l0,0L-355.1,407.2c0.1,0,0-0.3,0-0.4c0-0.1-0.3-1-0.3-1.1l-0.2-0.7
		c-0.1-0.1-0.1-0.2-0.2-0.3c-0.1-0.1-0.2-0.5-0.2-0.6l0,0l0-0.1l0,0.2c0,0.1,0.1,0.3,0.1,0.5c0.1,0.2,0.2,0.4,0.2,0.5
		c0.1,0.1,0.1,0.2,0.1,0.4c0.1,0.2,0,0,0,0.1c0,0.1,0.1,0.2,0.1,0.4c0,0.2,0.3,1.1,0.3,1.2c0,0,0,0.3,0,0.3l0,0L-355.1,407.2z"/>
	<path fill="#FFFFFF" d="M-355.7,405.2l-0.1-0.2L-355.7,405.2z"/>
	<path fill="#FFFFFF" d="M-355.8,405.4l0.2,0.2l-0.1-0.2L-355.8,405.4c-0.1-0.1-0.2-0.5-0.3-0.6l-0.1-0.2l0.1,0.2l0,0
		c0.1,0.1,0.2,0.3,0.2,0.4L-355.8,405.4L-355.8,405.4L-355.8,405.4z"/>
	<path fill="#FFFFFF" d="M-355.2,406.9c0-0.1-0.3-1-0.4-1.1c0-0.1-0.1-0.2-0.2-0.3l-0.1,0.1l0,0.1l0,0l0.1,0.1
		c0,0.1,0.3,0.8,0.3,0.9c0.1,0.2,0,0.4,0,0.4l0,0l0,0.1C-355.2,407.3-355.2,407.1-355.2,406.9"/>
	<path fill="#FFFFFF" d="M-355.3,407.1c0,0,0,0,0-0.1c0-0.1-0.2-0.8-0.3-1c-0.1-0.2-0.1-0.3-0.1-0.3c0,0,0,0.1,0,0.2l0,0.1
		c0-0.1,0-0.1,0-0.1c0,0,0.3,0.8,0.3,0.9C-355.3,406.9-355.3,407.1-355.3,407.1l-0.1-0.2l0,0.1L-355.3,407.1z"/>
	<path fill="#FFFFFF" d="M-356.1,403.8c0,0-0.1,0.1-0.1,0.1c-0.1,0-0.2,0-0.2,0c0,0,0.1,0,0.2-0.1
		C-356.1,403.8-356.1,403.8-356.1,403.8"/>
	
		<rect x="-358.3" y="404.9" transform="matrix(-0.8432 -0.5377 0.5377 -0.8432 -877.9471 553.8176)" fill="#FFFFFF" width="0.1" height="0.1"/>
	<polygon fill="#FFFFFF" points="-358.2,405 -358.2,405 -358.2,404.9 -358.2,404.9 -358.2,404.9 -358.2,405 	"/>
	
		<rect x="-358" y="404.9" transform="matrix(-0.788 -0.6156 0.6156 -0.788 -889.3473 503.7234)" fill="#FFFFFF" width="0.1" height="0.1"/>
	<polygon fill="#FFFFFF" points="-358,405 -358,405 -357.9,404.9 -357.9,404.9 -357.9,404.9 -358,405 	"/>
	
		<rect x="-357.8" y="404.9" transform="matrix(-0.7275 -0.6861 0.6861 -0.7275 -895.8335 454.2027)" fill="#FFFFFF" width="0.1" height="0.1"/>
	<polygon fill="#FFFFFF" points="-357.8,405.1 -357.8,405 -357.7,404.9 -357.7,404.9 -357.7,405 -357.8,405 	"/>
	
		<rect x="-357.6" y="405" transform="matrix(-0.6907 -0.7232 0.7232 -0.6907 -897.3199 426.2818)" fill="#FFFFFF" width="0.1" height="0.1"/>
	<polygon fill="#FFFFFF" points="-357.5,405.1 -357.5,405.1 -357.5,405 -357.4,405 -357.4,405 -357.5,405.1 	"/>
	
		<rect x="-357.3" y="405.1" transform="matrix(-0.6117 -0.7911 0.7911 -0.6117 -896.2856 370.3029)" fill="#FFFFFF" width="0.1" height="0.1"/>
	<polygon fill="#FFFFFF" points="-357.3,405.2 -357.3,405.1 -357.2,405.1 -357.2,405.1 -357.2,405.1 -357.3,405.2 	"/>
	
		<rect x="-357.1" y="405.1" transform="matrix(-0.5374 -0.8433 0.8433 -0.5374 -890.6411 321.8721)" fill="#FFFFFF" width="0.1" height="0.1"/>
	<polygon fill="#FFFFFF" points="-357.1,405.2 -357.1,405.2 -357,405.2 -357,405.2 -357,405.2 -357.1,405.2 	"/>
	
		<rect x="-356.9" y="405.3" transform="matrix(-0.4666 -0.8845 0.8845 -0.4666 -881.8217 278.8277)" fill="#FFFFFF" width="0.1" height="0.1"/>
	<polygon fill="#FFFFFF" points="-356.9,405.4 -356.9,405.3 -356.8,405.3 -356.8,405.3 -356.8,405.3 -356.9,405.4 	"/>
	
		<rect x="-356.7" y="405.4" transform="matrix(-0.344 -0.939 0.939 -0.344 -860.0178 210.0461)" fill="#FFFFFF" width="0.1" height="0.1"/>
	<polygon fill="#FFFFFF" points="-356.7,405.5 -356.7,405.5 -356.6,405.4 -356.6,405.4 -356.6,405.4 -356.7,405.5 	"/>
	
		<rect x="-356.5" y="405.5" transform="matrix(-0.2903 -0.9569 0.9569 -0.2903 -848.0406 182.2393)" fill="#FFFFFF" width="0.1" height="0.1"/>
	<polygon fill="#FFFFFF" points="-356.5,405.6 -356.5,405.6 -356.4,405.6 -356.4,405.6 -356.4,405.6 -356.5,405.6 	"/>
	
		<rect x="-356.3" y="405.7" transform="matrix(-0.2387 -0.9711 0.9711 -0.2387 -835.3276 156.6381)" fill="#FFFFFF" width="0.1" height="0.1"/>
	<polygon fill="#FFFFFF" points="-356.3,405.8 -356.3,405.8 -356.2,405.7 -356.2,405.7 -356.2,405.7 -356.3,405.8 	"/>
	
		<rect x="-356.2" y="405.9" transform="matrix(-0.1109 -0.9938 0.9938 -0.1109 -799.0161 97.0363)" fill="#FFFFFF" width="0.1" height="0.1"/>
	<polygon fill="#FFFFFF" points="-356.2,405.9 -356.2,405.9 -356,405.9 -356,405.9 -356,405.9 -356.2,405.9 	"/>
	<rect x="-356" y="406.1" fill="#FFFFFF" width="0.1" height="0.1"/>
	<polygon fill="#FFFFFF" points="-356,406.1 -356,406.1 -355.9,406.1 -355.9,406.1 -355.9,406.1 -356,406.1 	"/>
	<rect x="-355.9" y="406.3" fill="#FFFFFF" width="0.1" height="0.1"/>
	<polygon fill="#FFFFFF" points="-355.9,406.3 -355.9,406.3 -355.8,406.3 -355.8,406.3 -355.8,406.3 -355.9,406.3 	"/>
	
		<rect x="-355.8" y="406.5" transform="matrix(0.1483 -0.9889 0.9889 0.1483 -704.9916 -5.5515)" fill="#FFFFFF" width="0.1" height="0.1"/>
	<polygon fill="#FFFFFF" points="-355.8,406.5 -355.8,406.5 -355.7,406.5 -355.7,406.5 -355.7,406.5 -355.8,406.5 	"/>
	
		<rect x="-355.7" y="406.7" transform="matrix(0.2293 -0.9734 0.9734 0.2293 -669.996 -32.6798)" fill="#FFFFFF" width="0.1" height="0.1"/>
	<polygon fill="#FFFFFF" points="-355.7,406.7 -355.7,406.7 -355.6,406.7 -355.6,406.8 -355.6,406.8 -355.7,406.7 	"/>
	
		<rect x="-355.6" y="406.9" transform="matrix(0.3011 -0.9536 0.9536 0.3011 -636.5838 -54.6257)" fill="#FFFFFF" width="0.1" height="0.1"/>
	<polygon fill="#FFFFFF" points="-355.6,406.9 -355.6,406.9 -355.5,407 -355.5,407 -355.5,407 -355.6,407 	"/>
	
		<rect x="-355.6" y="407.1" transform="matrix(0.3764 -0.9265 0.9265 0.3764 -598.9565 -75.4298)" fill="#FFFFFF" width="0.1" height="0.1"/>
	<polygon fill="#FFFFFF" points="-355.6,407.2 -355.6,407.2 -355.4,407.2 -355.4,407.2 -355.5,407.2 -355.6,407.2 	"/>
	
		<rect x="-355.5" y="407.4" transform="matrix(0.4539 -0.891 0.891 0.4539 -557.1562 -94.2467)" fill="#FFFFFF" width="0.1" height="0.1"/>
	<polygon fill="#FFFFFF" points="-355.5,407.4 -355.5,407.4 -355.4,407.5 -355.4,407.5 -355.4,407.5 -355.5,407.4 	"/>
	
		<rect x="-358.5" y="404.9" transform="matrix(-0.8782 -0.4783 0.4783 -0.8782 -866.9035 589.1755)" fill="#FFFFFF" width="0.1" height="0.1"/>
	<polygon fill="#FFFFFF" points="-358.5,405 -358.5,405 -358.4,404.9 -358.4,404.9 -358.4,404.9 -358.4,405 	"/>
	
		<rect x="-358.7" y="404.9" transform="matrix(-0.9335 -0.3587 0.3587 -0.9335 -838.7286 654.4124)" fill="#FFFFFF" width="0.1" height="0.1"/>
	<polygon fill="#FFFFFF" points="-358.7,405.1 -358.7,405.1 -358.7,404.9 -358.6,404.9 -358.6,405 -358.7,405.1 	"/>
	
		<rect x="-359" y="405" transform="matrix(-0.9561 -0.2929 0.2929 -0.9561 -820.6934 687.2112)" fill="#FFFFFF" width="0.1" height="0.1"/>
	<polygon fill="#FFFFFF" points="-358.9,405.1 -358.9,405.1 -358.9,405 -358.9,405 -358.9,405 -358.9,405.1 	"/>
	
		<rect x="-359.2" y="405.1" transform="matrix(-0.9764 -0.2161 0.2161 -0.9764 -797.3119 723.0832)" fill="#FFFFFF" width="0.1" height="0.1"/>
	<polygon fill="#FFFFFF" points="-359.1,405.2 -359.1,405.2 -359.1,405.1 -359.1,405.1 -359.1,405.1 -359.1,405.2 	"/>
	
		<rect x="-359.4" y="405.2" transform="matrix(-0.9914 -0.1311 0.1311 -0.9914 -768.702 759.8377)" fill="#FFFFFF" width="0.1" height="0.1"/>
	<polygon fill="#FFFFFF" points="-359.4,405.3 -359.4,405.3 -359.3,405.2 -359.3,405.1 -359.3,405.2 -359.3,405.3 	"/>
	
		<rect x="-359.6" y="405.3" transform="matrix(-0.9988 -4.929919e-02 4.929919e-02 -0.9988 -738.6446 792.4413)" fill="#FFFFFF" width="0.1" height="0.1"/>
	<polygon fill="#FFFFFF" points="-359.6,405.4 -359.6,405.4 -359.6,405.3 -359.5,405.3 -359.5,405.3 -359.5,405.4 	"/>
	<rect x="-359.8" y="405.4" fill="#FFFFFF" width="0.1" height="0.1"/>
	<polygon fill="#FFFFFF" points="-359.7,405.5 -359.8,405.5 -359.8,405.4 -359.8,405.4 -359.7,405.4 -359.7,405.5 	"/>
	
		<rect x="-360" y="405.5" transform="matrix(-0.9924 0.123 -0.123 -0.9924 -667.2557 852.3989)" fill="#FFFFFF" width="0.1" height="0.1"/>
	<polygon fill="#FFFFFF" points="-359.9,405.7 -359.9,405.7 -360,405.5 -359.9,405.5 -359.9,405.5 -359.9,405.7 	"/>
	
		<rect x="-360.2" y="405.7" transform="matrix(-0.9762 0.2169 -0.2169 -0.9762 -623.6451 879.9791)" fill="#FFFFFF" width="0.1" height="0.1"/>
	<polygon fill="#FFFFFF" points="-360.1,405.8 -360.1,405.8 -360.1,405.7 -360.1,405.7 -360.1,405.7 -360.1,405.8 	"/>
	
		<rect x="-360.3" y="405.9" transform="matrix(-0.9556 0.2947 -0.2947 -0.9556 -584.9118 900.025)" fill="#FFFFFF" width="0.1" height="0.1"/>
	<polygon fill="#FFFFFF" points="-360.2,406 -360.3,406 -360.3,405.9 -360.3,405.9 -360.3,405.9 -360.2,406 	"/>
	
		<rect x="-360.5" y="406.1" transform="matrix(-0.9274 0.3742 -0.3742 -0.9274 -542.6749 917.6215)" fill="#FFFFFF" width="0.1" height="0.1"/>
	<polygon fill="#FFFFFF" points="-360.4,406.2 -360.4,406.2 -360.4,406.1 -360.4,406.1 -360.4,406.1 -360.4,406.2 	"/>
	
		<rect x="-360.6" y="406.3" transform="matrix(-0.8894 0.4572 -0.4572 -0.8894 -495.4239 932.541)" fill="#FFFFFF" width="0.1" height="0.1"/>
	<polygon fill="#FFFFFF" points="-360.5,406.4 -360.5,406.4 -360.6,406.3 -360.6,406.3 -360.6,406.3 -360.5,406.4 	"/>
	
		<rect x="-360.7" y="406.5" transform="matrix(-0.8457 0.5337 -0.5337 -0.8457 -448.6726 942.8162)" fill="#FFFFFF" width="0.1" height="0.1"/>
	<polygon fill="#FFFFFF" points="-360.6,406.6 -360.6,406.6 -360.7,406.5 -360.7,406.5 -360.7,406.5 -360.6,406.6 	"/>
	
		<rect x="-360.8" y="406.7" transform="matrix(-0.803 0.596 -0.596 -0.803 -407.9779 948.3857)" fill="#FFFFFF" width="0.1" height="0.1"/>
	<polygon fill="#FFFFFF" points="-360.7,406.8 -360.7,406.8 -360.8,406.7 -360.8,406.7 -360.8,406.7 -360.7,406.8 	"/>
	
		<rect x="-360.9" y="406.9" transform="matrix(-0.7501 0.6614 -0.6614 -0.7501 -362.2607 950.8757)" fill="#FFFFFF" width="0.1" height="0.1"/>
	<polygon fill="#FFFFFF" points="-360.8,407 -360.8,407 -360.9,407 -360.9,406.9 -360.8,406.9 -360.8,407 	"/>
	
		<rect x="-360.9" y="407.2" transform="matrix(-0.6672 0.7449 -0.7449 -0.6672 -298.2813 947.7147)" fill="#FFFFFF" width="0.1" height="0.1"/>
	<polygon fill="#FFFFFF" points="-360.8,407.3 -360.8,407.3 -360.9,407.2 -360.9,407.2 -360.9,407.2 -360.8,407.2 	"/>
	
		<rect x="-360.9" y="407.4" transform="matrix(-0.6222 0.7829 -0.7829 -0.6222 -266.4323 943.4868)" fill="#FFFFFF" width="0.1" height="0.1"/>
	<polygon fill="#FFFFFF" points="-360.8,407.5 -360.8,407.5 -360.9,407.4 -360.9,407.4 -360.9,407.4 -360.8,407.5 	"/>
	
		<rect x="-361" y="407.6" transform="matrix(-0.5481 0.8364 -0.8364 -0.5481 -217.7122 932.9992)" fill="#FFFFFF" width="0.1" height="0.1"/>
	<polygon fill="#FFFFFF" points="-360.8,407.7 -360.9,407.7 -361,407.7 -361,407.7 -360.9,407.6 -360.8,407.7 	"/>
	
		<rect x="-360.9" y="407.9" transform="matrix(-0.47 0.8827 -0.8827 -0.47 -170.4203 918.1927)" fill="#FFFFFF" width="0.1" height="0.1"/>
	<polygon fill="#FFFFFF" points="-360.8,408 -360.8,408 -360.9,407.9 -360.9,407.9 -360.9,407.9 -360.8,407.9 	"/>
	
		<rect x="-350.2" y="404.9" transform="matrix(-0.7049 0.7093 -0.7093 -0.7049 -309.6738 938.7341)" fill="#FFFFFF" width="0.1" height="0.1"/>
	<polygon fill="#FFFFFF" points="-350.1,404.9 -350.1,404.9 -350.1,404.9 -350.1,404.9 -350.1,404.9 -350.1,404.9 -350.2,404.9 
		-350.2,405 -350.2,405 -350.1,405 -350.1,405 -350.1,405 -350.1,405 -350.1,405 -350.1,405 -350.1,405 	"/>
	<polygon fill="#FFFFFF" points="-350.3,405 -350.3,405 -350.4,405 -350.4,404.9 	"/>
	<polygon fill="#FFFFFF" points="-350.3,405 -350.3,405 -350.3,404.9 -350.4,404.9 -350.4,404.9 -350.4,405 -350.4,405 -350.4,405 
		-350.4,405 -350.4,405 -350.4,405 -350.3,405 -350.3,405 -350.3,405 -350.3,405 -350.3,405 	"/>
	
		<rect x="-350.6" y="404.9" transform="matrix(-0.5537 0.8327 -0.8327 -0.5537 -207.4559 921.1694)" fill="#FFFFFF" width="0.1" height="0.1"/>
	<polygon fill="#FFFFFF" points="-350.5,405 -350.6,405 -350.6,404.9 -350.6,404.9 -350.6,404.9 -350.6,405 -350.6,405 -350.6,405 
		-350.6,405 -350.6,405 -350.6,405 -350.6,405 -350.6,405 -350.6,405 -350.5,405 -350.5,405 	"/>
	
		<rect x="-350.9" y="405" transform="matrix(-0.4846 0.8748 -0.8748 -0.4846 -166.4787 908.1824)" fill="#FFFFFF" width="0.1" height="0.1"/>
	<polygon fill="#FFFFFF" points="-350.8,405 -350.8,405 -350.8,405 -350.8,405 -350.8,405 -350.8,405 -350.9,405 -350.9,405.1 
		-350.9,405.1 -350.8,405.1 -350.8,405.1 -350.8,405.1 -350.8,405.1 -350.8,405 -350.8,405 -350.8,405 	"/>
	
		<rect x="-351.1" y="405.1" transform="matrix(-0.4301 0.9028 -0.9028 -0.4301 -136.2743 896.2507)" fill="#FFFFFF" width="0.1" height="0.1"/>
	<polygon fill="#FFFFFF" points="-351,405.1 -351,405.1 -351,405.1 -351,405.1 -351.1,405.1 -351,405.1 -351.1,405.1 -351.1,405.1 
		-351.1,405.1 -351,405.1 -351,405.2 -351,405.2 -351,405.2 -351,405.1 -351,405.1 -351,405.1 	"/>
	
		<rect x="-351.3" y="405.1" transform="matrix(-0.3407 0.9402 -0.9402 -0.3407 -89.9535 873.4802)" fill="#FFFFFF" width="0.1" height="0.1"/>
	<polygon fill="#FFFFFF" points="-351.2,405.2 -351.2,405.2 -351.3,405.2 -351.3,405.2 -351.3,405.2 -351.3,405.2 -351.3,405.2 
		-351.3,405.2 -351.3,405.2 -351.2,405.2 -351.2,405.2 -351.2,405.3 -351.2,405.2 -351.2,405.2 -351.2,405.2 -351.2,405.2 	"/>
	
		<rect x="-351.5" y="405.3" transform="matrix(-0.2487 0.9686 -0.9686 -0.2487 -46.2805 846.5196)" fill="#FFFFFF" width="0.1" height="0.1"/>
	<polygon fill="#FFFFFF" points="-351.4,405.3 -351.4,405.3 -351.5,405.3 -351.5,405.3 -351.5,405.3 -351.5,405.3 -351.5,405.3 
		-351.5,405.3 -351.5,405.3 -351.5,405.3 -351.4,405.4 -351.4,405.4 -351.4,405.3 -351.4,405.3 -351.4,405.3 -351.4,405.3 	"/>
	
		<rect x="-351.7" y="405.4" transform="matrix(-0.1838 0.983 -0.983 -0.1838 -17.7479 825.6088)" fill="#FFFFFF" width="0.1" height="0.1"/>
	<polygon fill="#FFFFFF" points="-351.6,405.4 -351.6,405.4 -351.7,405.4 -351.7,405.4 -351.7,405.4 -351.7,405.4 -351.7,405.5 
		-351.7,405.5 -351.7,405.5 -351.7,405.4 -351.6,405.5 -351.6,405.5 -351.6,405.5 -351.6,405.4 -351.6,405.4 -351.6,405.4 	"/>
	
		<rect x="-351.9" y="405.5" transform="matrix(-9.360091e-02 0.9956 -0.9956 -9.360091e-02 19.0251 793.8339)" fill="#FFFFFF" width="0.1" height="0.1"/>
	<polygon fill="#FFFFFF" points="-351.8,405.5 -351.8,405.6 -351.9,405.5 -351.9,405.5 -351.9,405.5 -351.9,405.6 -351.9,405.6 
		-351.9,405.6 -351.9,405.6 -351.8,405.6 -351.8,405.6 -351.8,405.6 -351.8,405.6 -351.8,405.6 -351.8,405.6 -351.8,405.5 	"/>
	<rect x="-352.1" y="405.7" fill="#FFFFFF" width="0.1" height="0.1"/>
	<polygon fill="#FFFFFF" points="-352,405.7 -352,405.7 -352,405.7 -352,405.7 -352,405.7 -352,405.7 -352,405.8 -352,405.8 
		-352,405.8 -352,405.7 -352,405.8 -352,405.8 -352,405.8 -352,405.7 -352,405.7 -352,405.7 	"/>
	
		<rect x="-352.2" y="405.9" transform="matrix(5.590201e-02 0.9984 -0.9984 5.590201e-02 72.795 734.8368)" fill="#FFFFFF" width="0.1" height="0.1"/>
	<polygon fill="#FFFFFF" points="-352.1,405.9 -352.2,405.9 -352.2,405.9 -352.2,405.9 -352.2,405.9 -352.2,405.9 -352.2,405.9 
		-352.2,406 -352.2,405.9 -352.2,405.9 -352.1,405.9 -352.1,405.9 -352.1,405.9 -352.2,405.9 -352.1,405.9 -352.1,405.9 	"/>
	
		<rect x="-352.4" y="406" transform="matrix(0.1462 0.9893 -0.9893 0.1462 100.9295 695.2491)" fill="#FFFFFF" width="0.1" height="0.1"/>
	<polygon fill="#FFFFFF" points="-352.3,406 -352.3,406.1 -352.3,406.1 -352.4,406.1 -352.4,406.1 -352.3,406.1 -352.3,406.1 
		-352.3,406.1 -352.3,406.1 -352.3,406.1 -352.3,406.1 -352.3,406.1 -352.3,406.1 -352.3,406.1 -352.3,406.1 -352.3,406 	"/>
	
		<rect x="-352.5" y="406.2" transform="matrix(0.2507 0.9681 -0.9681 0.2507 129.2285 645.6173)" fill="#FFFFFF" width="0.1" height="0.1"/>
	<polygon fill="#FFFFFF" points="-352.4,406.2 -352.4,406.3 -352.5,406.3 -352.5,406.3 -352.5,406.3 -352.4,406.3 -352.5,406.3 
		-352.5,406.3 -352.5,406.3 -352.4,406.3 -352.4,406.3 -352.4,406.3 -352.4,406.3 -352.4,406.3 -352.4,406.3 -352.4,406.2 	"/>
	
		<rect x="-352.6" y="406.4" transform="matrix(0.3435 0.9392 -0.9392 0.3435 150.3125 597.9653)" fill="#FFFFFF" width="0.1" height="0.1"/>
	<polygon fill="#FFFFFF" points="-352.5,406.5 -352.5,406.5 -352.6,406.5 -352.6,406.5 -352.6,406.5 -352.6,406.5 -352.6,406.5 
		-352.6,406.5 -352.6,406.5 -352.5,406.5 -352.5,406.5 -352.5,406.5 -352.5,406.5 -352.5,406.5 -352.5,406.5 -352.5,406.4 	"/>
	
		<rect x="-352.7" y="406.7" transform="matrix(0.4333 0.9013 -0.9013 0.4333 166.7074 548.3068)" fill="#FFFFFF" width="0.1" height="0.1"/>
	<polygon fill="#FFFFFF" points="-352.6,406.7 -352.6,406.7 -352.7,406.7 -352.7,406.7 -352.7,406.7 -352.6,406.7 -352.7,406.8 
		-352.7,406.8 -352.6,406.8 -352.6,406.7 -352.6,406.7 -352.6,406.7 -352.6,406.7 -352.6,406.7 -352.6,406.7 -352.6,406.7 	"/>
	
		<rect x="-352.8" y="406.9" transform="matrix(0.4878 0.8729 -0.8729 0.4878 174.5842 516.3185)" fill="#FFFFFF" width="0.1" height="0.1"/>
	<polygon fill="#FFFFFF" points="-352.7,406.9 -352.7,406.9 -352.8,406.9 -352.8,406.9 -352.8,406.9 -352.7,406.9 -352.7,407 
		-352.7,407 -352.7,407 -352.7,406.9 -352.7,407 -352.7,407 -352.7,406.9 -352.7,406.9 -352.7,406.9 -352.7,406.9 	"/>
	
		<rect x="-352.8" y="407.1" transform="matrix(0.5849 0.8111 -0.8111 0.5849 183.8217 455.1398)" fill="#FFFFFF" width="0.1" height="0.1"/>
	<polygon fill="#FFFFFF" points="-352.8,407.1 -352.8,407.2 -352.8,407.1 -352.8,407.2 -352.8,407.2 -352.8,407.2 -352.8,407.2 
		-352.8,407.2 -352.8,407.2 -352.8,407.2 -352.7,407.2 -352.7,407.2 -352.7,407.2 -352.7,407.2 -352.7,407.1 -352.7,407.1 	"/>
	
		<rect x="-352.8" y="407.3" transform="matrix(0.6444 0.7647 -0.7647 0.6444 186.0792 414.6484)" fill="#FFFFFF" width="0.1" height="0.1"/>
	<polygon fill="#FFFFFF" points="-352.8,407.4 -352.8,407.4 -352.8,407.4 -352.8,407.4 -352.8,407.4 -352.8,407.4 -352.8,407.4 
		-352.8,407.5 -352.8,407.4 -352.8,407.4 -352.7,407.4 -352.7,407.4 -352.7,407.4 -352.8,407.4 -352.8,407.4 -352.8,407.3 	"/>
	
		<rect x="-352.9" y="407.6" transform="matrix(0.7071 0.7071 -0.7071 0.7071 184.9064 368.8607)" fill="#FFFFFF" width="0.1" height="0.1"/>
	<polygon fill="#FFFFFF" points="-352.8,407.6 -352.8,407.6 -352.9,407.6 -352.9,407.6 -352.9,407.6 -352.8,407.6 -352.8,407.7 
		-352.8,407.7 -352.8,407.7 -352.8,407.6 -352.8,407.6 -352.7,407.6 -352.8,407.6 -352.8,407.6 -352.8,407.6 -352.8,407.6 	"/>
	
		<rect x="-352.8" y="407.8" transform="matrix(0.7707 0.6372 -0.6372 0.7707 178.996 318.3225)" fill="#FFFFFF" width="0.1" height="0.1"/>
	<polygon fill="#FFFFFF" points="-352.8,407.8 -352.8,407.9 -352.8,407.9 -352.8,407.9 -352.8,407.9 -352.8,407.9 -352.8,407.9 
		-352.8,407.9 -352.8,407.9 -352.8,407.9 -352.7,407.9 -352.7,407.9 -352.7,407.9 -352.8,407.9 -352.8,407.8 -352.8,407.8 	"/>
	
		<rect x="-349.9" y="404.9" transform="matrix(-0.7672 0.6415 -0.6415 -0.7672 -358.5118 940.0632)" fill="#FFFFFF" width="0.1" height="0.1"/>
	<polygon fill="#FFFFFF" points="-349.8,405 -349.9,405 -349.9,404.9 -349.9,404.9 -349.9,404.9 -349.9,405 -349.9,405 -349.9,405 
		-349.9,405 -349.9,405 -349.9,405 -349.9,405 -349.9,405 -349.9,405 -349.8,405 -349.8,405 	"/>
	
		<rect x="-349.7" y="404.9" transform="matrix(-0.8172 0.5763 -0.5763 -0.8172 -401.9791 937.4749)" fill="#FFFFFF" width="0.1" height="0.1"/>
	<polygon fill="#FFFFFF" points="-349.6,405 -349.6,405 -349.6,405 -349.6,404.9 -349.6,404.9 -349.7,405 -349.7,405 -349.7,405 
		-349.7,405 -349.7,405 -349.7,405 -349.7,405.1 -349.6,405 -349.6,405 -349.6,405 -349.6,405 	"/>
	
		<rect x="-349.5" y="405" transform="matrix(-0.865 0.5017 -0.5017 -0.865 -448.4555 930.7299)" fill="#FFFFFF" width="0.1" height="0.1"/>
	<polygon fill="#FFFFFF" points="-349.4,405 -349.4,405 -349.4,405 -349.4,405 -349.4,405 -349.4,405 -349.5,405 -349.5,405 
		-349.5,405 -349.4,405.1 -349.4,405.1 -349.4,405.1 -349.4,405.1 -349.4,405.1 -349.4,405.1 -349.4,405.1 	"/>
	
		<rect x="-349.3" y="405.1" transform="matrix(-0.9035 0.4286 -0.4286 -0.9035 -491.0545 920.8038)" fill="#FFFFFF" width="0.1" height="0.1"/>
	<polygon fill="#FFFFFF" points="-349.1,405.1 -349.2,405.1 -349.2,405.1 -349.2,405.1 -349.2,405.1 -349.2,405.1 -349.2,405.1 
		-349.2,405.1 -349.2,405.1 -349.2,405.1 -349.2,405.2 -349.2,405.2 -349.2,405.2 -349.2,405.1 -349.2,405.1 -349.1,405.1 	"/>
	
		<rect x="-349" y="405.2" transform="matrix(-0.938 0.3467 -0.3467 -0.938 -535.8297 906.2778)" fill="#FFFFFF" width="0.1" height="0.1"/>
	<polygon fill="#FFFFFF" points="-348.9,405.2 -349,405.2 -348.9,405.2 -348.9,405.2 -349,405.2 -349,405.2 -349,405.2 -349,405.2 
		-349,405.2 -349,405.2 -349,405.2 -349,405.3 -349,405.3 -349,405.2 -348.9,405.2 -348.9,405.2 	"/>
	
		<rect x="-348.8" y="405.3" transform="matrix(-0.9665 0.2566 -0.2566 -0.9665 -581.8555 886.5532)" fill="#FFFFFF" width="0.1" height="0.1"/>
	<polygon fill="#FFFFFF" points="-348.7,405.3 -348.8,405.3 -348.7,405.3 -348.7,405.3 -348.8,405.3 -348.8,405.3 -348.8,405.3 
		-348.8,405.3 -348.8,405.3 -348.8,405.3 -348.8,405.4 -348.8,405.4 -348.8,405.4 -348.8,405.3 -348.7,405.3 -348.7,405.3 	"/>
	
		<rect x="-348.6" y="405.4" transform="matrix(-0.9837 0.1796 -0.1796 -0.9837 -618.6606 866.8968)" fill="#FFFFFF" width="0.1" height="0.1"/>
	<polygon fill="#FFFFFF" points="-348.5,405.5 -348.6,405.4 -348.5,405.4 -348.5,405.4 -348.5,405.4 -348.6,405.4 -348.6,405.4 
		-348.6,405.4 -348.6,405.4 -348.6,405.4 -348.6,405.5 -348.6,405.5 -348.6,405.5 -348.6,405.5 -348.5,405.5 -348.5,405.5 	"/>
	
		<rect x="-348.4" y="405.5" transform="matrix(-0.9953 9.650319e-02 -9.650319e-02 -0.9953 -656.0018 842.8909)" fill="#FFFFFF" width="0.1" height="0.1"/>
	<polygon fill="#FFFFFF" points="-348.3,405.6 -348.4,405.6 -348.3,405.6 -348.3,405.5 -348.4,405.5 -348.4,405.6 -348.4,405.5 
		-348.4,405.5 -348.4,405.6 -348.4,405.6 -348.4,405.6 -348.4,405.6 -348.4,405.6 -348.4,405.6 -348.4,405.6 -348.3,405.6 	"/>
	<rect x="-348.3" y="405.7" fill="#FFFFFF" width="0.1" height="0.1"/>
	<polygon fill="#FFFFFF" points="-348.2,405.8 -348.2,405.7 -348.2,405.7 -348.2,405.7 -348.2,405.7 -348.2,405.7 -348.2,405.7 
		-348.3,405.7 -348.3,405.7 -348.2,405.7 -348.3,405.8 -348.3,405.8 -348.2,405.8 -348.2,405.8 -348.2,405.8 -348.2,405.8 	"/>
	
		<rect x="-348.1" y="405.9" transform="matrix(-0.9936 -0.1128 0.1128 -0.9936 -739.6755 769.9802)" fill="#FFFFFF" width="0.1" height="0.1"/>
	<polygon fill="#FFFFFF" points="-348,405.9 -348,405.9 -348,405.9 -348,405.9 -348,405.9 -348.1,405.9 -348.1,405.9 -348.1,405.9 
		-348.1,405.9 -348.1,405.9 -348.1,405.9 -348.1,406 -348.1,406 -348.1,405.9 -348,406 -348,406 	"/>
	
		<rect x="-348" y="406" transform="matrix(-0.9848 -0.1735 0.1735 -0.9848 -761.0049 745.6759)" fill="#FFFFFF" width="0.1" height="0.1"/>
	<polygon fill="#FFFFFF" points="-347.9,406.1 -347.9,406.1 -347.9,406.1 -347.9,406.1 -347.9,406.1 -347.9,406.1 -347.9,406.1 
		-347.9,406.1 -347.9,406.1 -347.9,406.1 -348,406.1 -348,406.1 -347.9,406.1 -347.9,406.1 -347.9,406.1 -347.9,406.1 	"/>
	<path fill="#FFFFFF" d="M-350.1,405.1c-1.4,0-2.6,1.1-2.6,2.6c0,1.4,1.1,2.6,2.6,2.6c1.4,0,2.6-1.1,2.6-2.6
		C-347.6,406.2-348.7,405.1-350.1,405.1 M-347.8,407.6c0,0.1,0,0.2,0,0.2l-1.3-0.2l1.3-0.1C-347.8,407.5-347.8,407.6-347.8,407.6z
		 M-349.3,408.1l-0.3-0.3l0.4,0.1l1.3,0.6l-0.1,0.2L-349.3,408.1z M-348.1,408.7c-0.1,0.1-0.1,0.2-0.2,0.3l-1-0.8L-348.1,408.7z
		 M-352.4,407.6c0-0.1,0-0.2,0-0.2l1.3,0.2L-352.4,407.6L-352.4,407.6z M-350.9,407.2l0.3,0.3l-0.4-0.1l-1.3-0.6l0.1-0.2
		L-350.9,407.2z M-352.1,406.6c0.1-0.1,0.1-0.2,0.2-0.3l1,0.8L-352.1,406.6z M-350,407.7L-350,407.7L-350,407.7L-350,407.7l-0.1,0
		l0,0l0,0l0,0l0,0l0,0l0,0l0,0l0,0l0,0l0,0l0,0l0,0l0,0l0,0l0,0l0,0L-350,407.7L-350,407.7L-350,407.7L-350,407.7z M-350,407.6
		L-350,407.6L-350,407.6L-350,407.6L-350,407.6z M-350,407.6L-350,407.6L-350,407.6L-350,407.6L-350,407.6z M-350,407.6L-350,407.6
		L-350,407.6L-350,407.6L-350,407.6z M-350,407.6L-350,407.6L-350,407.6L-350,407.6L-350,407.6z M-350,407.6L-350,407.6L-350,407.6
		L-350,407.6L-350,407.6z M-350,407.5L-350,407.5L-350,407.5L-350,407.5L-350,407.5z M-350,407.5L-350,407.5L-350,407.5L-350,407.5
		C-350,407.5-350,407.5-350,407.5z M-350,407.5L-350,407.5L-350,407.5L-350,407.5L-350,407.5z M-350.1,407.5L-350.1,407.5
		L-350.1,407.5L-350.1,407.5L-350.1,407.5z M-350.1,407.5L-350.1,407.5L-350.1,407.5L-350.1,407.5L-350.1,407.5z M-350.1,407.5
		L-350.1,407.5L-350.1,407.5L-350.1,407.5L-350.1,407.5z M-350.1,407.5L-350.1,407.5L-350.1,407.5L-350.1,407.5L-350.1,407.5z
		 M-350.2,407.5L-350.2,407.5L-350.2,407.5L-350.2,407.5L-350.2,407.5z M-350.2,407.5L-350.2,407.5L-350.2,407.5L-350.2,407.5
		L-350.2,407.5z M-350.2,407.5L-350.2,407.5L-350.2,407.5L-350.2,407.5L-350.2,407.5z M-350.2,407.6L-350.2,407.6L-350.2,407.6
		L-350.2,407.6L-350.2,407.6z M-350.3,407.6L-350.3,407.6L-350.3,407.6L-350.3,407.6L-350.3,407.6z M-350.3,407.6L-350.3,407.6
		L-350.3,407.6L-350.3,407.6L-350.3,407.6z M-350.3,407.6L-350.3,407.6L-350.3,407.6L-350.3,407.6L-350.3,407.6z M-350.3,407.7
		L-350.3,407.7L-350.3,407.7L-350.3,407.7L-350.3,407.7z M-350.3,407.7L-350.3,407.7L-350.3,407.7L-350.3,407.7L-350.3,407.7z
		 M-350.2,407.7L-350.2,407.7L-350.2,407.7L-350.2,407.7L-350.2,407.7z M-350.2,407.7L-350.2,407.7L-350.2,407.7L-350.2,407.7
		L-350.2,407.7z M-350.2,407.7L-350.2,407.7L-350.2,407.7L-350.2,407.7L-350.2,407.7z M-350.2,407.8L-350.2,407.8L-350.2,407.8
		L-350.2,407.8L-350.2,407.8z M-350.2,407.8L-350.2,407.8L-350.2,407.8L-350.2,407.8L-350.2,407.8z M-350.2,407.8L-350.2,407.8
		L-350.2,407.8L-350.2,407.8L-350.2,407.8z M-350.2,407.8L-350.2,407.8L-350.2,407.8L-350.2,407.8L-350.2,407.8z M-350.1,407.8
		L-350.1,407.8L-350.1,407.8L-350.1,407.8L-350.1,407.8z M-350.1,407.8L-350.1,407.8L-350.1,407.8L-350.1,407.8L-350.1,407.8z
		 M-350.1,407.8L-350.1,407.8L-350.1,407.8L-350.1,407.8L-350.1,407.8z M-350.1,407.8L-350.1,407.8L-350.1,407.8L-350.1,407.8
		L-350.1,407.8z M-350,407.8L-350,407.8L-350,407.8L-350,407.8L-350,407.8z M-350,407.8L-350,407.8L-350,407.8L-350,407.8
		L-350,407.8z M-350,407.7L-350,407.7L-350,407.7L-350,407.7L-350,407.7z M-350,407.7L-350,407.7L-350,407.7L-350,407.7L-350,407.7z
		 M-350,407.7L-350,407.7L-350,407.7L-350,407.7C-350,407.7-350,407.7-350,407.7z M-350,407.6L-350,407.6L-350,407.6L-350,407.6
		L-350,407.6z M-349.9,407.6L-349.9,407.6L-349.9,407.6L-349.9,407.6L-349.9,407.6z M-349.9,407.6L-349.9,407.6L-349.9,407.6
		L-349.9,407.6L-349.9,407.6z M-349.9,407.6L-349.9,407.6L-349.9,407.6L-349.9,407.6L-349.9,407.6z M-349.9,407.5L-349.9,407.5
		L-349.9,407.5L-349.9,407.5L-349.9,407.5z M-349.9,407.5L-349.9,407.5L-349.9,407.5L-349.9,407.5L-349.9,407.5z M-350,407.5
		L-350,407.5L-350,407.5L-350,407.5L-350,407.5z M-350,407.5L-350,407.5L-350,407.5L-350,407.5L-350,407.5z M-350,407.5L-350,407.5
		L-350,407.5L-350,407.5L-350,407.5z M-350,407.5L-350,407.5L-350,407.5L-350,407.5L-350,407.5z M-350,407.4L-350,407.4L-350,407.4
		L-350,407.4L-350,407.4z M-350.1,407.5L-350.1,407.5L-350.1,407.5L-350.1,407.5L-350.1,407.5z M-350.1,407.5L-350.1,407.5
		L-350.1,407.5L-350.1,407.5L-350.1,407.5z M-350.1,407.5L-350.1,407.5L-350.1,407.5L-350.1,407.5L-350.1,407.5z M-350.2,407.4
		L-350.2,407.4L-350.2,407.4L-350.2,407.4L-350.2,407.4z M-350.2,407.5L-350.2,407.5L-350.2,407.5L-350.2,407.5L-350.2,407.5z
		 M-350.2,407.5L-350.2,407.5L-350.2,407.5L-350.2,407.5L-350.2,407.5z M-350.2,407.5L-350.2,407.5L-350.2,407.5L-350.2,407.5
		L-350.2,407.5z M-350.2,407.5L-350.2,407.5L-350.2,407.5L-350.2,407.5L-350.2,407.5z M-350.2,407.5L-350.2,407.5L-350.2,407.5
		L-350.2,407.5L-350.2,407.5z M-350.2,407.6L-350.2,407.6L-350.2,407.6L-350.2,407.6L-350.2,407.6L-350.2,407.6z M-350.3,407.6
		L-350.3,407.6L-350.3,407.6L-350.3,407.6L-350.3,407.6z M-350.3,407.6L-350.3,407.6L-350.3,407.6L-350.3,407.6L-350.3,407.6z
		 M-350.3,407.6L-350.3,407.6L-350.3,407.6L-350.3,407.6L-350.3,407.6z M-350.3,407.6L-350.3,407.6L-350.3,407.6L-350.3,407.6
		L-350.3,407.6z M-350.3,407.6L-350.3,407.6L-350.3,407.6L-350.3,407.6L-350.3,407.6z M-350.3,407.7L-350.3,407.7L-350.3,407.7
		L-350.3,407.7L-350.3,407.7z M-350.3,407.7L-350.3,407.7L-350.3,407.7L-350.3,407.7L-350.3,407.7z M-350.3,407.7L-350.3,407.7
		L-350.3,407.7L-350.3,407.7L-350.3,407.7z M-350.3,407.7L-350.3,407.7L-350.3,407.7L-350.3,407.7L-350.3,407.7z M-350.2,407.8
		L-350.2,407.8L-350.2,407.8L-350.2,407.8L-350.2,407.8z M-350.2,407.8L-350.2,407.8L-350.2,407.8L-350.2,407.8L-350.2,407.8
		L-350.2,407.8z M-350.2,407.8L-350.2,407.8L-350.2,407.8L-350.2,407.8L-350.2,407.8z M-350.2,407.8L-350.2,407.8L-350.2,407.8
		L-350.2,407.8L-350.2,407.8z M-350.2,407.8L-350.2,407.8L-350.2,407.8L-350.2,407.8L-350.2,407.8z M-350.2,407.8L-350.2,407.8
		L-350.2,407.8L-350.2,407.8L-350.2,407.8z M-350.1,407.8L-350.1,407.8L-350.1,407.8L-350.1,407.8L-350.1,407.8z M-350.1,407.8
		L-350.1,407.8L-350.1,407.8L-350.1,407.8L-350.1,407.8z M-350.1,407.8L-350.1,407.8L-350.1,407.8L-350.1,407.8L-350.1,407.8z
		 M-350.1,407.8L-350.1,407.8L-350.1,407.8L-350.1,407.8L-350.1,407.8z M-350,407.8L-350,407.8L-350,407.8L-350,407.8L-350,407.8z
		 M-350,407.8L-350,407.8L-350,407.8L-350,407.8L-350,407.8z M-350,407.8L-350,407.8L-350,407.8L-350,407.8L-350,407.8z M-350,407.7
		L-350,407.7L-350,407.7L-350,407.7L-350,407.7z M-350,407.7L-350,407.7L-350,407.7L-350,407.7L-350,407.7z M-349.9,407.7
		L-349.9,407.7L-349.9,407.7L-349.9,407.7L-349.9,407.7z M-349.9,407.7L-349.9,407.7L-349.9,407.7L-349.9,407.7L-349.9,407.7z
		 M-349.9,407.7L-349.9,407.7L-349.9,407.7L-349.9,407.7L-349.9,407.7z M-349.9,407.6L-349.9,407.6L-349.9,407.6L-349.9,407.6
		L-349.9,407.6z M-349.9,407.6L-349.9,407.6l0.2,0L-349.9,407.6L-349.9,407.6z M-349.8,407.6L-349.8,407.6l0.5-0.1l-0.3,0.1
		L-349.8,407.6z M-349.8,407.6L-349.8,407.6L-349.8,407.6L-349.8,407.6L-349.8,407.6z M-349.8,407.5L-349.8,407.5l0.4-0.2l-0.3,0.2
		L-349.8,407.5z M-349.8,407.5L-349.8,407.5L-349.8,407.5L-349.8,407.5L-349.8,407.5z M-349.9,407.5L-349.9,407.5L-349.9,407.5
		L-349.9,407.5L-349.9,407.5z M-349.9,407.4L-349.9,407.4l0.1-0.1L-349.9,407.4L-349.9,407.4z M-349.9,407.4l0-0.1l0.2-0.3
		L-349.9,407.4L-349.9,407.4z M-350,407.4L-350,407.4L-350,407.4l0-0.1L-350,407.4z M-350,407.3l0-0.1l0.2-0.3l-0.1,0.4L-350,407.3z
		 M-350,407.3L-350,407.3L-350,407.3l0-0.1L-350,407.3z M-350.1,407.4L-350.1,407.4L-350.1,407.4L-350.1,407.4L-350.1,407.4z
		 M-350.1,407.4L-350.1,407.4l0-0.2L-350.1,407.4L-350.1,407.4z M-350.2,407.3l-0.1-0.1l0-0.4l0.1,0.3L-350.2,407.3z M-350.2,407.3
		L-350.2,407.3L-350.2,407.3L-350.2,407.3L-350.2,407.3z M-350.3,407.4L-350.3,407.4l-0.2-0.4l0.2,0.3L-350.3,407.4z M-350.3,407.4
		L-350.3,407.4L-350.3,407.4L-350.3,407.4L-350.3,407.4z M-350.3,407.5L-350.3,407.5L-350.3,407.5L-350.3,407.5L-350.3,407.5z
		 M-350.2,407.5L-350.2,407.5L-350.2,407.5L-350.2,407.5L-350.2,407.5z M-350.3,407.5L-350.3,407.5L-350.3,407.5L-350.3,407.5
		L-350.3,407.5z M-350.3,407.5L-350.3,407.5l-0.1-0.1L-350.3,407.5L-350.3,407.5z M-350.4,407.5l-0.1,0l-0.3-0.2L-350.4,407.5
		L-350.4,407.5z M-350.4,407.6L-350.4,407.6L-350.4,407.6l-0.1,0L-350.4,407.6z M-350.4,407.6l-0.1,0l-0.4-0.1l0.4,0L-350.4,407.6z
		 M-350.4,407.6L-350.4,407.6L-350.4,407.6l-0.1,0L-350.4,407.6z M-350.4,407.7l-0.1,0.1l-0.4,0l0.3-0.1L-350.4,407.7z
		 M-350.4,407.7L-350.4,407.7L-350.4,407.7L-350.4,407.7L-350.4,407.7z M-350.4,407.8L-350.4,407.8l-0.4,0.2l0.3-0.2L-350.4,407.8z
		 M-350.4,407.8L-350.4,407.8L-350.4,407.8L-350.4,407.8L-350.4,407.8z M-350.3,407.8L-350.3,407.8L-350.3,407.8L-350.3,407.8
		L-350.3,407.8z M-350.3,407.8L-350.3,407.8l-0.1,0.1L-350.3,407.8L-350.3,407.8z M-350.3,407.9l0,0.1l-0.2,0.3l0.2-0.3
		L-350.3,407.9z M-350.3,407.9L-350.3,407.9L-350.3,407.9l0,0.1L-350.3,407.9z M-350.2,408l0,0.1l-0.2,0.3l0.1-0.4L-350.2,408z
		 M-350.2,407.9L-350.2,407.9L-350.2,407.9l0,0.1L-350.2,407.9z M-350.1,407.9L-350.1,407.9L-350.1,407.9L-350.1,407.9L-350.1,407.9
		z M-350.1,407.9L-350.1,407.9l0,0.2L-350.1,407.9L-350.1,407.9z M-350,408l0.1,0.1l0,0.4l-0.1-0.3L-350,408z M-350,407.9
		L-350,407.9L-350,407.9L-350,407.9L-350,407.9z M-350,407.9l0.1,0.1l0.1,0.3l-0.2-0.3L-350,407.9z M-350,407.9L-350,407.9
		L-350,407.9L-350,407.9L-350,407.9z M-350,407.8L-350,407.8L-350,407.8L-350,407.8L-350,407.8z M-350,407.8L-350,407.8L-350,407.8
		L-350,407.8L-350,407.8z M-349.9,407.8L-349.9,407.8L-349.9,407.8L-349.9,407.8L-349.9,407.8z M-349.9,407.7L-349.9,407.7l0.1,0.1
		L-349.9,407.7L-349.9,407.7z M-349.8,407.7l0.1,0l0.3,0.1L-349.8,407.7L-349.8,407.7z M-349.8,407.7L-349.8,407.7L-349.8,407.7
		l0.1,0L-349.8,407.7z M-349.8,407.7l0.1,0l0.4,0.1l-0.4,0L-349.8,407.7z M-349.6,407.6l0.4-0.1l1.4-0.1l0,0.2l-1.4,0.1
		L-349.6,407.6z M-349.2,407.4l1.2-0.5c0,0.1,0.1,0.2,0.1,0.3L-349.2,407.4z M-349.2,407.4l-0.4,0l0.3-0.2l1.3-0.5l0.1,0.2
		L-349.2,407.4z M-349.2,407.2l1.1-0.8c0.1,0.1,0.1,0.2,0.2,0.3L-349.2,407.2z M-349.3,407.2l-0.4,0.1l0.3-0.3l1.1-0.8l0.1,0.2
		L-349.3,407.2z M-349.7,407.4l-0.1,0L-349.7,407.4l0.2-0.3L-349.7,407.4z M-349.8,407.3l0.2-0.4l0.9-1.1l0.2,0.1l-0.9,1.1
		L-349.8,407.3z M-349.6,406.8l0.5-1.2c0.1,0.1,0.2,0.1,0.3,0.2L-349.6,406.8z M-349.6,406.9l-0.3,0.3l0.1-0.4l0.6-1.3l0.2,0.1
		L-349.6,406.9z M-349.8,406.7l0.2-1.3c0.1,0,0.2,0.1,0.3,0.1L-349.8,406.7z M-349.9,406.8l-0.2,0.4l0-0.4l0.2-1.4l0.2,0
		L-349.9,406.8z M-350,407.2l-0.1,0.1L-350,407.2l0-0.4L-350,407.2z M-350.2,407.2l-0.1-0.4l-0.1-1.4l0.2,0l0.1,1.4L-350.2,407.2z
		 M-350.3,406.7l-0.5-1.2c0.1,0,0.2-0.1,0.3-0.1L-350.3,406.7z M-350.3,406.8l0,0.4l-0.2-0.3l-0.5-1.3l0.2-0.1L-350.3,406.8z
		 M-350.6,406.8l-0.8-1.1c0.1-0.1,0.2-0.1,0.3-0.2L-350.6,406.8z M-350.5,406.9l0.1,0.4l-0.3-0.3l-0.8-1.1l0.2-0.1L-350.5,406.9z
		 M-350.4,407.3l0,0.1L-350.4,407.3l-0.3-0.2L-350.4,407.3z M-350.3,407.4L-350.3,407.4L-350.3,407.4l-0.1,0L-350.3,407.4z
		 M-350.4,407.5l-0.1,0l-0.3-0.2l0.3,0.2L-350.4,407.5z M-351,407.4l-1.3-0.2c0-0.1,0.1-0.2,0.1-0.3L-351,407.4z M-351,407.4
		l0.4,0.2l-0.4,0l-1.4-0.2l0-0.2L-351,407.4z M-351,407.6l0.4,0.1l-0.4,0.1l-1.4,0.1l0-0.2L-351,407.6z M-351.1,407.9l-1.2,0.5
		c0-0.1-0.1-0.2-0.1-0.3L-351.1,407.9z M-351,407.9l0.4,0l-0.3,0.2l-1.3,0.5l-0.1-0.2L-351,407.9z M-351,408.1l-1.1,0.8
		c-0.1-0.1-0.1-0.2-0.2-0.3L-351,408.1z M-350.9,408.1l0.4-0.1l-0.3,0.3l-1.1,0.8l-0.1-0.2L-350.9,408.1z M-350.5,407.9l0.1,0
		L-350.5,407.9l-0.2,0.3L-350.5,407.9z M-350.4,408l-0.2,0.4l-0.9,1.1l-0.2-0.1l0.9-1.1L-350.4,408z M-350.6,408.5l-0.5,1.2
		c-0.1-0.1-0.2-0.1-0.3-0.2L-350.6,408.5z M-350.6,408.4l0.3-0.3l-0.1,0.4l-0.6,1.3l-0.2-0.1L-350.6,408.4z M-350.4,408.6l-0.2,1.3
		c-0.1,0-0.2-0.1-0.3-0.1L-350.4,408.6z M-350.4,408.5l0.2-0.4l0,0.4l-0.2,1.4l-0.2,0L-350.4,408.5z M-350.2,408.1l0.1-0.1
		L-350.2,408.1l0,0.4L-350.2,408.1z M-350.1,408.1l0.1,0.4l0.1,1.4l-0.2,0l-0.1-1.4L-350.1,408.1z M-349.9,408.6l0.5,1.2
		c-0.1,0-0.2,0.1-0.3,0.1L-349.9,408.6z M-349.9,408.5l0-0.4l0.2,0.3l0.5,1.3l-0.2,0.1L-349.9,408.5z M-349.6,408.5l0.8,1.1
		c-0.1,0.1-0.2,0.1-0.3,0.2L-349.6,408.5z M-349.7,408.4l-0.1-0.4l0.3,0.3l0.8,1.1l-0.2,0.1L-349.7,408.4z M-349.8,408l0-0.1
		L-349.8,408l0.3,0.2L-349.8,408z M-349.9,407.9L-349.9,407.9L-349.9,407.9l0.1,0L-349.9,407.9z M-349.8,407.8l0.1,0l0.3,0.2
		l-0.3-0.2L-349.8,407.8z M-349.2,407.9l1.3,0.2c0,0.1-0.1,0.2-0.1,0.3L-349.2,407.9z M-349.3,407.9l-0.4-0.2l0.4,0l1.4,0.2l0,0.2
		L-349.3,407.9z M-348.3,406.2l-1.1,0.8l0.8-1C-348.5,406-348.4,406.1-348.3,406.2 M-349.9,405.4l-0.2,1.3l-0.1-1.3l0.1,0
		C-350,405.4-349.9,405.4-349.9,405.4 M-351.5,405.9l0.8,1.1l-1-0.8C-351.7,406-351.6,405.9-351.5,405.9 M-351.8,406.1l1.1,0.9
		l0.2,0.3l-0.4-0.2l-1.1-0.9L-351.8,406.1z M-351.9,409.1l1.1-0.8l-0.8,1C-351.7,409.3-351.8,409.2-351.9,409.1 M-350.4,409.9
		l0.2-1.3l0.1,1.3l-0.1,0C-350.2,409.9-350.3,409.9-350.4,409.9 M-348.7,409.4l-0.8-1.1l1,0.8C-348.5,409.3-348.6,409.3-348.7,409.4
		 M-348.4,409.2l-1.1-0.9l-0.2-0.3l0.4,0.2l1.1,0.9L-348.4,409.2z"/>
	<path fill="#FFFFFF" d="M-358.2,405.1c-1.4,0-2.6,1.1-2.6,2.6c0,1.4,1.1,2.6,2.6,2.6c1.4,0,2.6-1.1,2.6-2.6
		C-355.6,406.3-356.8,405.1-358.2,405.1 M-355.9,407.7c0,0.1,0,0.2,0,0.2l-1.3-0.2l1.3-0.1L-355.9,407.7z M-357.4,408.1l-0.3-0.3
		l0.4,0.1l1.3,0.6l-0.1,0.2L-357.4,408.1z M-356.2,408.7c-0.1,0.1-0.1,0.2-0.2,0.3l-1-0.8L-356.2,408.7z M-360.5,407.7
		c0-0.1,0-0.2,0-0.2l1.3,0.2L-360.5,407.7L-360.5,407.7z M-358.9,407.2l0.3,0.3l-0.4-0.1l-1.3-0.6l0.1-0.2L-358.9,407.2z
		 M-360.2,406.6c0.1-0.1,0.1-0.2,0.2-0.3l1,0.8L-360.2,406.6z M-358.1,407.8L-358.1,407.8L-358.1,407.8L-358.1,407.8l-0.1,0l0,0l0,0
		l0,0l0,0l0,0l0,0l0,0l0,0l0,0l0,0l0,0l0,0l0,0l0,0l0,0L-358.1,407.8L-358.1,407.8L-358.1,407.8L-358.1,407.8L-358.1,407.8z
		 M-358,407.7L-358,407.7L-358,407.7L-358,407.7L-358,407.7z M-358,407.6L-358,407.6L-358,407.6L-358,407.6L-358,407.6z M-358,407.6
		L-358,407.6L-358,407.6L-358,407.6L-358,407.6z M-358,407.6L-358,407.6L-358,407.6L-358,407.6L-358,407.6z M-358.1,407.6
		L-358.1,407.6L-358.1,407.6L-358.1,407.6L-358.1,407.6z M-358.1,407.6L-358.1,407.6L-358.1,407.6L-358.1,407.6L-358.1,407.6z
		 M-358.1,407.5L-358.1,407.5L-358.1,407.5L-358.1,407.5L-358.1,407.5z M-358.1,407.5L-358.1,407.5L-358.1,407.5L-358.1,407.5
		L-358.1,407.5z M-358.1,407.5L-358.1,407.5L-358.1,407.5L-358.1,407.5L-358.1,407.5z M-358.2,407.5L-358.2,407.5L-358.2,407.5
		L-358.2,407.5L-358.2,407.5z M-358.2,407.5L-358.2,407.5L-358.2,407.5L-358.2,407.5L-358.2,407.5z M-358.2,407.5L-358.2,407.5
		L-358.2,407.5L-358.2,407.5L-358.2,407.5z M-358.2,407.5L-358.2,407.5L-358.2,407.5L-358.2,407.5L-358.2,407.5z M-358.3,407.5
		L-358.3,407.5L-358.3,407.5L-358.3,407.5L-358.3,407.5z M-358.3,407.6L-358.3,407.6L-358.3,407.6L-358.3,407.6L-358.3,407.6z
		 M-358.3,407.6L-358.3,407.6L-358.3,407.6L-358.3,407.6L-358.3,407.6z M-358.3,407.6L-358.3,407.6L-358.3,407.6L-358.3,407.6
		L-358.3,407.6z M-358.3,407.7L-358.3,407.7L-358.3,407.7L-358.3,407.7L-358.3,407.7z M-358.3,407.7L-358.3,407.7L-358.3,407.7
		L-358.3,407.7L-358.3,407.7z M-358.3,407.7L-358.3,407.7L-358.3,407.7L-358.3,407.7L-358.3,407.7z M-358.3,407.7L-358.3,407.7
		L-358.3,407.7L-358.3,407.7L-358.3,407.7z M-358.3,407.7L-358.3,407.7L-358.3,407.7L-358.3,407.7L-358.3,407.7z M-358.3,407.8
		L-358.3,407.8L-358.3,407.8L-358.3,407.8L-358.3,407.8z M-358.3,407.8L-358.3,407.8L-358.3,407.8L-358.3,407.8L-358.3,407.8z
		 M-358.3,407.8L-358.3,407.8L-358.3,407.8L-358.3,407.8L-358.3,407.8z M-358.3,407.8L-358.3,407.8L-358.3,407.8L-358.3,407.8
		L-358.3,407.8z M-358.2,407.8L-358.2,407.8L-358.2,407.8L-358.2,407.8L-358.2,407.8z M-358.2,407.8L-358.2,407.8L-358.2,407.8
		L-358.2,407.8L-358.2,407.8z M-358.2,407.8L-358.2,407.8L-358.2,407.8L-358.2,407.8L-358.2,407.8z M-358.2,407.8L-358.2,407.8
		L-358.2,407.8L-358.2,407.8L-358.2,407.8z M-358.1,407.8L-358.1,407.8L-358.1,407.8L-358.1,407.8L-358.1,407.8z M-358.1,407.8
		L-358.1,407.8L-358.1,407.8L-358.1,407.8L-358.1,407.8z M-358.1,407.8L-358.1,407.8L-358.1,407.8L-358.1,407.8L-358.1,407.8z
		 M-358.1,407.8L-358.1,407.8L-358.1,407.8L-358.1,407.8L-358.1,407.8z M-358,407.7L-358,407.7L-358,407.7L-358,407.7L-358,407.7z
		 M-358,407.7L-358,407.7L-358,407.7L-358,407.7L-358,407.7z M-358,407.7L-358,407.7L-358,407.7L-358,407.7L-358,407.7z M-358,407.7
		L-358,407.7L-358,407.7L-358,407.7L-358,407.7z M-358,407.7L-358,407.7L-358,407.7L-358,407.7L-358,407.7z M-358,407.6L-358,407.6
		L-358,407.6L-358,407.6L-358,407.6z M-358,407.6L-358,407.6L-358,407.6L-358,407.6L-358,407.6z M-358,407.6L-358,407.6L-358,407.6
		L-358,407.6L-358,407.6z M-358,407.6L-358,407.6L-358,407.6L-358,407.6L-358,407.6z M-358.1,407.6L-358.1,407.6L-358.1,407.6
		L-358.1,407.6L-358.1,407.6z M-358.1,407.5L-358.1,407.5L-358.1,407.5L-358.1,407.5L-358.1,407.5L-358.1,407.5z M-358.1,407.5
		L-358.1,407.5L-358.1,407.5L-358.1,407.5L-358.1,407.5z M-358.1,407.5L-358.1,407.5L-358.1,407.5L-358.1,407.5L-358.1,407.5z
		 M-358.1,407.5L-358.1,407.5L-358.1,407.5L-358.1,407.5L-358.1,407.5z M-358.1,407.5L-358.1,407.5L-358.1,407.5L-358.1,407.5
		L-358.1,407.5z M-358.2,407.5L-358.2,407.5L-358.2,407.5L-358.2,407.5L-358.2,407.5z M-358.2,407.5L-358.2,407.5L-358.2,407.5
		L-358.2,407.5L-358.2,407.5z M-358.2,407.5L-358.2,407.5L-358.2,407.5L-358.2,407.5L-358.2,407.5z M-358.2,407.5L-358.2,407.5
		L-358.2,407.5L-358.2,407.5L-358.2,407.5z M-358.3,407.5L-358.3,407.5L-358.3,407.5L-358.3,407.5L-358.3,407.5z M-358.3,407.5
		L-358.3,407.5L-358.3,407.5L-358.3,407.5L-358.3,407.5z M-358.3,407.6L-358.3,407.6L-358.3,407.6L-358.3,407.6L-358.3,407.6z
		 M-358.3,407.6L-358.3,407.6L-358.3,407.6L-358.3,407.6L-358.3,407.6z M-358.3,407.6L-358.3,407.6L-358.3,407.6L-358.3,407.6
		L-358.3,407.6z M-358.3,407.6L-358.3,407.6L-358.3,407.6L-358.3,407.6L-358.3,407.6z M-358.4,407.6L-358.4,407.6L-358.4,407.6
		L-358.4,407.6L-358.4,407.6z M-358.4,407.6L-358.4,407.6L-358.4,407.6L-358.4,407.6L-358.4,407.6z M-358.4,407.7L-358.4,407.7
		L-358.4,407.7L-358.4,407.7L-358.4,407.7z M-358.4,407.7L-358.4,407.7L-358.4,407.7L-358.4,407.7L-358.4,407.7z M-358.4,407.7
		L-358.4,407.7L-358.4,407.7L-358.4,407.7L-358.4,407.7z M-358.4,407.7L-358.4,407.7L-358.4,407.7L-358.4,407.7L-358.4,407.7z
		 M-358.4,407.8L-358.4,407.8L-358.4,407.8L-358.4,407.8L-358.4,407.8z M-358.3,407.8L-358.3,407.8L-358.3,407.8L-358.3,407.8
		L-358.3,407.8z M-358.3,407.8L-358.3,407.8L-358.3,407.8L-358.3,407.8L-358.3,407.8z M-358.3,407.8L-358.3,407.8L-358.3,407.8
		L-358.3,407.8L-358.3,407.8L-358.3,407.8z M-358.3,407.9L-358.3,407.9L-358.3,407.9L-358.3,407.9L-358.3,407.9z M-358.3,407.9
		L-358.3,407.9L-358.3,407.9L-358.3,407.9L-358.3,407.9z M-358.2,407.9L-358.2,407.9L-358.2,407.9L-358.2,407.9L-358.2,407.9z
		 M-358.2,407.9L-358.2,407.9L-358.2,407.9L-358.2,407.9L-358.2,407.9z M-358.2,407.8L-358.2,407.8L-358.2,407.8L-358.2,407.8
		L-358.2,407.8z M-358.2,407.9L-358.2,407.9L-358.2,407.9L-358.2,407.9L-358.2,407.9z M-358.1,407.9L-358.1,407.9L-358.1,407.9
		L-358.1,407.9L-358.1,407.9z M-358.1,407.9L-358.1,407.9L-358.1,407.9L-358.1,407.9L-358.1,407.9z M-358.1,407.9L-358.1,407.9
		L-358.1,407.9L-358.1,407.9L-358.1,407.9z M-358.1,407.8L-358.1,407.8L-358.1,407.8L-358.1,407.8L-358.1,407.8z M-358.1,407.8
		L-358.1,407.8L-358.1,407.8L-358.1,407.8L-358.1,407.8z M-358.1,407.8L-358.1,407.8L-358.1,407.8L-358.1,407.8L-358.1,407.8z
		 M-358,407.8L-358,407.8L-358,407.8L-358,407.8L-358,407.8z M-358,407.8L-358,407.8L-358,407.8L-358,407.8L-358,407.8z M-358,407.7
		L-358,407.7L-358,407.7L-358,407.7L-358,407.7z M-358,407.7L-358,407.7L-358,407.7L-358,407.7L-358,407.7z M-358,407.7L-358,407.7
		L-358,407.7L-358,407.7L-358,407.7z M-357.9,407.7L-357.9,407.7l0.2,0L-357.9,407.7L-357.9,407.7z M-357.9,407.6l0.1-0.1l0.4,0
		l-0.3,0.1L-357.9,407.6z M-357.9,407.6L-357.9,407.6L-357.9,407.6L-357.9,407.6L-357.9,407.6z M-357.9,407.5L-357.9,407.5l0.4-0.2
		l-0.3,0.2L-357.9,407.5z M-357.9,407.5L-357.9,407.5L-357.9,407.5L-357.9,407.5L-357.9,407.5z M-358,407.5L-358,407.5L-358,407.5
		L-358,407.5L-358,407.5z M-358,407.5L-358,407.5l0.1-0.1L-358,407.5L-358,407.5z M-358,407.4l0-0.1l0.2-0.3l-0.2,0.3L-358,407.4z
		 M-358,407.4L-358,407.4L-358,407.4l0-0.1L-358,407.4z M-358.1,407.4l0-0.1l0.2-0.3L-358.1,407.4L-358.1,407.4z M-358.1,407.4
		L-358.1,407.4L-358.1,407.4l0-0.1L-358.1,407.4z M-358.2,407.5L-358.2,407.5L-358.2,407.5L-358.2,407.5L-358.2,407.5z
		 M-358.2,407.4L-358.2,407.4l0-0.2L-358.2,407.4L-358.2,407.4z M-358.3,407.4l-0.1-0.1l0-0.4l0.1,0.3L-358.3,407.4z M-358.3,407.4
		L-358.3,407.4L-358.3,407.4L-358.3,407.4L-358.3,407.4z M-358.3,407.4L-358.3,407.4l-0.2-0.4l0.2,0.3L-358.3,407.4z M-358.3,407.4
		L-358.3,407.4L-358.3,407.4L-358.3,407.4L-358.3,407.4z M-358.3,407.5L-358.3,407.5L-358.3,407.5L-358.3,407.5L-358.3,407.5z
		 M-358.3,407.6L-358.3,407.6L-358.3,407.6L-358.3,407.6L-358.3,407.6z M-358.4,407.6L-358.4,407.6L-358.4,407.6L-358.4,407.6
		L-358.4,407.6z M-358.4,407.6L-358.4,407.6l-0.1-0.1L-358.4,407.6L-358.4,407.6z M-358.5,407.6l-0.1,0l-0.3-0.2L-358.5,407.6
		L-358.5,407.6z M-358.5,407.6L-358.5,407.6L-358.5,407.6l-0.1,0L-358.5,407.6z M-358.5,407.7l-0.1,0l-0.4-0.1l0.4,0L-358.5,407.7z
		 M-358.5,407.7L-358.5,407.7L-358.5,407.7l-0.1,0L-358.5,407.7z M-358.5,407.8l-0.1,0.1l-0.4,0l0.3-0.1L-358.5,407.8z
		 M-358.5,407.8L-358.5,407.8L-358.5,407.8L-358.5,407.8L-358.5,407.8z M-358.5,407.8L-358.5,407.8l-0.4,0.2l0.3-0.2L-358.5,407.8z
		 M-358.4,407.8L-358.4,407.8L-358.4,407.8L-358.4,407.8L-358.4,407.8z M-358.4,407.8L-358.4,407.8L-358.4,407.8L-358.4,407.8
		L-358.4,407.8z M-358.3,407.9L-358.3,407.9l-0.1,0.1L-358.3,407.9L-358.3,407.9z M-358.4,408l0,0.1l-0.2,0.3l0.2-0.3L-358.4,408z
		 M-358.3,407.9L-358.3,407.9L-358.3,407.9l0,0.1L-358.3,407.9z M-358.3,408l0,0.1l-0.2,0.3l0.1-0.4L-358.3,408z M-358.3,408
		L-358.3,408L-358.3,408l0,0.1L-358.3,408z M-358.2,407.9L-358.2,407.9L-358.2,407.9L-358.2,407.9L-358.2,407.9z M-358.2,407.9
		L-358.2,407.9l0,0.2L-358.2,407.9L-358.2,407.9z M-358.1,408l0.1,0.1l0,0.4l-0.1-0.3L-358.1,408z M-358.1,408L-358.1,408
		L-358.1,408L-358.1,408L-358.1,408z M-358,408l0.1,0.1l0.1,0.3l-0.2-0.3L-358,408z M-358,407.9L-358,407.9L-358,407.9L-358,407.9
		L-358,407.9z M-358,407.9L-358,407.9L-358,407.9L-358,407.9L-358,407.9z M-358,407.8L-358,407.8L-358,407.8L-358,407.8L-358,407.8z
		 M-358,407.8L-358,407.8L-358,407.8L-358,407.8L-358,407.8z M-358,407.8L-358,407.8l0.1,0.1L-358,407.8L-358,407.8z M-357.9,407.8
		l0.1,0l0.3,0.1L-357.9,407.8L-357.9,407.8z M-357.9,407.8L-357.9,407.8L-357.9,407.8l0.1,0L-357.9,407.8z M-357.9,407.7l0.1,0
		l0.4,0.1l-0.4,0L-357.9,407.7z M-357.7,407.6l0.4-0.1l1.4-0.1l0,0.2l-1.4,0.1L-357.7,407.6z M-357.2,407.5l1.2-0.5
		c0,0.1,0.1,0.2,0.1,0.3L-357.2,407.5z M-357.3,407.5l-0.4,0l0.3-0.2l1.3-0.5l0.1,0.2L-357.3,407.5z M-357.3,407.2l1.1-0.8
		c0.1,0.1,0.1,0.2,0.2,0.3L-357.3,407.2z M-357.4,407.2l-0.4,0.1l0.3-0.3l1.1-0.8l0.1,0.2L-357.4,407.2z M-357.8,407.4l-0.1,0
		L-357.8,407.4l0.2-0.3L-357.8,407.4z M-357.9,407.3l0.2-0.4l0.9-1.1l0.2,0.1l-0.9,1.1L-357.9,407.3z M-357.7,406.9l0.5-1.2
		c0.1,0.1,0.2,0.1,0.3,0.2L-357.7,406.9z M-357.7,406.9l-0.3,0.3l0.1-0.4l0.6-1.3l0.2,0.1L-357.7,406.9z M-357.9,406.8l0.2-1.3
		c0.1,0,0.2,0.1,0.3,0.1L-357.9,406.8z M-357.9,406.8l-0.2,0.4l0-0.4l0.2-1.4l0.2,0L-357.9,406.8z M-358.1,407.2l-0.1,0.1
		L-358.1,407.2l0-0.4L-358.1,407.2z M-358.2,407.2l-0.1-0.4l-0.1-1.4l0.2,0l0.1,1.4L-358.2,407.2z M-358.4,406.7l-0.5-1.2
		c0.1,0,0.2-0.1,0.3-0.1L-358.4,406.7z M-358.4,406.8l0,0.4l-0.2-0.3l-0.5-1.3l0.2-0.1L-358.4,406.8z M-358.6,406.8l-0.8-1.1
		c0.1-0.1,0.2-0.1,0.3-0.2L-358.6,406.8z M-358.6,406.9l0.1,0.4l-0.3-0.3l-0.8-1.1l0.2-0.1L-358.6,406.9z M-358.5,407.3l0,0.1
		L-358.5,407.3l-0.3-0.2L-358.5,407.3z M-358.4,407.5L-358.4,407.5L-358.4,407.5l-0.1,0L-358.4,407.5z M-358.5,407.5l-0.1,0
		l-0.3-0.2l0.3,0.2L-358.5,407.5z M-359.1,407.4l-1.3-0.2c0-0.1,0.1-0.2,0.1-0.3L-359.1,407.4z M-359,407.4l0.4,0.2l-0.4,0l-1.4-0.2
		l0-0.2L-359,407.4z M-359.1,407.7l0.4,0.1l-0.4,0.1l-1.4,0.1l0-0.2L-359.1,407.7z M-359.1,407.9l-1.2,0.5c0-0.1-0.1-0.2-0.1-0.3
		L-359.1,407.9z M-359,407.9l0.4,0l-0.3,0.2l-1.3,0.5l-0.1-0.2L-359,407.9z M-359,408.1l-1.1,0.8c-0.1-0.1-0.1-0.2-0.2-0.3
		L-359,408.1z M-359,408.1l0.4-0.1l-0.3,0.3l-1.1,0.8l-0.1-0.2L-359,408.1z M-358.5,408l0.1,0L-358.5,408l-0.2,0.3L-358.5,408z
		 M-358.5,408.1l-0.2,0.4l-0.9,1.1l-0.2-0.1l0.9-1.1L-358.5,408.1z M-358.7,408.5l-0.5,1.2c-0.1-0.1-0.2-0.1-0.3-0.2L-358.7,408.5z
		 M-358.6,408.5l0.3-0.3l-0.1,0.4l-0.6,1.3l-0.2-0.1L-358.6,408.5z M-358.5,408.6l-0.2,1.3c-0.1,0-0.2-0.1-0.3-0.1L-358.5,408.6z
		 M-358.4,408.5l0.2-0.4l0,0.4l-0.2,1.4l-0.2,0L-358.4,408.5z M-358.2,408.1l0.1-0.1L-358.2,408.1l0,0.4L-358.2,408.1z
		 M-358.1,408.2l0.1,0.4l0.1,1.4l-0.2,0l-0.1-1.4L-358.1,408.2z M-358,408.6l0.5,1.2c-0.1,0-0.2,0.1-0.3,0.1L-358,408.6z
		 M-358,408.6l0-0.4l0.2,0.3l0.5,1.3l-0.2,0.1L-358,408.6z M-357.7,408.5l0.8,1.1c-0.1,0.1-0.2,0.1-0.3,0.2L-357.7,408.5z
		 M-357.7,408.5l-0.1-0.4l0.3,0.3l0.8,1.1l-0.2,0.1L-357.7,408.5z M-357.9,408l0-0.1L-357.9,408l0.3,0.2L-357.9,408z M-358,407.9
		L-358,407.9L-358,407.9l0.1,0L-358,407.9z M-357.9,407.9l0.1,0l0.3,0.2l-0.3-0.2L-357.9,407.9z M-357.3,408l1.3,0.2
		c0,0.1-0.1,0.2-0.1,0.3L-357.3,408z M-357.3,407.9l-0.4-0.2l0.4,0l1.4,0.2l0,0.2L-357.3,407.9z M-356.4,406.2l-1.1,0.8l0.8-1
		C-356.6,406.1-356.5,406.2-356.4,406.2 M-357.9,405.4l-0.2,1.3l-0.1-1.3l0.1,0C-358.1,405.4-358,405.4-357.9,405.4 M-359.6,405.9
		l0.8,1.1l-1-0.8C-359.8,406.1-359.7,406-359.6,405.9 M-359.9,406.2l1.1,0.9l0.2,0.3l-0.4-0.2l-1.1-0.9L-359.9,406.2z M-360,409.1
		l1.1-0.8l-0.8,1C-359.8,409.3-359.9,409.2-360,409.1 M-358.4,410l0.2-1.3l0.1,1.3l-0.1,0C-358.3,410-358.3,410-358.4,410
		 M-356.7,409.5l-0.8-1.1l1,0.8C-356.6,409.3-356.7,409.4-356.7,409.5 M-356.5,409.2l-1.1-0.9l-0.2-0.3l0.4,0.2l1.1,0.9
		L-356.5,409.2z"/>
</g>
</svg>
