<svg xmlns="http://www.w3.org/2000/svg" viewBox="0 0 200 184.2"><path fill="#85C49F" d="M97.654 123.55l-.267-.136 2.852-5.617.267.136z"/><path fill="#85C49F" d="M97.4 123.7l.2-.2-.2-.1M99.9 117.6l.3.2.2.1.4.1v-.1l-.9-.3c.1-.1.1-.1 0 0zM97.095 123.9l.265.14-2.968 5.56-.265-.143zM97.4 123.7l-.3.2.3.1"/><path fill="#85C49F" d="M94.7 129.8l-.3-.2-.2-.1-.4-.1v.1l.9.3c0 .1 0 .1 0 0zM95.8 121.3l-10.7-.7s-.5 0-.5.5-.1 1-.1 1l.4-.2.2.4.4-.2.2.4.4-.2.2.4.4-.2.2.4.4-.2.2.4.4-.2.2.4.4-.2.2.4.4-.2.2.4.4-.2.2.4.4-.2.2.4.4-.2.2.4.4-.2.2.4.4-.2.2.4.4-.2.2.4.4-.2.2.4.4-.2.2.4.5.2h.3c.1 0 .2-.1.2-.2l.8-1-.1-3z"/><g fill="#85C49F"><path d="M89.3 123.3l-.4.2v.1l.4-.2M87.4 122.7l-.4.2h.1l.4-.2M88.7 123.1l-.4.2v.1l.4-.2M86.8 122.5l-.4.2.4-.2M88.1 122.9l-.4.2v.1l.4-.2M86.2 122.2l-.4.3.4-.2M85 121.8l-.4.2v.1l.4-.3zM85.6 122l-.4.2v.1l.4-.2M95.8 121.3l.5 3.2-.8 1-.2.2H95l-.5-.2.5.2h.3c.1 0 .2-.1.2-.2l.8-1-.5-3.2zM92.4 124.4l-.4.2v.1l.4-.2M93 124.6l-.4.2v.1l.4-.2M89.9 123.5l-.4.3.4-.2M94.3 125.1l-.5.2h.1l.4-.2M93.6 124.8l-.4.2.1.1.4-.2M91.8 124.2l-.4.2v.1l.4-.2M90.5 123.8l-.4.2h.1l.4-.2M91.2 124l-.4.2.4-.2"/></g><path fill="#85C49F" d="M97.8 125c-.1 0-.1 0 0 0 0 0-.3.3-.6.2-.3-.2-.5-.5-.7-1.3-.2-.7.1-1.3.1-1.6 0-.1.1-.3.3-.4.1-.2.2-.5.5-.5.4 0 .8.2 1.2.2.4 0 .7-.1 1.2-.3.2-.1.5-.2.7-.1.1-.2-.1-.4-.5-.2-.7.2-.8.4-1.4.3-.6 0-2.1-.4-2.1-.4s-1-.3-1.1.3c-.1.6-.1 1.8-.1 1.8s.1.6.4 1.1c.4.5.6 1 1 1.1.4.1 1.2.5 1.7.5.2 0 .4-.1.5-.3-.2-.1-.4-.3-1.1-.4z"/><path fill="#85C49F" d="M98.9 123.8c.2-.1.5-.3-.1-.3h-.5c-.2.1 0 .2 0 .3v.1c.2.1.3.1.6-.1z"/><g fill="#85C49F"><path d="M99.7 121.4c-.4.2-.7.3-1.2.3-.4 0-.8-.2-1.2-.2-.2 0-.4.2-.5.5.1-.1.3-.2.4-.2.4-.1.8.1 1 .4.1.3.2.6.1.7h.4c.6-.1.3.2.1.2-.2 0-.3.1-.6.1 0 .1.1.3-.1.5h.5c.6-.1.4.1.1.3-.4.2-.4.2-.7.2 0 .1-.1.3-.2.4-.1.1-.1.3-.2.4-.1.1-.1.2-.1.2.7.1 1 .3 1.1.6.3-.2.5-.6.7-1 .3-.6.2-1.5.1-1.9-.1-.5-.3-.6.2-.9.2-.1.4-.3.4-.5.2-.3 0-.2-.3-.1z"/><path d="M98.8 122.8h-.4c-.1.1 0 .2 0 .3.2 0 .4-.1.6-.1.2-.1.4-.3-.2-.2z"/></g><path fill="#85C49F" d="M98.5 124.5c.2-.1.4-.3-.1-.2H98c-.1 0-.1.1-.1.2v.1c.2.1.4.1.6-.1z"/><g fill="#85C49F"><path d="M96.4 122.1c.1 0 .1-.2.1-.3l-.4.2c.1.1.2.1.3.1zM96.2 121.7c-.1 0-.1.1-.1.2l.4-.2h-.3zM96.5 121.8l-.4.2.4-.2zM96.5 121.8l-.4.2.4-.2z"/></g><g fill="#85C49F"><path d="M96.2 123.1c0-.1 0-.2-.1-.2v.3s.1 0 .1-.1zM95.9 123.1c0 .1 0 .2.1.2v-.3c-.1-.1-.1 0-.1.1zM96.1 122.9s-.1 0 0 0l-.1.3.1-.3z"/><path d="M96.1 122.9s-.1 0 0 0l-.1.3.1-.3z"/></g><g fill="#85C49F"><path d="M112.1 107.3l-.2.3.2.3c0-.1-.1-.2-.1-.3.1-.1.1-.2.1-.3zM112.7 106.9h-.3l-.2.3c.1-.2.3-.3.5-.3zM113.4 107.2l-.2-.3h-.3c.2 0 .4.1.5.3zM113.5 107.9l.2-.3-.2-.3c0 .1.1.2.1.3-.1.1-.1.2-.1.3zM113.4 108.1c-.1.2-.3.3-.5.3h.3l.2-.3zM112.2 108.1l.2.3h.3c-.2-.1-.4-.2-.5-.3zM112.8 106.9s-.1 0 0 0zM112.2 108.1l-.1-.1s.1 0 .1.1zM113.4 107.2l.1.1c-.1 0-.1-.1-.1-.1zM112.8 108.4c-.1 0 0 0 0 0zM112.1 107.3l.1-.1-.1.1zM113.5 107.9l-.1.1.1-.1z"/><path d="M113.4 108.1l.1-.1c0-.1.1-.2.1-.3 0-.1 0-.2-.1-.3l-.1-.1c-.1-.2-.3-.3-.5-.3h-.2c-.2 0-.4.1-.5.3l-.1.1c0 .1-.1.2-.1.3 0 .1 0 .2.1.3l.1.1c.1.2.3.3.5.3h.2c.2-.1.4-.2.5-.3zm-.6-.1c-.2 0-.4-.2-.4-.4s.2-.4.4-.4.4.2.4.4-.2.4-.4.4z"/><path d="M112.8 107.3c-.2 0-.4.2-.4.4s.2.4.4.4.4-.2.4-.4c0-.3-.2-.4-.4-.4zm0 .6c-.2 0-.3-.1-.3-.3 0-.2.1-.3.3-.3.2 0 .3.1.3.3 0 .2-.1.3-.3.3z"/></g><g fill="#85C49F"><path d="M113.8 106.9l-.2.3.2.3c0-.1-.1-.2-.1-.3 0-.1.1-.2.1-.3zM114.4 106.5h-.4l-.2.3c.2-.2.4-.3.6-.3zM115.1 106.8l-.2-.3h-.3c.2 0 .3.1.5.3zM115.1 107.5l.2-.3-.2-.3c0 .1.1.2.1.3 0 .1 0 .2-.1.3zM115.1 107.6c-.1.2-.3.3-.5.3h.3l.2-.3zM113.9 107.6l.2.3h.3c-.2 0-.4-.1-.5-.3zM114.5 106.5c-.1 0-.1 0 0 0zM113.9 107.6l-.1-.1s0 .1.1.1zM115.1 106.8l.1.1c-.1 0-.1-.1-.1-.1zM114.5 107.9c-.1 0-.1 0 0 0zM113.8 106.9l.1-.1c-.1 0-.1.1-.1.1zM115.1 107.5l-.1.1c.1 0 .1-.1.1-.1z"/><path d="M115.1 107.6l.1-.1c0-.1.1-.2.1-.3 0-.1 0-.2-.1-.3l-.1-.1c-.1-.2-.3-.3-.5-.3h-.2c-.2 0-.4.1-.5.3l-.1.1c0 .1-.1.2-.1.3 0 .1 0 .2.1.3l.1.1c.1.2.3.3.5.3h.2c.2 0 .3-.1.5-.3zm-.6 0c-.2 0-.4-.2-.4-.4s.2-.4.4-.4.4.2.4.4c-.1.2-.2.4-.4.4z"/><path d="M114.5 106.8c-.2 0-.4.2-.4.4s.2.4.4.4.4-.2.4-.4c-.1-.2-.2-.4-.4-.4zm0 .7c-.2 0-.3-.1-.3-.3 0-.2.1-.3.3-.3.2 0 .3.1.3.3 0 .2-.2.3-.3.3z"/></g><g fill="#85C49F"><path d="M115 105.7l-.2.3.2.3c0-.1-.1-.2-.1-.3.1-.2.1-.3.1-.3zM115.6 105.2h-.3l-.2.3c.1-.1.3-.3.5-.3zM116.3 105.5l-.2-.3h-.3c.2 0 .4.2.5.3zM116.4 106.2l.2-.3-.2-.3c0 .1.1.2.1.3-.1.2-.1.3-.1.3zM116.3 106.4c-.1.2-.3.3-.5.3h.3l.2-.3zM115.1 106.4l.2.3h.3c-.2 0-.4-.2-.5-.3zM115.7 105.2s-.1 0 0 0zM115.1 106.4l-.1-.1s.1 0 .1.1zM116.3 105.5l.1.1c-.1 0-.1 0-.1-.1zM115.7 106.7c-.1 0 0 0 0 0zM115 105.7l.1-.1s-.1 0-.1.1zM116.4 106.2l-.1.1.1-.1z"/><path d="M116.3 106.4l.1-.1c0-.1.1-.2.1-.3 0-.1 0-.2-.1-.3l-.1-.1c-.1-.2-.3-.3-.5-.3h-.2c-.2 0-.4.1-.5.3l-.1.1c0 .1-.1.2-.1.3 0 .1 0 .2.1.3l.1.1c.1.2.3.3.5.3h.2c.2 0 .4-.2.5-.3zm-.6-.1c-.2 0-.4-.2-.4-.4s.2-.4.4-.4.4.2.4.4c0 .3-.2.4-.4.4z"/><path d="M115.7 105.6c-.2 0-.4.2-.4.4s.2.4.4.4.4-.2.4-.4c0-.3-.2-.4-.4-.4zm0 .7c-.2 0-.3-.1-.3-.3 0-.2.1-.3.3-.3.2 0 .3.1.3.3 0 .1-.1.3-.3.3z"/></g><g fill="#85C49F"><path d="M114.9 104l-.2.3.2.3c0-.1-.1-.2-.1-.3.1-.2.1-.3.1-.3zM115.5 103.5h-.3l-.2.3c.1-.2.3-.3.5-.3zM116.2 103.8l-.2-.3h-.3c.2 0 .4.1.5.3zM116.3 104.5l.2-.3-.2-.3c0 .1.1.2.1.3-.1.1-.1.2-.1.3zM116.2 104.7c-.1.2-.3.3-.5.3h.3l.2-.3zM115 104.7l.2.3h.3c-.2-.1-.4-.2-.5-.3zM115.6 103.5s-.1 0 0 0zM115 104.7l-.1-.1s.1 0 .1.1zM116.2 103.8l.1.1s-.1 0-.1-.1zM115.6 105s.1 0 0 0zM114.9 104l.1-.1s-.1 0-.1.1zM116.3 104.5l-.1.1s.1 0 .1-.1z"/><path d="M116.2 104.7l.1-.1c0-.1.1-.2.1-.3 0-.1 0-.2-.1-.3l-.1-.1c-.1-.2-.3-.3-.5-.3h-.2c-.2 0-.4.1-.5.3l-.1.1c0 .1-.1.2-.1.3 0 .1 0 .2.1.3l.1.1c.1.2.3.3.5.3h.2c.2-.1.4-.2.5-.3zm-.6-.1c-.2 0-.4-.2-.4-.4s.2-.4.4-.4.4.2.4.4-.2.4-.4.4z"/><path d="M115.6 103.9c-.2 0-.4.2-.4.4s.2.4.4.4.4-.2.4-.4-.2-.4-.4-.4zm0 .6c-.2 0-.3-.1-.3-.3 0-.2.1-.3.3-.3.2 0 .3.1.3.3 0 .2-.1.3-.3.3z"/></g><g fill="#85C49F"><path d="M113.7 102.7l-.2.3.2.3c0-.1-.1-.2-.1-.3.1-.1.1-.2.1-.3zM114.3 102.2h-.3l-.2.3c.1-.1.3-.2.5-.3zM115 102.5l-.2-.3h-.3c.2.1.4.2.5.3zM115.1 103.3l.2-.3-.2-.3c0 .1.1.2.1.3-.1.1-.1.2-.1.3zM115 103.4c-.1.2-.3.3-.5.3h.3l.2-.3zM113.8 103.4l.2.3h.3c-.2 0-.4-.1-.5-.3zM114.4 102.2c.1 0 0 0 0 0zM113.8 103.4l-.1-.1c.1 0 .1.1.1.1zM115 102.5l.1.1s-.1 0-.1-.1zM114.4 103.7s.1 0 0 0zM113.7 102.7l.1-.1-.1.1zM115.1 103.3l-.1.1.1-.1z"/><path d="M115 103.4l.1-.1c0-.1.1-.2.1-.3 0-.1 0-.2-.1-.3l-.1-.1c-.1-.2-.3-.3-.5-.3h-.2c-.2 0-.4.1-.5.3l-.1.1c0 .1-.1.2-.1.3 0 .1 0 .2.1.3l.1.1c.1.2.3.3.5.3h.2c.2 0 .4-.1.5-.3zm-.6-.1c-.2 0-.4-.2-.4-.4s.2-.4.4-.4.4.2.4.4-.2.4-.4.4z"/><path d="M114.4 102.6c-.2 0-.4.2-.4.4s.2.4.4.4.4-.2.4-.4-.2-.4-.4-.4zm0 .7c-.2 0-.3-.1-.3-.3 0-.2.1-.3.3-.3.2 0 .3.1.3.3 0 .1-.1.3-.3.3z"/></g><g fill="#85C49F"><path d="M112.2 102.2l-.2.3.2.3c0-.1-.1-.2-.1-.3 0-.1 0-.2.1-.3zM112.7 101.7h-.3l-.2.3c.2-.1.3-.2.5-.3zM113.4 102l-.2-.3h-.3c.2.1.4.2.5.3zM113.5 102.8l.2-.3-.2-.3c0 .1.1.2.1.3 0 .1-.1.2-.1.3zM113.4 102.9c-.1.2-.3.3-.5.3h.3l.2-.3zM112.2 102.9l.2.3h.3c-.2 0-.3-.1-.5-.3zM112.8 101.7c.1 0 .1 0 0 0zM112.2 102.9l-.1-.1c.1 0 .1.1.1.1zM113.4 102l.1.1-.1-.1zM112.8 103.2c.1 0 .1 0 0 0zM112.2 102.2l.1-.1c-.1 0-.1 0-.1.1zM113.5 102.8l-.1.1c.1 0 .1-.1.1-.1z"/><path d="M113.4 102.9l.1-.1c0-.1.1-.2.1-.3 0-.1 0-.2-.1-.3l-.1-.1c-.1-.2-.3-.3-.5-.3h-.2c-.2 0-.4.1-.5.3l-.1.1c0 .1-.1.2-.1.3 0 .1 0 .2.1.3l.1.1c.1.2.3.3.5.3h.2c.2 0 .4-.1.5-.3zm-.6-.1c-.2 0-.4-.2-.4-.4s.2-.4.4-.4.4.2.4.4c0 .3-.2.4-.4.4z"/><path d="M112.8 102.1c-.2 0-.4.2-.4.4s.2.4.4.4.4-.2.4-.4-.2-.4-.4-.4zm0 .7c-.2 0-.3-.1-.3-.3 0-.2.1-.3.3-.3.2 0 .3.1.3.3 0 .1-.1.3-.3.3z"/></g><g fill="#85C49F"><path d="M110.3 102.2l-.2.3.2.3c0-.1-.1-.2-.1-.3.1-.1.1-.2.1-.3zM110.9 101.7h-.3l-.2.3c.1-.1.3-.2.5-.3zM111.6 102l-.2-.3h-.3c.2.1.4.2.5.3zM111.7 102.8l.2-.3-.2-.3c0 .1.1.2.1.3-.1.1-.1.2-.1.3zM111.6 102.9c-.1.2-.3.3-.5.3h.3l.2-.3zM110.4 102.9l.2.3h.3c-.2 0-.4-.1-.5-.3zM111 101.7c.1 0 0 0 0 0zM110.4 102.9l-.1-.1c.1 0 .1.1.1.1zM111.6 102l.1.1s-.1 0-.1-.1zM111 103.2s.1 0 0 0zM110.3 102.2l.1-.1-.1.1zM111.7 102.8l-.1.1.1-.1z"/><path d="M111.6 102.9l.1-.1c0-.1.1-.2.1-.3 0-.1 0-.2-.1-.3l-.1-.1c-.1-.2-.3-.3-.5-.3h-.2c-.2 0-.4.1-.5.3l-.1.1c0 .1-.1.2-.1.3 0 .1 0 .2.1.3l.1.1c.1.2.3.3.5.3h.2c.2 0 .4-.1.5-.3zm-.6-.1c-.2 0-.4-.2-.4-.4s.2-.4.4-.4.4.2.4.4c0 .3-.2.4-.4.4z"/><path d="M111 102.1c-.2 0-.4.2-.4.4s.2.4.4.4.4-.2.4-.4-.2-.4-.4-.4zm0 .7c-.2 0-.3-.1-.3-.3 0-.2.1-.3.3-.3.2 0 .3.1.3.3 0 .1-.1.3-.3.3z"/></g><g fill="#85C49F"><path d="M108.7 102.5l-.2.3.2.3c0-.1-.1-.2-.1-.3 0-.1 0-.2.1-.3zM109.3 102h-.3l-.2.3c.1-.1.2-.2.5-.3zM109.9 102.3l-.2-.3h-.3c.2.1.4.2.5.3zM110 103.1l.2-.3-.2-.3c0 .1.1.2.1.3 0 .1-.1.2-.1.3zM109.9 103.2c-.1.2-.3.3-.5.3h.3l.2-.3zM108.7 103.2l.2.3h.3c-.2 0-.3-.1-.5-.3zM109.3 102c.1 0 .1 0 0 0zM108.7 103.2l-.1-.1c.1 0 .1.1.1.1zM109.9 102.3l.1.1-.1-.1zM109.3 103.5c.1 0 .1 0 0 0zM108.7 102.5l.1-.1c-.1 0-.1 0-.1.1zM110 103.1l-.1.1c.1 0 .1-.1.1-.1z"/><path d="M109.9 103.2l.1-.1c0-.1.1-.2.1-.3 0-.1 0-.2-.1-.3l-.1-.1c-.1-.2-.3-.3-.5-.3h-.2c-.2 0-.4.1-.5.3l-.1.1c0 .1-.1.2-.1.3 0 .1 0 .2.1.3l.1.1c.1.2.3.3.5.3h.2c.2 0 .4-.1.5-.3zm-.6-.1c-.2 0-.4-.2-.4-.4s.2-.4.4-.4.4.2.4.4c0 .3-.2.4-.4.4z"/><path d="M109.3 102.4c-.2 0-.4.2-.4.4s.2.4.4.4.4-.2.4-.4-.2-.4-.4-.4zm0 .7c-.2 0-.3-.1-.3-.3 0-.2.1-.3.3-.3.2 0 .3.1.3.3 0 .1-.1.3-.3.3z"/></g><g fill="#85C49F"><path d="M111.5 109.1c0 .1-.2.2-.3.1l-.5-.2c-.1 0-.2-.2-.1-.3 0-.1.2-.2.3-.1l.5.2c.1.1.2.2.1.3zM109.5 107.2s.2.6.3.8l.2.2s-1.2-.1-1.3-.2c-.2-.1-.2-.6.1-.7.2-.2.7-.1.7-.1z"/><path d="M110 106.1s-.3 1.3-.4 1.3c-.1 0-1.1.3-1.1.3l-.3-.1s.7-.9 1-1.2c.4-.3.8-.3.8-.3zM102.5 116.6c-.4-.3-.9-.2-1.2.1-.3.4-.2.9.1 1.2.4.3.9.2 1.2-.1.4-.4.3-.9-.1-1.2zm-.9 1.2c-.3-.2-.3-.7-.1-1 .2-.3.7-.3 1-.1.3.2.3.7.1 1-.3.3-.7.3-1 .1z"/><path d="M102.5 116.7c-.3-.2-.7-.2-1 .1-.2.3-.2.7.1 1 .3.2.7.2 1-.1.2-.3.1-.7-.1-1zm-.8 1c-.2-.2-.3-.5-.1-.8.2-.2.5-.3.8-.1.2.2.3.5.1.8-.2.2-.6.3-.8.1z"/><path d="M111.7 107.4c-.3-1-.6-1.1-.6-1.1l-.3 1.2-.9.3-2.4-.8-.3 2.7s-5.6 6.7-5.8 6.9c-.1.1-.2.3-.2.3-.1.2-.1.7.3 1 .6.4 1 .1 1.2-.1.1-.2 5.3-7.2 5.5-7.4.1-.1.5-.3 1-.5.8-.3 1.7-.7 1.8-.8.2-.1 1.1-.7.7-1.7zm-9 10.4c-.3.4-.8.4-1.2.1-.4-.3-.4-.8-.1-1.2.3-.4.8-.4 1.2-.1.3.3.4.8.1 1.2zm5-7.2l-4.3 5.8c-.1.1-.4 0-.6-.1-.2-.1-.4-.5-.3-.6l4.6-5.5c.1-.1.3-.1.5 0s.2.3.1.4z"/><path d="M108.273 107.775l1.06.294-.295 1.06-1.06-.295z"/><path d="M109.1 109s0-.2.1-.4.1-.3.1-.3h-.1l-.1-.2s-.1.1-.2.1c-.1-.1-.1-.2-.1-.1l-.2.1s-.1-.2-.1-.1c0 0-.1.1-.2.1s-.1-.1-.1-.1l-.3.8h.1s0 .2.1.2c0 0 .1-.1.2-.1l.1.2s.1-.2.2-.1c0 .1.1.2.1.2.1 0 .1-.1.2-.1l.1.2c0-.4.1-.4.1-.4z"/><path d="M109 109v-.6-.2s-.1.8 0 .8c-.1 0 0 .1 0 0zM108.7 108.9s.1-.5.1-.6v-.2c-.1 0-.2.8-.1.8-.1 0 0 .1 0 0zM108.4 108.9s.1-.5.1-.6v-.2c-.1 0-.2.7-.1.8-.1 0 0 0 0 0zM108.1 108.8s.1-.5.1-.6v-.2s-.2.8-.1.8z"/></g><g fill="#85C49F"><path d="M97 106.9h7.6l.8-.2 1.2.2v.5l-1.2.3-.8-.2h-7.7"/><path d="M96.8 106.1s0 .1-.6.1-.7-.1-.7-.1h-4.9c-.4 0-.8.3-.8.8v.6c0 .4.3.8.8.8h4.9s0-.1.7-.1.6.1.6.1c.4 0 .4-2.2 0-2.2zm-2 2h-4.3c-.1 0-.2-.1-.2-.2s.1-.2.2-.2h4.3c.1 0 .2.1.2.2s-.1.2-.2.2zm0-1.1h-4.3c-.1 0-.2-.1-.2-.3 0-.2.1-.3.2-.3h4.3c.1 0 .2.1.2.3 0 .1-.1.3-.2.3z"/><path d="M95.6 107.9c0-.1 0-.1 0 0l1-.1s.1 0 .1.1c0 0 0 .1-.1.1l-1-.1zM95.6 108.1l1-.1s.1 0 .1.1c0 0 0 .1-.1.1l-1-.1c0 .1 0 0 0 0zM95.6 106.3c0-.1 0-.1 0 0l1-.1s.1 0 .1.1c0 0 0 .1-.1.1l-1-.1zM95.6 107.6s0-.1 0 0l1-.1s.1 0 .1.1c0 0 0 .1-.1.1l-1-.1c0 .1 0 0 0 0zM95.6 107.3l1-.1s.1 0 .1.1c0 0 0 .1-.1.1l-1-.1c0 .1 0 .1 0 0zM95.6 107.1c0-.1 0-.1 0 0l1-.1s.1 0 .1.1c0 0 0 .1-.1.1l-1-.1zM95.6 106.8s0-.1 0 0l1-.1s.1 0 .1.1c0 0 0 .1-.1.1l-1-.1c0 .1 0 0 0 0zM95.6 106.5l1-.1s.1 0 .1.1c0 0 0 .1-.1.1l-1-.1c0 .1 0 .1 0 0zM96.8 106.2c0-.1.1-.2.2-.2s.2.1.2.2v2.1c0 .1-.1.2-.2.2s-.2-.1-.2-.2v-2.1z"/></g><g fill="#85C49F"><path d="M110.767 106.65l-.28.11-1.096-2.792.28-.11z"/><path d="M109.87 104.085l-.377.13-.033-.093.378-.13z"/><path d="M109.82 104.127l-.38.132-.032-.096.378-.13zM109.903 104.223l-.378.13-.033-.093.378-.13zM109.897 104.355l-.377.13-.033-.094.378-.13zM109.983 104.447l-.378.132-.033-.096.378-.13zM110.062 104.557l-.378.13-.033-.094.38-.13zM110.054 104.68l-.378.13-.033-.093.378-.13zM110.135 104.784l-.378.13-.033-.093.378-.13zM110.12 104.91l-.377.13-.033-.093.378-.13zM110.204 105.008l-.378.13-.033-.093.378-.13zM110.284 105.113l-.377.13-.033-.093.378-.132zM110.28 105.244l-.38.13-.032-.094.378-.13zM110.37 105.337l-.378.13-.033-.093.377-.132zM110.354 105.467l-.378.132-.033-.096.378-.13zM110.434 105.572l-.378.13-.032-.093.377-.132zM110.418 105.703l-.378.13-.033-.093.378-.13zM110.51 105.796l-.38.13-.032-.093.378-.13z"/><path d="M110.552 105.803l-.377.132-.033-.095.378-.13zM110.54 105.937l-.378.13-.032-.093.377-.132zM110.63 106.033l-.378.13-.032-.093.377-.132zM110.62 106.16l-.378.133-.032-.095.377-.13zM110.7 106.265l-.377.132-.033-.095.378-.13zM110.78 106.36l-.378.132-.032-.094.377-.132zM110.774 106.492l-.377.132-.033-.095.378-.132zM110.85 106.593l-.377.132-.033-.095.378-.13z"/></g><path fill="#85C49F" d="M109.4 103.8c0 .1.1.1.1.1v-.1h-.1c.4-.1.6-.1.6 0s-.9.4-1 .4c.1-.2.2-.3.4-.4z"/><g fill="#85C49F"><path d="M91.093 108.033l.256.157-1.57 2.556-.256-.157z"/><path d="M89.647 110.423l.332.222-.056.083-.333-.222zM89.664 110.28l.332.224-.055.083-.332-.223zM89.756 110.205l.332.222-.055.083-.333-.222zM89.76 110.07l.33.22-.054.084-.333-.222zM89.857 110.003l.332.223-.056.083-.333-.224zM89.954 109.914l.332.223-.056.083-.332-.223zM89.966 109.793l.332.223-.055.083-.333-.224zM90.057 109.704l.333.223-.056.083-.332-.223zM90.072 109.575l.333.223-.056.083-.333-.222zM90.166 109.498l.333.223-.057.084-.332-.223zM90.257 109.43l.332.222-.057.083-.332-.223zM90.27 109.284l.332.223-.055.083-.333-.223zM90.37 109.207l.333.222-.056.082-.332-.222zM90.38 109.086l.33.223-.054.082-.333-.223zM90.47 108.997l.333.223-.055.083-.333-.223zM90.574 108.923l.332.223-.055.083-.332-.224zM90.58 108.8l.333.222-.056.083-.332-.223zM90.678 108.714l.332.222-.055.083-.333-.223zM90.692 108.58l.332.223-.055.083-.334-.222zM90.775 108.5l.333.223-.056.083-.332-.222z"/><path d="M90.82 108.518l.333.223-.056.084-.332-.223zM90.83 108.374l.33.222-.055.083-.332-.223zM90.93 108.3l.33.222-.054.083-.333-.222zM90.932 108.164l.333.223-.056.083-.333-.223zM91.038 108.09l.333.222-.055.083-.332-.222z"/></g><path fill="#85C49F" d="M89.6 110.9c.1-.1.1-.1 0-.1h-.1l.1.1c-.3-.2-.4-.4-.4-.5 0-.1.9.5.9.5 0 .1-.3.1-.5 0z"/><g fill="#85C49F"><path d="M95.4 104.2s-.1.1-.2.1-.9-.6-1.6-.8c-.6-.2-1-.3-1.4-.1-.2.1-.4.4-.5.7-.1.2 0 .4 0 .4l-.6.2c-.3.1-.5.3-.5.3s-1.2-.9-1.8-.6c-.6.2-1.3.7-1.3.7l-.2-1.9h.2c.2 0 .5 0 .8-.1.4-.1.7-.7.7-.7s.3-.2.8-.3c.3-.1.7-.2 1.2-.2.4-.1.9 0 1.4.2 1.6.5 3.4 1.8 3 2.1z"/><path d="M95.3 103.8c.3.3.1.4 0 .4-.2 0-2-1.6-3-1.2-1 .4-.8 1.3-.8 1.3s-.2-.1-.5.1c-.5.2-.5.3-.5.3s-1.3-1.1-1.8-.9c-.5.2-.7.3-1 .5 0 0 .1.3.1.4 0 .1-.9.4-.9.4s-.2.1-.5-.9-.1-.9-.1-.9l.9-.3.2.4s.6 0 .9-.1c.3-.2.3-.3.3-.3l.4-.7s2.4-.7 3.5-.2c1 .4 2.3 1.2 2.8 1.7z"/><path d="M87.6 103.4c.2 0 .8 0 1.1-.1l.1-.1.2.4.1.3h-.2c-.2 0-.4.2-.6.3-.4.2-.4.3-.4.3l-.1-.5-.2-.6c-.1 0-.1 0 0 0zM87.9 104.9c0 .1 0 .2-.1.2l-.8.3c-.1 0-.2 0-.2-.1l-.6-1.8c0-.1 0-.2.1-.2l.8-.3c.1 0 .2 0 .2.1l.6 1.8z"/><g><path d="M96.7 119.3s-.1-1-.9-3.3c-.7-2.3-1.4-3.7-1.4-3.7l-.1-.2-1.1-3.3-1.3-4-.1-.5-.1-.2-.6.2c.1.2.2.5.2.8.1.5.1 1.1.3 1.6.2.5.4 1 .6 1.8.3.8.4.7.7 1.3.3.6.6 1.4.6 1.4l-.6-1.2c-.3-.6-.6-.6-.9-1.4-.3-.9-.5-1.8-.7-2.1-.2-.3-.3-.9-.3-1.5 0-.3-.1-.5-.2-.7l-.3.1h-.2l.9 2.9.3 1 .9 2.6v.1l.1.4.1.4.1.3.1.4s.3 1.6 1 3.8c.7 2.2 1.2 3.2 1.2 3.2 0 .1.1.2.1.2.1.1.3.1.3.1l.2-.1.5-.2h.1s.2-.1.2-.2c.3.1.3 0 .3 0z"/><path d="M91.2 105.3c.1.5.1 1.2.3 1.5.2.3.4 1.2.7 2.1.3.9.6.8.9 1.4l.6 1.2s-.3-.8-.6-1.4c-.3-.6-.5-.5-.7-1.3-.3-.8-.4-1.3-.6-1.8-.2-.5-.2-1.1-.3-1.6-.1-.3-.1-.6-.2-.8l-.2.1s.1.3.1.6zM96.1 119.1c-.1 0-.2.6-.2.9l.5-.2c-.1-.3-.2-.7-.3-.7zM94.1 113.4c-.4-.9-.9-1.7-1-1.6-.1 0-.2.3-.2.5l.1.3c0-.2.1-.3.2-.3.4.2.7.9.8 1.2.1.3 1.5 4 1.5 4.6.1.6 0 1.5-.3 1.6l.1.3c.1-.1.2-.3.2-.6.2-1.2-1-5.1-1.4-6z"/><path d="M95.2 119.2c.1-.2.3-1.2 0-1.9s-1.4-3.9-1.5-4.1c-.1-.3-.4-.7-.6-.5-.1.1-.1.1-.1.2l.2.8c-.1-.4-.1-.7 0-.7 0 0 .3.5.6 1.2s1.4 4 1.4 4.3c0 .4 0 .5-.1.5 0 0-.2-.2-.3-.5l.3.9c0-.1.1-.2.1-.2zM96.4 119.5v.4s.2-.1.2-.2c.1-.2 0-.3 0-.3l-2.3-7.2c.1.4 1.3 4.4 1.5 5 .2.6.6 1.9.6 2.3z"/><path d="M94.5 113.3c-.2-.7-.3-1.3-.4-1.7-.2-.4 0 .5-.2-.4s-.2-1.3-.5-1.8-.8-1.2-1.1-2.1c-.2-.8-.5-1.7-.5-2 0-.3-.2-.9.1-.8l-.1-.2-.6.2c.1.2.2.5.2.8.1.5.1 1.1.3 1.6.2.5.4 1 .6 1.8.3.8.4.7.7 1.3.3.6.6 1.4.6 1.4l-.6-1.2c-.3-.6-.6-.6-.9-1.4-.3-.9-.5-1.8-.7-2.1-.2-.3-.3-.9-.3-1.5 0-.3-.1-.5-.2-.7l-.3.1c.2.3.4 1 .5 1.7.1.8.6 1.1.6 1.1s-.2 0-.4-.2-.4-.8-.4-1.4c0-.4-.3-.9-.5-1.1h-.1l.9 2.9c.1.2.3.5.4.8.3.8.9 2.2 1 2.5.2.3.3.2.6.5s.6.8.5.9c-.1.2-.8-1.1-1-1.1-.2 0-.3.1-.3.2l.1.4s0-.1.1-.2.1-.3.3-.1c.2.2.8.9 1.1 1.6.2.7 1.6 4.7 1.7 5.1 0 .4-.3 1.4-.5 1.6l.1.2c.1.1.3.1.3.1.1-.4.2-1.4.2-1.5.1-.7-1.1-4.6-1.3-5.3zm-1.1-3.1c-.1 0-.4-.7-.3-.7.1 0 .4.7.3.7zm-.1.6c-.2-.1-1-2.4-1.2-3-.2-.6-.4-1.7-.4-1.7 0-.1.2.3.4 1.2.2.8 1 2.8 1.1 3.1.1.2.3.5.1.4z"/><path d="M91.8 108.9c0-.1-.1-.1-.1-.2l.9 2.6c0-.2 0-.7.1-.8 0-.1-.7-1-.9-1.6zM91.8 105.1c0 .3.4 2.1.7 2.6.1.3.5.8.7 1.2l-1.3-4c0 .1 0 .1-.1.2zM91 105.9c0 .6.2 1.2.4 1.4.2.2.4.2.4.2s-.5-.2-.6-1.1c-.1-.7-.3-1.4-.5-1.7h-.1c.1.3.3.8.4 1.2z"/><path d="M91.2 105.3c.1.5.1 1.2.3 1.5.2.3.4 1.2.7 2.1.3.9.6.8.9 1.4l.6 1.2s-.3-.8-.6-1.4c-.3-.6-.5-.5-.7-1.3-.3-.8-.4-1.3-.6-1.8-.2-.5-.2-1.1-.3-1.6-.1-.3-.1-.6-.2-.8l-.2.1c0 .1.1.3.1.6z"/><path d="M93.2 110.4c-.1-.2-.9-2.2-1.1-3.1-.2-.8-.4-1.3-.4-1.2 0 0 .2 1.1.4 1.7.2.6 1 2.8 1.2 3 .2.1 0-.2-.1-.4z"/><path d="M96.1 119.1c.1 0 .2.4.3.8h.1v-.4c0-.4-.4-1.7-.5-2.3-.2-.6-1.5-4.6-1.5-5l-1.1-3.3c-.3-.5-.6-.9-.7-1.2-.3-.5-.7-2.3-.7-2.6 0-.1.1-.2.1-.2l-.1-.5c-.3-.1-.1.4-.1.8 0 .3.3 1.2.5 2s.8 1.6 1.1 2.1c.3.5.3.9.5 1.8s.1 0 .2.4c.2.4.2 1 .4 1.7s1.4 4.7 1.4 5.3c0 .1-.2 1.1-.2 1.5l.2-.1c-.1-.2-.1-.8.1-.8z"/><path d="M93.4 110.2c.1 0-.2-.8-.3-.7-.1 0 .2.8.3.7zM92.9 111.3c.3 0 .9 1.3 1 1.1.1-.2-.2-.6-.5-.9-.3-.3-.4-.2-.6-.5-.2-.3-.7-1.7-1-2.5-.1-.3-.3-.6-.4-.8l.3 1c0 .1.1.1.1.2.3.6.9 1.5.8 1.7 0 .1-.1.6-.1.8v.1c.1-.1.2-.2.4-.2z"/><path d="M95.8 118.2c0-.4-1.4-4.4-1.7-5.1-.2-.7-.9-1.4-1.1-1.6-.2-.2-.2 0-.3.1-.1.1-.1.2-.1.2l.1.4c.1-.2.2-.5.2-.5.1 0 .6.7 1 1.6.4.9 1.6 4.8 1.4 5.9-.1.3-.1.4-.2.6.4-.2.7-1.2.7-1.6z"/><path d="M95.5 118c-.1-.6-1.5-4.4-1.5-4.6-.1-.3-.4-1-.8-1.2-.2-.1-.2.1-.2.3l.1.4c0-.1.1-.2.1-.2.2-.2.5.3.6.5.1.3 1.2 3.4 1.5 4.1.3.7.1 1.6 0 1.9 0 .1-.1.1-.1.1l.1.3c.2 0 .2-.9.2-1.6z"/><path d="M95.1 118.9c.1 0 0-.1.1-.5 0-.4-1.1-3.6-1.4-4.3-.3-.7-.6-1.2-.6-1.2-.1 0-.1.3 0 .7l.1.3c0-.4-.1-.6 0-.6s1.3 3.5 1.5 4c.1.5.4 1.3.3 1.3-.1 0-.2-.1-.4-.4l.1.2c.2.3.3.5.3.5z"/><path d="M95.1 118.6c.1 0-.1-.9-.3-1.3-.1-.5-1.3-4-1.5-4-.1 0-.1.3 0 .6l1.4 4.3.4.4zM91.8 104.3c0 .1-.3.3-.6.4-.4.1-.7.2-.8.1 0-.1.3-.2.7-.3.4-.2.7-.3.7-.2z"/></g></g><g fill="#85C49F"><circle cx="82.4" cy="109.3" r=".4"/><path d="M82.2 109.6s0-.1 0 0l.3-.5h.1v.1l-.4.4c.1 0 .1 0 0 0z"/></g><g fill="#85C49F"><circle cx="83.4" cy="109.4" r=".4"/><path d="M83.3 109.6c-.1 0-.1 0 0 0l.3-.5h.1v.1l-.4.4z"/></g><g fill="#85C49F"><circle cx="84.5" cy="109.5" r=".4"/><path d="M84.3 109.7c-.1 0-.1 0 0 0l.4-.5h.1v.1l-.5.4c0 .1 0 .1 0 0z"/></g><g fill="#85C49F"><circle cx="85.5" cy="109.7" r=".4"/><path d="M85.3 109.9c-.1 0-.1 0 0 0l.4-.4h.1v.1l-.5.3c0 .1 0 .1 0 0z"/></g><g fill="#85C49F"><circle cx="86.5" cy="110" r=".4"/><path d="M86.2 110.2l.4-.4h.1v.1l-.5.3c.1.1.1 0 0 0z"/></g><g fill="#85C49F"><circle cx="87.5" cy="110.4" r=".4"/><path d="M87.2 110.6s0-.1 0 0l.5-.4h.1v.1l-.6.3z"/></g><g fill="#85C49F"><circle cx="88.4" cy="110.9" r=".4"/><path d="M88.1 111.1c0-.1 0-.1 0 0l.5-.3h.1v.1l-.6.2z"/></g><g fill="#85C49F"><circle cx="89.3" cy="111.5" r=".4"/><path d="M89 111.6s0-.1 0 0l.5-.3h.1v.1l-.6.2z"/></g><g fill="#85C49F"><circle cx="90.1" cy="112.1" r=".4"/><path d="M89.8 112.2s0-.1 0 0l.5-.2h.1v.1l-.6.1z"/></g><g fill="#85C49F"><circle cx="90.9" cy="112.8" r=".4"/><path d="M90.5 112.9c0-.1.1-.1 0 0l.6-.2h.1v.1l-.7.1c.1 0 .1 0 0 0z"/></g><g fill="#85C49F"><circle cx="91.6" cy="113.6" r=".4"/><path d="M91.2 113.6s.1 0 0 0l.6-.1h.1v.1h-.7c.1.1.1 0 0 0z"/></g><g fill="#85C49F"><circle cx="92.2" cy="114.4" r=".4"/><path d="M91.9 114.4l.6-.1h.1v.1h-.7c0 .1 0 0 0 0z"/></g><g fill="#85C49F"><circle cx="92.8" cy="115.3" r=".4"/><path d="M92.4 115.3c0-.1.1-.1 0 0h.6s.1 0 0 .1c0 0 0 .1-.1 0l-.5-.1c.1 0 0 0 0 0z"/></g><g fill="#85C49F"><circle cx="93.2" cy="116.2" r=".4"/><path d="M92.9 116.1s.1 0 0 0h.6v.1h-.1l-.5-.1c0 .1 0 .1 0 0z"/></g><g fill="#85C49F"><circle cx="93.6" cy="117.2" r=".4"/><path d="M93.3 117.1s.1-.1 0 0l.6.1v.1h-.1l-.5-.2c.1 0 0 0 0 0z"/></g><g fill="#85C49F"><circle cx="94" cy="118.1" r=".4"/><path d="M93.7 118l.6.1v.1h-.1l-.5-.2c0 .1 0 .1 0 0z"/></g><g fill="#85C49F"><circle cx="94.2" cy="119.2" r=".4"/><path d="M93.9 119l.5.2v.1h-.1l-.4-.3c0 .1 0 .1 0 0z"/></g><g fill="#85C49F"><circle cx="94.3" cy="120.2" r=".4"/><path d="M94.1 120l.5.2v.1h-.1l-.4-.3c-.1.1-.1.1 0 0z"/></g><g fill="#85C49F"><circle cx="81.4" cy="109.4" r=".4"/><path d="M81.2 109.7c0-.1 0-.1 0 0l.2-.5h.1v.1l-.3.4c.1 0 0 0 0 0z"/></g><g fill="#85C49F"><circle cx="80.3" cy="109.5" r=".4"/><path d="M80.2 109.8l.2-.5h.1v.1l-.3.4c.1 0 0 0 0 0z"/></g><g fill="#85C49F"><circle cx="79.3" cy="109.8" r=".4"/><path d="M79.2 110.1c0-.1 0-.1 0 0l.1-.6h.1v.1l-.2.5c.1-.1.1 0 0 0z"/></g><g fill="#85C49F"><circle cx="78.3" cy="110.1" r=".4"/><path d="M78.3 110.4c-.1 0-.1-.1 0 0l.1-.6h.1v.1l-.2.5z"/></g><g fill="#85C49F"><circle cx="77.4" cy="110.5" r=".4"/><path d="M77.3 110.8v-.6h.1v.1l-.1.5c.1 0 .1 0 0 0z"/></g><g fill="#85C49F"><circle cx="76.5" cy="111" r=".4"/><path d="M76.4 111.3s0-.1 0 0v-.6s0-.1.1 0c0 0 .1 0 0 .1l-.1.5c.1 0 .1 0 0 0z"/></g><g fill="#85C49F"><circle cx="75.6" cy="111.5" r=".4"/><path d="M75.6 111.8s-.1 0 0 0l-.1-.6v-.1h.1v.7z"/></g><g fill="#85C49F"><circle cx="74.8" cy="112.2" r=".4"/><path d="M74.8 112.5s-.1 0 0 0l-.1-.6v-.1h.1v.7c.1-.1 0 0 0 0z"/></g><g fill="#85C49F"><circle cx="74" cy="112.9" r=".4"/><path d="M74.1 113.2c-.1 0-.1 0 0 0l-.2-.6v-.1h.1l.1.7c0-.1 0 0 0 0z"/></g><g fill="#85C49F"><circle cx="73.3" cy="113.6" r=".4"/><path d="M73.4 113.9s-.1 0 0 0l-.2-.5v-.1h.1l.1.6z"/></g><g fill="#85C49F"><circle cx="72.7" cy="114.5" r=".4"/><path d="M72.8 114.8s-.1 0 0 0l-.3-.5v-.1h.1l.2.6c0-.1 0-.1 0 0z"/></g><g fill="#85C49F"><circle cx="72.1" cy="115.3" r=".4"/><path d="M72.3 115.6c-.1 0-.1 0 0 0l-.3-.5v-.1h.1l.2.6z"/></g><g fill="#85C49F"><circle cx="71.6" cy="116.3" r=".4"/><path d="M71.8 116.5l-.4-.5v-.1h.1l.3.6z"/></g><g fill="#85C49F"><circle cx="71.3" cy="117.2" r=".4"/><path d="M71.4 117.5l-.4-.4v-.1h.1l.3.5c.1-.1.1 0 0 0z"/></g><g fill="#85C49F"><circle cx="70.9" cy="118.2" r=".4"/><path d="M71.2 118.5c-.1 0-.1 0 0 0l-.4-.4v-.1h.1l.3.5c0-.1 0-.1 0 0z"/></g><g fill="#85C49F"><circle cx="70.7" cy="119.2" r=".4"/><path d="M71 119.4c-.1.1-.1.1 0 0l-.5-.4v-.1h.1l.4.5z"/></g><g fill="#85C49F"><circle cx="70.6" cy="120.3" r=".4"/><path d="M70.8 120.5l-.5-.3v-.1h.1l.4.4c.1-.1.1-.1 0 0z"/></g><g fill="#85C49F"><circle cx="70.6" cy="121.3" r=".4"/><path d="M70.8 121.5l-.5-.3v-.1h.1l.4.4c0-.1 0 0 0 0z"/></g><g fill="#85C49F"><circle cx="70.6" cy="122.3" r=".4"/><path d="M70.9 122.5s-.1 0 0 0l-.5-.2v-.1h.1l.4.3c0-.1 0 0 0 0z"/></g><g fill="#85C49F"><circle cx="117.8" cy="109.3" r=".4"/><path d="M118.1 109.3h-.2v-.2.2h-.2.2v.2-.2h.2z"/></g><g fill="#85C49F"><circle cx="116.8" cy="109.3" r=".4"/><path d="M117 109.3h-.2v-.2.2h-.2.2v.2-.2h.2c.1.1.1 0 0 0 .1 0 0 0 0 0z"/></g><g fill="#85C49F"><circle cx="115.8" cy="109.5" r=".4"/><path d="M116 109.4h-.2v-.2.2h-.2.2v.2-.2h.2c0 .1 0 .1 0 0z"/></g><g fill="#85C49F"><circle cx="114.8" cy="109.7" r=".4"/><path d="M115 109.6h-.2v-.2.2h-.2.2v.2-.2h.2c0 .1 0 .1 0 0z"/></g><g fill="#85C49F"><circle cx="113.8" cy="110" r=".4"/><path d="M114 109.9l-.2.1-.1-.2h-.1v.1l.1.2-.2.1v.1h.1l.2-.1.1.2h.1v-.1l-.1-.2.1-.2c0 .1.1 0 0 0z"/></g><g fill="#85C49F"><circle cx="112.9" cy="110.4" r=".4"/><path d="M113 110.3l-.2.1-.1-.2h-.1v.1l.1.2-.2.1v.1h.1l.2-.1.1.2h.1v-.1l-.1-.2.1-.2c.1 0 .1 0 0 0 .1 0 .1 0 0 0z"/></g><g fill="#85C49F"><circle cx="112" cy="110.9" r=".4"/><path d="M112.1 110.7l-.1.1-.1-.1h-.1v.1l.1.1-.1.1v.1h.1l.1-.1.1.1h.1v-.1l-.1-.1v-.2c.1.1.1.1 0 0 .1 0 0 0 0 0z"/></g><g fill="#85C49F"><circle cx="111.1" cy="111.4" r=".4"/><path d="M111.2 111.3l-.1.1-.1-.1h-.1v.1l.1.1-.1.1v.1h.1l.1-.1.1.1h.1v-.1l-.1-.1v-.2c.1 0 .1 0 0 0 .1 0 .1 0 0 0z"/></g><g fill="#85C49F"><circle cx="110.3" cy="112" r=".4"/><path d="M110.4 111.9l-.1.1-.1-.1h-.1v.1l.1.1-.1.1v.1h.1l.1-.1.1.1h.1v-.1l-.1-.1v-.2c.1 0 .1 0 0 0 .1 0 0 0 0 0z"/></g><g fill="#85C49F"><circle cx="109.5" cy="112.7" r=".4"/><path d="M109.6 112.6l-.1.1-.1-.1h-.1v.1l.1.1-.1.1v.1h.1l.1-.1.1.1h.1v-.1l-.1-.1v-.2c.1 0 .1 0 0 0 .1-.1.1-.1 0 0z"/></g><g fill="#85C49F"><circle cx="108.8" cy="113.5" r=".4"/><path d="M108.9 113.3l-.1.1-.1-.1h-.1v.1l.1.1-.1.1v.1h.1l.1-.1.1.1h.1v-.1l-.1-.1v-.2c.1 0 .1 0 0 0 .1 0 0 0 0 0z"/></g><g fill="#85C49F"><circle cx="108.2" cy="114.3" r=".4"/><path d="M108.3 114.1l-.1.1-.1-.1h-.1v.1l.1.1-.1.1v.1h.1l.1-.1.1.1h.1v-.1l-.1-.1v-.2c.1 0 .1 0 0 0z"/></g><g fill="#85C49F"><circle cx="107.6" cy="115.2" r=".4"/><path d="M107.7 115l-.1.1-.1-.1h-.1v.1l.1.1-.1.1v.1h.1l.1-.1.1.1h.1v-.1l-.1-.1v-.2c.1 0 .1 0 0 0 0-.1 0-.1 0 0z"/></g><g fill="#85C49F"><circle cx="107.2" cy="116.1" r=".4"/><path d="M107.2 115.9l-.1.2-.1-.1h-.1v.1l.2.1-.1.2v.1h.1l.1-.2.2.1h.1v-.1l-.2-.1-.1-.3c.1 0 .1 0 0 0 .1-.1 0 0 0 0z"/></g><g fill="#85C49F"><circle cx="106.8" cy="117" r=".4"/><path d="M106.8 116.8l-.1.2-.2-.1h-.1v.1l.2.1-.1.2v.1h.1l.1-.2.2.1h.1v-.1l-.2-.1v-.3c.1 0 .1 0 0 0z"/></g><g fill="#85C49F"><circle cx="106.5" cy="118" r=".4"/><path d="M106.5 117.8v.2h-.2.2v.2-.2h.2-.2v-.2c.1 0 0 0 0 0z"/></g><g fill="#85C49F"><circle cx="106.2" cy="119" r=".4"/><path d="M106.2 118.8v.2h-.2.2v.2-.2h.2-.2v-.2c.1 0 .1 0 0 0 .1 0 0 0 0 0z"/></g><g fill="#85C49F"><circle cx="106.1" cy="120" r=".4"/><path d="M106.1 119.8v.2h-.2.2v.2-.2h.2-.2v-.2c.1 0 0 0 0 0z"/></g><g fill="#85C49F"><circle cx="106.1" cy="121" r=".4"/><path d="M106 120.8v.2h-.2.2v.2-.2h.2-.2v-.2c.1 0 .1 0 0 0z"/></g><g fill="#85C49F"><circle cx="106.1" cy="122.1" r=".4"/><path d="M106 121.9v.2h-.2.2v.2-.2h.2-.2v-.2c.1-.1.1-.1 0 0 .1-.1 0-.1 0 0z"/></g><g fill="#85C49F"><circle cx="118.9" cy="109.4" r=".4"/><path d="M119.1 109.3h-.2v-.2.2h-.2.2v.2-.2h.2c0 .1 0 .1 0 0 0 .1 0 0 0 0z"/></g><g fill="#85C49F"><circle cx="119.9" cy="109.5" r=".4"/><path d="M120.1 109.5h-.2v-.2.2h-.2.2v.2-.2h.2c0 .1 0 .1 0 0z"/></g><g fill="#85C49F"><circle cx="120.9" cy="109.7" r=".4"/><path d="M121.1 109.7h-.2v-.2.2h-.2.2v.2-.2h.2c0 .1 0 .1 0 0 0 .1 0 0 0 0z"/></g><g fill="#85C49F"><circle cx="121.9" cy="110" r=".4"/><path d="M122.1 110.1l-.2-.1.1-.2v-.1h-.1l-.1.2-.2-.1h-.1v.1l.2.1-.1.2v.1h.1l.1-.2h.3z"/></g><g fill="#85C49F"><circle cx="122.8" cy="110.4" r=".4"/><path d="M123 110.5l-.2-.1.1-.2v-.1h-.1l-.1.2-.2-.1h-.1v.1l.2.1-.1.2v.1h.1l.1-.2h.3c0 .1 0 0 0 0 .1 0 0 0 0 0z"/></g><g fill="#85C49F"><circle cx="123.7" cy="110.9" r=".4"/><path d="M123.9 111l-.1-.1.1-.1v-.1h-.1l-.1.1-.1-.1h-.1v.1l.1.1-.1.1v.1h.1l.1-.1h.2c.1 0 .1 0 0 0z"/></g><g fill="#85C49F"><circle cx="124.6" cy="111.5" r=".4"/><path d="M124.8 111.5l-.1-.1.1-.1v-.1h-.1l-.1.1-.1-.1h-.1v.1l.1.1-.1.1v.1h.1l.1-.1h.2c0 .1 0 .1 0 0 0 .1 0 .1 0 0z"/></g><g fill="#85C49F"><circle cx="125.4" cy="112.1" r=".4"/><path d="M125.6 112.2l-.1-.1.1-.1v-.1h-.1l-.1.1-.1-.1h-.1v.1l.1.1-.1.1v.1h.1l.1-.1h.2c0 .1 0 .1 0 0z"/></g><g fill="#85C49F"><circle cx="126.2" cy="112.8" r=".4"/><path d="M126.3 112.9l-.1-.1.1-.1v-.1h-.1l-.1.1-.1-.1h-.1v.1l.1.1-.1.1v.1h.1l.1-.1h.2c0 .1 0 .1 0 0 .1 0 .1 0 0 0z"/></g><g fill="#85C49F"><circle cx="126.9" cy="113.5" r=".4"/><path d="M127 113.7l-.1-.1.1-.1v-.1h-.1l-.1.1-.1-.1h-.1v.1l.1.1-.1.1v.1h.1l.1-.1h.2z"/></g><g fill="#85C49F"><circle cx="127.5" cy="114.3" r=".4"/><path d="M127.6 114.5l-.1-.1.1-.1v-.1h-.1l-.1.1-.1-.1h-.1v.1l.1.1-.1.1v.1h.1l.1-.1h.2c0 .1 0 .1 0 0z"/></g><path fill="#85C49F" d="M117.8 109.9c-6.2 0-11.2 5-11.2 11.2 0 6.2 5 11.2 11.2 11.2 6.2 0 11.2-5 11.2-11.2 0-6.2-5-11.2-11.2-11.2zm10.1 11.2c0 .4 0 .7-.1 1l-5.7-.9 5.7-.6c.1.2.1.4.1.5zm-6.7 2l-1.4-1.2 1.8.3 5.6 2.5c-.1.3-.2.6-.4.9l-5.6-2.5zm5.5 2.6c-.2.4-.5.9-.8 1.3l-4.5-3.6 5.3 2.3zm-18.9-4.6c0-.4 0-.7.1-1.1l5.7.9-5.7.6c-.1-.1-.1-.3-.1-.4zm6.7-2l1.4 1.1-1.8-.3-5.5-2.5c.1-.3.2-.6.4-.9l5.5 2.6zm-5.5-2.6c.2-.4.5-.9.8-1.3l4.5 3.6-5.3-2.3zm9.2 4.9l-.2.1h-.4l-.1-.1-.1-.1V121l.1-.1.1-.1.1-.1H118l.1.1.1.1.1.1V121.3l-.1.1zm.3-.4zm0-.1zm0 0zm0-.1zm-.1-.1zm-.1-.1zm-.1-.1zm-.1 0zm0-.1zm-.1.1zm-.2 0zm-.1-.1zm-.1.1zm-.1 0zm0 .1zm-.2.2zm-.1.1zm0 .1zm-.1.1zm.1 0zm0 .2zm0 0zm0 .1zm.1.1zm.1.1zm.1.1zm.1 0zm0 .1zm.1-.1zm.2 0zm.1.1zm.1-.1zm.1 0zm0-.1zm.2-.2zm.1-.1zm0-.1zm.1-.1zm0-.1h.1-.1zm.1-.1l.1-.1h.2l-.2.1h-.1zm0-.1v-.1.1zm0-.1l.1-.1h.2l-.1.2-.2-.1zm-.1-.1zm-.2 0zm-.1-.1l.1-.1-.1.1zm0-.2v-.1l.2-.1v.2h-.2zm-.1 0v-.1.1zm-.1-.1v-.1l.1-.2v.2l-.1.1zm-.1.1h-.1.1zm-.1.1zm-.1-.1v-.1.1zm-.2-.1l-.1-.1v-.2l.1.2v.1zm0 .1h-.1.1zm-.2 0l-.1-.1v-.2l.2.1-.1.2zm0 .1zm0 .1zm0 .2zm-.1 0zm-.2.1l-.1-.1.1.1zm-.1 0h-.1l-.2-.1h.2l.1.1zm0 .1v.1l-.1-.1h.1zm-.1.2l-.1.1-.2-.1.2-.1.1.1zm.1 0v.1-.1zm0 .2l-.3.1.2-.1h.1zm0 0zm0 .2l-.1.1h-.2l.1-.2.2.1zm.1 0zm.2.1zm0 .1l-.1.1.1-.1zm.1.2v.1l-.2.1v-.2h.2zm.1-.1v.1-.1zm.1.2v.1l-.1.2v-.2l.1-.1zm.1-.1h.1l-.1.1v-.1zm.1-.1zm.1.1v.1-.1zm.2.1l.1.1v.2l-.1-.2v-.1zm0-.1h.1-.1zm.2 0l.1.1v.2l-.2-.1.1-.2zm0-.1zm0-.2zm0-.1zm.1 0zm.2-.1l.1.1-.1-.1zm.1 0h.1l.2.1h-.2l-.1-.1zm0-.1v-.1.1zm.1-.2l.1-.1.2.1-.2.1-.1-.1zm.2-.1l.2-.2.5.1-.5.2-.2-.1zm.3-.2l.5-.3 1.6-.2-1.5.6-.6-.1zm-.2-.1h-.3l.2-.2h.5l-.4.2zm0-.3l.4-.4 1.5-.6-1.3 1h-.6zm-.1 0h-.3l.1-.2.5-.2-.3.4zm-.3 0h-.1v-.1l.2-.1-.1.2zm-.1-.2v-.2l.4-.3-.2.4-.2.1zm0-.3l.1-.5 1-1.3-.7 1.5-.4.3zm-.1 0l-.2.1v-.3l.3-.4-.1.6zm-.2-.2l-.1-.6.7-1.5-.3 1.6-.3.5zm-.1.1l-.2.2-.1-.2.2-.4.1.4zm-.2.3l-.1.1-.1-.1.1-.2.1.2zm-.3-.1l-.1-.2.1-.5.2.5-.2.2zm-.2-.3l-.3-.5-.2-1.6.6 1.5-.1.6zm0 .1v.3l-.2-.2v-.5l.2.4zm-.3 0l-.4-.4-.6-1.5 1 1.3v.6zm0 .1v.3l-.2-.1-.2-.5.4.3zm0 .4v.1h-.1l-.1-.2.2.1zm0 .2h-.1.1zm-.1.1h-.1l-.1-.2h.2v.2zm-.3 0h-.3l-.4-.3.5.1.2.2zm-.4.1l-.6.1-1.5-.7 1.6.3.5.3zm.1 0l.2.2-.2.1-.5-.2.5-.1zm-.1.3l-.5.2-1.6-.3 1.6-.2.5.3zm.1.1l.2.1-.2.1-.5-.1.5-.1zm-.1.3l-.5.3-1.6.2 1.5-.6.6.1zm.2 0h.3l-.2.2h-.5l.4-.2zm0 .4l-.4.4-1.5.6 1.3-1h.6zm.1 0h.3l-.1.2-.5.2.3-.4zm.3-.1h.1v.1l-.2.1.1-.2zm.1.3v.3l-.4.3.2-.4.2-.2zm0 .3l-.1.6-1 1.3.7-1.5.4-.4zm.1 0l.2-.1v.3l-.3.4.1-.6zm.2.2l.1.6-.7 1.5.3-1.6.3-.5zm.1-.1l.2-.2.1.2-.2.4-.1-.4zm.2-.3l.1-.1.1.1-.1.2-.1-.2zm.3.1l.1.2-.1.5-.2-.5.2-.2zm.2.3l.3.5.2 1.6-.6-1.5.1-.6zm0-.1v-.2l.2.2v.5l-.2-.5zm.3 0l.4.4.6 1.5-1-1.3v-.6zm0-.1v-.3l.2.1.2.5-.4-.3zm0-.4v-.1h.1l.1.2-.2-.1zm0-.2h.1-.1zm.1-.1h.1l.1.2h-.2v-.2zm.3 0h.3l.4.3-.5-.1-.2-.2zm.3-.1l.5-.1 1.5.7-1.6-.3-.4-.3zm-.1-.1l-.2-.2.2-.1.4.2-.4.1zm.2-.3l.5-.2 1.6.3-1.6.2-.5-.3zm.7-.2l1.7-.6 6.1-.6c0 .3.1.6.1.9l-6.1.6-1.8-.3zm2-.8l5.4-2c.1.5.3 1 .3 1.5l-5.7.5zm-.3 0l-1.8.2 1.5-1.1 5.7-2.2.3.9-5.7 2.2zm-.1-1l4.7-3.3c.3.4.5.9.7 1.3l-5.4 2zm-.3.1l-1.7.6 1.1-1.4 4.9-3.5c.2.2.4.5.5.8l-4.8 3.5zm-1.9.7l-.5.2.2-.5 1.3-1-1 1.3zm-.2-.5l.7-1.6 3.8-4.7c.3.2.5.4.7.6l-3.8 4.7-1.4 1zm.9-1.9l2.4-5.2c.4.2.9.5 1.3.8l-3.7 4.4zm-.2.2l-1.1 1.4.3-1.8 2.5-5.5c.3.1.6.2.9.4l-2.6 5.5zm-.8-.7l.9-5.7c.5.1 1 .3 1.4.4l-2.3 5.3zm-.2.3l-.7 1.7-.2-1.8 1-6c.3 0 .6.1.9.1l-1 6zm-.8 1.8l-.2.5-.2-.5.3-1.6.1 1.6zm-.5-.2l-.6-1.7-.6-6.1c.3 0 .6-.1.9-.1l.6 6.1-.3 1.8zm-.7-2l-2-5.4c.5-.1 1-.3 1.5-.3l.5 5.7zm0 .4l.2 1.8-1.1-1.5-2.2-5.7.9-.3 2.2 5.7zm-1.1 0l-3.4-4.7c.4-.3.9-.5 1.3-.7l2.1 5.4zm.1.3l.6 1.7-1.4-1.1-3.6-4.9c.2-.2.5-.4.8-.5l3.6 4.8zm.8 1.9l.2.5-.5-.2-1-1.3 1.3 1zm.2.7l.1.2h-.3l-.3-.4.5.2zm-.3.1l-.6-.1-1.2-1 1.5.7.3.4zm-2.9-.5l-5.7-.9c.1-.5.3-1 .4-1.4l5.3 2.3zm.3.2l1.7.8-1.8.2-6-1c0-.3.1-.6.2-.9l5.9.9zm-.1 1l1.8.3-1.7.6-6.1.6c0-.3-.1-.6-.1-.9l6.1-.6zm-.2 1.1l-5.4 2c-.1-.5-.3-1-.3-1.5l5.7-.5zm.3-.1l1.8-.2-1.5 1.1-5.7 2.2-.3-.9 5.7-2.2zm.1 1.1l-4.7 3.4c-.3-.4-.5-.9-.7-1.3l5.4-2.1zm.3-.1l1.7-.6-1.1 1.4-5 3.6c-.2-.2-.4-.5-.5-.8l4.9-3.6zm1.9-.7l.5-.2-.2.5-1.3 1 1-1.3zm.2.5l-.7 1.7-3.9 4.7c-.3-.2-.5-.4-.7-.6l3.9-4.7 1.4-1.1zm-.9 1.9l-2.4 5.3c-.4-.2-.9-.5-1.3-.8l3.7-4.5zm.2-.2l1.1-1.4-.3 1.8-2.5 5.6c-.3-.1-.6-.2-.9-.4l2.6-5.6zm.8.7l-.9 5.7c-.5-.1-1-.3-1.4-.4l2.3-5.3zm.2-.3l.7-1.7.2 1.8-1 6c-.3 0-.6-.1-.9-.1l1-6zm.8-1.8l.2-.5.2.5-.3 1.6-.1-1.6zm.5.1l.6 1.7.6 6.1c-.3 0-.6.1-.9.1l-.6-6.1.3-1.8zm.7 2.1l2 5.4c-.5.2-1 .3-1.5.3l-.5-5.7zm0-.4l-.2-1.8 1.1 1.5 2.2 5.7-.9.3-2.2-5.7zm1.1 0l3.4 4.7c-.4.3-.9.5-1.3.7l-2.1-5.4zm-.2-.4l-.6-1.7 1.4 1.1 3.6 4.9c-.2.2-.5.4-.8.5l-3.6-4.8zm-.7-1.8l-.2-.5.5.2 1 1.3-1.3-1zm-.2-.7l-.1-.2h.2l.3.4-.4-.2zm.3-.1l.5.1 1.3 1-1.5-.7-.3-.4zm2.8.4l5.7.9c-.1.5-.3 1-.4 1.4l-5.3-2.3zm-.3-.1l-1.6-.7 1.8-.2 6 1c0 .3-.1.6-.1.9l-6.1-1zm4-7.4l-4.7 3.3 3.6-4.4c.5.4.8.7 1.1 1.1zm-6.7-3.7l-.9 5.7-.6-5.7h1.5zm-7.3 2.2l3.4 4.7-4.5-3.6c.3-.4.7-.8 1.1-1.1zm-1.2 1.1l4.7 3.9 1.1 1.5-1.7-.7-4.7-3.9c.2-.3.4-.6.6-.8zm-.4 13l4.7-3.4-3.7 4.5c-.3-.4-.6-.7-1-1.1zm6.8 3.7l.9-5.7.6 5.7h-1.5zm7.3-2.2l-3.4-4.7 4.5 3.6c-.3.4-.7.8-1.1 1.1zm1.2-1.1l-4.7-3.9-1.1-1.5 1.7.7 4.7 3.9c-.2.3-.4.6-.6.8zM82.5 110.1c-6.2 0-11.2 5-11.2 11.2 0 6.2 5 11.2 11.2 11.2 6.2 0 11.2-5 11.2-11.2 0-6.2-5.1-11.2-11.2-11.2zm10 11.2c0 .4 0 .7-.1 1l-5.7-.9 5.7-.6c.1.2.1.3.1.5zm-6.7 2l-1.4-1.2 1.8.3 5.6 2.5c-.1.3-.2.6-.4.9l-5.6-2.5zm5.5 2.6c-.2.4-.5.9-.8 1.3l-4.5-3.6 5.3 2.3zm-18.9-4.6c0-.4 0-.7.1-1.1l5.7.9-5.7.6c-.1-.1-.1-.3-.1-.4zm6.7-2.1l1.4 1.1-1.8-.3-5.5-2.5c.1-.3.2-.6.4-.9l5.5 2.6zm-5.5-2.5c.2-.4.5-.9.8-1.3l4.5 3.6-5.3-2.3zm9.2 4.9l-.2.1h-.4l-.1-.1-.1-.1V121.2l.1-.1.1-.1.1-.1H82.6l.1.1.1.1.1.1V121.5l-.1.1zm.3-.4zm0-.1zm0 0zm0-.2zm-.1 0zm-.1-.1zm-.1-.1zm-.1 0zm0-.1zm-.1 0zm-.2 0zm-.1 0zm-.1.1zm-.1 0zm0 0zm-.2.3zm-.1.1zm0 .1zm0 .1zm0 0zm0 .1zm0 .1zm0 .1zm.1 0zm.2.2zm0 .1zm.1 0zm.1 0zm0 0zm.2 0zm.1.1zm.1-.1zm.1 0zm0-.1zm.3-.3zm0 0zm0-.1zm.1-.1zm0-.1h.1-.1zm.2-.1l.1-.1h.2l-.2.1h-.1zm-.1-.1v-.1.1zm0-.2l.1-.1h.2l-.1.2-.2-.1zm-.1 0zm-.2 0zm0-.1l.1-.1-.1.1zm-.1-.2v-.1l.2-.1v.2h-.2zm0 0v-.1.1zm-.2-.1v-.1l.1-.2v.2l-.1.1zm0 0h-.1.1zm-.2.1zm-.1 0v-.1.1zm-.1-.1l-.1-.1v-.2l.1.2v.1zm-.1.1h-.1.1zm-.2 0l-.1-.1v-.2l.2.1-.1.2zm0 .1zm0 .1zm0 .2zm-.1 0zm-.2 0l-.1-.1.1.1zm-.1.1h-.1l-.2-.1h.2l.1.1zm0 .1v.1l-.1-.1h.1zm-.1.1l-.1.1-.2-.1.2-.1.1.1zm.1.1v.1-.1zm0 .2l-.3.1.2-.1h.1zm.1 0zm0 .2l-.1.1h-.2l.1-.2.2.1zm0 0zm.2 0zm.1.2l-.1.1.1-.1zm0 .2v.1l-.2.1v-.2h.2zm.1-.1v.1-.1zm.1.2v.1l-.1.2v-.2l.1-.1zm.1-.1h.1l-.1.1v-.1zm.1-.1zm.1.1v.1-.1zm.2.1l.1.1v.2l-.1-.2v-.1zm0-.1h.1-.1zm.2 0l.1.1v.2l-.2-.1.1-.2zm0-.1zm0-.2zm.1-.1zm.1-.1zm.1 0l.1.1-.1-.1zm.1-.1h.1l.2.1h-.2l-.1-.1zm0 0v-.1.1zm.1-.2l.1-.1.2.1-.2.1-.1-.1zm.2-.1l.2-.2.5.1-.5.2-.2-.1zm.3-.3l.5-.3 1.6-.2-1.5.6-.6-.1zm-.1 0h-.3l.2-.2h.5l-.4.2zm0-.3l.4-.4 1.5-.6-1.3 1h-.6zm-.2 0h-.3l.1-.2.5-.2-.3.4zm-.3 0h-.1v-.1l.2-.1-.1.2zm-.1-.2v-.2l.4-.3-.2.4-.2.1zm0-.4l.1-.5 1-1.3-.7 1.5-.4.3zm-.1.1l-.2.1v-.3l.3-.4-.1.6zm-.2-.2l-.1-.6.7-1.5-.3 1.6-.3.5zm-.1.1l-.2.2-.1-.2.2-.4.1.4zm-.2.3l-.1.1-.1-.1.1-.2.1.2zm-.2-.1l-.1-.2.1-.5.2.5-.2.2zm-.3-.3l-.3-.5-.2-1.6.6 1.5-.1.6zm0 .1v.3l-.2-.2v-.5l.2.4zm-.3 0l-.4-.4-.6-1.5 1 1.3v.6zm0 .1v.3l-.2-.1-.2-.5.4.3zm0 .4v.1h-.1l-.1-.2.2.1zm0 .2h-.1.1zm-.1.1h-.1l-.1-.2h.2v.2zm-.3 0h-.3l-.4-.3.5.1.2.2zm-.3.1l-.6.1-1.5-.7 1.6.3.5.3zm.1 0l.2.2-.2.1-.5-.2.5-.1zm-.2.3l-.5.2-1.6-.3 1.6-.2.5.3zm.1.1l.2.1-.2.1-.5-.1.5-.1zm-.1.3l-.5.3-1.6.2 1.5-.6.6.1zm.2 0h.3l-.2.2h-.5l.4-.2zm0 .4l-.4.4-1.5.6 1.3-1h.6zm.1-.1h.3l-.1.2-.5.2.3-.4zm.4 0h.1v.1l-.2.1.1-.2zm.1.2v.3l-.4.3.2-.4.2-.2zm-.1.4l-.1.6-1 1.3.7-1.5.4-.4zm.1-.1l.2-.1v.3l-.3.4.1-.6zm.2.3l.1.6-.7 1.5.3-1.6.3-.5zm.1-.1l.2-.2.1.2-.2.4-.1-.4zm.2-.3l.1-.1.1.1-.1.2-.1-.2zm.3.1l.1.2-.1.5-.2-.5.2-.2zm.2.3l.3.5.2 1.6-.6-1.5.1-.6zm0-.1v-.2l.2.2v.5l-.2-.5zm.4 0l.4.4.6 1.5-1-1.3v-.6zm-.1-.2v-.3l.2.1.2.5-.4-.3zm0-.3v-.1h.1l.1.2-.2-.1zm0-.3h.1-.1zm.1 0h.1l.1.2h-.2v-.2zm.3-.1h.3l.4.3-.5-.1-.2-.2zm.4 0l.5-.1 1.5.7-1.6-.3-.4-.3zm-.1-.1l-.2-.2.2-.1.4.2-.4.1zm.1-.3l.5-.2 1.6.3-1.6.2-.5-.3zm.7-.2l1.7-.6 6.1-.6c0 .3.1.6.1.9l-6.1.6-1.8-.3zm2-.8l5.4-2c.1.5.3 1 .3 1.5l-5.7.5zm-.3 0l-1.8.2 1.5-1.1 5.7-2.2.3.9-5.7 2.2zm-.1-1.1l4.7-3.3c.3.4.5.9.7 1.3l-5.4 2zm-.3.2l-1.7.6 1.1-1.4 4.9-3.5c.2.2.4.5.5.8l-4.8 3.5zm-1.9.7l-.5.2.2-.5 1.3-1-1 1.3zm-.2-.5l.7-1.6 3.8-4.7c.3.2.5.4.7.6l-3.8 4.7-1.4 1zm.9-2l2.4-5.2c.4.2.9.5 1.3.8l-3.7 4.4zm-.2.3l-1.1 1.4.3-1.8 2.5-5.5c.3.1.6.2.9.4l-2.6 5.5zm-.8-.7l.9-5.7c.5.1 1 .3 1.4.4l-2.3 5.3zm-.1.3l-.7 1.7-.2-1.8 1-6c.3 0 .6.1.9.1l-1 6zm-.9 1.8l-.2.5-.2-.5.3-1.6.1 1.6zm-.5-.2l-.6-1.7-.6-6.1c.3 0 .6-.1.9-.1l.6 6.1-.3 1.8zm-.7-2l-2-5.4c.5-.1 1-.3 1.5-.3l.5 5.7zm0 .4l.2 1.8-1.1-1.5-2.2-5.7.9-.3 2.2 5.7zm-1.1 0l-3.4-4.7c.4-.3.9-.5 1.3-.7l2.1 5.4zm.2.3l.6 1.7-1.4-1.1-3.6-4.9c.2-.2.5-.4.8-.5l3.6 4.8zm.7 1.9l.2.5-.5-.2-1-1.3 1.3 1zm.2.6l.1.2h-.3l-.3-.4.5.2zm-.3.2l-.6-.1-1.2-1 1.5.7.3.4zm-2.9-.5l-5.7-.9c.1-.5.3-1 .4-1.4l5.3 2.3zm.4.2l1.7.8-1.8.2-6-1c0-.3.1-.6.2-.9l5.9.9zm-.2 1l1.8.3-1.7.6-6.1.6c0-.3-.1-.6-.1-.9l6.1-.6zm-.2 1l-5.4 2c-.1-.5-.3-1-.3-1.5l5.7-.5zm.3 0l1.8-.2-1.5 1.1-5.7 2.2-.3-.9 5.7-2.2zm.1 1.1l-4.7 3.4c-.3-.4-.5-.9-.7-1.3l5.4-2.1zm.3-.1l1.7-.6-1.1 1.4-5 3.6c-.2-.2-.4-.5-.5-.8l4.9-3.6zm1.9-.7l.5-.2-.2.5-1.3 1 1-1.3zm.2.4l-.7 1.7-3.9 4.7c-.3-.2-.5-.4-.7-.6l3.9-4.7 1.4-1.1zm-.9 2l-2.4 5.3c-.4-.2-.9-.5-1.3-.8l3.7-4.5zm.2-.3l1.1-1.4-.3 1.8-2.5 5.6c-.3-.1-.6-.2-.9-.4l2.6-5.6zm.8.8l-.9 5.7c-.5-.1-1-.3-1.4-.4l2.3-5.3zm.2-.3l.7-1.7.2 1.8-1 6c-.3 0-.6-.1-.9-.1l1-6zm.8-1.9l.2-.5.2.5-.3 1.6-.1-1.6zm.5.2l.6 1.7.6 6.1c-.3 0-.6.1-.9.1l-.6-6.1.3-1.8zm.7 2l2 5.4c-.5.2-1 .3-1.5.3l-.5-5.7zm0-.3l-.2-1.8 1.1 1.5 2.2 5.7-.9.3-2.2-5.7zm1.1-.1l3.4 4.7c-.4.3-.9.5-1.3.7l-2.1-5.4zm-.1-.3l-.6-1.7 1.4 1.1 3.6 4.9c-.2.2-.5.4-.8.5l-3.6-4.8zm-.7-1.8l-.2-.5.5.2 1 1.3-1.3-1zm-.3-.7l-.1-.2h.2l.3.4-.4-.2zm.3-.2l.5.1 1.3 1-1.5-.7-.3-.4zm2.8.5l5.7.9c-.1.5-.3 1-.4 1.4l-5.3-2.3zm-.3-.1l-1.6-.7 1.8-.2 6 1c0 .3-.1.6-.1.9l-6.1-1zm4-7.4l-4.7 3.3 3.6-4.4c.5.3.8.7 1.1 1.1zm-6.7-3.7l-.9 5.7-.6-5.7h1.5zm-7.3 2.2l3.4 4.7-4.5-3.6c.3-.5.7-.8 1.1-1.1zm-1.2 1.1l4.7 3.9 1.1 1.5-1.7-.7-4.7-3.9c.2-.3.4-.6.6-.8zm-.3 13l4.7-3.4-3.7 4.5c-.4-.4-.7-.7-1-1.1zm6.7 3.6l.9-5.7.6 5.7h-.4c-.4.1-.8.1-1.1 0zm7.4-2.1l-3.4-4.7 4.5 3.6-1.1 1.1zm1.1-1.1l-4.7-3.9-1.1-1.5 1.7.7 4.7 3.9c-.2.3-.4.5-.6.8z"/><g fill="#85C49F"><path d="M79.5 55.8v-9.3h4v1.4h-2.6v2.5h1.9v1.4h-1.9v2.5h2.6v1.4h-4zM89.1 53.5c0 .7-.2 1.2-.5 1.7-.2.3-.6.5-1 .7-.2.1-.5.1-.8.1-.6 0-1-.1-1.4-.4-.3-.2-.5-.5-.7-.9-.2-.4-.3-.8-.3-1.3l1.3-.1c.1.5.2.9.4 1.2.2.2.4.3.6.3.3 0 .6-.2.7-.5.1-.1.1-.4.1-.6 0-.4-.2-.8-.5-1.2l-1.2-1.2c-.5-.5-.8-.9-1-1.2-.2-.4-.3-.8-.3-1.3 0-.8.3-1.5.9-1.9.4-.3.8-.4 1.3-.4s.9.1 1.3.3c.3.2.5.4.7.7.2.3.3.7.3 1.1l-1.3.2c0-.4-.1-.7-.3-.9-.1-.2-.3-.2-.6-.2s-.5.1-.6.3c-.1.2-.2.4-.2.7 0 .4.2.9.6 1.3.1.2.3.4.6.6l.6.6c.3.3.6.7.8 1 .1.2.2.3.2.4.3.3.3.6.3.9zM91.6 47.9h-1.5v-1.4h4.4v1.4H93v7.9h-1.4v-7.9zM97.8 51c0 .4-.1.7-.4.9-.3.3-.6.4-.9.4h-1.3v-5.4h1.3c.4 0 .7.1.9.4.3.3.4.6.4.9V51zm-1.7.5h.5c.1 0 .2 0 .3-.1.1-.1.1-.2.1-.4v-2.8c0-.1 0-.2-.1-.3-.1-.1-.2-.1-.3-.1h-.5v3.7zM101.4 49.1c0-.9.2-1.6.7-2 .4-.4 1-.6 1.6-.6.6 0 1.1.2 1.6.7.4.5.7 1 .7 1.6 0 .6-.1 1.2-.4 1.8-.2.3-.5.9-1.1 1.7-.2.2-.4.6-.7 1l-.3.4c-.2.2-.3.4-.4.6 0 .1-.1.1-.1.1h2.8v1.4h-4.5v-1.3s.1-.2.3-.5c.1-.1.2-.3.3-.5l.4-.5c.2-.3.5-.8 1-1.4.4-.6.8-1.2 1-1.6.2-.4.3-.8.3-1.1 0-.3-.1-.5-.2-.7-.2-.2-.4-.3-.7-.3-.4 0-.7.2-.8.7-.1.1-.1.3-.1.5v.4h-1.4v-.4zM111.6 53.7c0 .6-.2 1.1-.7 1.6-.4.4-1 .6-1.6.6-.6 0-1.1-.2-1.6-.7-.4-.4-.7-1-.7-1.6v-5.1c0-.6.2-1.1.7-1.6.4-.4 1-.7 1.6-.7.6 0 1.1.2 1.6.7.4.4.6 1 .6 1.6v5.2zm-1.5-5.1c0-.2-.1-.4-.2-.6-.2-.2-.4-.2-.6-.2-.2 0-.4.1-.6.2-.2.2-.2.3-.2.6v5.1c0 .2.1.4.2.6.2.2.3.2.6.2.2 0 .4-.1.6-.2.2-.2.2-.3.2-.6v-5.1zM113.9 55.8v-7.2h-1.2v-1c.3 0 .7-.2 1-.4.3-.2.5-.5.7-.8h1v9.3h-1.5zM116.5 52.4l2.5-5.9h1.4v5.9h.9v1.4h-.9v2H119v-2h-2.5v-1.4zm2.5 0v-2.9l-1.2 2.9h1.2z"/></g><g fill="#85C49F"><path d="M117.3 176.1c-.1-.1-.3-.1-.4-.1-.1 0-.3.1-.3.2-.1.1-.1.2-.1.3l.5 2.8c0 .1.1.2.2.3.1.1.3.1.4.1.1 0 .3-.1.3-.2.1-.1.1-.2.1-.3l-.5-2.8c0-.1-.1-.2-.2-.3zM100.2 180.3l.7-.1-.4-2"/><path d="M127.9 170.6c-8.7 3.1-18.1 4.8-27.9 4.8-9.4 0-18.4-1.5-26.8-4.4l-2.4 8.4c9.1 3 18.9 4.7 29.1 4.7 10.6 0 20.7-1.8 30.2-5.1l-2.2-8.4zM81 176.2l-.1.6-.9-.2v-.6c0-.1 0-.2-.1-.4-.1-.1-.2-.2-.3-.2h-.4c-.1.1-.2.2-.2.3l-.6 2.8c0 .1 0 .2.1.3.1.1.2.2.3.2h.4c.1-.1.2-.2.2-.3l.2-.7.9.2-.2.7c-.1.3-.3.6-.6.8-.3.2-.7.2-1.1.1-.4-.1-.7-.3-.9-.6-.2-.3-.3-.6-.2-1l.6-2.8c.1-.3.3-.6.6-.8.3-.2.7-.2 1.1-.1.4.1.7.3.9.6.3.4.4.8.3 1.1zm1.7 4.5l-.9-.2.4-2.2-.7-3.2 1 .2.3 2 1-1.7 1 .2-1.8 2.8-.3 2.1zm5.3-3.3l-.1.6-1-.1.1-.6c0-.1 0-.2-.1-.3-.1-.1-.2-.2-.4-.2-.1 0-.3 0-.4.1-.1.1-.2.2-.2.3l-.4 2.8c0 .1 0 .2.1.3.1.1.2.2.4.2.1 0 .3 0 .4-.1.1-.1.2-.2.2-.3l.1-.7 1 .1-.1.7c-.1.3-.2.6-.6.8-.3.2-.7.3-1.1.2-.4-.1-.7-.2-1-.5-.2-.3-.3-.6-.3-.9l.4-2.8c.1-.3.2-.6.6-.8.3-.2.7-.3 1.1-.2.4.1.7.2 1 .5.2.2.3.6.3.9zm2.8 4.4l-2.5-.3.6-5.2.9.1-.5 4.4 1.6.2-.1.8zm3.7-4.2l-1.7-.1-.1 1.4 1.3.1-.1.8-1.3-.1-.1 1.4 1.7.1-.1.8-2.7-.2.4-5.2 2.7.2v.8zm3.4 4.6H97l.1-2.2H96l-.1 2.2H95l.2-5.3h.9l-.1 2.2h1.1l.1-2.2h.9l-.2 5.3zm3.3 0l-.2-1.2h-1l-.2 1.2h-1l1-5.3h1.3l1.1 5.3h-1zm4.3-.4c-.3.3-.6.4-1 .4s-.8-.1-1.1-.3c-.3-.2-.5-.5-.5-.9l-.1-2.9c0-.3.1-.7.4-.9.3-.3.6-.4 1-.4s.8.1 1.1.3.5.5.5.9v.6h-1v-.6c0-.1-.1-.2-.2-.3-.1-.1-.2-.1-.4-.1-.1 0-.3.1-.4.2-.1.1-.1.2-.1.3l.1 2.9c0 .1.1.2.2.3.1.1.2.1.4.1.1 0 .3-.1.4-.2.1-.1.1-.2.1-.3v-.7h1v.7c0 .3-.1.6-.4.9zm3.5 0l-1.2-2-.2.5.2 1.7-.9.1-.5-5.2.9-.1.2 1.9 1-2 1-.1-1.1 2.3 1.8 3-1.2-.1zm1.9-.2l-.1-.8.9-.1.1.8-.9.1zm4.1-.9c-.3.3-.6.5-1 .5-.4.1-.8 0-1.1-.2-.3-.2-.5-.5-.6-.8l-.4-2.8c-.1-.3 0-.7.3-.9.3-.3.6-.5 1-.5.4-.1.8 0 1.1.2.3.2.5.5.6.8l.1.6-1 .1-.1-.6c0-.1-.1-.2-.2-.3-.1-.1-.2-.1-.4-.1-.1 0-.3.1-.4.2-.1.1-.1.2-.1.3l.4 2.8c0 .1.1.2.2.3.1.1.2.1.4.1.1 0 .3-.1.4-.2.1-.1.1-.2.1-.3l-.1-.7 1-.1.1.7c0 .3-.1.6-.3.9zm3.7-.7c-.2.3-.6.5-1 .6-.4.1-.8 0-1.1-.2-.3-.2-.5-.5-.6-.8l-.5-2.8c-.1-.3 0-.7.3-1 .2-.3.6-.5 1-.6.4-.1.8 0 1.1.2.3.2.5.5.6.8l.5 2.8c.1.4 0 .7-.3 1zm4.8-.7l-.8-3.2v3.4l-.7.2-1.7-3 .8 3.2-.9.2-1.2-5.1 1.3-.3 1.7 3.5-.1-3.9 1.3-.3 1.2 5.1-.9.2z"/></g><path fill="none" d="M66.2 35.3c.5-.3.9-.8 1.2-1.4.3-.5.4-1.1.4-1.6 0-.7-.2-1.4-.7-2.1-.2-.3-.4-.5-.6-.7-.4-.4-.8-.7-1.2-.8-.6-.2-1.1-.3-1.7-.1.2-.3.3-.6.4-.9.2-.8 0-1.5-.5-2.3-.3-.5-.6-.8-1-1.1-.6-.5-1.3-.7-2-.6-.9.1-1.7.3-2.5.8l-3 1.9 7.2 11.2 4-2.3zm-5.8-5.6l-1.8-2.8.8-.5c.4-.3.8-.3 1.2-.3.4.1.8.3 1.1.8.2.3.3.5.3.8.1.6-.1 1.2-.7 1.6l-.9.4zm1.8 1c.5-.3.9-.4 1.4-.3.5.1.9.5 1.3 1.1.2.3.3.5.3.8.1.8-.2 1.3-.8 1.8l-.8.5-2.2-3.3.8-.6zM72.5 31.7l-.7-3 2.3-1 1.8 2.6 2.3-1-7.9-11-3 1.3 3 13.2 2.2-1.1zm.4-5.7l-1.6.7-1.4-5.1 3 4.4zM85.8 27l-.6-2-3.9 1.2-3.1-10.9-2.3.7 3.7 12.7M90.8 26l-.8-8.3 3.1 8.1 1.9-.2 1.2-8.5.8 8.3 2.4-.3L98 11.9l-3.2.3-1.2 9.8-3.1-9.3-3.4.3 1.3 13.2M52 135.4c.7-.6 1-1.3 1-2.3 0-1-.3-1.8-1-2.6s-1.5-1.2-2.4-1.4c-.9-.2-1.8.1-2.4.6l-5.5 4.7c-.7.6-1 1.3-1 2.3 0 1 .3 1.8 1 2.6s1.5 1.3 2.4 1.4c.9.2 1.8-.1 2.4-.6l5.5-4.7zm-8 3.1c-.3-.1-.6-.2-.9-.5-.2-.3-.4-.6-.4-.9 0-.3.1-.6.4-.8l5.5-4.7c.2-.2.5-.3.9-.2.3.1.6.2.9.5.2.3.4.6.4.9 0 .3-.1.6-.4.8l-5.5 4.7c-.3.2-.6.3-.9.2zM44.3 129.5l1.6-1.1c.8-.5 1.3-1.2 1.4-1.9.2-.9-.1-1.8-.8-2.9l-2-3.1-11.1 7.3 1.3 2 4.2-2.7.7 1.1c0 .1.1.1.1.2l-3.4 3.9 1.4 2.1 3.9-4.6c1.1.3 2 .2 2.7-.3zm-3-2.4l-.8-1.2 3.6-2.3.8 1.2c.5.8.4 1.3-.2 1.8l-1.6 1.1c-.3.2-.6.2-.9.1-.4-.1-.7-.3-.9-.7zM54.7 44.5l-1.5-1.3-2.7 3.1-8.5-7.5-1.6 1.8 10 8.8M35 119.8c.4.9 1.1 1.6 2 2 .9.4 1.7.4 2.5 0l1.7-.8c.8-.4 1.4-1 1.6-1.8.3-.9.1-1.8-.3-2.9l-1.6-3.4-12 5.7 1 2.1 4.5-2.1.6 1.2zm5-3.9l.6 1.3c.2.4.2.7.1 1-.1.3-.3.5-.6.7l-1.8.8c-.3.1-.6.1-.9 0-.3-.1-.6-.4-.7-.7l-.6-1.3 3.9-1.8zM36.7 51.3l6 4c.7.5 1.5.6 2.5.3.9-.3 1.7-.8 2.2-1.7.6-.9.8-1.8.7-2.7-.1-1-.5-1.7-1.3-2.2L43 46.5l-2.1 3.1 1.7 1.1.7-1.1 2.2 1.4c.3.2.4.4.5.8 0 .3 0 .7-.3 1-.2.3-.5.5-.8.6-.3.1-.6.1-.9-.1l-6.1-4c-.3-.2-.4-.4-.5-.8 0-.3 0-.7.2-1 .2-.3.5-.5.8-.6.3-.1.6-.1.9.1l1.3.9 1.4-2-1.2-.9c-.7-.5-1.6-.6-2.5-.3-.9.3-1.7.8-2.2 1.7-.6.9-.8 1.8-.7 2.7.1 1 .5 1.7 1.3 2.2zM53.5 41.4c.6.7 1.3 1 2.3 1 1 0 1.8-.4 2.6-1 .8-.7 1.2-1.5 1.4-2.4.1-.9-.1-1.8-.7-2.4L54.4 31c-.6-.7-1.3-1-2.3-1-1 0-1.8.4-2.6 1.1-.8.7-1.2 1.5-1.4 2.4-.1.9.1 1.8.7 2.4l4.7 5.5zm-3.3-7.9c.1-.3.2-.6.5-.9.3-.2.6-.4.9-.4.3 0 .6.1.8.3l4.8 5.5c.2.2.3.5.2.9-.1.3-.2.6-.5.9-.3.2-.6.4-.9.4-.3 0-.6-.1-.8-.3l-4.8-5.5c-.1-.3-.2-.6-.2-.9zM152.1 52.1l1.3 2 9.3-6.4 1.4 2.1 1.7-1.2-4.2-6.1-1.7 1.2 1.5 2.1M104.7 25.7c1 .1 1.9-.2 2.7-.7.8-.6 1.2-1.3 1.3-2.2l.5-7.2c.1-.9-.3-1.6-.9-2.3-.7-.7-1.5-1-2.6-1.1-1-.1-1.9.2-2.7.7-.8.6-1.2 1.3-1.3 2.2l-.5 7.2c-.1.9.2 1.6.9 2.3s1.5 1 2.6 1.1zm-.7-10.6c0-.3.2-.6.5-.8.3-.2.6-.3 1-.3s.7.2.9.4c.2.2.4.5.3.8l-.5 7.3c0 .3-.2.6-.4.8-.3.2-.6.3-1 .3s-.7-.2-.9-.4c-.3-.2-.4-.5-.3-.8l.4-7.3zM121.2 14.9l-2.4-.6-4.2 9.7.4-10.5-2.5-.6-.1 13.6 3.2.7M126.1 30.8l.8-1.9-4.1-1.6 1.3-3.4 3 1.2.7-1.9-3-1.1 1.3-3.4 4.1 1.5.7-1.8-6.3-2.4-4.7 12.4M135.2 155.5l-5.4-9.9-2.1 1.1 6.3 11.7 5.7-3-.9-1.8M129.7 155.1l-2.3.9.7 1.7c.1.3.1.6-.1.9-.2.3-.4.5-.8.7-.4.1-.7.1-1 0-.3-.1-.5-.3-.7-.6l-2.6-6.8c-.1-.3-.1-.6.1-.9.2-.3.4-.5.8-.7.4-.1.7-.1 1 0 .3.1.6.3.7.6l.6 1.5 2.3-.9-.5-1.4c-.3-.8-.9-1.4-1.8-1.7-.9-.3-1.8-.3-2.8.1-1 .4-1.7 1-2.1 1.8-.5.8-.5 1.7-.2 2.5l2.6 6.8c.3.8.9 1.4 1.8 1.7.9.3 1.8.3 2.8-.1 1-.4 1.7-1 2.1-1.8.5-.8.5-1.7.2-2.5l-.8-1.8zM142.6 151.1l-2.1-3 2.6-1.8-1.1-1.7-2.7 1.9-2-3 3.5-2.5-1.1-1.7-5.5 3.9 7.6 10.9 5.5-3.9-1.2-1.6M111.8 160.5l-2.4.3.2 1.8c0 .3-.1.6-.3.8-.2.3-.5.4-.9.4s-.7 0-1-.2c-.3-.2-.4-.4-.5-.8l-.8-7.2c0-.3.1-.6.3-.9.2-.3.5-.4.9-.4s.7 0 1 .2c.3.2.5.5.5.8l.2 1.5 2.4-.3-.2-1.5c-.1-.9-.5-1.6-1.3-2.1s-1.7-.8-2.7-.6c-1 .1-1.9.5-2.5 1.2-.7.7-.9 1.5-.9 2.4l.8 7.2c.1.9.5 1.6 1.3 2.1s1.7.7 2.7.6c1-.1 1.9-.5 2.5-1.2.7-.7.9-1.5.9-2.4l-.2-1.7zM93.9 165.9l2.3.1.3-5.6 3.1.1.1-2-3.2-.1.2-3.6 4.3.1.1-2-6.7-.2M119.5 150l-2.6.7-.5 5-2.9-4.2-2.5.6 4.9 6.8 1.3 5.4 2.3-.6-1.3-5.4M165.3 124.8l-1.6-1-1.3 2.1 1.6 1c.3.2.4.4.5.8 0 .3 0 .7-.2 1-.2.3-.5.5-.8.6-.3.1-.6.1-.9-.1l-6.2-3.8c-.3-.2-.4-.4-.5-.8-.1-.3 0-.7.2-1 .2-.3.5-.5.8-.6.3-.1.6-.1.9.1l1.3.8 1.3-2.1-1.3-.8c-.7-.5-1.6-.5-2.5-.3-.9.3-1.6.9-2.2 1.8-.5.9-.7 1.8-.6 2.7.1.9.6 1.7 1.3 2.1l6.2 3.8c.7.5 1.6.5 2.5.2.9-.3 1.6-.9 2.2-1.8.5-.9.7-1.8.6-2.7-.1-.9-.5-1.6-1.3-2zM172.6 116.1l-8.7.3-3.7-5.1-1 2.3 3.2 4.6-4.3-1.9-1 2.1 12.2 5.3.9-2.1-3.8-1.7-.8-1.1 5.9-.1M148.5 130.9l8.5 10.5 1.6-1.9-2-2.4 1.6-1.9 2.7 1.5 1.6-1.9-11.9-6.4-2.1 2.5zm7.9 3.4l-1.1 1.3-3.5-4 4.6 2.7zM144.3 135.3l3.7 4.2-2.1 1.9-3.8-4.2-1.7 1.6 8.9 9.9 1.7-1.6-3.7-4.2 2.1-1.9 3.8 4.2 1.7-1.6-8.9-9.9M74.4 148.3c-.4-.9-1-1.5-2-2-.9-.5-1.9-.6-2.8-.3-.9.2-1.6.8-2 1.5l-3.2 6.5c-.4.8-.4 1.6 0 2.5.4.9 1.1 1.5 2 2 .9.4 1.8.6 2.8.3.9-.2 1.6-.7 2-1.5l.8-1.7-2.2-1.1-.8 1.7c-.1.3-.4.5-.7.6-.3.1-.7 0-1-.1-.3-.2-.6-.4-.7-.7-.1-.3-.1-.6 0-.9l3.2-6.5c.1-.3.4-.5.7-.6.3-.1.7-.1 1 .1.3.2.6.4.7.7.1.3.1.6 0 .9l-.7 1.4 2.2 1.1.7-1.4c.4-.8.4-1.6 0-2.5zM75.8 150.3l2.4.8-3.5 10.7 2.2.7 3.6-10.7 2.3.8.7-1.9-7-2.3M59.3 139.3c-.1-.9-.6-1.8-1.4-2.4l-2.8-2.5-8.8 10 2.8 2.5c.8.7 1.6 1 2.6 1s1.7-.3 2.3-1l4.6-5.2c.6-.7.8-1.5.7-2.4zm-2.5.9l-4.6 5.2c-.2.2-.5.4-.8.4-.3 0-.7-.1-.9-.4l-1.1-.9 6.1-6.9 1.1.9c.3.2.4.5.5.9 0 .2-.1.5-.3.8zM65.8 142.8l-5.7 8.5c-.2.3-.4.4-.8.5-.3 0-.7 0-1-.3-.3-.2-.5-.5-.6-.8-.1-.3-.1-.6.1-.9l5.7-8.5-1.9-1.3-5.7 8.5c-.5.7-.6 1.6-.3 2.5.3.9.8 1.7 1.7 2.2.9.6 1.8.8 2.7.7.9-.1 1.7-.5 2.2-1.3l5.7-8.6-2.1-1.2zM89.5 151.8c-1-.2-1.9 0-2.8.5-.8.5-1.3 1.2-1.5 2l-1.2 7.1c-.1.9.1 1.7.7 2.4s1.4 1.2 2.5 1.4c1 .2 1.9 0 2.8-.5.8-.5 1.3-1.2 1.5-2l1.2-7.1c.1-.9-.1-1.7-.7-2.4-.7-.8-1.5-1.3-2.5-1.4zm.7 3.3l-1.2 7.2c-.1.3-.2.6-.5.7-.3.2-.6.2-1 .2-.4-.1-.7-.2-.9-.5-.2-.3-.3-.6-.3-.9l1.2-7.2c.1-.3.2-.6.5-.7.3-.2.6-.2 1-.2.4.1.7.2.9.5.3.3.3.6.3.9z"/><path fill="#85C49F" d="M56.6 138.4l-1.1-.9-6.1 6.9 1.1.9c.3.2.6.4.9.4.3 0 .6-.1.8-.4l4.6-5.2c.2-.2.3-.5.2-.9 0-.3-.1-.6-.4-.8z"/><path fill="none" d="M39.5 88.9c0 33.5 27.2 60.7 60.7 60.7s60.7-27.2 60.7-60.7-27.2-60.7-60.7-60.7-60.7 27.2-60.7 60.7zM100.2 30c32.5 0 58.9 26.4 58.9 58.9s-26.4 58.9-58.9 58.9-58.9-26.4-58.9-58.9S67.7 30 100.2 30zM129.3 32.3l4.2-7.2-2.2 8.4 1.7.9 5.9-6.2-4.2 7.2 2.1 1.2 6.6-11.5-2.8-1.6-6.6 7.2 2.9-9.4-3-1.7-6.6 11.5"/><path fill="none" d="M143.2 42l1.3-1.5-3.3-2.8 2.3-2.8 2.4 2 1.3-1.5-2.5-2.1 2.4-2.8 3.3 2.8 1.3-1.5-5.2-4.3-8.5 10.2M100.2 146.1c31.6 0 57.2-25.6 57.2-57.2s-25.6-57.2-57.2-57.2-57.1 25.6-57.1 57.2 25.6 57.2 57.1 57.2zm0-113.7c31.2 0 56.5 25.3 56.5 56.5s-25.3 56.5-56.5 56.5-56.5-25.3-56.5-56.5S69 32.4 100.2 32.4z"/><circle fill="none" cx="100.2" cy="88.9" r="55.9"/><path fill="none" d="M145.8 44.6l6.2-5.8-4 8.2 1.7 1.8 9.8-9-1.6-1.7-6.6 6 4.5-8.3-1.8-2-9.8 9"/><path fill="none" d="M100.2 4C53.4 4 15.4 42 15.4 88.9s38 84.9 84.9 84.9 84.9-38 84.9-84.9S147.1 4 100.2 4zm0 168.5c-46.2 0-83.6-37.4-83.6-83.6S54.1 5.3 100.2 5.3c46.2 0 83.6 37.4 83.6 83.6s-37.4 83.6-83.6 83.6z"/><g fill="#85C49F"><path d="M128.4 172.3l.2.9c29.8-10 52.5-35.3 58.8-66.6l-.9-.3c-6.2 31-28.7 56.1-58.1 66zM72.6 173.4l.2-.9c-29.5-9.6-52.1-34.4-58.7-65.1l-.9.3c6.8 31 29.7 56 59.4 65.7zM100.2.9c42.7 0 78.4 30.5 86.3 70.9.3.1.6.2 1 .2-7.9-41-44-72-87.3-72-43.7 0-80.1 31.6-87.5 73.2.3-.1.6-.2 1-.3 7.5-41 43.4-72 86.5-72z"/></g><g fill="#85C49F"><path d="M100.2 173.8c-40.8 0-74.9-28.8-83-67.2-.6.2-1.1.3-1.7.5 8.4 39.1 43.1 68.4 84.7 68.4 42 0 77-29.9 84.9-69.6-.6-.2-1.1-.3-1.7-.5-7.6 39-41.9 68.4-83.2 68.4zM100.2 4c40.7 0 74.7 28.6 83 66.9.6.2 1.3.3 1.9.5-8.1-39.4-43-69.1-84.8-69.1-42.3 0-77.4 30.2-85.1 70.2.6-.2 1.2-.3 1.9-.5 7.8-38.8 42.1-68 83.1-68z"/></g><g fill="none"><path d="M66.2 35.3c.5-.3.9-.8 1.2-1.4.3-.5.4-1.1.4-1.6 0-.7-.2-1.4-.7-2.1-.2-.3-.4-.5-.6-.7-.4-.4-.8-.7-1.2-.8-.6-.2-1.1-.3-1.7-.1.2-.3.3-.6.4-.9.2-.8 0-1.5-.5-2.3-.3-.5-.6-.8-1-1.1-.6-.5-1.3-.7-2-.6-.9.1-1.7.3-2.5.8l-3 1.9 7.2 11.2 4-2.3zM53.5 41.4c.6.7 1.3 1 2.3 1 1 0 1.8-.4 2.6-1 .8-.7 1.2-1.5 1.4-2.4.1-.9-.1-1.8-.7-2.4L54.4 31c-.6-.7-1.3-1-2.3-1-1 0-1.8.4-2.6 1.1-.8.7-1.2 1.5-1.4 2.4-.1.9.1 1.8.7 2.4l4.7 5.5zM72.5 31.7l-.7-3 2.2-1 1.8 2.5 2.2-1-7.8-11-3 1.3 3 13.2M85.8 27l-.6-2-3.9 1.2-3.1-10.9-2.3.7 3.7 12.7M35 119.8c.4.9 1.1 1.6 2 2 .9.4 1.7.4 2.5 0l1.7-.8c.8-.4 1.4-1 1.6-1.8.3-.9.1-1.8-.3-2.9l-1.6-3.4-12 5.7 1 2.1 4.5-2.1.6 1.2zM54.7 44.5l-1.5-1.3-2.7 3.1-8.5-7.5-1.6 1.8 10 8.8M90.8 26l-.8-8.3 3.1 8.1 1.9-.2 1.2-8.5.8 8.3 2.4-.3L98 11.9l-3.2.3-1.2 9.8-3.1-9.3-3.4.3 1.3 13.2M36.7 51.3l6 4c.7.5 1.5.6 2.5.3.9-.3 1.7-.8 2.2-1.7.6-.9.8-1.8.7-2.7-.1-1-.5-1.7-1.3-2.2L43 46.5l-2.1 3.1 1.7 1.1.7-1.1 2.2 1.4c.3.2.4.4.5.8 0 .3 0 .7-.3 1-.2.3-.5.5-.8.6-.3.1-.6.1-.9-.1l-6.1-4c-.3-.2-.4-.4-.5-.8 0-.3 0-.7.2-1 .2-.3.5-.5.8-.6.3-.1.6-.1.9.1l1.3.9 1.4-2-1.2-.9c-.7-.5-1.6-.6-2.5-.3-.9.3-1.7.8-2.2 1.7-.6.9-.8 1.8-.7 2.7.1 1 .5 1.7 1.3 2.2z"/><circle cx="100.2" cy="88.9" r="60.7"/><path d="M44.3 129.5l1.6-1.1c.8-.5 1.3-1.2 1.4-1.9.2-.9-.1-1.8-.8-2.9l-2-3.1-11.1 7.3 1.3 2 4.2-2.7.7 1.1c0 .1.1.1.1.2l-3.4 3.9 1.4 2.1 3.9-4.6c1.1.3 2 .2 2.7-.3zM143.2 42l1.3-1.5-3.3-2.8 2.3-2.8 2.4 2 1.3-1.5-2.5-2.1 2.4-2.8 3.3 2.8 1.3-1.5-5.2-4.3-8.5 10.2M145.8 44.6l6.2-5.8-4 8.2 1.7 1.8 9.8-9-1.6-1.7-6.6 6 4.5-8.3-1.8-2-9.8 9M129.3 32.3l4.2-7.2-2.2 8.4 1.7.9 5.9-6.2-4.2 7.2 2.1 1.2 6.6-11.5-2.8-1.6-6.6 7.2 2.9-9.4-3-1.7-6.6 11.5M126.1 30.8l.8-1.9-4.1-1.6 1.3-3.4 3 1.2.7-1.9-3-1.1 1.3-3.4 4.1 1.5.7-1.8-6.3-2.4-4.7 12.4M104.7 25.7c1 .1 1.9-.2 2.7-.7.8-.6 1.2-1.3 1.3-2.2l.5-7.2c.1-.9-.3-1.6-.9-2.3-.7-.7-1.5-1-2.6-1.1-1-.1-1.9.2-2.7.7-.8.6-1.2 1.3-1.3 2.2l-.5 7.2c-.1.9.2 1.6.9 2.3s1.5 1 2.6 1.1zM121.2 14.9l-2.4-.6-4.2 9.7.4-10.5-2.5-.6-.1 13.6 3.2.7M152.1 52.1l1.3 2 9.3-6.4 1.4 2.1 1.7-1.2-4.2-6.1-1.7 1.2 1.5 2.1M142.6 151.1l-2.1-3 2.6-1.8-1.1-1.7-2.7 1.9-2-3 3.5-2.5-1.1-1.7-5.5 3.9 7.6 10.9 5.5-3.9-1.2-1.6M148.5 130.9l8.5 10.6 1.6-1.9-2-2.4 1.6-1.9 2.7 1.5 1.6-1.9-11.9-6.5M129.7 155.1l-2.3.9.7 1.7c.1.3.1.6-.1.9-.2.3-.4.5-.8.7-.4.1-.7.1-1 0-.3-.1-.5-.3-.7-.6l-2.6-6.8c-.1-.3-.1-.6.1-.9.2-.3.4-.5.8-.7.4-.1.7-.1 1 0 .3.1.6.3.7.6l.6 1.5 2.3-.9-.5-1.4c-.3-.8-.9-1.4-1.8-1.7-.9-.3-1.8-.3-2.8.1-1 .4-1.7 1-2.1 1.8-.5.8-.5 1.7-.2 2.5l2.6 6.8c.3.8.9 1.4 1.8 1.7.9.3 1.8.3 2.8-.1 1-.4 1.7-1 2.1-1.8.5-.8.5-1.7.2-2.5l-.8-1.8zM135.2 155.5l-5.4-9.9-2.1 1.1 6.3 11.7 5.7-3-.9-1.8M144.3 135.3l3.7 4.2-2.1 1.9-3.8-4.2-1.7 1.6 8.9 9.9 1.7-1.6-3.7-4.2 2.1-1.9 3.8 4.2 1.7-1.6-8.9-9.9M52 135.4c.7-.6 1-1.3 1-2.3 0-1-.3-1.8-1-2.6s-1.5-1.2-2.4-1.4c-.9-.2-1.8.1-2.4.6l-5.5 4.7c-.7.6-1 1.3-1 2.3 0 1 .3 1.8 1 2.6s1.5 1.3 2.4 1.4c.9.2 1.8-.1 2.4-.6l5.5-4.7zM172.6 116.1l-8.7.3-3.7-5.1-1 2.3 3.2 4.6-4.3-1.9-1 2.1 12.2 5.3.9-2.1-3.8-1.7-.8-1.1 5.9-.1M165.3 124.8l-1.6-1-1.3 2.1 1.6 1c.3.2.4.4.5.8 0 .3 0 .7-.2 1-.2.3-.5.5-.8.6-.3.1-.6.1-.9-.1l-6.2-3.8c-.3-.2-.4-.4-.5-.8-.1-.3 0-.7.2-1 .2-.3.5-.5.8-.6.3-.1.6-.1.9.1l1.3.8 1.3-2.1-1.3-.8c-.7-.5-1.6-.5-2.5-.3-.9.3-1.6.9-2.2 1.8-.5.9-.7 1.8-.6 2.7.1.9.6 1.7 1.3 2.1l6.2 3.8c.7.5 1.6.5 2.5.2.9-.3 1.6-.9 2.2-1.8.5-.9.7-1.8.6-2.7-.1-.9-.5-1.6-1.3-2zM65.8 142.8l-5.7 8.5c-.2.3-.4.4-.8.5-.3 0-.7 0-1-.3-.3-.2-.5-.5-.6-.8-.1-.3-.1-.6.1-.9l5.7-8.5-1.9-1.3-5.7 8.5c-.5.7-.6 1.6-.3 2.5.3.9.8 1.7 1.7 2.2.9.6 1.8.8 2.7.7.9-.1 1.7-.5 2.2-1.3l5.7-8.6-2.1-1.2zM74.4 148.3c-.4-.9-1-1.5-2-2-.9-.5-1.9-.6-2.8-.3-.9.2-1.6.8-2 1.5l-3.2 6.5c-.4.8-.4 1.6 0 2.5.4.9 1.1 1.5 2 2 .9.4 1.8.6 2.8.3.9-.2 1.6-.7 2-1.5l.8-1.7-2.2-1.1-.8 1.7c-.1.3-.4.5-.7.6-.3.1-.7 0-1-.1-.3-.2-.6-.4-.7-.7-.1-.3-.1-.6 0-.9l3.2-6.5c.1-.3.4-.5.7-.6.3-.1.7-.1 1 .1.3.2.6.4.7.7.1.3.1.6 0 .9l-.7 1.4 2.2 1.1.7-1.4c.4-.8.4-1.6 0-2.5zM59.3 139.3c-.1-.9-.6-1.8-1.4-2.4l-2.8-2.5-8.8 10 2.8 2.5c.8.7 1.6 1 2.6 1s1.7-.3 2.3-1l4.6-5.2c.6-.7.8-1.5.7-2.4zM75.8 150.3l2.4.8-3.5 10.7 2.2.7 3.6-10.7 2.3.8.7-1.9-7-2.3M93.9 165.9l2.3.1.3-5.6 3.1.1.1-2-3.2-.1.2-3.6 4.3.1.1-2-6.7-.2M89.5 151.8c-1-.2-1.9 0-2.8.5-.8.5-1.3 1.2-1.5 2l-1.2 7.1c-.1.9.1 1.7.7 2.4s1.4 1.2 2.5 1.4c1 .2 1.9 0 2.8-.5.8-.5 1.3-1.2 1.5-2l1.2-7.1c.1-.9-.1-1.7-.7-2.4-.7-.8-1.5-1.3-2.5-1.4zM111.8 160.5l-2.4.3.2 1.8c0 .3-.1.6-.3.8-.2.3-.5.4-.9.4s-.7 0-1-.2c-.3-.2-.4-.4-.5-.8l-.8-7.2c0-.3.1-.6.3-.9.2-.3.5-.4.9-.4s.7 0 1 .2c.3.2.5.5.5.8l.2 1.5 2.4-.3-.2-1.5c-.1-.9-.5-1.6-1.3-2.1s-1.7-.8-2.7-.6c-1 .1-1.9.5-2.5 1.2-.7.7-.9 1.5-.9 2.4l.8 7.2c.1.9.5 1.6 1.3 2.1s1.7.7 2.7.6c1-.1 1.9-.5 2.5-1.2.7-.7.9-1.5.9-2.4l-.2-1.7zM119.5 150l-2.6.7-.5 5-2.9-4.2-2.5.6 4.9 6.8 1.3 5.4 2.3-.6-1.3-5.4"/></g><g><g fill="#85C49F"><path d="M64.4 34.1c.7-.4.9-1 .8-1.8 0-.3-.1-.5-.3-.8-.4-.6-.8-1-1.3-1.1-.4-.1-.9 0-1.4.3l-.8.5 2.2 3.3.8-.4zM43 127.6l1.6-1.1c.6-.4.7-1 .2-1.8l-.8-1.2-3.6 2.3.8 1.2c.2.3.5.5.8.6.5.2.8.2 1 0zM50.7 132.7c0-.3-.1-.7-.4-.9-.2-.3-.5-.5-.9-.5-.3-.1-.6 0-.9.2l-5.5 4.7c-.2.2-.4.5-.4.8 0 .3.1.7.4.9.2.3.5.5.9.5.3.1.6 0 .9-.2l5.5-4.7c.3-.2.4-.4.4-.8zM55.3 39.8c.2.2.5.4.8.3.3 0 .7-.1.9-.4.3-.2.4-.5.5-.9.1-.3 0-.6-.2-.9l-4.8-5.5c-.2-.2-.5-.4-.8-.3-.3 0-.7.1-.9.4-.3.2-.4.5-.5.9-.1.3 0 .6.2.9l4.8 5.5zM89.1 153.7c-.4-.1-.7 0-1 .2-.3.2-.5.4-.5.7l-1.2 7.2c-.1.3 0 .6.3.9.2.3.5.4.9.5.4.1.7 0 1-.2.3-.2.5-.4.5-.7l1.2-7.2c.1-.3 0-.6-.3-.9-.3-.3-.6-.4-.9-.5zM104.8 23.6c.4 0 .7-.1 1-.3.3-.2.4-.5.4-.8l.5-7.3c0-.3-.1-.6-.3-.8-.2-.2-.6-.4-.9-.4-.4 0-.7.1-1 .3-.3.2-.4.5-.5.8l-.5 7.3c0 .3.1.6.3.8.3.3.6.4 1 .4zM61.9 27.6c0-.2-.2-.5-.3-.8-.3-.5-.7-.7-1.1-.8-.4-.1-.8 0-1.2.3l-.8.5 1.8 2.8.8-.5c.7-.4 1-.9.8-1.5zM37.5 119.7c.3.1.6.1.9 0l1.8-.8c.3-.1.5-.4.6-.7.1-.3 0-.7-.1-1l-.6-1.3-3.8 1.8.6 1.3c0 .3.3.6.6.7zM72.9 26l-3-4.4 1.4 5.2M156.4 134.3l-4.5-2.7 3.4 4"/><g><path d="M160 99.9c-5.2 28.3-29.9 49.8-59.7 49.8-29.5 0-54.1-21.1-59.6-49-7.4 1.6-14.9 3.4-22.2 5.6 8 37.9 41.6 66.3 81.8 66.3 40.6 0 74.5-29 82.1-67.4-7.5-2.1-14.9-3.9-22.4-5.3zM28.8 118.6l12-5.7 1.6 3.4c.5 1 .6 2 .3 2.9-.3.8-.8 1.4-1.6 1.8l-1.7.8c-.8.4-1.6.4-2.5 0-.9-.4-1.5-1-2-2l-.6-1.2-4.5 2.1-1-2.1zm7.6 13.7l3.4-3.9c0-.1-.1-.1-.1-.2l-.7-1.1-4.2 2.7-1.3-2 11.1-7.3 2 3.1c.7 1.1 1 2.1.8 2.9-.2.7-.6 1.4-1.4 1.9l-1.6 1.1c-.8.5-1.7.6-2.7.3l-3.9 4.6-1.4-2.1zm7.6 8.5c-.9-.2-1.8-.6-2.4-1.4-.7-.8-1-1.7-1-2.6 0-1 .3-1.7 1-2.3l5.5-4.7c.7-.6 1.5-.8 2.4-.6.9.2 1.8.6 2.4 1.4.7.8 1 1.7 1 2.6 0 1-.3 1.7-1 2.3l-5.5 4.7c-.6.5-1.4.8-2.4.6zm7.7 7c-1 0-1.8-.4-2.6-1l-2.8-2.5 8.8-10 2.8 2.5c.8.7 1.2 1.5 1.4 2.4.1.9-.1 1.7-.7 2.4l-4.6 5.2c-.6.7-1.4 1-2.3 1zM60 154c-.9.1-1.9-.1-2.7-.7-.9-.6-1.4-1.3-1.7-2.2-.3-.9-.2-1.7.3-2.5l5.7-8.5 1.9 1.3-5.7 8.5c-.2.3-.2.6-.1.9.1.3.3.6.6.8.3.2.6.3 1 .3.3 0 .6-.2.8-.5l5.7-8.5 2.1 1.4-5.7 8.6c-.5.6-1.2 1-2.2 1.1zm13.7-1.8l-2.2-1.1.7-1.4c.1-.3.1-.6 0-.9-.1-.3-.4-.6-.7-.7-.3-.2-.7-.2-1-.1-.3.1-.6.3-.7.6l-3.2 6.5c-.1.3-.1.6 0 .9.1.3.4.6.7.7.3.2.7.2 1 .1.3-.1.6-.3.7-.6l.8-1.7 2.2 1.1-.8 1.7c-.4.8-1 1.3-2 1.5-.9.2-1.9.1-2.8-.3-.9-.5-1.6-1.1-2-2-.4-.9-.4-1.7 0-2.5l3.2-6.5c.4-.8 1-1.3 2-1.5.9-.2 1.9-.1 2.8.3.9.5 1.6 1.1 2 2 .4.9.4 1.7 0 2.5l-.7 1.4zm9.1.4l-2.4-.8-3.6 10.7-2.2-.7 3.6-10.7-2.4-.8.6-1.9 7 2.3-.6 1.9zm9.8 2.9l-1.2 7.1c-.1.9-.6 1.5-1.5 2-.8.5-1.8.6-2.8.5-1-.2-1.8-.6-2.5-1.4-.6-.7-.8-1.5-.7-2.4l1.2-7.1c.1-.9.6-1.5 1.5-2 .8-.5 1.7-.6 2.8-.5 1 .2 1.8.6 2.5 1.4.6.8.9 1.6.7 2.4zm8.4-.6l-4.4-.2-.1 3.6 3.2.1-.1 2-3.2-.1-.2 5.6-2.4-.1.5-13.3 6.7.3v2.1zm10.2 9.8c-.7.7-1.5 1.1-2.5 1.2-1 .1-2-.1-2.7-.6-.8-.5-1.2-1.2-1.3-2.1l-.8-7.2c-.1-.9.2-1.7.9-2.4s1.5-1.1 2.5-1.2c1-.1 1.9.1 2.7.6.8.5 1.2 1.2 1.3 2.1l.2 1.5-2.4.3-.2-1.5c0-.3-.2-.6-.5-.8-.3-.2-.6-.3-1-.2-.4 0-.7.2-.9.4-.2.3-.3.5-.3.9l.8 7.2c0 .3.2.6.5.8.3.2.6.3 1 .2.4 0 .7-.2.9-.4.2-.3.3-.5.3-.8l-.2-1.8 2.4-.3.2 1.8c0 .8-.3 1.6-.9 2.3zm6-.4l-1.3-5.4-4.9-6.8 2.5-.6 2.8 4.2.6-5 2.5-.6-1.3 8.3 1.3 5.4-2.2.5zm13-5c-.5.8-1.2 1.4-2.1 1.8-1 .4-1.9.4-2.8.1-.9-.3-1.5-.9-1.8-1.7l-2.6-6.8c-.3-.8-.2-1.7.2-2.5.5-.8 1.2-1.4 2.1-1.8 1-.4 1.9-.4 2.8-.1.9.3 1.5.9 1.8 1.7l.5 1.4-2.3.9-.6-1.5c-.1-.3-.3-.5-.7-.6-.3-.1-.7-.1-1 0-.4.1-.6.4-.8.7-.2.3-.2.6-.1.9l2.6 6.8c.1.3.3.5.7.6.3.1.7.1 1 0 .4-.1.6-.4.8-.7.2-.3.2-.6.1-.9l-.7-1.7 2.3-.9.7 1.7c.4 1 .3 1.8-.1 2.6zm3.8-.9l-6.3-11.7 2.1-1.1 5.4 9.9 3.6-1.9.9 1.8-5.7 3zm7.8-4.3l-7.6-10.9 5.5-3.9 1.2 1.6-3.6 2.5 2.1 3 2.6-1.8 1.2 1.7-2.6 1.8 2.1 3 3.6-2.5 1.2 1.7-5.7 3.8zm11.4-8.9l-3.8-4.2-2.1 1.9 3.8 4.2-1.8 1.6-8.9-9.9 1.8-1.6 3.8 4.2 2.1-1.9-3.8-4.2 1.8-1.6 8.9 9.9-1.8 1.6zm7.7-8.4l-2.7-1.5-1.6 1.9 2 2.4-1.6 1.9-8.5-10.5 2.1-2.5 11.9 6.4-1.6 1.9zm5.2-7.2c-.5.9-1.3 1.5-2.2 1.8-.9.3-1.7.2-2.5-.2l-6.2-3.8c-.8-.5-1.2-1.2-1.3-2.1-.1-.9.1-1.9.6-2.7.5-.9 1.3-1.5 2.2-1.8.9-.3 1.7-.2 2.5.3l1.3.8-1.3 2.1-1.3-.8c-.3-.2-.6-.2-.9-.1-.3.1-.6.3-.8.6-.2.3-.3.7-.2 1 .1.3.2.6.5.8l6.2 3.8c.3.2.6.2.9.1.3-.1.6-.3.8-.6.2-.3.3-.7.2-1 0-.3-.2-.6-.5-.8l-1.6-1 1.3-2.1 1.6 1c.8.5 1.2 1.2 1.3 2.1.1.8-.1 1.8-.6 2.6zm.3-9.7l3.9 1.7-.9 2.2-12.2-5.3.9-2.2 4.3 1.9-3.2-4.5 1-2.3 3.7 5.1 8.7-.3-1.1 2.5-5.9.1.8 1.1zM100.2 28.2c25.2 0 46.8 15.3 56 37.1 8.6 1.4 17.1 3.2 25.6 5.3-8.4-37.4-41.7-65.3-81.6-65.3-40.2 0-73.9 28.4-81.8 66.4 8.5-2.2 17-4.1 25.6-5.6 9-22.3 30.8-37.9 56.2-37.9zm61.4 14.3l4.2 6.1-1.7 1.1-1.4-2.1-9.3 6.4-1.3-2 9.3-6.4-1.4-2.1 1.6-1zm-5.8-6.7l-4.4 8.4 6.6-6.1 1.6 1.7-9.8 9L148 47l4-8.2-6.3 5.8-1.6-1.7 9.8-9 1.9 1.9zm-4.1-4l-1.3 1.6-3.4-2.8-2.3 2.8 2.5 2-1.3 1.6-2.5-2-2.3 2.8 3.4 2.8-1.3 1.6-5.2-4.3 8.5-10.2 5.2 4.1zm-14.8-10.5l-2.9 9.4 6.6-7.2 2.8 1.6-6.7 11.5-2-1.2 4.2-7.2-6 6.2-1.6-1 2.2-8.4-4.2 7.2-2-1.2 6.7-11.5 2.9 1.8zm-6-2.9l-.7 1.9-4.1-1.6-1.3 3.4 3 1.1-.7 1.9-3-1.1-1.3 3.4 4.1 1.6-.7 1.9-6.3-2.4 4.7-12.4 6.3 2.3zm-18.4-5.5l2.4.5-.3 10.6 4.2-9.7 2.4.5-5.7 12.4-3.2-.7.2-13.6zm-11.3 9.4l.5-7.2c.1-.9.5-1.6 1.3-2.2.8-.6 1.7-.8 2.7-.7 1 .1 1.9.4 2.6 1.1.7.7 1 1.4.9 2.3l-.5 7.2c-.1.9-.5 1.6-1.3 2.2-.8.6-1.7.8-2.7.7-1-.1-1.9-.4-2.6-1.1s-1-1.5-.9-2.3zm-10.7-9.6l3.1 9.3 1.2-9.7L98 12l1.3 13.2-2.3.2-.8-8.3-1.2 8.5-1.9.2-3.1-8.1.8 8.3-2.4.2L87.1 13l3.4-.3zm-12.3 2.6l3.1 10.9 3.9-1.1.6 1.9-6.2 1.8L75.9 16l2.3-.7zm-8 2.9l7.9 11-2.3 1-1.8-2.5-2.3 1 .7 3-2.2 1-3-13.2 3-1.3zm-12 6.4c.8-.5 1.6-.8 2.5-.8.7-.1 1.4.2 2 .6.3.3.7.6 1 1.1.5.7.6 1.5.5 2.3-.1.3-.2.6-.4.9.5-.1 1.1-.1 1.7.1.4.2.8.4 1.2.8.2.2.4.4.6.7.5.7.7 1.4.7 2.1 0 .5-.1 1.1-.4 1.6-.3.6-.8 1-1.2 1.4l-3.7 2.4-7.2-11.2 2.7-2zm-10.1 8.9c.1-.9.6-1.8 1.4-2.4.8-.7 1.7-1 2.6-1.1 1 0 1.7.3 2.3 1l4.8 5.4c.6.7.8 1.5.7 2.4-.1.9-.6 1.8-1.4 2.4-.8.7-1.7 1-2.6 1-1 0-1.7-.3-2.3-1l-4.8-5.4c-.6-.6-.8-1.4-.7-2.3zM42 38.8l8.5 7.5 2.7-3.1 1.5 1.3-4.3 4.8-10-8.8 1.6-1.7zm-6.6 10.3c-.1-1 .1-1.9.7-2.7.6-.9 1.3-1.4 2.2-1.7.9-.3 1.7-.1 2.5.3l1.3.8-1.4 2-1.3-.8c-.3-.2-.6-.2-.9-.1-.3.1-.6.3-.8.6-.2.3-.3.6-.2 1 0 .3.2.6.5.8l6.1 4c.3.2.6.2.9.1.3-.1.6-.3.8-.6.2-.3.3-.6.3-1 0-.3-.2-.6-.5-.8l-2.2-1.4-.7 1.1-1.7-1.1 2.1-3.1 3.9 2.6c.7.5 1.2 1.2 1.3 2.2.1 1-.1 1.9-.7 2.7-.6.9-1.3 1.4-2.2 1.7-.9.3-1.7.2-2.5-.3l-6-4c-1-.6-1.4-1.3-1.5-2.3z"/></g></g></g><g fill="#85C49F"><path d="M100.2 33c22.1 0 41.2 12.8 50.3 31.4.2 0 .5.1.7.1-9.1-19-28.5-32.1-51-32.1-22.8 0-42.4 13.4-51.3 32.8.2 0 .5-.1.7-.1 9-19 28.3-32.1 50.6-32.1zM100.2 144.8c-27.2 0-49.8-19.4-54.9-45.1-.2 0-.4.1-.6.1 5.1 26 28 45.6 55.5 45.6 27.7 0 50.8-20 55.6-46.3-.2 0-.4-.1-.6-.1-4.7 26-27.5 45.8-55 45.8z"/></g><g fill="#85C49F"><path d="M100.2 146.1c-27.8 0-50.9-19.8-56.1-46.1-.6.1-1.2.2-1.7.3 5.3 27.1 29.2 47.5 57.8 47.5 28.9 0 53-20.8 58-48.3-.6-.1-1.2-.2-1.7-.3-4.9 26.7-28.2 46.9-56.3 46.9zM100.2 31.7c22.9 0 42.6 13.5 51.8 32.9l2.1.3c-9.2-20.6-29.8-35-53.9-35C75.9 29.9 55 44.6 46 65.6l2.1-.3c9-19.8 29-33.6 52.1-33.6z"/></g><g><g fill="#85C49F"><path d="M0 76.2C3.4 86.8 6.9 97.4 10.3 108c59.1-18.3 120.2-18.3 179.4 0 3.4-10.6 6.9-21.1 10.3-31.7-65.8-20.6-134.2-20.6-200-.1zm37.9 15.1c-.5.3-2.1.8-4 1.3-4.1.9-8.5.2-9.8-5-.3-1.1-.4-1.6-.7-2.7-1.3-5.2 2.3-8 6.7-9 2-.5 3.7-.6 4.4-.6.4 0 .7 0 .7.4.2.9.3 1.3.4 2.1.1.3-.1.5-.4.6h-.1c-1.1.2-2.7.4-4.2.7-2 .4-3.3 1.6-2.6 4.5.3 1.1.4 1.7.7 2.8.7 2.9 2.4 3.3 4.3 2.9 1.5-.3 3-.8 4-1.1h.1c.4-.1.6.1.6.3.2.9.3 1.3.4 2.1.1.4-.1.5-.5.7zm16.5-19.2c-1.3 3.3-1.9 5-3.1 8.4-.4 1.1-.9 1.7-1.5 2 .4 2.5.6 3.7 1 6.2 0 .2-.2.5-.5.5-1.4.2-2.2.4-3.6.6-.3.1-.6-.1-.6-.3-.5-2.5-.7-3.7-1.1-6.1-.7-.1-1.4-.4-2.2-1.4-2.3-2.7-3.4-4.1-5.8-6.8l-.1-.1c0-.2.1-.4.4-.4 1.7-.3 2.5-.5 4.1-.8.3-.1.5.1.6.3 1.7 2.3 2.6 3.4 4.2 5.7.2.3.3.3.5.3s.3-.1.4-.4c.8-2.7 1.2-4.1 2-6.8.1-.2.2-.4.5-.5 1.7-.3 2.5-.4 4.2-.6.3 0 .5.1.5.3.1-.3.1-.2.1-.1zm16.7 14.1c-.6.2-2.1.6-4.1.8-4.2.5-8.4-.8-9.1-6.1-.2-1.1-.2-1.7-.4-2.8-.7-5.3 3.2-7.6 7.6-8.1 2-.2 3.8-.2 4.4-.1.4 0 .7.1.7.4.1.9.1 1.3.2 2.2 0 .3-.1.5-.5.5h-.1c-1.1 0-2.7.1-4.3.3-2 .2-3.5 1.2-3.1 4.2.1 1.1.2 1.7.3 2.8.4 3 2 3.6 3.9 3.4 1.5-.2 3.1-.4 4.1-.6h.1c.4 0 .5.1.6.4.1.9.1 1.3.2 2.2 0 .2-.2.4-.5.5zm14.9-1c-.9.2-3 .4-4.5.5-3.6.2-6.8-.2-7.1-4.3-.4-4.6-.6-7-1-11.6 0-.2.2-.5.5-.5 1.5-.1 2.3-.2 3.8-.3.3 0 .6.2.6.4.3 4.6.5 7 .8 11.6.1 1.2.6 1.5 1.9 1.4 1.9-.1 2.9-.2 4.8-.3.3 0 .6.2.6.4 0 .8.1 1.3.1 2.1 0 .4-.1.5-.5.6zm15.7-14.3c0 .2-.3.4-.6.4h-5.9c-1.4 0-1.8.4-1.8 1.6v2c3-.1 4.4-.1 7.4-.1.3 0 .6.2.6.5v2.1c0 .2-.3.4-.6.4-2.9 0-4.4 0-7.3.1 0 1 0 1.4.1 2.4 0 1.2.5 1.5 1.8 1.5h5.7c.3 0 .6.2.6.5v2.1c0 .3-.2.4-.6.5-1 .1-2.4.3-5.4.3-3.6.1-6.7-.6-6.9-4.7-.1-3-.2-4.5-.3-7.5-.2-4.1 3.2-4.9 7-5 3.2 0 4.6.1 5.6.3.4 0 .6.2.6.5v2.1zm19.8 14.4c0 .2-.3.4-.6.4-1.4-.1-2.2-.1-3.6-.2-.3 0-.5-.2-.5-.5.1-2.6.2-3.9.4-6.5-2.8-.2-4.2-.2-7-.3-.1 2.6-.1 3.9-.2 6.5 0 .2-.3.4-.6.4-1.5 0-2.2-.1-3.6-.1-.3 0-.5-.2-.5-.5.1-6.3.2-9.5.3-15.8 0-.2.3-.4.6-.4 1.5 0 2.3 0 3.8.1.3 0 .6.2.6.4-.1 2.4-.1 3.6-.2 6 2.8.1 4.2.2 7.1.3.1-2.4.2-3.6.3-6 0-.2.3-.4.6-.4 1.5.1 2.3.1 3.8.2.3 0 .6.2.6.5-.7 6.4-.9 9.6-1.3 15.9zm19.3 2.5c-1.5-.2-2.3-.3-3.9-.5-.3 0-.5-.2-.5-.5-.2-1.5-.3-2.3-.6-3.8-2.3-.3-3.4-.4-5.7-.6-.5 1.4-.8 2.1-1.4 3.6-.1.2-.3.4-.6.4-1.5-.1-2.3-.2-3.9-.3-.3 0-.5-.2-.4-.4v-.1c2.1-5.4 3.2-8.1 5.4-13.5.9-2.1 3.1-2.2 5.1-2 2 .2 4.1.8 4.5 3 1 5.7 1.5 8.6 2.4 14.4v.1c.1.1-.1.2-.4.2zm17.8-11.2c-.1.3-.3.4-.6.3h-.1c-1.1-.3-2.6-.7-4.2-.9-2-.3-3.7.2-4.2 3.2-.2 1.1-.3 1.7-.5 2.8-.5 3 .9 4 2.8 4.3 1.5.3 3.1.4 4.1.6h.1c.4.1.5.3.4.5-.2.9-.2 1.3-.4 2.1-.1.3-.3.4-.7.4-.6 0-2.2 0-4.1-.4-4.2-.7-7.8-3.1-7.1-8.4.2-1.1.2-1.7.4-2.8.8-5.3 5.2-6.4 9.6-5.7 2 .4 3.7.9 4.2 1.2.4.2.6.3.5.6.1 1 0 1.4-.2 2.2zm20.2 2.2c-3.5 2.2-5.2 3.4-8.5 5.7 1.9 3.8 2.9 5.7 4.6 9.5.1.1.1.2 0 .3 0 .1-.2.2-.4.1-1.9-.5-2.8-.7-4.7-1.2-.3-.1-.4-.2-.5-.4-1.5-3.4-2.3-5.1-3.9-8.5-.6 2.8-.9 4.3-1.6 7.1-.1.2-.3.4-.6.3-1.4-.3-2.1-.5-3.6-.7-.3-.1-.5-.3-.5-.6 1.3-6.2 1.9-9.3 3.1-15.5 0-.2.3-.4.7-.3 1.5.3 2.3.5 3.8.8.3.1.5.3.5.5l-1.5 7c3.1-2.3 4.7-3.5 7.9-5.7.2-.1.4-.2.7-.1 1.8.4 2.6.6 4.4 1.1.3.1.4.2.4.4-.1 0-.2.1-.3.2zm5.4 1.6c-1.5 0-2.6-1.2-2.6-2.6s1.2-2.6 2.6-2.6c1.5 0 2.6 1.2 2.6 2.6s-1.1 2.6-2.6 2.6z"/><path d="M184.2 75.5c-1.2 0-2.2 1-2.2 2.2s1 2.2 2.2 2.2c1.2 0 2.2-1 2.2-2.2s-.9-2.2-2.2-2.2zm1.4 1.8c0 .5-.2.8-.5.9l.5 1.1h-1l-.4-.9h-.3v.9h-1v-3.1h1.6c.6 0 1.1.2 1.1 1.1z"/><path d="M184.3 77h-.4v.7h.4c.2 0 .3-.1.3-.3v-.1c0-.3-.1-.3-.3-.3z"/></g></g><path fill="#85C49F" d="M134.1 73.1c-.3 0-.4.1-.4.3-1 2.4-1.4 3.6-2.4 6 1.7.2 2.5.3 4.2.5-.4-2.5-.6-3.8-1-6.4-.1-.2-.1-.4-.4-.4z"/></svg>