<?xml version="1.0" encoding="utf-8"?>
<!-- Generator: Adobe Illustrator 20.1.0, SVG Export Plug-In . SVG Version: 6.00 Build 0)  -->
<svg version="1.1" xmlns="http://www.w3.org/2000/svg" xmlns:xlink="http://www.w3.org/1999/xlink" x="0px" y="0px"
	 viewBox="0 0 385.7 391.2" enable-background="new 0 0 385.7 391.2" xml:space="preserve">
<g id="Layer_2">
</g>
<g id="Layer_1">
	<g>
	</g>
	<g>
	</g>
	<g>
		<path fill="#FFFFFF" d="M89.1,73.6l0.1,0.7c28.7-22.2,64.6-35.5,103.7-35.5c28.3,0,54.9,7,78.4,19.3c0.5-1,1.2-1.9,1.9-2.7
			c-24-12.7-51.4-19.9-80.3-19.9C153,35.5,116.2,49.1,87,71.8l1.8-0.3L89.1,73.6z"/>
		<path fill="#FFFFFF" d="M92,102.7c27.2-26.1,63-40.5,100.8-40.5c29,0,56.8,8.5,80.5,24.2c0.4-2.6,0.8-5.2,1.1-7.8c0,0-0.1,0-0.1,0
			l-2-0.2l0.2-2l0.1-1.2l0.1-1.2l0.2-2l0.4,0c-2.6-2.6-4-6.2-3.6-9.9c0-0.3,0.1-0.6,0.1-0.9c-23.6-12.5-50-19.1-77.3-19.1
			c-37.8,0-73.8,12.7-103,35.9l0.1,0.5l0.1,0.8c0.2,1.3-0.3,2.7-1.2,3.6l3.1,19.7C91.9,102.8,92,102.7,92,102.7z"/>
		<path fill="#FFFFFF" d="M77.2,81.5c0.2,1,1,1.8,2,1.9c2.9,17.1,5.8,34.3,8.6,51.4c-0.1,0-0.2,0-0.2,0c-1.5,0.2-2.4,1.7-2.2,3.3
			c0.1,0.3,0.1,0.6,0.2,1c-1.8,0.3-3.5,0.6-5.3,0.9c0.1,0.8,0.3,1.6,0.4,2.4c0.8-0.1,1.6-0.3,2.5-0.4c1,5.6,2,11.3,3,16.9
			c-0.2,0-0.3,0.1-0.5,0.1c-0.7-3.8-1.3-7.5-2-11.3c-1.8,0.3-3.6,0.6-5.4,1c-0.2-1-0.4-1.9-0.5-2.9c-2.1,0.4-4.2,0.8-6.3,1.2
			c-0.2-1.2-0.5-2.4-0.7-3.7c-1.5,0.3-3,0.6-4.5,0.9c0.4,2,0.8,4,1.2,6c-1.2,0.2-2.4,0.5-3.6,0.7c0.8,3.7,1.6,7.4,2.4,11.2
			c-2.2,0.5-4.4,0.9-6.6,1.4c0.5,2.5,1.1,4.9,1.6,7.4c-0.1,0-0.1,0-0.2,0c0.5,2,0.9,4,1.4,6c42.8-9.6,86.5-14.4,130.1-14.4
			c43.6,0,87.3,4.8,130.1,14.4c0.5-2,0.9-4.1,1.4-6.1c0,0,0,0,0,0c2.3-10.5,4.7-21,7-31.4c-0.7-0.2-1.4-0.3-2.1-0.5
			c0.2-0.7,0.3-1.4,0.5-2.1c-1.4-0.3-2.7-0.6-4.1-0.9c-0.2,0.8-0.3,1.6-0.5,2.4c-2.9,1-5.8,2-8.7,3.1c-0.7,3.5-1.4,7.1-2.1,10.6
			c-1.1-0.2-2.3-0.5-3.4-0.7c0.3-1.7,0.6-3.3,1-5c-0.9-0.2-1.8-0.3-2.7-0.5c0.2-1.2,0.5-2.5,0.7-3.7c-5-5.3-10.2-10.4-15.4-15.6
			c-1.1,5.4-2.2,10.8-3.3,16.2c-1.1-0.2-2.1-0.3-3.2-0.5c-0.1,0.8-0.3,1.6-0.4,2.4c-0.9-0.1-1.8-0.3-2.7-0.4c0.3-2.2,0.7-4.4,1-6.7
			c-2.6-0.4-5.2-0.8-7.9-1.1c-0.3,2.4-0.7,4.9-1,7.3c-0.1,0-0.2,0-0.3,0c2.6-22,5.1-44,7.6-66c0.7,0.1,1.4,0.2,2.1,0.3
			c0.1-0.8,0.2-1.6,0.3-2.4c-0.8-0.1-1.7-0.2-2.5-0.3c0.1-0.7,0.2-1.3,0.3-2c4.1-0.9,7.4-4.1,8.1-8.4c0.6-4.3-1.7-8.4-5.6-10.3
			c0.2-1.2,0.3-2.4,0.5-3.6c0.4,0.1,0.9,0.1,1.3,0.2c0.1-0.5,0.1-1,0.2-1.5c-0.9-0.1-1.8-0.2-2.7-0.4c0.1-1,0.3-2.1,0.4-3.1
			c-0.1,0-0.3,0-0.4-0.1c0-0.7-0.3-1.3-0.9-1.6c1.7-13.2,3.4-26.3,5.1-39.5c0-0.3-0.2-0.5-0.5-0.5c-0.1,0-0.2,0-0.3,0
			c0,0-0.1,0-0.1,0c-0.3,0-0.5,0.2-0.5,0.4c-1.7,13.2-3.4,26.3-5,39.5c-0.7,0.2-1.2,0.7-1.3,1.4c-0.1,0-0.3,0-0.4-0.1
			c-0.1,1-0.3,2.1-0.4,3.1c-0.9-0.1-1.8-0.2-2.7-0.3c-0.1,0.5-0.1,1-0.2,1.5c0.4,0.1,0.9,0.1,1.3,0.2c-0.2,1.2-0.3,2.4-0.5,3.7
			c-4.2,0.9-7.5,4.2-8,8.6c-0.5,4.3,1.9,8.3,5.7,10.2c-0.1,0.7-0.2,1.3-0.2,2c-0.8-0.1-1.7-0.2-2.5-0.3c-0.1,0.8-0.2,1.6-0.3,2.4
			c0.7,0.1,1.4,0.2,2.1,0.3c-2.8,19.6-5.6,39.2-8.4,58.8c-2.8-0.3-5.6-0.7-8.4-1c0.3-2.8,0.6-5.7,0.9-8.5
			c-5.9-0.6-11.8-1.2-17.7-1.7c-1,0.1-2.1,0.2-3.1,0.3c-0.8,10.9-1.6,21.9-2.3,32.8c-1.7,0-3.4,0.1-5.1,0.1
			c-0.8-0.1-1.6-0.1-2.3-0.1c0.2-2.6,0.3-5.1,0.5-7.7c-0.5,0-1.1-0.1-1.6-0.1c0.3-5,0.6-10.1,0.9-15.1c-0.1,0-0.3,0-0.4,0
			c0.5-1.1,0.9-2.2,1.4-3.3c0.9,0.1,1.7,0.1,2.6,0.2c0-0.6,0.1-1.3,0.1-1.9c-0.8-0.1-1.7-0.1-2.5-0.2c0.1-1.7,0.2-3.5,0.3-5.2
			c0.7,0,1.4,0.1,2.1,0.1c1.6-2.3,3.2-4.5,4.8-6.8c0.1-0.9,0.1-1.7,0.2-2.6c-3-0.2-6-0.4-9-0.6c0.1-1.8,0.2-3.5,0.3-5.3
			c0,0,0.1,0,0.1,0c0.7-1.3,1.3-2.6,2-3.8c0.9,0.1,1.8,0.1,2.7,0.2c0-0.5,0.1-1.1,0.1-1.6c-12.7-0.8-25.5-1.3-38.2-1.3
			c0-1.1,0-2.3,0-3.4c-1.3,0-2.6,0-3.8,0c-1.1,0-2.2,0-3.3,0c0-0.1,0-0.1,0-0.2c-0.2-0.4-1.1-0.2-1.5-0.4c-0.4-0.2-0.2-2,0.3-2.4
			c0.5-0.4,0.2-1.4,1.4-1.5c0,0,0,0,0,0c1.1,0,1.1,1.8,1.2,2.5c0.1,0.7-0.6,1.1-0.3,1.6c0,0.1,0.1,0.1,0.2,0.1c0.3,0,0.8-0.8,0.9-2
			c0.2-1.5-0.4-2.2-0.5-2.8c-0.2-0.6,0.5-1.9,0.3-2.8c-0.2-0.9-0.7-1.2-0.7-1.6c0-0.2,0.1-0.2,0.3-0.2c0.1,0,0.1,0,0.2,0
			c0.3,0,0.6,0,0.8-0.3c0.5-0.5-0.2-1.2-0.3-1.5c-0.1-0.4,0.6-1,0.7-1.6c0.1-0.6-0.8-1.5-1.9-1.7c0,0,0,0-0.1,0c-1.1,0-3.1,5-3.4,6
			c-0.4,1-1.7,0.1-2.5,1c-0.4,0.5-0.4,1-0.2,1.8c-0.6,0.2-1.3,0.4-1.9,0.5c-1.3-2.6-4-4.5-7.1-4.6c0-0.8,0-1.5-0.1-2.3
			c1-0.3,1.8-1.2,1.7-2.3c0-1.1-0.8-2-1.8-2.2c0-0.3,0-0.7,0-1c0.2-0.1,0.5-0.1,0.6-0.3c1.2-1.3,2.4-2.5,3.6-3.8
			c0.5-0.5,0.5-1.3,0-1.7c-0.2-0.2-0.5-0.3-0.9-0.3c-0.3,0-0.7,0.1-0.9,0.4c-1,1.1-2,2.1-3.1,3.2c-1.1-1-2.1-2-3.2-3
			c-0.2-0.2-0.5-0.3-0.8-0.3c-0.3,0-0.7,0.1-0.9,0.4c-0.5,0.5-0.4,1.3,0.1,1.7c1.3,1.2,2.5,2.4,3.8,3.6c0.2,0.2,0.4,0.3,0.7,0.3
			c0,0.3,0,0.7,0,1c-1,0.3-1.8,1.2-1.7,2.3c0,1.1,0.8,2,1.8,2.2c0,0.8,0,1.5,0.1,2.3c-3.1,0.3-5.7,2.2-6.9,4.9
			c-0.6-0.1-1.3-0.3-1.9-0.4c0.2-0.8,0.2-1.3-0.3-1.8c-0.3-0.3-0.7-0.4-1.1-0.4c-0.2,0-0.3,0-0.5,0c-0.4,0-0.8-0.1-1-0.5
			c-0.4-1-2.6-5.8-3.7-5.8c0,0-0.1,0-0.1,0c-1.1,0.3-2,1.2-1.8,1.8c0.1,0.6,0.9,1.2,0.8,1.6c-0.1,0.4-0.7,1-0.2,1.5
			c0.2,0.2,0.4,0.2,0.7,0.2c0.2,0,0.3,0,0.4,0c0.1,0,0.2,0,0.3,0.2c0,0.4-0.4,0.8-0.6,1.7c-0.1,0.9,0.6,2.2,0.5,2.8
			c-0.1,0.6-0.7,1.3-0.4,2.8c0.2,1.2,0.7,1.9,1,1.9c0.1,0,0.1,0,0.2-0.1c0.2-0.4-0.5-0.9-0.4-1.5c0.1-0.7,0-2.5,1.1-2.6c0,0,0,0,0,0
			c1.2,0,0.9,1,1.4,1.4c0.5,0.4,0.8,2.2,0.4,2.4c-0.4,0.2-1.3,0-1.5,0.4c0,0.1,0,0.1,0,0.2c-2.4,0.1-4.8,0.2-7.1,0.4
			c0.1,1.1,0.1,2.3,0.2,3.4c-12.7,0.8-25.4,1.9-38.1,3.4c0.1,0.5,0.1,1.1,0.2,1.6c0.9-0.1,1.8-0.2,2.7-0.3c0.7,1.2,1.5,2.5,2.2,3.7
			c0,0,0.1,0,0.1,0c0.2,1.8,0.4,3.5,0.6,5.3c-3,0.3-6,0.7-9,1.1c0.1,0.9,0.2,1.7,0.3,2.6c1.7,2.2,3.5,4.3,5.2,6.5
			c0.7-0.1,1.4-0.2,2.1-0.2c0.2,1.7,0.4,3.5,0.6,5.2c-0.8,0.1-1.7,0.2-2.5,0.3c0.1,0.6,0.2,1.3,0.2,1.9c0.9-0.1,1.7-0.2,2.6-0.3
			c0.3,0.6,0.6,1.2,0.9,1.9c-4.3,0.5-8.5,1-12.8,1.6c1.1,8,2.2,16,3.2,24c-1.2,0.2-2.3,0.3-3.5,0.5c-0.2-1.4-0.4-2.9-0.6-4.3
			c-0.1-0.8-0.2-1.6-0.3-2.5c-1.3,0.2-2.6,0.3-3.8,0.5c-0.8-5.7-1.7-11.3-2.5-17c0.8-0.1,1.6-0.2,2.5-0.4c-0.1-0.8-0.2-1.6-0.4-2.5
			c-1.9,0.3-3.7,0.5-5.6,0.8c0-0.3-0.1-0.6-0.1-1c-0.2-1.4-1.4-2.4-2.7-2.4c-0.1,0-0.3,0-0.4,0c-0.1,0-0.2,0-0.2,0
			c-2.7-17.2-5.4-34.3-8.1-51.5c0.9-0.4,1.5-1.4,1.3-2.4c0-0.3-0.1-0.6-0.1-0.8c-0.3-1.7-0.5-3.4-0.8-5.1c-0.6,0.1-1.1,0.2-1.7,0.3
			c-0.5,0.1-1.1,0.2-1.6,0.3c-0.2-1.4-0.4-2.8-0.7-4.2c0-0.1-0.1-0.3-0.1-0.4c0.3,0.1,0.5,0.1,0.8,0.1c0.9,0,1.7-0.4,2.3-1.1
			c1-1.2,0.8-3-0.5-4c-1.1,1.4-2.2,2.7-3.3,4.1c-0.2-0.2-0.4-0.3-0.6-0.3c0.1-0.2,0.2-0.4,0.1-0.7c-0.1-0.6-0.6-1-1.2-1
			c-0.1,0-0.1,0-0.2,0c-0.7,0.1-1.1,0.7-1,1.4c0,0.2,0.2,0.4,0.3,0.6c-0.2,0.1-0.4,0.3-0.5,0.5c-1.5-1-3-1.9-4.4-2.8
			c-0.9,1.3-0.5,3.1,0.8,3.9c0.5,0.3,1,0.5,1.6,0.5c0.6,0,1.2-0.2,1.7-0.5c0,0.1,0,0.3,0,0.4c0.2,1.4,0.5,2.8,0.7,4.2
			c-0.5,0.1-1.1,0.2-1.6,0.3c-0.6,0.1-1.1,0.2-1.7,0.3c0.3,1.7,0.6,3.4,0.9,5.1C77.1,81,77.2,81.3,77.2,81.5z M210.1,125.2
			c0-0.6,0.4-1,1-1c0,0,0,0,0,0c3.3,0.1,6.6,0.2,9.9,0.4c0.5,0,1,0.5,0.9,1.1c-0.5,10.1-0.9,20.2-1.4,30.4c0,0.1,0,0.2-0.1,0.4
			c-3.7-0.2-7.4-0.3-11.1-0.4c0-0.1-0.1-0.2-0.1-0.4C209.6,145.4,209.9,135.3,210.1,125.2z M193.1,124.9c0-0.6,0.4-1,1-1
			c0,0,0,0,0,0c3.3,0,6.6,0,9.9,0.1c0.5,0,1,0.5,1,1.1c-0.2,10.1-0.4,20.3-0.6,30.4c0,0.1,0,0.2-0.1,0.4c-3.7-0.1-7.4-0.1-11.1-0.1
			c0-0.1-0.1-0.2-0.1-0.4C193.1,145.2,193.1,135.1,193.1,124.9z M167.4,123c5.9-0.2,11.9-0.4,17.8-0.5c0,0,0,0,0,0c0.5,0,1,0.5,1,1
			c0.1,10.7,0.2,21.4,0.3,32.1c-6.2,0.1-12.5,0.2-18.7,0.5c-0.4-10.7-0.9-21.4-1.3-32.1C166.5,123.5,166.9,123.1,167.4,123z
			 M147,125.6c3.3-0.2,6.6-0.5,9.9-0.6c0,0,0,0,0.1,0c0.5,0,0.9,0.4,1,1c0.6,10.1,1.1,20.2,1.7,30.3c0,0.1,0,0.2,0,0.4
			c-3.7,0.2-7.4,0.4-11.1,0.7c0-0.1-0.1-0.2-0.1-0.4c-0.7-10.1-1.5-20.2-2.2-30.3C146,126.1,146.4,125.6,147,125.6z M129.2,127.9
			c3.3-0.3,6.6-0.6,9.8-0.9c0,0,0.1,0,0.1,0c0.5,0,0.9,0.4,1,1c0.8,10.1,1.7,20.2,2.5,30.3c0,0.1,0,0.2,0,0.4
			c-3.7,0.3-7.4,0.7-11.1,1c0-0.1-0.1-0.2-0.1-0.3c-1-10.1-2.1-20.2-3.1-30.2C128.3,128.4,128.7,127.9,129.2,127.9z"/>
		<path fill="#FFFFFF" d="M364.7,191.4c-4.9-50.6-31.8-94.9-70.9-123.1c-0.4,1-1,2-1.7,2.8c37.9,27.5,64.1,70.3,69.2,119.3
			c-1.3-0.4-2.6-0.7-3.9-1.1c-4.3-38.2-21.6-73.5-49.6-100.5c-5.8-5.6-11.9-10.7-18.3-15.3c-0.3,0.2-0.6,0.4-0.9,0.6l0.4,0.1l-0.3,2
			l-0.3,2.4l-0.3,2l-2-0.3c0,0-0.1,0-0.1,0c-0.5,4.8-1.1,9.7-1.7,14.6c3.3,2.7,6.5,5.5,9.5,8.4c10.7,10.3,19.6,22.1,26.6,34.8
			c0.9-0.3,1.8-0.6,2.7-1l0.3-1.3l0.4-2l2,0.4c1.4,0.3,2.8,0.6,4.1,0.9l2,0.4l-0.4,2l0,0.1c0.1,0,0.1,0,0.2,0l2,0.4l-0.4,2
			l-3.5,15.7l-0.3,1.5c3.2,8.6,5.6,17.5,7.1,26.7c-95.1-23-192.3-23-287.5,0c4.4-26.2,15.8-50.6,33.2-70.8l-4.1-24.7
			c-28.2,27-45.6,62.5-49.9,100.9c-1.3,0.4-2.5,0.7-3.8,1.1c4.4-41.5,23.8-78.6,52.7-105.7c-0.9-0.6-1.6-1.6-1.8-2.8l0,0
			c-30,28-50.1,66.4-54.3,109.5c-7,2-14,4.2-20.9,6.5c6.6,21.4,13.3,43,19.9,64.4l9.9-4.8l0.5,1.5l3.1,9.4l-3-1.4
			c15.4,42.4,46.9,77.1,87.1,96.7c-1.1,2.7-2.2,5.5-3.3,8.2c53.5,19.4,106.3,19.4,159.7,0c-1.2-3.1-2.4-6.1-3.6-9.2
			c39.2-19.8,69.9-54,85-95.7l-3,1.4l3.1-9.4l0.5-1.5l9.9,4.8c6.7-21.7,13.3-43.1,19.9-64.4C378.7,195.5,371.7,193.4,364.7,191.4z
			 M299.4,227.5c2.3-11.4,3.4-17.1,5.7-28.5c0.1-0.4,0.6-0.6,1.2-0.6c2.7,0.6,4.1,0.9,6.9,1.4c0.6,0.1,0.9,0.6,0.9,1
			c-1.2,5.1-1.7,7.7-2.8,12.8c5.6-4.3,8.6-6.3,14.4-10.5c0.4-0.3,0.7-0.4,1.3-0.2c3.2,0.8,4.8,1.2,8,2c0.6,0.1,0.8,0.4,0.7,0.6
			c-0.1,0.2-0.3,0.4-0.4,0.6c-6.3,4.1-9.5,6.2-15.7,10.5c3.2,6.3,5,9.7,8.5,17.3c0.1,0.2,0.1,0.4,0.1,0.5c-0.1,0.3-0.4,0.4-0.8,0.2
			c-3.4-0.9-5.1-1.3-8.5-2.2c-0.6-0.1-0.8-0.4-0.9-0.8c-2.8-6.3-4.3-9.4-7.2-15.6c-1.2,5.2-1.7,7.9-2.9,13.1
			c-0.1,0.4-0.6,0.7-1.2,0.6c-2.6-0.6-3.9-0.8-6.6-1.4C299.6,228.5,299.3,228,299.4,227.5z M331.9,252.3
			c-12.7,40.6-42.7,73.6-81.3,90.4c-40.7,12.3-80.4,11.4-121.3-2.6c-35.9-17.4-63.6-49.2-75.7-87.8
			C145.8,228.3,239.9,228.3,331.9,252.3z M272,210.5c0.3-2,0.4-3.1,0.8-5.1c1.4-9.7,9.5-11.8,17.7-10.4c3.8,0.6,6.7,1.7,7.7,2.2
			c0.7,0.3,1.2,0.6,0.9,1.2c-0.3,1.6-0.4,2.4-0.7,4c-0.1,0.5-0.4,0.8-1.2,0.6c-0.1,0-0.1,0-0.1-0.1c-2-0.5-4.8-1.2-7.7-1.7
			c-3.6-0.6-6.7,0.4-7.6,5.8c-0.4,2-0.5,3-0.8,5.1c-0.9,5.4,1.7,7.4,5.2,7.9c2.8,0.5,5.6,0.8,7.6,1c0.1,0,0.1,0,0.1,0.1
			c0.6,0.1,0.9,0.5,0.8,0.9c-0.3,1.6-0.4,2.4-0.8,3.9c-0.1,0.6-0.6,0.7-1.3,0.7c-1.2,0.1-4.1-0.1-7.6-0.6
			C277.4,224.6,270.7,220.3,272,210.5z M234.8,218.5c3.8-10,5.8-14.9,10-24.8c1.6-3.8,5.6-4.1,9.3-3.7c3.7,0.4,7.5,1.5,8.3,5.6
			c1.9,10.5,2.7,15.8,4.3,26.4c0,0.1,0.1,0.1,0,0.2c-0.1,0.4-0.4,0.6-0.9,0.5c-2.8-0.4-4.3-0.6-7.1-0.9c-0.5-0.1-0.9-0.4-0.9-0.9
			c-0.4-2.7-0.6-4.2-1-6.9c-4.2-0.5-6.3-0.7-10.5-1.2c-1,2.6-1.5,3.9-2.5,6.6c-0.1,0.4-0.6,0.7-1.1,0.6c-2.9-0.3-4.3-0.4-7.1-0.6
			c-0.5-0.1-0.9-0.3-0.8-0.7C234.7,218.6,234.8,218.6,234.8,218.5z M200.8,187.7c0-0.4,0.5-0.8,1.1-0.8c2.8,0.1,4.3,0.1,7.1,0.1
			c0.6,0,1.1,0.4,1.1,0.8c-0.1,4.4-0.2,6.6-0.4,11c5.2,0.1,7.8,0.3,13,0.6c0.3-4.4,0.4-6.6,0.6-11c0.1-0.4,0.5-0.8,1.2-0.7
			c2.8,0.1,4.3,0.3,7.1,0.4c0.6,0.1,1.1,0.4,1,0.9c-1,11.7-1.4,17.5-2.2,29.1c-0.1,0.4-0.5,0.8-1.1,0.8c-2.7-0.2-4-0.3-6.6-0.4
			c-0.6-0.1-0.9-0.4-0.9-0.9c0.3-4.8,0.4-7.1,0.6-11.9c-5.1-0.3-7.7-0.4-12.8-0.6c-0.1,4.8-0.3,7.1-0.4,11.9c0,0.4-0.4,0.8-1,0.8
			c-2.7-0.1-4-0.1-6.6-0.1c-0.6,0-1-0.4-1-0.9C200.5,205.2,200.5,199.3,200.8,187.7z M182.8,186.4c5.8-0.1,8.4,0.3,10.4,0.4
			c0.8,0.1,1.1,0.3,1.1,0.8c-0.3,1.7-0.3,2.5-0.3,4c0,0.4-0.4,0.8-1.1,0.8c-4.3,0-6.5,0-10.7,0.1c-2.5,0.1-3.4,0.7-3.3,2.9
			c0.1,1.5,0.1,2.2,0.1,3.8c5.5-0.1,8.2-0.1,13.6-0.1c0.6,0,1.1,0.4,1.1,0.8v3.9c0,0.4-0.4,0.8-1,0.8c-5.4,0-8.1,0-13.5,0.1
			c0.1,1.7,0.1,2.6,0.1,4.4c0.1,2.2,0.9,2.8,3.4,2.7c4.2-0.1,6.3-0.1,10.4-0.1c0.6,0,1,0.4,1,0.8v3.8c0,0.6-0.3,0.8-1,0.9
			c-1.8,0.2-4.4,0.5-9.8,0.6c-6.6,0.1-12.4-1.1-12.6-8.6c-0.2-5.5-0.3-8.2-0.5-13.6C169.7,188.1,175.9,186.5,182.8,186.4z
			 M142.8,188.7c2.8-0.3,4.2-0.4,7-0.6c0.6-0.1,1.1,0.3,1.2,0.8c0.6,8.5,0.9,12.8,1.5,21.3c0.1,2.2,1.1,2.7,3.5,2.6
			c3.5-0.2,5.3-0.3,8.8-0.4c0.6-0.1,1,0.3,1.1,0.8c0.1,1.5,0.1,2.3,0.1,3.8c0.1,0.6-0.2,0.8-0.9,0.9c-1.7,0.4-5.6,0.8-8.3,0.9
			c-6.6,0.4-12.5-0.4-13.1-7.9c-0.7-8.5-1.1-12.8-1.8-21.3C141.8,189.2,142.3,188.8,142.8,188.7z M126.8,190.1
			c3.8-0.4,6.9-0.3,8-0.1c0.8,0.1,1.2,0.2,1.3,0.8c0.1,1.6,0.2,2.4,0.4,4c0.1,0.5-0.3,0.9-0.9,0.9h-0.1c-2,0.1-5,0.1-7.9,0.5
			c-3.7,0.4-6.3,2.2-5.7,7.7c0.3,2,0.4,3.1,0.6,5.1c0.6,5.5,3.7,6.6,7.2,6.2c2.8-0.3,5.6-0.8,7.6-1.2h0.1c0.6-0.1,1,0.3,1.1,0.7
			c0.1,1.6,0.2,2.4,0.4,4c0,0.6-0.4,0.8-1.1,1c-1,0.4-3.9,1.1-7.4,1.5c-7.7,0.9-15.4-1.4-16.7-11.1c-0.3-2-0.4-3.1-0.7-5.1
			C111.5,195.3,118.7,191,126.8,190.1z M75.8,198.4c3-0.6,4.6-0.9,7.6-1.5c0.5-0.1,0.9,0.1,1.2,0.5c3.2,4.1,4.7,6.2,7.7,10.4
			c0.4,0.4,0.5,0.6,0.9,0.4c0.4-0.1,0.5-0.1,0.6-0.8c1.4-5,2.2-7.4,3.8-12.5c0.1-0.4,0.4-0.8,0.9-0.9c3-0.5,4.6-0.7,7.6-1.2
			c0.5-0.1,0.9,0.1,0.9,0.5c0.1,0.2,0.1,0.4,0.1,0.4c-2.4,6.1-3.5,9.2-5.8,15.4c-0.7,2-1.7,3-2.9,3.7c0.8,4.5,1.2,6.8,1.9,11.3
			c0.1,0.4-0.3,0.9-0.9,0.9c-2.7,0.4-3.9,0.6-6.6,1.2c-0.6,0.1-1.1-0.2-1.2-0.6c-0.8-4.5-1.2-6.8-2.1-11.3c-1.3-0.2-2.6-0.8-4-2.5
			c-4.2-5-6.3-7.5-10.6-12.5c-0.1-0.1-0.1-0.2-0.1-0.3C75,198.9,75.3,198.6,75.8,198.4z M62.6,200.8c3.7-0.8,6.9-1.1,8-1
			c0.8,0,1.2,0.1,1.3,0.6c0.3,1.6,0.5,2.4,0.8,3.9c0.1,0.4-0.1,0.9-0.8,1c-0.1,0-0.1,0-0.1,0.1c-2,0.3-5,0.7-7.8,1.4
			c-3.5,0.8-6.1,3-4.8,8.3c0.4,2,0.7,3,1.2,5c1.3,5.3,4.4,6.1,7.9,5.3c2.7-0.6,5.5-1.4,7.4-1.9c0.1,0,0.1,0,0.1-0.1
			c0.6-0.1,1,0.1,1.2,0.6c0.3,1.6,0.5,2.4,0.8,3.9c0.1,0.6-0.2,0.9-0.9,1.2c-0.9,0.5-3.8,1.5-7.3,2.3c-7.6,1.7-15.5,0.4-18-9.2
			c-0.5-2-0.8-3-1.3-5C47.9,207.7,54.6,202.7,62.6,200.8z M118.6,360.6C77.1,340.3,45,303.5,31,258.7c1.1-0.3,2.3-0.7,3.4-1
			c13.5,43.8,44.8,79.9,85.4,99.9C119.4,358.6,119,359.6,118.6,360.6z M140.2,366.1c-0.2,0.6-0.3,1-0.4,1.6c-0.8,3-3.2,4.2-6.8,3.1
			c-2.3-0.7-3.4-1.1-5.7-1.8c2.6-7.7,3.9-11.6,6.5-19.3c2,0.7,3,1,4.9,1.6c3.4,1,4.5,2.9,3.6,5.9c-0.1,0.3-0.1,0.4-0.2,0.7
			c-0.6,2-1.6,3.1-3.3,3.3C140.5,362.3,140.8,364,140.2,366.1z M151.3,372.5c-0.2,1.1-0.4,1.7-0.6,2.9c-4-0.9-6-1.3-10-2.4
			c2.1-7.9,3.1-11.8,5.2-19.7c3.6,0.9,5.4,1.4,9.1,2.1c-0.2,1.1-0.4,1.7-0.6,2.9c-2.3-0.5-3.5-0.8-5.8-1.3c-0.5,2.2-0.8,3.3-1.3,5.5
			c1.9,0.5,2.9,0.7,4.8,1.1c-0.2,1.1-0.4,1.7-0.6,2.8c-1.9-0.4-2.9-0.6-4.8-1.1c-0.6,2.3-0.8,3.5-1.4,5.8
			C147.6,371.7,148.8,372,151.3,372.5z M166.4,362.2c-0.1,0.6-0.1,1-0.2,1.6c-0.3,2.1-1.2,3.3-2.9,3.7c1.7,0.9,2,2.5,1.7,4.7
			c-0.2,1.2-0.3,1.9-0.4,3.1c-0.1,1-0.2,1.7,0.1,2.5c-1.5-0.2-2.3-0.3-3.8-0.6c-0.1-0.6-0.2-0.9,0.1-2.5c0.2-1.3,0.3-1.9,0.5-3.2
			c0.3-1.9-0.3-2.7-1.9-3c-0.5-0.1-0.7-0.1-1.2-0.2c-0.6,3.3-0.9,4.9-1.5,8.2c-1.5-0.3-2.2-0.4-3.7-0.7c1.6-8,2.4-12,4-20
			c2,0.4,3,0.6,5.1,0.9C165.6,357.3,166.8,359.1,166.4,362.2z M176.5,379.1c-4-0.3-6-0.5-9.9-1.1c1.1-8.1,1.6-12.1,2.7-20.2
			c1.3,0.2,2,0.3,3.4,0.4c-0.8,6.9-1.2,10.4-2,17.4c2.4,0.3,3.6,0.4,6.1,0.6C176.7,377.4,176.6,378,176.5,379.1z M181.9,379.5
			c-1.5-0.1-2.3-0.1-3.8-0.3c0.6-8.1,0.9-12.2,1.5-20.3c1.4,0.1,2,0.1,3.4,0.2C182.6,367.3,182.4,371.4,181.9,379.5z M192.7,379.8
			c-1.8-5.9-2.7-8.9-4.3-14.8c-0.2,5.9-0.3,8.9-0.4,14.8c-1.4,0-2-0.1-3.4-0.1c0.4-8.2,0.5-12.2,0.9-20.4c1.7,0.1,2.6,0.1,4.3,0.1
			c1.3,4.9,2,7.4,3.4,12.3c0-4.9,0-7.3,0-12.2c1.2,0,1.8,0,3,0c0.1,8.2,0.1,12.2,0.2,20.4C195,379.9,194.2,379.9,192.7,379.8z
			 M209.9,379.3c-0.1-1-0.1-1.5-0.2-2.5c-0.5-6,6.6-7.6,5.9-13.5c-0.2-1.8-0.9-2.2-2-2.1c-1.1,0.1-1.7,0.7-1.6,2.2
			c0.1,0.9,0.1,1.3,0.2,2.2c-1.3,0.1-2,0.2-3.3,0.3c-0.1-0.8-0.1-1.2-0.1-2c-0.2-3.3,1.3-5.2,4.7-5.6c3.3-0.3,5.3,1.3,5.7,4.5
			c0.8,6.4-6.1,9.5-5.8,12.9c0,0.1,0,0.3,0.1,0.4c2.8-0.3,4.2-0.4,7-0.8c0.1,1.2,0.2,1.7,0.4,2.9
			C216.4,378.7,214.2,378.9,209.9,379.3z M228.7,377.2c-3.7,0.6-5.9-1-6.4-4.2c-0.6-4.2-0.9-6.3-1.5-10.5c-0.5-3.2,1.1-5.3,4.4-5.9
			c3.3-0.6,5.4,0.9,6.1,4.1c0.8,4.2,1.2,6.2,2,10.4C234,374.3,232.4,376.6,228.7,377.2z M241.9,374.3c-1.4-6.1-2.1-9.1-3.5-15.1
			c-1.1,0.2-1.6,0.4-2.6,0.6c-0.2-0.9-0.3-1.3-0.5-2.2c2.6-0.6,2.9-1.9,3.1-3.3c0.9-0.2,1.3-0.3,2.2-0.6c2,7.9,3,11.9,5,19.8
			C244.1,373.8,243.3,374,241.9,374.3z M255.3,370.9c-3.7,1.1-6.2-0.1-7.1-3.3c-0.2-0.6-0.3-0.9-0.4-1.5c-0.5-1.9-0.3-3.5,1-4.7
			c-1.6-0.3-2.7-1.4-3.2-3.4c-0.1-0.2-0.1-0.4-0.2-0.6c-0.9-3.1,0.5-5.4,3.8-6.4c3.3-1,5.7,0.1,6.7,3.2c0.1,0.2,0.1,0.4,0.2,0.6
			c0.6,1.9,0.4,3.4-0.8,4.6c1.7,0.3,2.9,1.5,3.5,3.3c0.2,0.6,0.3,0.9,0.5,1.5C260.4,367.4,259,369.8,255.3,370.9z M269,359.6
			c-0.4-1-0.8-2-1.2-2.9c39.6-20.2,70-55.8,83.3-98.9c1.1,0.3,2.3,0.7,3.4,1C340.9,302.7,309.6,339.1,269,359.6z"/>
		<polygon fill="#FFFFFF" points="192.7,338.6 192.7,338.7 192.7,338.7 192.7,338.7 192.9,338.8 193,338.8 192.9,338.8 193,338.7 		
			"/>
		<polygon fill="#FFFFFF" points="192.7,338.5 192.7,338.6 192.9,338.7 193,338.6 		"/>
		<polygon fill="#FFFFFF" points="192.7,338.4 192.7,338.5 192.9,338.6 193,338.5 		"/>
		<polygon fill="#FFFFFF" points="192.7,338.8 192.2,338.6 192.2,338.6 192.1,338.7 192.1,338.8 193.4,339.5 193.5,339.5 
			193.5,339.3 193.1,339 		"/>
		<polygon fill="#FFFFFF" points="30.3,258.9 29.8,257.5 19.9,262.2 30.4,267 33.4,268.3 		"/>
		<polygon fill="#FFFFFF" points="355.4,258.9 352.3,268.3 355.3,267 365.8,262.2 355.9,257.5 		"/>
		<path fill="#FFFFFF" d="M253.8,197c-0.1-0.2-0.2-0.5-0.6-0.6c-0.4-0.1-0.6,0.1-0.8,0.5c-1.7,4.3-2.6,6.5-4.3,10.7
			c3,0.3,4.5,0.4,7.6,0.8C254.9,203.9,254.6,201.6,253.8,197z"/>
		<polygon fill="#FFFFFF" points="187.8,318.8 192.1,310.4 192.6,310.6 192.7,310.6 192.8,310.4 192.8,310.3 191.3,309.6 
			191.3,309.6 191.3,309.7 191.8,310.1 191.8,310.2 191.7,310.3 191.7,310.3 191.7,310.4 191.7,310.4 191.7,310.4 191.6,310.3 
			191.6,310.4 191.7,310.4 191.6,310.5 191.6,310.5 191.6,310.5 191.6,310.6 187.5,318.6 		"/>
		<polygon fill="#FFFFFF" points="187.4,326.9 187.7,326.6 187.4,326.4 		"/>
		<path fill="#FFFFFF" d="M167.7,324.5C167.7,324.5,167.7,324.4,167.7,324.5L167.7,324.5L167.7,324.5z"/>
		<path fill="#FFFFFF" d="M191.3,322.7c-1.1,0.3-1.2,0.5-2.1,0.5c-1-0.1-3.2-0.6-3.2-0.6s-1.5-0.4-1.6,0.5c0,0.1,0,0.1,0,0.2
			l-4.4-0.3c1.1-2.3,1.7-4.8,1.7-7.5c-0.1-9.6-7.8-17.3-17.3-17.3c-9.5,0-17.2,7.7-17.2,17.3c0,9.5,7.7,17.3,17.3,17.3
			c5,0,9.4-2.1,12.6-5.5l0.2,0.5l0.7-0.3l0.3,0.7l0.7-0.3l0.3,0.7l0.7-0.3l0.3,0.7l0.7-0.3l0.3,0.7l0.7-0.3l0.3,0.7l0.7-0.3l0.2,0.5
			l0,0v0.1l0,0l0,0.1v0.1l0.7,0.3c0.1,0.1,0.3,0.1,0.5,0c0.1-0.1,0.3-0.1,0.4-0.3l1-1.3c0.1,0.2,0.2,0.3,0.4,0.4l-3.6,6.7l0.4,0.2
			l3.5-6.6c0,0,0.1,0.1,0.1,0.1c0.5,0.2,1.9,0.8,2.6,0.7c0.3,0,0.5-0.1,0.8-0.4c0,0-0.1-0.1-0.1-0.1c0.3-0.4,0.7-0.8,0.9-1.3
			c0.5-1,0.3-2.2,0.2-3c-0.1-0.7-0.5-0.9,0.3-1.4c0.3-0.2,0.5-0.5,0.7-0.7c-0.1,0-0.3,0-0.5,0c0.3-0.1,0.5-0.2,0.8-0.1
			C192.2,322.8,192,322.5,191.3,322.7z M171.8,322.4l-3.2-2.6l-1.6-2.2l2.5,1.2l4.7,3.9L171.8,322.4z M168,322.4l-0.5-1.3l0.8,1.1
			C168.2,322.3,168.1,322.3,168,322.4z M170.4,324.9l-0.1-0.2l0,0L170.4,324.9z M168.5,322.1c0,0-0.1,0-0.1,0l-1.1-1.5l-1-2.6
			l2.2,1.8l1.7,2.4L168.5,322.1z M164.4,316.8l0.1,0.2l-0.1,0.3l-0.1-0.3L164.4,316.8z M164.2,316.7l-0.1-0.1l0.1-0.1l0.1,0.1
			L164.2,316.7z M164.4,316.6L164.4,316.6h0.1l-0.1,0.1L164.4,316.6z M164.7,316.7l0.1,0.1l-0.1,0.3l-0.2-0.3L164.7,316.7z
			 M164.8,316.6L164.8,316.6h0.1l-0.1,0.1L164.8,316.6z M164.8,315.9l-0.2,0.1h-0.2l-0.3-0.1l-0.1-0.1l-0.1-0.1l-0.1-0.1l-0.1-0.2
			v-0.1l0.1-0.2l0.1-0.2l0.1-0.1l0.1-0.1l0.2-0.1h0.2h0.1l0.3,0.1l0.1,0.1l0.1,0.1l0.1,0.2v0.2l-0.1,0.2l-0.1,0.2l-0.1,0.2
			L164.8,315.9z M163.8,316.5L163.8,316.5h0.1H163.8L163.8,316.5z M163.8,316.3L163.8,316.3L163.8,316.3L163.8,316.3z M163.1,315.7
			L163.1,315.7v0.1l-0.1-0.1L163.1,315.7z M163.1,315.5l-0.1-0.1l0.1-0.1V315.5L163.1,315.5z M163.1,315.2l-0.1-0.1l0.1-0.1V315.2
			L163.1,315.2z M163.3,315.5L163.3,315.5L163.3,315.5L163.3,315.5z M163.3,314.9L163.3,314.9l-0.1-0.1L163.3,314.9L163.3,314.9
			L163.3,314.9z M163.2,314.2l-0.1-0.3l0.3,0.1v0.2L163.2,314.2z M163.2,314.6H163l-0.2-0.3l0.3,0.1L163.2,314.6z M162.9,314.8
			l0.1,0.2l-0.2,0.1l-0.3-0.2L162.9,314.8z M162.9,315.2l0.1,0.1l-0.2,0.1l-0.3-0.1L162.9,315.2z M163,315.7l-0.1,0.1l-0.3-0.1
			l0.3-0.2L163,315.7z M162.9,316.1h0.2l-0.1,0.2l-0.3,0.1L162.9,316.1z M163.1,316.3h0.2l-0.1,0.2l-0.3,0.1L163.1,316.3z
			 M163.3,316.1L163.3,316.1l0.1-0.1v0.1H163.3z M163.5,316.6l0.2-0.1v0.2l-0.3,0.2L163.5,316.6z M163.4,314.7L163.4,314.7
			L163.4,314.7L163.4,314.7z M163.6,316.5l0.1-0.1h0.1v0.1L163.6,316.5z M163.6,314.3v-0.1V314.3L163.6,314.3L163.6,314.3z
			 M163.6,314l-0.1-0.3l0.3,0.2v0.2L163.6,314z M163.5,313.5l-0.1-0.7l0.4,0.6l-0.1,0.4L163.5,313.5z M163.5,314.5L163.5,314.5
			L163.5,314.5l-0.1-0.1L163.5,314.5z M163.1,313.8l-0.3-0.7l0.5,0.5l0.1,0.4L163.1,313.8z M162.9,313.9l0.1,0.3l-0.4-0.1l-0.4-0.5
			L162.9,313.9z M162.8,314.6l-0.4,0.1l-0.5-0.5l0.7,0.1L162.8,314.6z M162.7,315.1l-0.4,0.1l-0.7-0.3l0.9-0.1L162.7,315.1z
			 M162.3,315.4l0.4,0.1l-0.3,0.3l-0.7-0.1L162.3,315.4z M162.8,315.9l-0.3,0.3l-0.7,0.1l0.6-0.4L162.8,315.9z M162.6,316.4l0.4-0.1
			l-0.1,0.3l-0.7,0.3L162.6,316.4z M162.9,316.8l0.4-0.1l-0.1,0.4l-0.6,0.4L162.9,316.8z M163.4,317.1l0.3-0.3l0.1,0.4l-0.5,0.5
			L163.4,317.1z M164.4,313.9l-0.1-0.2l0.1-0.3l0.1,0.3L164.4,313.9z M164.6,314l0.1,0.1l-0.1,0.1l-0.1-0.1L164.6,314z M164.4,314.1
			L164.4,314.1h-0.1l0.1-0.1L164.4,314.1z M164.1,314l-0.1-0.1l0.1-0.3l0.2,0.3L164.1,314z M164,314.1L164,314.1h-0.1l0.1-0.1
			L164,314.1z M164.8,314.2l0.1-0.1v0.1H164.8L164.8,314.2z M166.9,316.5l-0.7-0.1l-0.2-0.3l0.4-0.1L166.9,316.5z M166.5,316.1
			l0.9-0.1l2.2,1l-2.4-0.4L166.5,316.1z M165.3,316.7l0.1,0.3l-0.3-0.2v-0.2L165.3,316.7z M165.1,316.5v-0.1h0.1L165.1,316.5
			L165.1,316.5z M165.3,314.4L165.3,314.4L165.3,314.4l0.1-0.1L165.3,314.4z M165.3,315.9L165.3,315.9L165.3,315.9L165.3,315.9z
			 M165.3,314.9L165.3,314.9L165.3,314.9L165.3,314.9z M165.3,314.1l-0.2,0.1V314l0.3-0.2L165.3,314.1z M165.5,314.2l0.3-0.1
			l-0.1,0.3h-0.2L165.5,314.2z M165.6,315.8l0.1,0.1h-0.1V315.8L165.6,315.8z M165.5,314.9L165.5,314.9h0.2H165.5L165.5,314.9z
			 M165.6,315.6L165.6,315.6h0.2H165.6L165.6,315.6z M165.6,315.2L165.6,315.2h0.2H165.6L165.6,315.2z M165.8,315l0.1-0.2l0.3,0.1
			l-0.3,0.2L165.8,315z M165.9,314.7h-0.2l0.1-0.2l0.3-0.1L165.9,314.7z M165.5,314.6h0.1l-0.1,0.1h-0.1V314.6z M165.6,316.4
			l0.1,0.3l-0.3-0.1v-0.3L165.6,316.4z M165.7,316.3l-0.1-0.2h0.2l0.2,0.3L165.7,316.3z M165.9,316l-0.1-0.2l0.2-0.1l0.3,0.2
			L165.9,316z M165.9,315.5l-0.1-0.1l0.1-0.1l0.3,0.1L165.9,315.5z M166.1,315.2l0.3-0.3l0.7,0.1l-0.7,0.3L166.1,315.2z
			 M166.4,314.8l-0.4-0.1l0.3-0.3l0.7-0.1L166.4,314.8z M166.2,314.3l-0.4,0.1l0.1-0.3l0.7-0.3L166.2,314.3z M165.9,313.9l-0.4,0.1
			l0.1-0.4l0.6-0.4L165.9,313.9z M165.5,313.5l-0.3,0.3l-0.1-0.4l0.5-0.5L165.5,313.5z M165.1,316.9l0.3,0.3l0.1,0.7l-0.4-0.6
			L165.1,316.9z M165.3,316.2L165.3,316.2L165.3,316.2l0.1,0.1L165.3,316.2z M165.7,316.9l0.3,0.7l-0.5-0.5l-0.1-0.4L165.7,316.9z
			 M165.9,316.9l-0.1-0.4l0.4,0.1l0.4,0.6L165.9,316.9z M166.8,317.4l1.4,2l-1.9-1.6L166,317L166.8,317.4z M166.3,316.5l0.8,0.1
			l2,1.6l-2.3-1.1L166.3,316.5z M167.4,316.7l2.7,0.4l8.6,3.9c-0.2,0.4-0.4,0.9-0.5,1.3l-8.6-3.8L167.4,316.7z M170.7,317.2l8.8,1.4
			c-0.1,0.7-0.4,1.5-0.7,2.2L170.7,317.2z M170.2,317l-2.5-1.2l2.8-0.3l9.2,1.5c-0.1,0.5-0.1,1-0.3,1.4L170.2,317z M167.4,315.9
			l-0.3-0.1l-0.8,0.1l-0.3-0.3l0.4-0.1l0.3,0.1l-0.3-0.1l0.8-0.3l2.5,0.4L167.4,315.9z M166.6,314.8l0.7-0.5l2.5-0.3l-2.4,0.9
			L166.6,314.8z M166.4,314.3l0.5-0.7l2.4-0.9l-2,1.4L166.4,314.3z M166.8,313.5l-0.8,0.3l0.3-0.7l2-1.5L166.8,313.5z M166.3,312.9
			l-0.7,0.5l0.1-0.9l1.6-1.9L166.3,312.9z M165.6,312.5l-0.5,0.7l-0.1-0.9l1.1-2.3L165.6,312.5z M165.1,314.4L165.1,314.4
			L165.1,314.4L165.1,314.4z M164.8,314l-0.1-0.2l0.2-0.3l0.1,0.3L164.8,314z M164.6,313.6l-0.1-0.4l0.3-0.7l0.1,0.8L164.6,313.6z
			 M164.4,313.1l-0.3-0.8l0.4-2.5l0.2,2.6L164.4,313.1z M164.4,313.3l-0.1,0.3l-0.3-0.3l0.1-0.7L164.4,313.3z M163.9,313.2l-0.5-0.7
			l-0.3-2.5l0.9,2.4L163.9,313.2z M163.4,313.4l-0.7-0.5l-0.9-2.4l1.5,2L163.4,313.4z M162.8,313.7l-0.7-0.3l-1.5-2l2,1.6
			L162.8,313.7z M162.5,314.2l-0.9-0.1l-1.9-1.6l2.3,1L162.5,314.2z M162.3,314.7l-0.9,0.1l-2.3-1.1l2.5,0.4L162.3,314.7z
			 M162.2,315.3l-0.7,0.3l-2.5-0.4l2.4-0.3L162.2,315.3z M162.2,315.9l-0.7,0.5l-2.5,0.3l2.4-0.9L162.2,315.9z M162.4,316.4
			l-0.5,0.7l-2.4,0.9l2-1.5L162.4,316.4z M162,317.2l0.8-0.3l-0.3,0.7l-2,1.4L162,317.2z M162.6,317.8l0.6-0.5l-0.1,0.9l-1.6,1.9
			L162.6,317.8z M163.2,318.2l0.5-0.7l0.1,0.9l-1,2.3L163.2,318.2z M163.8,316.8l0.2-0.1l0.1,0.2l-0.2,0.3L163.8,316.8z
			 M164.2,317.1l0.1,0.4l-0.3,0.7l-0.1-0.8L164.2,317.1z M164.3,317.6l0.3,0.8l-0.4,2.5l-0.2-2.6L164.3,317.6z M164.4,317.3l0.1-0.3
			l0.3,0.3l-0.1,0.7L164.4,317.3z M164.9,317.6l0.5,0.7l0.3,2.5l-0.9-2.4L164.9,317.6z M166.1,317.9l0.9,2.4l-1.4-2l-0.1-0.9
			L166.1,317.9z M173.1,325.7l0.2,0.5l0,0l0,0l-0.4-0.5L173.1,325.7z M170.5,322.3l-1.5-2.1l2.7,2.2L170.5,322.3z M170,318.8
			l8.1,3.7c-0.1,0.1-0.1,0.2-0.2,0.4l-3.3-0.2L170,318.8z M179.7,317l-8.8-1.4l8.8-0.9c0.1,0.2,0.1,0.5,0.1,0.7
			C179.8,315.9,179.7,316.5,179.7,317z M170.4,315.5l-2.7-0.5l2.6-1l9.3-0.9c0.1,0.5,0.1,0.9,0.1,1.4L170.4,315.5z M179.7,313
			l-8.8,0.9l8.3-3.1C179.4,311.5,179.5,312.3,179.7,313z M179,310.6l-8.8,3.3l-2.8,0.3l2.2-1.6l8.8-3.3
			C178.7,309.6,178.9,310.1,179,310.6z M170.2,312.3l7.1-5.2c0.4,0.6,0.7,1.4,1.1,2L170.2,312.3z M177.4,307l-7.7,5.5l-2.6,1
			l1.8-2.2l7.6-5.5C176.8,306.2,177.1,306.5,177.4,307z M176.4,305.7l-7.1,5.2l5.6-6.8C175.4,304.6,175.9,305,176.4,305.7z
			 M168.7,311.2l-2.2,1.6l1.2-2.5l5.9-7.3c0.4,0.3,0.7,0.5,1.1,0.9L168.7,311.2z M173.5,302.9l-5.6,6.9l3.7-8.1
			C172.3,302.1,172.9,302.5,173.5,302.9z M171.4,301.6l-3.8,8.6l-1.8,2.2l0.4-2.7l3.9-8.6C170.5,301.2,171,301.4,171.4,301.6z
			 M169.9,301l-3.7,8.1l1.4-8.8C168.4,300.5,169.2,300.7,169.9,301z M167.6,300.3l-1.5,9.2L165,312l-0.3-2.8l1.5-9.2
			C166.7,300.1,167.2,300.2,167.6,300.3z M164.4,300c0.5-0.1,1-0.1,1.6,0l-1.4,8.8l-0.9-8.8H164.4z M163.6,300l0.9,9.3l-0.4,2.7
			l-1-2.6l-0.9-9.3C162.7,300.1,163.1,300.1,163.6,300z M162,300.2l0.9,8.8l-3.1-8.3C160.5,300.4,161.2,300.3,162,300.2z
			 M159.6,300.7l3.3,8.8l0.3,2.8l-1.6-2.2l-3.3-8.8C158.7,301,159.1,300.8,159.6,300.7z M158.2,301.2l3.1,8.3l-5.2-7.2
			C156.8,301.9,157.5,301.6,158.2,301.2z M156,302.4l5.5,7.7l1,2.6l-2.2-1.8l-5.5-7.6C155.3,303,155.6,302.7,156,302.4z
			 M154.7,303.4l5.2,7.2L153,305C153.6,304.4,154.2,303.9,154.7,303.4z M153,305l7.3,6l1.6,2.2l-2.5-1.2l-7.3-6
			C152.3,305.8,152.6,305.4,153,305z M151.9,306.3l6.9,5.6l-8.1-3.7C151.1,307.6,151.5,306.9,151.9,306.3z M150.6,308.4l8.6,3.9
			l2.1,1.7l-2.8-0.4l-8.5-3.9C150.2,309.3,150.4,308.8,150.6,308.4z M150,309.7l8,3.7l-8.7-1.4C149.6,311.2,149.8,310.5,150,309.7z
			 M149.4,312.1l9.2,1.6l2.5,1.2l-2.7,0.3l-9.2-1.6C149.2,313.1,149.3,312.6,149.4,312.1z M148.9,315.4c0-0.5,0.1-1.1,0.1-1.7
			l8.8,1.4l-8.8,0.9C149,315.9,148.9,315.6,148.9,315.4z M158.4,315.2l2.7,0.4l-2.6,1l-9.4,0.9c-0.1-0.5-0.1-1-0.1-1.4L158.4,315.2z
			 M149.1,317.8l8.8-0.9l-8.3,3.1C149.4,319.3,149.3,318.5,149.1,317.8z M158.5,316.8l2.8-0.3l-2.2,1.6l-8.8,3.3
			c-0.2-0.4-0.3-0.9-0.5-1.4L158.5,316.8z M158.6,318.5l-7.2,5.2c-0.4-0.7-0.7-1.4-1.1-2L158.6,318.5z M151.4,323.8l7.7-5.5l2.6-1
			l-1.8,2.2l-7.6,5.4C152,324.6,151.7,324.2,151.4,323.8z M152.4,325l7.2-5.2l-5.6,6.9C153.4,326.2,152.9,325.6,152.4,325z
			 M154.1,326.9l6-7.3l2.2-1.6l-1.2,2.5l-6,7.3C154.8,327.5,154.5,327.2,154.1,326.9z M155.3,327.8l5.6-6.9l-3.7,8.1
			C156.6,328.7,155.9,328.3,155.3,327.8z M157.4,329.1l3.8-8.6l1.8-2.2l-0.4,2.7l-3.9,8.6C158.3,329.4,157.8,329.2,157.4,329.1z
			 M158.9,329.7l3.7-8.1l-1.4,8.8C160.4,330.3,159.6,330,158.9,329.7z M161.2,330.4l1.6-9.2l1.2-2.5l0.3,2.8l-1.6,9.2
			C162.1,330.6,161.7,330.5,161.2,330.4z M164.4,330.8c-0.5,0-1,0-1.6-0.1l1.4-8.8l0.9,8.8H164.4z M165.2,330.7l-0.9-9.4l0.4-2.7
			l1,2.6l0.9,9.4C166.1,330.7,165.7,330.7,165.2,330.7z M166.8,330.6l-0.9-8.8l3.1,8.3C168.3,330.3,167.6,330.5,166.8,330.6z
			 M169.2,330.1l-3.3-8.8l-0.3-2.8l1.6,2.2l0.7,1.8c-0.1,0.1-0.1,0.3-0.1,0.4c0,0.5,0,1.1-0.1,1.3l-0.1,0v0.1l0.1,0c0,0,0,0,0,0
			l0.7-0.3l0.2,0.6l0,0v0.1l0.1,0l0,0l0.1,0l1.8,4.8C170.1,329.7,169.7,329.9,169.2,330.1z M170.6,329.4l-1.8-4.8l0.5-0.3l0.2,0.6
			l0,0v0.1l0.1,0l0,0l0.5-0.3l2.5,3.6C172.1,328.8,171.3,329.1,170.6,329.4z M172.9,328.4l-2.2-3l0.6-0.3l0.2,0.5l0,0l0.1,0.1
			l0.7-0.3l0.2,0.5l0,0l0.1,0.1l0,0l0,0l0.4-0.2l1.2,1.6C173.6,327.7,173.3,328,172.9,328.4z M174.1,327.3l-0.7-0.9l0.7-0.3l0.2,0.5
			l0,0v0.1l0.1,0l0,0l0.7-0.3l0,0.1C174.8,326.8,174.4,327.1,174.1,327.3z M189.2,323.7C189.2,323.7,189.2,323.7,189.2,323.7
			C189.2,323.7,189.1,323.7,189.2,323.7C189.2,323.7,189.2,323.7,189.2,323.7z M187.3,323.4C187.4,323.4,187.4,323.4,187.3,323.4
			C187.4,323.4,187.3,323.4,187.3,323.4C187.3,323.4,187.3,323.4,187.3,323.4z M189.7,325.8c-0.3,0.1-0.5,0.1-0.9,0.2
			c0.1,0.1,0.2,0.5-0.1,0.7c0,0,0,0,0.1,0c-0.3,0.2-0.1,0.4,0,0.5v0.1c0.3,0.1,0.4-0.1,0.9-0.3c0,0-0.1,0-0.1,0.1
			c-0.5,0.3-0.6,0.3-1,0.3c-0.1,0.2-0.2,0.5-0.3,0.5c-0.2,0.1-0.1,0.4-0.3,0.6c-0.1,0.2-0.1,0.3-0.2,0.3c0.1,0,0.1,0,0.2,0
			c-0.1,0.1-0.5,0.4-0.8,0.2c-0.2-0.1-0.3-0.3-0.5-0.5l0.7-1.3l0.1,0V327l-0.4,0.2l0,0l-0.6,1.1c-0.1-0.3-0.2-0.6-0.4-1
			c-0.3-1.2,0.1-2,0.2-2.4c0.1-0.2,0.2-0.4,0.4-0.6c0,0,0,0,0-0.1c0.2-0.1,0.4-0.2,0.6-0.3c0.5-0.2,1.3,0.2,1.5,0.6
			c0.3,0.4,0.3,0.9,0.1,1l0,0c-0.2,0.1-0.1,0.4,0,0.4v0.1C189.2,325.9,189.4,325.8,189.7,325.8c0.2-0.1,0.3-0.2,0.4-0.2
			C190,325.7,189.9,325.8,189.7,325.8z"/>
		<path fill="#FFFFFF" d="M210,294.7c-0.1-0.1-0.1-0.3-0.1-0.4c-0.1-0.1,0-0.3,0.1-0.4l-0.3,0.4L210,294.7z"/>
		<path fill="#FFFFFF" d="M210.9,293.2h-0.5l-0.3,0.4C210.4,293.4,210.7,293.3,210.9,293.2z"/>
		<path fill="#FFFFFF" d="M212,295.1C212,295.1,212,295.1,212,295.1l0.1-0.3c0,0,0,0,0-0.1l0.2-0.3l-0.2-0.2c0-0.1,0-0.2,0-0.2
			c-0.1-0.1-0.1-0.2-0.1-0.3l0,0c0,0,0,0,0,0l-0.3-0.4h-0.5h-0.1H211c-0.3,0.1-0.5,0.2-0.7,0.4l-0.1,0.3c-0.1,0.1-0.1,0.3-0.1,0.4
			c0,0.1,0.1,0.3,0.1,0.4l0.1,0.3c0.1,0.1,0.2,0.2,0.3,0.3c-0.2-0.1-0.3-0.2-0.4-0.3l0.3,0.4h0.5c0,0,0,0,0,0h0.3c0,0,0,0,0,0h0.5
			L212,295.1z M211.1,294.9c-0.3,0-0.5-0.3-0.5-0.5c0,0,0,0,0,0c0,0.1,0.1,0.3,0.2,0.4c-0.1-0.1-0.1-0.2-0.1-0.3
			c0-0.3,0.2-0.5,0.5-0.5c0.3,0,0.5,0.2,0.5,0.5c0,0.2-0.1,0.4-0.3,0.4c0.2-0.1,0.3-0.3,0.3-0.5c0,0,0,0,0,0
			C211.6,294.7,211.4,294.9,211.1,294.9z"/>
		<path fill="#FFFFFF" d="M210.2,295.1c-0.1-0.1-0.1-0.2-0.1-0.3L210.2,295.1z"/>
		<path fill="#FFFFFF" d="M210,293.9c0.1-0.1,0.1-0.1,0.1-0.3L210,293.9z"/>
		<path fill="none" stroke="#000000" stroke-width="0" stroke-linecap="round" stroke-linejoin="round" d="M211.3,294.8
			c-0.1,0-0.1,0-0.2,0"/>
		<path fill="#FFFFFF" d="M210.7,294.7c0.1,0.1,0.2,0.2,0.4,0.2C210.9,294.9,210.8,294.8,210.7,294.7z"/>
		<path fill="#FFFFFF" d="M212.6,294c-0.1-0.1-0.1-0.3-0.1-0.4c0-0.1,0-0.2,0.1-0.4l-0.3,0.4L212.6,294z"/>
		<path fill="#FFFFFF" d="M212.7,293c0.3-0.2,0.5-0.3,0.8-0.4H213L212.7,293z"/>
		<path fill="#FFFFFF" d="M212.8,294.4l-0.1-0.3C212.7,294.2,212.7,294.3,212.8,294.4z"/>
		<path fill="#FFFFFF" d="M212.8,293l-0.1,0.3C212.7,293.2,212.7,293.1,212.8,293z"/>
		<path fill="#FFFFFF" d="M213.8,292.6h-0.3c-0.3,0.1-0.5,0.2-0.7,0.4l-0.1,0.3c-0.1,0.1-0.1,0.3-0.1,0.4c0,0.1,0.1,0.3,0.1,0.4
			l0.1,0.3c0.1,0.1,0.2,0.2,0.3,0.3c-0.2-0.1-0.3-0.2-0.4-0.3l0.3,0.4h0.5h0h0.3h0h0.5l0.2-0.4l0-0.1c0,0,0,0,0,0l0.1-0.2
			c0,0,0,0,0-0.1l0.2-0.3l-0.2-0.2c0-0.1,0-0.2,0-0.2c-0.1-0.1-0.1-0.2-0.1-0.3c-0.1-0.2-0.3-0.3-0.4-0.3c0.2,0.1,0.3,0.2,0.4,0.3
			l-0.3-0.4H213.8L213.8,292.6z M213.2,294.7c0.1,0.1,0.3,0.1,0.4,0.1C213.4,294.8,213.3,294.7,213.2,294.7z M213.7,294.2
			c-0.3,0-0.5-0.3-0.5-0.5c0,0,0,0,0,0c0,0.1,0.1,0.3,0.2,0.4c-0.1-0.1-0.1-0.2-0.1-0.3c0-0.3,0.2-0.5,0.5-0.5
			c0.3,0,0.5,0.2,0.5,0.5C214.2,294,213.9,294.2,213.7,294.2c0.3-0.1,0.5-0.3,0.5-0.6c0,0,0,0,0,0C214.3,294,214,294.2,213.7,294.2z
			"/>
		<path fill="#FFFFFF" d="M213.4,294c0.1,0.1,0.2,0.2,0.4,0.2C213.6,294.2,213.5,294.1,213.4,294z"/>
		<path fill="#FFFFFF" d="M214.5,292.1c-0.1-0.1-0.1-0.3-0.1-0.4c0-0.1,0-0.3,0.1-0.4l-0.3,0.4L214.5,292.1z"/>
		<path fill="#FFFFFF" d="M214.6,291.1c0.3-0.2,0.5-0.3,0.8-0.4h-0.5L214.6,291.1z"/>
		
			<line fill="none" stroke="#000000" stroke-width="0" stroke-linecap="round" stroke-linejoin="round" x1="215.2" y1="292.8" x2="215.5" y2="292.8"/>
		<path fill="#FFFFFF" d="M215.2,292.8c-0.2,0-0.4-0.2-0.5-0.4l0.3,0.4H215.2z"/>
		<path fill="#FFFFFF" d="M214.7,292.4l-0.1-0.3C214.5,292.3,214.6,292.4,214.7,292.4z"/>
		<path fill="#FFFFFF" d="M214.7,291.1c-0.1,0.1-0.1,0.2-0.1,0.3L214.7,291.1z"/>
		<path fill="#FFFFFF" d="M216.6,291.3l-0.1-0.3c0,0-0.1-0.1-0.1-0.1l-0.2-0.2H216c-0.1,0-0.2-0.1-0.3-0.1h-0.1h-0.1h-0.1
			c-0.3,0.1-0.5,0.2-0.7,0.4l-0.1,0.3c-0.1,0.1-0.1,0.3-0.1,0.4c0,0.1,0.1,0.3,0.1,0.4l0.1,0.3c0.2,0.3,0.5,0.4,0.7,0.4h0.3h0
			c0.1,0,0.1,0,0.2,0h0.3l0.2-0.4l0.1-0.1c0,0,0,0,0,0l0.3-0.4l-0.2-0.2C216.7,291.5,216.6,291.4,216.6,291.3z M215.5,292.3
			c-0.3,0-0.5-0.3-0.5-0.5c0,0,0,0,0,0c0,0.1,0.1,0.3,0.2,0.4c-0.1-0.1-0.1-0.2-0.1-0.3c0-0.3,0.2-0.5,0.5-0.5
			c0.3,0,0.5,0.2,0.5,0.5c0,0.2-0.1,0.4-0.3,0.4c0.2-0.1,0.3-0.3,0.3-0.5c0,0,0,0,0,0C216.1,292.1,215.8,292.3,215.5,292.3z"/>
		<path fill="#FFFFFF" d="M215.2,292.1c0.1,0.1,0.2,0.2,0.4,0.2C215.4,292.3,215.3,292.2,215.2,292.1z"/>
		<path fill="none" stroke="#000000" stroke-width="0" stroke-linecap="round" stroke-linejoin="round" d="M215.7,292.2
			c-0.1,0-0.1,0-0.2,0"/>
		<path fill="#FFFFFF" d="M214.3,289.5c-0.1-0.1-0.1-0.3-0.1-0.4c0.1-0.1,0.1-0.3,0.1-0.4l-0.3,0.4L214.3,289.5z"/>
		<path fill="#FFFFFF" d="M215.3,288L215.3,288h-0.5l-0.3,0.4C214.7,288.2,215,288.1,215.3,288z"/>
		<path fill="#FFFFFF" d="M216.8,289.2l-0.3-0.4c0.1,0.1,0.1,0.3,0.1,0.4c0,0.1-0.1,0.3-0.1,0.4L216.8,289.2z"/>
		<path fill="#FFFFFF" d="M214.5,289.8l-0.1-0.3C214.4,289.7,214.5,289.8,214.5,289.8z"/>
		<path fill="#FFFFFF" d="M216.3,288.5l0.1,0.3C216.4,288.7,216.4,288.5,216.3,288.5z"/>
		<path fill="#FFFFFF" d="M214.5,288.4l-0.1,0.3C214.4,288.7,214.5,288.5,214.5,288.4z"/>
		<path fill="#FFFFFF" d="M216.5,289.6c-0.1,0.1-0.1,0.1-0.1,0.3L216.5,289.6z"/>
		<path fill="#FFFFFF" d="M214.3,289.1c0,0.1,0.1,0.3,0.1,0.4l0.1,0.3c0.2,0.3,0.4,0.4,0.7,0.4c-0.3,0-0.6-0.2-0.7-0.4l0.3,0.4h0.5
			h0.1h0.2h0h0.5l0.2-0.4c0,0,0,0,0,0c0,0,0,0,0,0l0.1-0.3c0.1-0.1,0.1-0.3,0.1-0.4c0-0.1-0.1-0.3-0.1-0.4l-0.1-0.3
			c-0.2-0.3-0.4-0.4-0.7-0.4c0.3,0,0.6,0.2,0.7,0.4l-0.3-0.4h-0.5h-0.1h-0.2c-0.3,0.1-0.5,0.2-0.7,0.4l-0.1,0.3
			C214.3,288.9,214.3,289,214.3,289.1z M215.4,288.7c0.3,0,0.5,0.2,0.5,0.5c0,0.3-0.2,0.5-0.5,0.5c-0.3,0-0.5-0.2-0.5-0.5
			C214.9,288.9,215.1,288.7,215.4,288.7z M215.4,289.7c0.3,0,0.5-0.3,0.5-0.5C216,289.4,215.7,289.7,215.4,289.7
			c-0.3,0-0.5-0.3-0.5-0.5C214.9,289.4,215.1,289.7,215.4,289.7z"/>
		<path fill="#FFFFFF" d="M212.6,287.5c-0.1-0.1-0.1-0.3-0.1-0.4c-0.1-0.1,0-0.3,0.1-0.4l-0.3,0.4L212.6,287.5z"/>
		<path fill="#FFFFFF" d="M212.9,286l-0.3,0.4c0.3-0.2,0.5-0.3,0.8-0.4H212.9z"/>
		<path fill="#FFFFFF" d="M212.7,287.9l0.3,0.4h0.5C213.1,288.3,212.9,288.1,212.7,287.9z"/>
		<path fill="#FFFFFF" d="M212.7,287.9l-0.1-0.3C212.6,287.7,212.6,287.8,212.7,287.9z"/>
		<path fill="#FFFFFF" d="M212.7,286.4c-0.1,0.1-0.1,0.3-0.1,0.3L212.7,286.4z"/>
		<path fill="#FFFFFF" d="M213.5,286.1c-0.3,0.1-0.5,0.2-0.7,0.4l-0.1,0.3c-0.1,0.1-0.1,0.3-0.1,0.4c0,0.1,0.1,0.3,0.1,0.4l0.1,0.3
			c0.2,0.3,0.5,0.4,0.7,0.4h0.3c0.2,0,0.3-0.1,0.5-0.2c-0.1,0.1-0.3,0.2-0.5,0.2h0.5l0.2-0.4c0,0,0,0,0,0l0.1-0.3c0,0,0,0,0-0.1
			l0.2-0.3l-0.2-0.2c0-0.1,0-0.2,0-0.2l0,0c0,0,0,0,0,0l-0.1-0.1l-0.1-0.1c0,0,0,0,0,0l-0.3-0.4h-0.5h-0.1H213.5z M213.6,287.7
			c-0.3,0-0.5-0.2-0.5-0.5c0-0.3,0.2-0.5,0.5-0.5c0.3,0,0.5,0.2,0.5,0.5C214,287.4,213.8,287.7,213.6,287.7z M213,287.2
			C213,287.2,213,287.2,213,287.2C213,287.2,213,287.2,213,287.2C213,287.2,213,287.2,213,287.2z M213,287.2c0,0.3,0.3,0.5,0.5,0.5
			C213.2,287.7,213,287.5,213,287.2z M214.1,287.2C214.1,287.2,214.1,287.2,214.1,287.2c0-0.3-0.3-0.5-0.5-0.5
			C213.9,286.6,214.1,286.9,214.1,287.2z"/>
		<path fill="#FFFFFF" d="M210.1,286.8c-0.1-0.1-0.1-0.3-0.1-0.4c0-0.1,0.1-0.3,0.1-0.4l-0.3,0.4L210.1,286.8z"/>
		<path fill="#FFFFFF" d="M210.5,285.3l-0.3,0.4c0.1-0.1,0.5-0.3,0.8-0.4H211H210.5z"/>
		<path fill="#FFFFFF" d="M212.3,286.4c0-0.1-0.1-0.3-0.1-0.4l-0.1-0.3c0,0,0,0,0,0l-0.3-0.4h-0.5h-0.1h-0.2
			c-0.3,0.1-0.5,0.2-0.7,0.4l-0.1,0.3c-0.1,0.1-0.1,0.3-0.1,0.4c0,0.1,0.1,0.3,0.1,0.4l0.1,0.3c0.2,0.3,0.5,0.4,0.7,0.4h0.1h0.1h0.1
			h0.5l0.2-0.4c0,0,0,0,0,0l0.1-0.3l0.3-0.4l-0.3-0.4C212.3,286.2,212.3,286.3,212.3,286.4z M211.5,286.1c0.1,0.1,0.1,0.2,0.1,0.3
			c0,0.3-0.2,0.5-0.5,0.5c-0.3,0-0.5-0.2-0.5-0.5c0-0.1,0-0.2,0.1-0.3c0,0,0.1,0,0.1-0.1c0.1-0.1,0.2-0.1,0.3-0.1
			C211.2,285.9,211.3,285.9,211.5,286.1C211.4,286,211.5,286,211.5,286.1z M211.1,285.9c0.1,0,0.1,0,0.2,0
			C211.3,285.9,211.2,285.9,211.1,285.9c-0.1,0-0.1,0-0.2,0C211,285.9,211.1,285.9,211.1,285.9z M210.6,286.4c0,0.3,0.2,0.5,0.5,0.5
			C210.8,286.9,210.6,286.7,210.6,286.4z M211.2,287c0.3,0,0.5-0.3,0.5-0.5C211.7,286.7,211.5,286.9,211.2,287z"/>
		<path fill="#FFFFFF" d="M210.2,287.1l0.3,0.4h0.5h0.1C210.7,287.5,210.4,287.3,210.2,287.1z"/>
		<path fill="#FFFFFF" d="M210.2,287.1c-0.1-0.1-0.1-0.1-0.1-0.3L210.2,287.1z"/>
		<path fill="#FFFFFF" d="M210.2,285.7l-0.1,0.3C210.2,285.9,210.2,285.8,210.2,285.7z"/>
		<path fill="none" stroke="#000000" stroke-width="0" stroke-linecap="round" stroke-linejoin="round" d="M211.1,285.9
			c0.1,0,0.1,0,0.2,0"/>
		<path fill="none" stroke="#000000" stroke-width="0" stroke-linecap="round" stroke-linejoin="round" d="M211.1,285.9
			c-0.1,0-0.1,0-0.2,0"/>
		<path fill="#FFFFFF" d="M207.3,286.8c-0.1-0.1-0.1-0.3-0.1-0.4c0-0.1,0-0.3,0.1-0.4l-0.3,0.4L207.3,286.8z"/>
		<path fill="#FFFFFF" d="M207.7,285.3l-0.3,0.4c0.2-0.1,0.5-0.3,0.8-0.4H207.7z"/>
		<path fill="#FFFFFF" d="M208.3,287.5c-0.3,0-0.7-0.2-0.8-0.4l0.3,0.4H208.3L208.3,287.5z"/>
		<path fill="#FFFFFF" d="M207.5,287.1l-0.1-0.3C207.3,287,207.4,287,207.5,287.1z"/>
		<path fill="#FFFFFF" d="M207.5,285.7c-0.1,0.1-0.1,0.2-0.1,0.3L207.5,285.7z"/>
		<path fill="#FFFFFF" d="M208.5,287.5L208.5,287.5h0.6l0.2-0.4c0,0,0,0,0,0l0.1-0.1l0.1-0.1c0,0,0,0,0,0l0,0c0,0,0,0,0,0
			c0,0,0,0,0,0l0.3-0.4l-0.3-0.4c0.1,0.1,0.1,0.3,0.1,0.4c0-0.1-0.1-0.3-0.1-0.4l0,0c0,0,0,0,0,0l-0.1-0.1l-0.1-0.1c0,0,0,0,0,0
			l-0.3-0.4h-0.5h-0.1h-0.2c-0.3,0.1-0.5,0.2-0.7,0.4l-0.1,0.3c-0.1,0.1-0.1,0.3-0.1,0.4c0,0.1,0.1,0.3,0.1,0.4l0.1,0.3
			c0.2,0.3,0.5,0.4,0.7,0.4h0.1H208.5z M208.8,286.4c0,0.3-0.2,0.5-0.5,0.5c-0.3,0-0.5-0.2-0.5-0.5c0-0.1,0-0.2,0.1-0.3
			c0,0,0.1,0,0.1-0.1c0.1-0.1,0.2-0.1,0.3-0.1c0.1,0,0.1,0,0.2,0c0,0,0,0,0,0C208.7,286,208.8,286.2,208.8,286.4z M208.5,286.9
			c0.2-0.1,0.4-0.3,0.4-0.5c0-0.1,0-0.2-0.1-0.3c0.1,0.1,0.1,0.2,0.1,0.3C208.9,286.7,208.8,286.9,208.5,286.9z M208.8,287.5
			c0.2-0.1,0.4-0.2,0.5-0.3C209.1,287.3,208.9,287.4,208.8,287.5z M208.3,285.9c0.1,0,0.1,0,0.2,0
			C208.5,285.9,208.4,285.9,208.3,285.9c-0.1,0-0.1,0-0.2,0C208.2,285.9,208.3,285.9,208.3,285.9z M207.8,286.4
			c0,0.3,0.2,0.5,0.5,0.5C208,286.9,207.8,286.7,207.8,286.4z"/>
		<path fill="none" stroke="#000000" stroke-width="0" stroke-linecap="round" stroke-linejoin="round" d="M208.3,285.9
			c0.1,0,0.1,0,0.2,0"/>
		<path fill="none" stroke="#000000" stroke-width="0" stroke-linecap="round" stroke-linejoin="round" d="M208.3,285.9
			c-0.1,0-0.1,0-0.2,0"/>
		<path fill="#FFFFFF" d="M204.8,286.2c0.2-0.2,0.5-0.4,0.8-0.4h-0.5L204.8,286.2z"/>
		<path fill="#FFFFFF" d="M204.9,287.5l0.3,0.4h0.3C205.2,287.9,205,287.7,204.9,287.5z"/>
		
			<line fill="none" stroke="#000000" stroke-width="0" stroke-linecap="round" stroke-linejoin="round" x1="205.4" y1="287.9" x2="205.6" y2="287.9"/>
		<path fill="#FFFFFF" d="M204.9,287.5l-0.1-0.3C204.8,287.4,204.8,287.5,204.9,287.5z"/>
		<path fill="#FFFFFF" d="M206.6,286.2l0.1,0.3C206.8,286.4,206.7,286.2,206.6,286.2z"/>
		<path fill="#FFFFFF" d="M204.7,286.4l-0.3,0.4l0.3,0.4c-0.1-0.1-0.1-0.3-0.1-0.4c0,0.1,0.1,0.3,0.1,0.4l0.1,0.3
			c0.2,0.3,0.5,0.4,0.7,0.4c0,0,0,0,0.1,0h0.2h0c0.1,0,0.2,0,0.2,0h0.3l0.2-0.4c0,0,0,0,0,0c0,0,0,0,0,0l0.1-0.3
			c0.1-0.1,0.1-0.2,0.1-0.4c0,0,0,0,0,0c0.1,0.1,0,0.3-0.1,0.4l0.3-0.4l-0.3-0.4c0,0,0-0.1,0-0.1l-0.1-0.3c-0.1-0.1-0.2-0.2-0.3-0.3
			c0.1,0.1,0.3,0.2,0.3,0.3l-0.3-0.4h-0.5h-0.1h-0.1h-0.1c-0.3,0.1-0.5,0.2-0.7,0.4C204.8,286.2,204.8,286.4,204.7,286.4z
			 M205.8,286.4c0.1,0,0.3,0.1,0.4,0.2c0.1,0.1,0.1,0.2,0.1,0.3c0,0.3-0.2,0.5-0.5,0.5c-0.3,0-0.5-0.2-0.5-0.5c0-0.1,0-0.2,0.1-0.3
			C205.5,286.4,205.6,286.4,205.8,286.4z M205.2,286.9c0,0.3,0.3,0.5,0.5,0.5c0.3,0,0.5-0.2,0.5-0.5c0,0,0,0,0,0
			c0,0.3-0.2,0.5-0.5,0.5C205.4,287.4,205.2,287.2,205.2,286.9C205.2,286.9,205.2,286.9,205.2,286.9z"/>
		<path fill="#FFFFFF" d="M206.8,287.3l-0.1,0.3C206.7,287.5,206.8,287.4,206.8,287.3z"/>
		<path fill="none" stroke="#000000" stroke-width="0" stroke-linecap="round" stroke-linejoin="round" d="M193.2,309.3
			c0,0.1,0,0.1,0,0.2"/>
		<path fill="none" stroke="#000000" stroke-width="0" stroke-linecap="round" stroke-linejoin="round" d="M193.3,309.7
			c0-0.1-0.1-0.2-0.1-0.3"/>
		<path fill="#FFFFFF" d="M202.4,297.6c0,0-8.6,10.4-9,10.7c-0.1,0.2-0.3,0.4-0.3,0.5c0,0.2,0,0.4,0,0.6c0-0.3,0-0.6,0.2-0.9
			c0.4-0.6,1.2-0.7,1.8-0.3c0,0,0,0,0.1,0.1c-0.5-0.4-1.4-0.3-1.8,0.3c-0.3,0.4-0.3,1-0.1,1.4c0,0,0-0.1-0.1-0.1c0,0,0,0.1,0.1,0.1
			c0,0,0,0,0.1,0.1c0,0.1,0.1,0.1,0.2,0.2c0,0,0,0,0,0c0,0,0.1,0.1,0.1,0.1c0,0,0,0,0,0c0,0,0,0,0.1,0.1c0.9,0.6,1.6,0.1,1.9-0.2
			c0.3-0.3,8.2-11.1,8.5-11.3c0.1-0.1,0.8-0.5,1.6-0.8c1.2-0.5,2.7-1,2.8-1.2c0,0,0-0.1,0.1-0.1l0.2,0.1c0.1,0.1,0.3-0.1,0.4-0.2
			c0.1-0.1,0-0.3-0.2-0.4c0.4-0.5,0.8-1.2,0.5-2.1c-0.5-1.6-1-1.7-1-1.7l-0.4,1.9l-1.4,0.5l-0.2-0.1c-0.1-0.2-0.2-0.5-0.3-0.7
			c0,0,0,0,0,0c0.1-0.1,0.6-2,0.6-2s-0.7,0.1-1.2,0.5c-0.4,0.3-1,1.1-1.4,1.5l-1.3-0.4L202.4,297.6z M193.9,308.6
			c0.3-0.4,0.8-0.4,1.2-0.1c0.4,0.3,0.4,0.8,0.1,1.2c-0.3,0.4-0.9,0.5-1.2,0.1C193.6,309.5,193.6,309,193.9,308.6z M195.4,309.8
			c-0.2,0.2-0.4,0.4-0.7,0.4C194.9,310.2,195.2,310,195.4,309.8z M203.3,298.9l-6.7,8.9c-0.1,0.2-0.7,0.1-0.9-0.1
			c-0.3-0.2-0.5-0.7-0.4-0.9l7.1-8.5c0.1-0.2,0.5-0.3,0.7-0.1C203.4,298.4,203.4,298.7,203.3,298.9z"/>
		<path fill="#FFFFFF" d="M193.7,310.2C193.7,310.2,193.7,310.2,193.7,310.2C193.6,310.2,193.6,310.2,193.7,310.2
			C193.6,310.2,193.6,310.2,193.7,310.2z"/>
		<path fill="#FFFFFF" d="M208,292.7L208,292.7L208,292.7l0-0.1l-0.1-0.2l0,0v-0.1l-0.1,0l0-0.1l0,0l0,0l-0.1-0.2l0,0V292l0,0l0-0.1
			l0.1,0l-0.1-0.1l0,0l0-0.1l0,0l0,0l-0.1-0.2l0,0v-0.1l0,0l0-0.1l0.1,0l-0.1-0.1l0,0l-0.1-0.1l0,0v-0.1l0,0l0-0.1l0.1,0l-0.1-0.1
			l0,0l0-0.1l0,0l-0.1-0.1l0,0l0-0.1l0.1,0l-0.1-0.1l0,0l0-0.1l0,0l-0.1-0.1l0,0l0-0.1l0.1,0l-0.1-0.1l0,0l0-0.1l0,0l-0.1-0.1l0,0
			l0-0.1l0,0L207,290l0,0l0-0.1l0,0v-0.1l-0.1,0l0-0.1l0,0l0,0l-0.1-0.1l0,0l-0.1-0.1l0-0.1l0,0v-0.1l0,0l0-0.1l0,0l0-0.1l0-0.1l0,0
			v-0.1l0,0l0-0.1l0.1,0l-0.1-0.1l0,0l-0.1-0.1l0,0v-0.1l0,0l0,0c0.3-0.1,0.5-0.2,0.5-0.3c-0.1-0.1-0.4-0.2-0.8-0.1l0.1,0.1
			l-0.1,0.1c0,0-0.1,0-0.1-0.1l-0.1-0.1c-0.4,0.1-0.6,0.4-0.5,0.6c0,0,0.2,0,0.5-0.1l0.1,0.1l0,0l0,0.1l-0.1,0v0.1l0.1,0l0,0.1
			l-0.1,0l0.1,0.1l0,0l0,0.1l-0.1,0l0.1,0.1l0,0l0,0.1l0,0v0.1l0.1,0l0,0.1l0,0l0.1,0.1l0,0l0,0.1l0,0v0.1l0.1,0l0,0.1l0,0v0.1
			l0.1,0l0.1,0.1l0,0l0.1,0.1l0,0l0,0.1l0,0v0.1l0.1,0l0,0.1l0,0v0.1l0.1,0l0,0.1l0,0v0.1l0.1,0l0,0.1l-0.1,0l0.1,0.1l0,0l0.1,0.1
			l0,0v0.1l0.1,0l0,0.1l-0.1,0l0.1,0.1l0,0l0,0.1l-0.1,0l0.1,0.1l0,0l0,0.1l0,0v0.1l0,0l0,0.1l-0.1,0l0.1,0.1l0,0l0,0.1l-0.1,0
			l0.1,0.1l0,0l0,0.1l-0.1,0v0.1l0.1,0l0.1,0.1l-0.1,0l0.1,0.1l0,0l0,0.1l-0.1,0l0.1,0.1l0,0l0,0.1l0,0v0.1l0.1,0l0,0.1l-0.1,0
			l0.1,0.1l0,0l0,0.1l0,0v0.1l0.1,0l0,0.1l0.5-0.2L208,292.7L208,292.7L208,292.7z"/>
		<path fill="#FFFFFF" d="M174.8,286.3c-0.2,0.1-0.4,0.2-0.4,0.2s-0.5,0.9-1.1,1.1c-0.4,0.1-0.8,0.1-1.1,0.1l-0.1-0.3l-0.1,0l0,0
			c0-0.1-0.1-0.2-0.3-0.1l-1.3,0.4c-0.1,0-0.2,0.1-0.1,0.3l0.9,2.9c0,0.1,0.1,0.2,0.3,0.1l1.3-0.4c0.1,0,0.2-0.1,0.1-0.3l0-0.1
			c0.4-0.2,0.9-0.5,1.4-0.8c0.6-0.3,1.7,0.3,2.2,0.6l0,0.1l0,0l0.6,2h-0.2c-0.7,0-1.2,0.5-1.2,1.2v1c0,0.7,0.5,1.2,1.2,1.2h0.5
			l0.1,0l0,0.1l0,0l-0.1,0.1l0,0l0,0l0,0l-0.1,0.1l0,0l0,0.1l-0.1,0l-0.1,0.1l0,0l0,0l0,0L177,296l0,0l0,0l-0.1-0.1v0.1l0,0l0,0.1
			l0,0l-0.1,0.1h0l-0.1,0.1l0,0l0,0l-0.1,0l-0.1,0.1l0.1,0l0,0.1l0,0l-0.1,0.1l0,0l0,0l0,0l-0.1,0.1l0,0l0,0l0,0l-0.1,0.1l0.1,0
			l0,0.1l0,0l-0.1,0.1l0.1,0l0,0.1l0,0l-0.1,0.1l0,0l-0.1,0.1l0,0v0.1l0,0l0,0.1l0,0l-0.1,0.1l0,0l0,0l0,0l-0.1,0.1l0,0l0,0l-0.1,0
			l-0.1,0.1l0,0l0,0l0,0l-0.1,0.1l0,0l0,0.1l-0.1,0v0.1l0,0l0,0.1l0,0l-0.1,0.1l0.1,0l0,0.1l-0.1-0.1v0.1l0.1,0l0,0.1l0,0l-0.1,0.1
			l0.1,0.1l-0.1,0.1c-0.3-0.1-0.5-0.3-0.5-0.2c-0.1,0.2,0.1,0.5,0.4,0.7l0.1-0.1c0-0.1,0-0.1,0.1-0.1c0.1,0,0.1,0,0.1,0.1l-0.1,0.1
			c0.4,0.2,0.7,0.3,0.8,0.1c0,0-0.2-0.2-0.4-0.3l0,0l0,0l0.1-0.1l0,0l0.1-0.1l0,0v-0.1l0,0l0-0.1l0,0l0.1-0.1l0,0l0-0.1l0,0l0.1-0.1
			l0,0l0,0v-0.1l0,0l0,0l0.1-0.1l0,0l0,0l0.1,0V298l0,0l0-0.1l0.1-0.1l-0.1,0l0-0.1l0,0l0.1-0.1l0,0l0-0.1l0,0l0.1-0.1l-0.1-0.1
			l0.1-0.1l0,0v0l0.1-0.1l0,0l0.1-0.1l0,0l0-0.1l0.1-0.1l0,0l0-0.1l0,0V297l0,0l0-0.1l0,0l0.1-0.1l0,0l0,0l0.1,0v-0.1l0,0l0,0l0.1,0
			l0.1-0.1l0,0l0-0.1l0,0l0.1-0.1l0,0l0,0l0.1-0.1l-0.1,0l0,0l0,0l0.1-0.1l0,0l0-0.1l0.1-0.1l0,0l0.1-0.1l0,0l0,0l0-0.1l0,0l0.1-0.1
			l0,0l0,0l0,0l0.1-0.1l0,0l0-0.1l0,0v-0.1h0.1l0.2,0.6l1.3,4l0.1,0.1l0.1,0.1c0,0,0,0-0.1,0.1l0.2,0.5c0,0,0,0,0-0.1l0.2,0.6l0,0.1
			c0,0,0,0,0,0.1l0.1,0.4c0,0,0,0,0,0l0.2,0.5c0,0,0,0,0,0c0,0,0,0,0,0.1c0,0,0,0,0,0l0.1,0.2c0.1,0.7,0.6,2.8,1.5,5.5
			c1.2,3.4,1.9,4.9,1.9,4.9c0,0,0,0,0,0l0,0.1c0,0-0.1,0.1-0.1,0.1c0,0,0.1,0.3,0.3,0.3c0.1,0.1,0.4,0.1,0.4,0.1c0,0,0,0,0-0.1
			l0.3-0.1c0-0.1,0-0.1,0-0.2l0.7-0.2c0,0.1,0,0.1,0,0.2l0.1-0.1c0-0.1,0-0.1,0-0.2l0,0c0,0,0,0,0.1,0v0.3c0,0,0.3-0.1,0.4-0.3
			c0.1-0.2,0-0.3,0-0.4c0-0.1,0-0.1,0-0.1s-0.3-1.6-1.4-5c-1.2-3.5-2.1-5.7-2.1-5.7l-0.1-0.3l-1.6-5l-0.3-1h3.6c0,0,0-0.2,1.2-0.2
			c1.2,0,1,0.2,1,0.2c0,0,0,0,0,0c0,0.1,0.1,0.2,0.3,0.2c0.2,0,0.3-0.1,0.3-0.3v-1l11.3-0.1l1.4,0.3l1.8-0.5v-0.7l-1.8-0.4l-1.4,0.3
			h-11.3v-1.2c0-0.2-0.1-0.3-0.3-0.3c-0.2,0-0.3,0.1-0.3,0.3c0,0,0,0,0,0c0,0,0,0.2-1,0.2c-1,0-1.1-0.2-1.1-0.2h-4.7l-0.6-1.8
			l-0.3-0.7l-0.1-0.3l-0.1,0c0,0-0.1,0-0.1,0c0-0.1,0-0.2,0-0.3c0.1-0.4,0.4-0.9,0.7-1c0.6-0.3,1.3-0.1,2.2,0.1
			c1.2,0.3,2.4,1.2,2.5,1.2c0.2,0,0.3-0.1,0.3-0.1c0.4-0.3-0.5-1.1-1.7-1.9c-0.8-0.6-1.8-1.2-2.4-1.6c-1.7-0.7-5.3,0.4-5.3,0.4
			L174.8,286.3z M176.8,296.4L176.8,296.4L176.8,296.4L176.8,296.4z M177.9,290.8c0,0.4,0.1,0.8,0.2,1.2h0
			C178,291.6,177.9,291.1,177.9,290.8c-0.1-0.3-0.2-0.6-0.3-0.8c0,0,0.1,0,0.1,0C177.7,290.2,177.8,290.5,177.9,290.8z M178.2,292.5
			c0.1,0.2,0.1,0.4,0.2,0.5c0,0,0,0.1,0.1,0.1c0-0.1-0.1-0.1-0.1-0.2C178.3,292.8,178.2,292.7,178.2,292.5L178.2,292.5z
			 M180.9,298.5c0.2,0.5,0.5,0.9,0.7,1.3c0.1,0.1,0.1,0.2,0.1,0.3c-0.1-0.2-0.3-0.5-0.4-0.9c0.1,0.1,0-0.1-0.1-0.3
			C181,298.8,180.9,298.6,180.9,298.5c-0.1-0.1-0.1-0.1-0.1-0.1c0-0.1,0-0.1-0.1-0.2C180.8,298.3,180.8,298.4,180.9,298.5z
			 M179.2,295.4c0.1,0.3,0.2,0.5,0.3,0.8c0.4,1.1,0.7,1.3,1.1,1.8c0,0,0,0.1,0.1,0.1c-0.4-0.6-0.8-0.8-1.2-2
			C179.4,295.9,179.3,295.6,179.2,295.4L179.2,295.4z M180.8,298.3c0,0-0.1-0.1-0.1-0.1c0,0,0-0.1,0-0.1c0,0,0,0,0,0.1
			C180.7,298.2,180.7,298.2,180.8,298.3z M176.8,292.5h0.5l0.3,0.8h-0.7c-0.2,0-0.3-0.2-0.3-0.4
			C176.5,292.7,176.6,292.5,176.8,292.5z M177.9,295.1l-0.2-0.1l0,0.1l0,0l-0.1,0.1h-0.7c-0.2,0-0.3-0.1-0.3-0.4
			c0-0.2,0.1-0.4,0.3-0.4h1l0.1,0.2c0,0,0.1,0.1,0.1,0.1l0.2,0.5H177.9z M183.3,295.1h-2.6l-0.3-0.8h2.9c0.2,0,0.3,0.1,0.3,0.4
			C183.7,294.9,183.5,295.1,183.3,295.1z M183.3,292.5c0.2,0,0.3,0.2,0.3,0.4c0,0.2-0.1,0.4-0.3,0.4h-3.2l-0.3-0.8H183.3z"/>
		<path fill="#FFFFFF" d="M185.3,319.8c-0.2,0-0.3,1-0.3,1.4l0.7-0.3C185.6,320.4,185.5,319.8,185.3,319.8z"/>
		<circle fill="#FFFFFF" cx="164.3" cy="297" r="0.5"/>
		<circle fill="#FFFFFF" cx="165.9" cy="297" r="0.5"/>
		<circle fill="#FFFFFF" cx="167.5" cy="297.2" r="0.5"/>
		<circle fill="#FFFFFF" cx="169.1" cy="297.6" r="0.5"/>
		<circle fill="#FFFFFF" cx="170.6" cy="298" r="0.5"/>
		<circle fill="#FFFFFF" cx="172.1" cy="298.7" r="0.5"/>
		<path fill="#FFFFFF" d="M173.5,298.9c-0.3,0-0.5,0.2-0.5,0.5c0,0.3,0.2,0.5,0.5,0.5c0.3,0,0.5-0.2,0.5-0.5c0-0.1,0-0.2-0.1-0.3
			c0,0,0,0,0,0C173.9,299,173.7,298.9,173.5,298.9z"/>
		<circle fill="#FFFFFF" cx="174.8" cy="300.3" r="0.5"/>
		<circle fill="#FFFFFF" cx="176.1" cy="301.2" r="0.5"/>
		<circle fill="#FFFFFF" cx="177.3" cy="302.3" r="0.5"/>
		<circle fill="#FFFFFF" cx="178.4" cy="303.5" r="0.5"/>
		<circle fill="#FFFFFF" cx="179.4" cy="304.8" r="0.5"/>
		<circle fill="#FFFFFF" cx="180.2" cy="306.1" r="0.5"/>
		<circle fill="#FFFFFF" cx="181" cy="307.5" r="0.5"/>
		<circle fill="#FFFFFF" cx="181.6" cy="309" r="0.5"/>
		<circle fill="#FFFFFF" cx="182.1" cy="310.6" r="0.5"/>
		<circle fill="#FFFFFF" cx="182.4" cy="319.9" r="0.5"/>
		<circle fill="#FFFFFF" cx="182.7" cy="321.5" r="0.5"/>
		<circle fill="#FFFFFF" cx="162.7" cy="297" r="0.5"/>
		<circle fill="#FFFFFF" cx="161.1" cy="297.3" r="0.5"/>
		<circle fill="#FFFFFF" cx="159.5" cy="297.6" r="0.5"/>
		<circle fill="#FFFFFF" cx="158.1" cy="298.1" r="0.5"/>
		<circle fill="#FFFFFF" cx="156.6" cy="298.7" r="0.5"/>
		<circle fill="#FFFFFF" cx="155.1" cy="299.5" r="0.5"/>
		<circle fill="#FFFFFF" cx="153.8" cy="300.4" r="0.5"/>
		<circle fill="#FFFFFF" cx="152.5" cy="301.3" r="0.5"/>
		<path fill="#FFFFFF" d="M151.9,302.4c0-0.3-0.2-0.5-0.5-0.5c-0.3,0-0.5,0.2-0.5,0.5c0,0.3,0.2,0.5,0.5,0.5c0.1,0,0.1,0,0.1,0
			c0,0,0,0,0.1,0c0,0,0,0,0,0c0,0,0,0,0,0c0,0,0,0,0,0l0,0C151.8,302.8,151.9,302.6,151.9,302.4z"/>
		<circle fill="#FFFFFF" cx="150.3" cy="303.6" r="0.5"/>
		<circle fill="#FFFFFF" cx="149.4" cy="304.9" r="0.5"/>
		<path fill="#FFFFFF" d="M149,306.2c0-0.3-0.2-0.5-0.5-0.5c-0.3,0-0.5,0.2-0.5,0.5c0,0.3,0.2,0.5,0.5,0.5c0.1,0,0.2,0,0.3-0.1
			c0,0,0,0,0,0c0,0,0,0,0,0c0,0,0,0,0,0c0,0,0,0,0,0l0,0C148.9,306.5,149,306.4,149,306.2z"/>
		<circle fill="#FFFFFF" cx="147.7" cy="307.7" r="0.5"/>
		<circle fill="#FFFFFF" cx="147.2" cy="309.1" r="0.5"/>
		<circle fill="#FFFFFF" cx="146.7" cy="310.6" r="0.5"/>
		<circle fill="#FFFFFF" cx="146.4" cy="320" r="0.5"/>
		<circle fill="#FFFFFF" cx="146.2" cy="321.6" r="0.5"/>
		<circle fill="#FFFFFF" cx="146.1" cy="323.2" r="0.5"/>
		<circle fill="#FFFFFF" cx="146.2" cy="324.8" r="0.5"/>
		<circle fill="#FFFFFF" cx="218.9" cy="297" r="0.5"/>
		<circle fill="#FFFFFF" cx="217.3" cy="297" r="0.5"/>
		<circle fill="#FFFFFF" cx="215.7" cy="297.2" r="0.5"/>
		<circle fill="#FFFFFF" cx="214.2" cy="297.5" r="0.5"/>
		<circle fill="#FFFFFF" cx="212.7" cy="298" r="0.5"/>
		<circle fill="#FFFFFF" cx="211.3" cy="298.7" r="0.5"/>
		<circle fill="#FFFFFF" cx="209.8" cy="299.3" r="0.5"/>
		<circle fill="#FFFFFF" cx="208.5" cy="300.2" r="0.5"/>
		<circle fill="#FFFFFF" cx="207.2" cy="301.1" r="0.5"/>
		<circle fill="#FFFFFF" cx="206" cy="302.3" r="0.5"/>
		<circle fill="#FFFFFF" cx="205" cy="303.4" r="0.5"/>
		<circle fill="#FFFFFF" cx="204" cy="304.6" r="0.5"/>
		<circle fill="#FFFFFF" cx="203.2" cy="306" r="0.5"/>
		<path fill="#FFFFFF" d="M201.9,307.4c0,0.3,0.2,0.5,0.5,0.5c0.3,0,0.5-0.2,0.5-0.4c0,0,0,0,0-0.1c0,0,0,0,0,0c0,0,0,0,0,0
			c0-0.3-0.2-0.5-0.5-0.5C202.1,306.8,201.9,307.1,201.9,307.4z"/>
		<circle fill="#FFFFFF" cx="201.8" cy="308.8" r="0.5"/>
		<circle fill="#FFFFFF" cx="201.3" cy="310.3" r="0.5"/>
		<circle fill="#FFFFFF" cx="201" cy="319.6" r="0.5"/>
		<circle fill="#FFFFFF" cx="200.8" cy="321.2" r="0.5"/>
		<circle fill="#FFFFFF" cx="200.7" cy="322.8" r="0.5"/>
		<circle fill="#FFFFFF" cx="200.8" cy="324.4" r="0.5"/>
		<circle fill="#FFFFFF" cx="220.4" cy="297" r="0.5"/>
		<circle fill="#FFFFFF" cx="222" cy="297.2" r="0.5"/>
		<circle fill="#FFFFFF" cx="223.6" cy="297.6" r="0.5"/>
		<circle fill="#FFFFFF" cx="225.1" cy="298" r="0.5"/>
		<circle fill="#FFFFFF" cx="226.5" cy="298.7" r="0.5"/>
		<circle fill="#FFFFFF" cx="227.9" cy="299.4" r="0.5"/>
		<circle fill="#FFFFFF" cx="229.3" cy="300.2" r="0.5"/>
		<circle fill="#FFFFFF" cx="230.5" cy="301.2" r="0.5"/>
		<circle fill="#FFFFFF" cx="231.6" cy="302.3" r="0.5"/>
		<circle fill="#FFFFFF" cx="232.7" cy="303.4" r="0.5"/>
		<circle fill="#FFFFFF" cx="233.7" cy="304.7" r="0.5"/>
		<path fill="#FFFFFF" d="M218.9,297.8c-9.5,0-17.3,7.7-17.3,17.3c0,9.5,7.7,17.3,17.3,17.3s17.3-7.7,17.3-17.3
			C236.1,305.6,228.4,297.8,218.9,297.8z M230.8,305.4l-7.1,5.2l5.6-6.8C229.8,304.2,230.4,304.8,230.8,305.4z M229.1,303.6
			l-5.9,7.3l-2.2,1.6l1.2-2.5l5.9-7.3C228.5,303,228.8,303.3,229.1,303.6z M219.2,316.5l0.1,0.1l-0.1,0.3l-0.2-0.3L219.2,316.5z
			 M219,316.5l-0.1-0.1l0.1-0.1l0.1,0.1L219,316.5z M219.3,316.3L219.3,316.3h0.1l-0.1,0.1L219.3,316.3z M219.5,316.7l0.3,0.3
			l0.1,0.7l-0.4-0.6L219.5,316.7z M219.6,316.5v-0.2l0.2,0.1l0.1,0.3L219.6,316.5z M219.6,316.2v-0.1h0.1L219.6,316.2L219.6,316.2z
			 M220,314.4L220,314.4L220,314.4L220,314.4L220,314.4z M220.1,314.6l0.1,0.1l-0.1,0.1V314.6L220.1,314.6z M220,315.5l0.1,0.1H220
			L220,315.5L220,315.5z M219.8,313.8l-0.2,0.1v-0.2l0.3-0.2L219.8,313.8z M219.8,314.5L219.8,314.5L219.8,314.5L219.8,314.5z
			 M219.9,315.9l0.1,0.1L219.9,315.9L219.9,315.9L219.9,315.9z M219.9,316.1l0.2,0.1l0.1,0.3l-0.3-0.1V316.1z M220.2,316.1l-0.1-0.2
			h0.2l0.2,0.3L220.2,316.1z M220,315.3L220,315.3h0.2H220L220,315.3z M220.2,315L220.2,315v-0.1l0.1,0.1L220.2,315z M220.2,314.8
			l0.1-0.2l0.3,0.1l-0.3,0.2L220.2,314.8z M220.3,314.4h-0.2l0.1-0.2l0.3-0.1L220.3,314.4z M220.1,314.1h-0.2l0.1-0.2l0.3-0.1
			L220.1,314.1z M219.9,313.3l-0.3,0.3l-0.1-0.4l0.5-0.5L219.9,313.3z M219.6,314.1l0.1-0.1L219.6,314.1L219.6,314.1L219.6,314.1z
			 M219.8,315.7L219.8,315.7L219.8,315.7L219.8,315.7z M220.2,316.6l0.3,0.7l-0.5-0.5l-0.1-0.4L220.2,316.6z M220.4,316.5l-0.1-0.4
			l0.4,0.1l0.4,0.6L220.4,316.5z M220.4,315.8l0.4-0.1l0.5,0.5l-0.7-0.1L220.4,315.8z M220.4,315.7l-0.1-0.2l0.2-0.1l0.3,0.2
			L220.4,315.7z M220.4,315.2l-0.1-0.1l0.1-0.1l0.3,0.1L220.4,315.2z M220.6,314.9l0.3-0.3l0.7,0.1l-0.7,0.3L220.6,314.9z
			 M220.5,314.5l0.3-0.3l0.7-0.1l-0.6,0.4L220.5,314.5z M220.6,314l-0.4,0.1l0.1-0.3l0.7-0.3L220.6,314z M220,313.7l0.1-0.4l0.6-0.4
			l-0.3,0.7L220,313.7z M220.1,313.2l0.1-0.9l1.6-1.9l-1,2.3L220.1,313.2z M220.2,312.3l-0.6,0.7l-0.1-0.9l1.1-2.3L220.2,312.3z
			 M219.6,314.5l0.1,0.2v0.2l-0.1,0.2l-0.1,0.2l-0.1,0.3l-0.1,0.1l-0.2,0.1h-0.2l-0.3-0.1l-0.1-0.1l-0.1-0.1l-0.1-0.1l-0.1-0.2v-0.2
			l0.1-0.2l0.1-0.2l0.1-0.1l0.1-0.1l0.2-0.1h0.2h0.1l0.3,0.1l0.1,0.1L219.6,314.5z M218.8,316.5l0.1,0.2l-0.1,0.3l-0.1-0.3
			L218.8,316.5z M218.6,316.3L218.6,316.3h0.1l-0.1,0.1L218.6,316.3z M218.5,313.8L218.5,313.8h-0.1l0.1-0.1L218.5,313.8z
			 M218.4,313.6l0.1-0.3l0.2,0.3l-0.1,0.2L218.4,313.6z M218.3,313.5l-0.3-0.3l-0.1-0.7l0.4,0.6L218.3,313.5z M218.2,313.7v0.2
			l-0.2-0.1l-0.1-0.3L218.2,313.7z M218.2,314L218.2,314L218.2,314L218.2,314L218.2,314z M218.1,316.1L218.1,316.1l-0.1,0.1
			L218.1,316.1L218.1,316.1z M218.1,316.3v0.2l-0.3,0.2l0.1-0.3L218.1,316.3z M217.9,314.3l-0.1-0.1L217.9,314.3L217.9,314.3
			L217.9,314.3z M217.9,314.4L217.9,314.4L217.9,314.4L217.9,314.4z M217.9,314.5L217.9,314.5L217.9,314.5l-0.1,0.1l-0.1-0.1H217.9z
			 M217.7,315.3L217.7,315.3L217.7,315.3L217.7,315.3z M217.6,314.9l-0.1-0.1l0.1-0.1V314.9L217.6,314.9z M217.7,315.5L217.7,315.5
			h-0.2H217.7L217.7,315.5z M217.8,315.8L217.8,315.8L217.8,315.8L217.8,315.8L217.8,315.8z M217.4,314.4l-0.2-0.3l0.3,0.1l0.1,0.2
			H217.4z M217.5,314.7l-0.2,0.1l-0.3-0.2l0.3-0.1L217.5,314.7z M217.4,315l-0.2,0.1L217,315l0.3-0.1L217.4,315z M217.6,315.1
			L217.6,315.1v0.1l-0.1-0.1L217.6,315.1z M217.6,315.7l-0.1,0.2l-0.3,0.1l0.2-0.3H217.6z M217.6,316.1h0.2l-0.1,0.2l-0.3,0.1
			L217.6,316.1z M217.9,314.1l-0.2-0.1l-0.1-0.3l0.3,0.1V314.1z M217.5,313.5l-0.3-0.7l0.5,0.5l0.1,0.4L217.5,313.5z M217.6,314
			l-0.4-0.1l-0.4-0.5l0.7,0.3L217.6,314z M217.3,314.4l-0.4,0.1l-0.5-0.5l0.7,0.1L217.3,314.4z M217.1,314.8l-0.4,0.1l-0.7-0.3
			l0.9-0.1L217.1,314.8z M216.8,315.1l0.4,0.1l0.2,0.1l-0.1,0.1l-0.3-0.1l-0.1,0.1l-0.7-0.1L216.8,315.1z M217.3,315.7L217,316
			l-0.7,0.1l0.6-0.4L217.3,315.7z M217.1,316.1l0.4-0.1l-0.1,0.3l-0.7,0.3L217.1,316.1z M217.8,316.4l-0.1,0.4l-0.6,0.4l0.3-0.7
			L217.8,316.4z M217.9,316.9l0.3-0.3l0.1,0.4l-0.5,0.5L217.9,316.9z M218.2,316.1L218.2,316.1L218.2,316.1L218.2,316.1z
			 M218.3,316.2L218.3,316.2h0.1H218.3L218.3,316.2z M218.9,313.7l-0.1-0.2l0.1-0.3l0.1,0.3L218.9,313.7z M219.1,313.8L219.1,313.8
			H219l0.1-0.1L219.1,313.8z M218.9,313.8L218.9,313.8h-0.1l0.1-0.1L218.9,313.8z M219.4,314L219.4,314l0.1-0.1L219.4,314L219.4,314
			z M219.5,314.1L219.5,314.1L219.5,314.1L219.5,314.1z M219.3,313.7l-0.1-0.2l0.2-0.3l0.1,0.3L219.3,313.7z M219.1,313.3l-0.1-0.4
			l0.3-0.7l0.1,0.8L219.1,313.3z M218.9,312.8l-0.3-0.8l0.4-2.5l0.2,2.6L218.9,312.8z M218.9,313.1l-0.1,0.3l-0.3-0.3l0.1-0.7
			L218.9,313.1z M218.3,312.9l-0.5-0.7l-0.3-2.5l0.9,2.4L218.3,312.9z M217.1,312.5l-0.9-2.4l1.5,2l0.1,0.9L217.1,312.5z
			 M217.3,313.5l-0.7-0.3l-1.5-2l2,1.6L217.3,313.5z M217,313.9l-0.9-0.1l-1.9-1.6l2.3,1L217,313.9z M216.7,314.4l-0.9,0.1l-2.3-1.1
			l2.5,0.4L216.7,314.4z M216.6,315l-0.7,0.3l-2.5-0.4l2.4-0.3L216.6,315z M216.7,315.6l-0.7,0.5l-2.5,0.3l2.4-0.9L216.7,315.6z
			 M216.9,316.1l-0.5,0.7l-2.4,0.9l2-1.5L216.9,316.1z M216.4,316.9l0.8-0.3l-0.3,0.7l-2,1.4L216.4,316.9z M217,317.5l0.6-0.5
			l-0.1,0.9l-1.6,1.9L217,317.5z M217.7,317.9l0.5-0.7l0.1,0.9l-1,2.3L217.7,317.9z M218.3,316.5l0.2-0.1l0.1,0.2l-0.2,0.3
			L218.3,316.5z M218.6,316.8l0.1,0.4l-0.3,0.7l-0.1-0.8L218.6,316.8z M218.8,317.3l0.3,0.8l-0.4,2.5l-0.2-2.6L218.8,317.3z
			 M218.9,317.1l0.1-0.3l0.3,0.3l-0.1,0.7L218.9,317.1z M219.4,317.3l0.5,0.7l0.3,2.5l-0.9-2.4L219.4,317.3z M220.6,317.6l0.9,2.4
			l-1.4-2l-0.1-0.9L220.6,317.6z M220.4,316.7l0.7,0.3l1.4,2l-1.9-1.6L220.4,316.7z M220.8,316.3l0.8,0.1l2,1.6l-2.3-1.1
			L220.8,316.3z M221,315.7l0.9-0.1l2.2,1l-2.4-0.4L221,315.7z M221.7,315.4l-0.8,0.1l-0.3-0.3l0.4-0.1L221.7,315.4l-0.5-0.3
			l0.8-0.3l2.5,0.4l-2.5,0.3L221.7,315.4z M221.9,314.7l-0.8-0.1l0.7-0.5l2.5-0.3L221.9,314.7z M220.8,314l0.5-0.7l2.4-0.9l-2,1.4
			L220.8,314z M221.3,313.3l-0.8,0.3l0.3-0.7l2-1.5L221.3,313.3z M228,302.6l-5.6,6.9l3.7-8.1C226.7,301.7,227.4,302.1,228,302.6z
			 M225.8,301.3l-3.8,8.6l-1.8,2.2l0.4-2.7l3.9-8.6C224.9,301,225.4,301.2,225.8,301.3z M224.4,300.7l-3.7,8.1l1.4-8.8
			C222.9,300.2,223.7,300.4,224.4,300.7z M222.1,300l-1.5,9.2l-1.2,2.5l-0.3-2.8l1.5-9.2C221.1,299.8,221.6,299.9,222.1,300z
			 M218.9,299.8c0.5-0.1,1.1-0.1,1.6,0l-1.4,8.8l-0.9-8.8H218.9z M218.1,299.7l0.9,9.3l-0.4,2.7l-1-2.6l-0.9-9.3
			C217.1,299.8,217.6,299.8,218.1,299.7z M216.5,299.8l0.9,8.8l-3.1-8.3C215,300.1,215.7,300,216.5,299.8z M214.1,300.4l3.3,8.8
			l0.3,2.8l-1.6-2.2l-3.3-8.8C213.2,300.8,213.6,300.6,214.1,300.4z M212.6,301l3.1,8.3l-5.2-7.2C211.2,301.7,211.9,301.4,212.6,301
			z M210.4,302.2l5.5,7.6l1,2.6l-2.2-1.7l-5.5-7.6C209.7,302.8,210,302.5,210.4,302.2z M209.2,303.1l5.2,7.2l-6.9-5.6
			C208,304.1,208.6,303.6,209.2,303.1z M207.5,304.8l7.3,6l1.6,2.2l-2.5-1.2l-7.3-6C206.8,305.5,207.1,305.1,207.5,304.8z
			 M206.4,306l6.9,5.6l-8.1-3.7C205.5,307.3,205.9,306.6,206.4,306z M205.1,308l8.6,3.9l2.1,1.7l-2.8-0.4l-8.5-3.9
			C204.7,308.9,204.9,308.4,205.1,308z M204.5,309.5l8,3.7l-8.7-1.4C204.1,311,204.3,310.2,204.5,309.5z M203.9,311.8l9.2,1.6
			l2.5,1.2l-2.7,0.3l-9.2-1.6C203.7,312.8,203.7,312.3,203.9,311.8z M203.4,315.1c0-0.5,0.1-1.1,0.1-1.7l8.8,1.4l-8.8,0.9V315.1z
			 M203.4,315.9l9.4-0.9l2.7,0.4l-2.6,1l-9.4,0.9C203.5,316.8,203.5,316.3,203.4,315.9z M212.5,316.6l-8.3,3.1
			c-0.3-0.7-0.4-1.5-0.5-2.2L212.5,316.6z M213,316.5l2.8-0.3l-2.2,1.6l-8.8,3.3c-0.2-0.4-0.3-0.9-0.5-1.4L213,316.5z M204.7,321.3
			l8.3-3.1l-7.2,5.2C205.4,322.6,205.1,322,204.7,321.3z M205.9,323.6l7.7-5.6l2.6-1l-1.8,2.2l-7.6,5.5
			C206.5,324.3,206.2,324,205.9,323.6z M206.8,324.8l7.2-5.2l-5.6,6.9C207.9,325.9,207.3,325.4,206.8,324.8z M208.6,326.6l6-7.3
			l2.2-1.6l-1.2,2.5l-5.9,7.3C209.3,327.2,209,326.9,208.6,326.6z M209.8,327.5l5.6-6.9l-3.7,8.1C211.1,328.4,210.4,328,209.8,327.5
			z M211.9,328.8l3.8-8.6l1.8-2.2l-0.4,2.7l-3.9,8.6C212.8,329.2,212.3,329,211.9,328.8z M213.3,329.5l3.7-8.1l-1.4,8.8
			C214.8,330.1,214,329.8,213.3,329.5z M215.6,330.1l1.6-9.2l1.2-2.5l0.3,2.8l-1.6,9.2C216.6,330.3,216.1,330.3,215.6,330.1z
			 M218.9,330.5c-0.6,0-1.1-0.1-1.6-0.1l1.4-8.8l0.9,8.8H218.9z M219.7,330.5l-0.9-9.4l0.4-2.7l1,2.6l0.9,9.4
			C220.6,330.4,220.2,330.4,219.7,330.5z M221.3,330.3l-0.9-8.8l3.1,8.3C222.7,330.1,222,330.2,221.3,330.3z M223.6,329.7l-3.3-8.8
			l-0.3-2.8l1.6,2.2l3.3,8.8C224.6,329.4,224.1,329.6,223.6,329.7z M225.1,329.2l-3.1-8.3l5.2,7.2
			C226.6,328.5,225.8,328.8,225.1,329.2z M227.4,328.1l-5.6-7.7l-1-2.6l2.2,1.8l5.5,7.6C228.1,327.5,227.8,327.7,227.4,328.1z
			 M228.6,327.1l-5.2-7.2l6.9,5.6C229.7,326,229.1,326.6,228.6,327.1z M230.4,325.4l-7.3-6l-1.6-2.2l2.5,1.2l7.3,6
			C231,324.7,230.6,325,230.4,325.4z M231.3,324.1l-6.9-5.6l8.1,3.7C232.2,322.9,231.8,323.5,231.3,324.1z M232.7,322l-8.6-3.8
			l-2.2-1.8l2.7,0.4l8.6,3.9C233,321.2,232.8,321.6,232.7,322z M233.2,320.7l-8.1-3.7l8.8,1.4C233.8,319.2,233.5,319.9,233.2,320.7z
			 M233.9,318.2l-9.2-1.5l-2.5-1.2l2.8-0.3l9.2,1.5C234.1,317.3,234,317.8,233.9,318.2z M234.2,316.7l-8.8-1.4l8.8-0.9
			c0.1,0.2,0.1,0.5,0.1,0.7C234.3,315.7,234.2,316.2,234.2,316.7z M224.9,315.2l-2.7-0.5l2.6-1l9.3-0.9c0.1,0.5,0.1,1,0.1,1.4
			L224.9,315.2z M225.3,313.5l8.2-3.1c0.3,0.7,0.4,1.5,0.5,2.2L225.3,313.5z M233.6,310.3l-8.8,3.3l-2.8,0.3l2.2-1.6l8.8-3.3
			C233.2,309.3,233.4,309.8,233.6,310.3z M224.6,311.9l7.1-5.2c0.4,0.6,0.7,1.4,1.1,2L224.6,311.9z M224.2,312.1l-2.6,1l1.8-2.2
			l7.6-5.5c0.3,0.4,0.5,0.7,0.9,1.2L224.2,312.1z"/>
		<polygon fill="#FFFFFF" points="221.7,315.4 221.7,315.4 221.7,315.4 		"/>
		<polygon fill="#FFFFFF" points="217,315.5 217.2,315.2 217,315.4 		"/>
		<polygon fill="#FFFFFF" points="166.9,315.6 167.2,315.7 167.2,315.7 		"/>
		<path fill="#FFFFFF" d="M255.2,363.5c-0.5-1.5-1.4-2-2.7-1.6c-1.2,0.4-1.8,1.3-1.3,2.8c0.2,0.7,0.3,1.1,0.5,1.8
			c0.5,1.7,1.5,2,2.7,1.6c1.1-0.3,1.8-1.1,1.3-2.8C255.5,364.6,255.4,364.3,255.2,363.5z"/>
		<path fill="#FFFFFF" d="M135.2,361.8c-0.6-0.2-0.9-0.3-1.5-0.5c-0.8,2.4-1.1,3.6-1.9,6c0.8,0.3,1.2,0.4,2.1,0.6
			c1.2,0.4,2,0.1,2.4-1.4c0.2-0.7,0.3-1,0.5-1.7C137.3,363.1,136.8,362.3,135.2,361.8z"/>
		<path fill="#FFFFFF" d="M253,356.5c-0.1-0.4-0.2-0.6-0.3-1.1c-0.6-1.7-1.5-2-2.6-1.6c-1.1,0.3-1.7,1-1.2,2.8
			c0.1,0.4,0.2,0.7,0.3,1.1c0.5,1.6,1.4,1.8,2.5,1.5C252.8,358.8,253.5,358.1,253,356.5z"/>
		<path fill="#FFFFFF" d="M227.9,361.2c-0.3-1.4-1-1.9-2.1-1.7c-1.1,0.2-1.7,0.8-1.5,2.3c0.7,4.4,1,6.5,1.7,10.9
			c0.2,1.4,1,1.9,2.2,1.7c1.2-0.2,1.8-0.9,1.6-2.3C229,367.7,228.6,365.5,227.9,361.2z"/>
		<path fill="#FFFFFF" d="M137.7,353.9c-0.6-0.2-1-0.3-1.6-0.5c-0.6,2.1-1,3.1-1.6,5.1c0.5,0.2,0.8,0.3,1.3,0.4
			c1.3,0.4,2.2,0.1,2.7-1.4c0.1-0.4,0.2-0.7,0.3-1.1C139.3,355.1,138.9,354.3,137.7,353.9z"/>
		<path fill="#FFFFFF" d="M161.5,359.6c-0.7-0.1-1-0.2-1.6-0.3c-0.4,2.5-0.7,3.7-1.1,6.2c0.5,0.1,0.8,0.1,1.4,0.2
			c1.3,0.2,2.2-0.2,2.5-1.8c0.1-0.8,0.2-1.2,0.3-2C163.1,360.5,162.7,359.8,161.5,359.6z"/>
		<path fill="#FFFFFF" d="M126.7,252.5c-2.6,0-4,1.6-4,4.3v8.9c0,2.7,1.4,4.3,4,4.3s4-1.6,4-4.3v-5.4H127v2.4h1.2v3.1
			c0,1.2-0.5,1.7-1.4,1.7c-0.9,0-1.4-0.4-1.4-1.7v-9.2c0-1.2,0.5-1.7,1.4-1.7c0.9,0,1.4,0.5,1.4,1.7v1.8h2.5v-1.7
			C130.7,254.1,129.4,252.5,126.7,252.5z"/>
		<polygon fill="#FFFFFF" points="135.1,252.7 132.4,252.7 132.4,269.8 139.5,269.8 139.5,267.4 135.1,267.4 		"/>
		<path fill="#FFFFFF" d="M148.6,265.7v-8.9c0-2.7-1.4-4.3-4.1-4.3c-2.6,0-4.1,1.6-4.1,4.3v8.9c0,2.7,1.4,4.3,4.1,4.3
			C147.2,270,148.6,268.4,148.6,265.7z M146,265.9c0,1.2-0.5,1.7-1.4,1.7c-0.9,0-1.4-0.5-1.4-1.7v-9.2c0-1.2,0.5-1.7,1.4-1.7
			c0.9,0,1.4,0.5,1.4,1.7V265.9z"/>
		<path fill="#FFFFFF" d="M158.6,265.7v-1.4c0-1.8-0.6-3.1-2-3.7c1.2-0.6,1.7-1.7,1.7-3.4v-0.6c0-2.6-1.2-3.9-4-3.9h-4v17.1h4.2
			C157.3,269.8,158.6,268.4,158.6,265.7z M153,255.2h1.3c1,0,1.4,0.5,1.4,1.8v1c0,1.4-0.6,1.8-1.6,1.8h-1V255.2z M153,262.1h1.2
			c1.2,0,1.7,0.5,1.7,2.1v1.5c0,1.3-0.5,1.7-1.4,1.7H153V262.1z"/>
		<path fill="#FFFFFF" d="M162.5,266.7h3.3l0.5,3.1h2.7l-2.7-17.1h-3.9l-2.7,17.1h2.5L162.5,266.7z M164.1,255.8l1.3,8.6h-2.6
			L164.1,255.8z"/>
		<polygon fill="#FFFFFF" points="177.3,267.4 172.9,267.4 172.9,252.7 170.2,252.7 170.2,269.8 177.3,269.8 		"/>
		<polygon fill="#FFFFFF" points="187.9,264.8 185.9,252.7 182.2,252.7 182.2,269.8 184.5,269.8 184.5,257.7 186.5,269.8 
			189.1,269.8 190.9,257.6 190.9,269.8 193.5,269.8 193.5,252.7 189.7,252.7 		"/>
		<path fill="#FFFFFF" d="M199.3,270c2.6,0,4.1-1.6,4.1-4.3v-8.9c0-2.7-1.4-4.3-4.1-4.3c-2.6,0-4.1,1.6-4.1,4.3v8.9
			C195.2,268.4,196.6,270,199.3,270z M197.9,256.7c0-1.2,0.5-1.7,1.4-1.7c0.9,0,1.4,0.5,1.4,1.7v9.2c0,1.2-0.5,1.7-1.4,1.7
			c-0.9,0-1.4-0.5-1.4-1.7V256.7z"/>
		<polygon fill="#FFFFFF" points="211,269.8 213.6,252.7 211.2,252.7 209.1,266.7 207.1,252.7 204.4,252.7 207,269.8 		"/>
		<polygon fill="#FFFFFF" points="222.2,267.4 217.5,267.4 217.5,262.4 221.2,262.4 221.2,259.9 217.5,259.9 217.5,255.2 
			222.2,255.2 222.2,252.7 214.9,252.7 214.9,269.8 222.2,269.8 		"/>
		<polygon fill="#FFFFFF" points="226.1,257.7 228.1,269.8 230.7,269.8 232.5,257.6 232.5,269.8 235.1,269.8 235.1,252.7 
			231.3,252.7 229.5,264.8 227.5,252.7 223.8,252.7 223.8,269.8 226.1,269.8 		"/>
		<polygon fill="#FFFFFF" points="244.3,267.4 239.7,267.4 239.7,262.4 243.4,262.4 243.4,259.9 239.7,259.9 239.7,255.2 
			244.3,255.2 244.3,252.7 237,252.7 237,269.8 244.3,269.8 		"/>
		<polygon fill="#FFFFFF" points="248.4,257.4 251.7,269.8 254.5,269.8 254.5,252.7 252.1,252.7 252.1,262.9 249.3,252.7 246,252.7 
			246,269.8 248.4,269.8 		"/>
		<polygon fill="#FFFFFF" points="258.4,269.8 261.1,269.8 261.1,255.2 263.9,255.2 263.9,252.7 255.6,252.7 255.6,255.2 
			258.4,255.2 		"/>
	</g>
</g>
</svg>
