<?xml version="1.0" encoding="utf-8"?>
<!-- Generator: Adobe Illustrator 20.1.0, SVG Export Plug-In . SVG Version: 6.00 Build 0)  -->
<svg version="1.1" id="Layer_1" xmlns="http://www.w3.org/2000/svg" xmlns:xlink="http://www.w3.org/1999/xlink" x="0px" y="0px"
	 viewBox="0 0 501.1 496.5" style="enable-background:new 0 0 501.1 496.5;" xml:space="preserve">
<style type="text/css">
	.st0{fill:#FFFFFF;}
	.st1{fill:none;}
</style>
<g>
	<path class="st0" d="M115.3,88l0.4,2.6V91c37.3-29,84.1-46.3,134.9-46.3c36.8,0,71.6,9.1,102.1,25.2c0.6-1.3,1.6-2.5,2.6-3.5
		c-31.3-16.5-66.9-26-104.6-26c-52.2,0-100.5,17.9-138.7,48.1l0.8-0.1L115.3,88z"/>
	<path class="st0" d="M119.4,127.7c35.5-33.9,82-52.6,131-52.6c37.8,0,74.3,11.2,105.3,31.8c0.5-3.4,1-6.9,1.4-10.3H357l-2.6-0.3
		l0.3-2.6l0.1-1.6l0.1-1.6l0.3-2.6h0.5c-3.4-3.4-5.2-8.1-4.7-12.9c0-0.4,0.1-0.8,0.1-1.2c-30.7-16.4-65.2-25-100.8-25
		c-49,0-95.9,16.4-133.9,46.7l0.3,1.4l0.1,1c0.3,1.7-0.4,3.5-1.6,4.7l3.9,25.1C119.3,127.9,119.3,127.9,119.4,127.7z"/>
	<path class="st0" d="M100.6,100.2c0.1,1.4,1.3,2.3,2.6,2.5c3.6,22.2,7.4,44.6,11.2,66.8c0,0-0.1,0-0.3,0c-1.9,0.4-3.2,2.2-2.9,4.3
		c0.1,0.5,0.1,0.9,0.3,1.3c-2.3,0.4-4.5,0.8-6.9,1.2c0.1,1,0.4,2.1,0.5,3.1c1.2-0.1,2.2-0.4,3.2-0.5c1.3,7.3,2.6,14.7,3.9,22
		c-0.3,0-0.4,0.1-0.6,0.1c-0.9-4.9-1.7-9.7-2.6-14.7c-2.3,0.4-4.7,0.9-7,1.3c-0.1-1.3-0.4-2.5-0.6-3.8c-2.7,0.5-5.5,1-8.2,1.6
		c-0.3-1.7-0.6-3.2-0.9-4.8c-1.9,0.4-3.9,0.8-5.8,1.2c0.5,2.6,1,5.2,1.6,7.8c-1.6,0.3-3.1,0.5-4.7,0.9c1,4.9,2.1,9.7,3.1,14.6
		c-2.9,0.5-5.7,1.2-8.6,1.8c0.6,3.2,1.4,6.4,2.1,9.6c-0.1,0-0.1,0-0.3,0c0.6,2.6,1.2,5.2,1.8,7.8c55.6-12.5,112.4-18.7,169.1-18.7
		s113.5,6.2,169.1,18.7c0.6-2.6,1.2-5.3,1.8-7.9c3-13.5,6.1-27.2,9.1-40.8c-0.9-0.3-1.8-0.4-2.7-0.6c0.3-0.9,0.4-1.8,0.6-2.7
		c-1.8-0.4-3.5-0.8-5.3-1.2c-0.3,1-0.4,2.1-0.6,3.1c-3.8,1.3-7.5,2.7-11.3,4c-0.9,4.5-1.8,9.2-2.7,13.8c-1.4-0.4-3-0.6-4.4-0.9
		c0.5-2.2,0.9-4.3,1.3-6.5c-1.2-0.3-2.3-0.4-3.5-0.6c0.3-1.6,0.6-3.2,0.9-4.8c-6.5-6.9-13.1-13.6-20-20.3c-1.4,7-2.9,14-4.3,21.1
		c-1.4-0.3-2.7-0.4-4.2-0.6c-0.1,1-0.4,2.1-0.5,3.1c-1.2-0.1-2.3-0.4-3.5-0.5c0.4-3,0.9-5.8,1.3-8.7c-3.5-0.5-6.9-0.9-10.3-1.4
		c-0.4,3.1-0.9,6.4-1.3,9.5c-0.1,0-0.3,0-0.4,0c3.4-28.6,6.6-57.2,9.9-85.8c0.9,0.1,1.8,0.3,2.7,0.4c0.1-1,0.3-2.1,0.4-3.1
		c-1-0.1-2.2-0.3-3.2-0.4c0.1-0.9,0.3-1.7,0.4-2.6c5.3-1.2,9.7-5.3,10.5-10.9c0.8-5.6-2.3-10.9-7.3-13.4c0.3-1.6,0.4-3.1,0.6-4.7
		c0.5,0.1,1.2,0.1,1.7,0.3c0.1-0.6,0.1-1.3,0.3-1.9c-1.2-0.3-2.3-0.4-3.5-0.5c0.1-1.3,0.4-2.7,0.5-4c-0.1-0.1-0.4-0.1-0.5-0.1
		c0.1-0.8-0.4-1.7-1.2-2.1c2.2-17.2,4.4-34.2,6.6-51.3c0-0.3-0.3-0.6-0.6-0.6c-0.1,0-0.3,0-0.5,0l0,0c-0.4,0-0.6,0.3-0.6-0.1
		c-2.1,17.2-4.3,34.2-6.5,51.3c-0.9,0.3-1.6,0.9-1.7,1.8c-0.1-0.1-0.4-0.1-0.5-0.1c-0.1,1.3-0.4,2.7-0.5,4c-1.2-0.1-2.3-0.3-3.5-0.4
		c-0.1,0.6-0.1,1.3-0.3,1.9c0.5,0.1,1.2,0.1,1.7,0.3c-0.3,1.7-0.4,3.2-0.6,4.8c-5.5,1.2-9.7,5.6-10.4,11.2
		c-0.6,5.6,2.6,10.8,7.4,13.3c0,0.9-0.1,1.7-0.3,2.6c-1-0.1-2.2-0.3-3.2-0.4c-0.1,1-0.3,2.1-0.4,3.1c0.9,0.1,1.8,0.3,2.7,0.4
		c-3.6,25.5-7.3,50.9-10.9,76.4c-3.6-0.5-7.3-0.9-10.9-1.3c0.4-3.6,0.8-7.4,1.2-11c-7.7-0.9-15.3-1.6-23-2.2c-1.3,0.1-2.7,0.3-4,0.4
		c-0.9,14.2-1.9,28.5-3,42.6c-2.2,0-4.4,0.1-6.6,0.1c-0.9,0-1.9-0.1-3-0.1c0.3-3.4,0.4-6.6,0.6-10c-0.6,0-1.4-0.1-2.1-0.1
		c0.4-6.5,0.8-13.1,1.2-19.6c-0.1,0-0.4,0-0.5,0c0.6-1.4,1.2-2.9,1.8-4.3c1.2,0.1,2.2,0.1,3.4,0.3c0-0.8,0.1-1.7,0.1-2.5
		c-1-0.1-2.2-0.1-3.2-0.3c0.1-2.2,0.3-4.5,0.4-6.8c0.9,0,1.8,0.1,2.7,0.1c2.1-3,4.2-5.8,6.2-8.8c0.1-1.2,0.1-2.2,0.3-3.4
		c-3.9-0.3-7.8-0.5-11.7-0.8c0.1-2.3,0.3-4.5,0.4-6.9h0.1c0.9-1.6,1.7-3.2,2.6-4.9c1.2,0.1,2.3,0.1,3.5,0.3c0-0.6,0.1-1.4,0.1-2.1
		c-16.5-1-33.1-1.6-49.6-1.7c0-1.4,0-3,0-4.4c-1.6,0-3.2,0-4.9,0c-1.4,0-2.9,0-4.3,0c0-0.1,0-0.1,0-0.3c-0.3-0.5-1.4-0.3-1.9-0.5
		c-0.5-0.3-0.3-2.6,0.4-3.1c0.6-0.5,0.3-1.9,1.8-1.9c1.4,0,1.4,2.3,1.6,3.2c0.1,0.9-0.8,1.6-0.4,2.1c0.1,0.1,0.1,0.1,0.3,0.1
		c0.4,0,0.9-1,1.2-2.6c0.3-1.9-0.4-2.9-0.6-3.6s0.6-2.5,0.4-3.6c-0.3-1.2-0.9-1.6-0.9-2.1c0-0.3,0.1-0.3,0.4-0.3c0.1,0,0.1,0,0.3,0
		c0.4,0,0.8,0,1-0.4c0.6-0.6-0.3-1.4-0.4-1.9c-0.1-0.4,0.8-1.3,0.9-2.1c0.1-0.8-1-1.9-2.5-2.2h-0.1c-1.4,0-3.9,6.5-4.4,7.8
		s-2.3,0.3-3.2,1.3c-0.6,0.6-0.5,1.3-0.3,2.3c-0.8,0.1-1.7,0.4-2.5,0.6c-1.7-3.5-5.2-5.8-9.2-6c-0.1-1-0.1-1.9-0.1-3
		c1.3-0.4,2.2-1.6,2.2-3s-1-2.6-2.3-2.9c0-0.4,0-0.9,0-1.3c0.3,0,0.5-0.1,0.8-0.4c1.6-1.7,3.1-3.4,4.7-4.9c0.6-0.6,0.6-1.6,0-2.2
		c-0.4-0.3-0.8-0.4-1.2-0.4c-0.4,0-0.9,0.1-1.2,0.5c-1.4,1.4-2.7,2.7-4,4.2c-1.3-1.3-2.7-2.6-4.2-3.9c-0.3-0.3-0.6-0.4-1-0.4
		s-0.9,0.1-1.2,0.5c-0.5,0.6-0.5,1.6,0.1,2.2c1.7,1.6,3.2,3.1,4.9,4.7c0.3,0.3,0.6,0.4,0.9,0.4c0,0.4,0,0.9,0,1.3
		c-1.3,0.4-2.2,1.6-2.2,3s1,2.6,2.3,2.9c0.1,1,0.1,1.9,0.1,3c-4,0.3-7.4,2.9-9,6.4c-0.8-0.1-1.7-0.4-2.5-0.5c0.1-1,0.3-1.7-0.4-2.3
		c-0.4-0.5-0.9-0.5-1.4-0.5c-0.3,0-0.4,0-0.6,0c-0.5,0-1-0.1-1.3-0.6c-0.5-1.2-3.4-7.5-4.8-7.5h-0.1c-1.4,0.4-2.6,1.6-2.3,2.3
		c0.3,0.8,1.2,1.6,1,2.1c-0.1,0.4-0.9,1.3-0.3,1.9c0.3,0.3,0.6,0.3,0.9,0.3c0.1,0,0.4,0,0.5,0c0.3,0,0.4,0.1,0.4,0.3
		c0,0.5-0.6,1-0.8,2.2c-0.1,1.2,0.8,2.9,0.6,3.6c-0.1,0.8-0.9,1.7-0.5,3.6c0.3,1.6,0.9,2.5,1.3,2.5c0.1,0,0.3,0,0.3-0.1
		c0.3-0.5-0.6-1-0.5-1.9c0-0.9-0.1-3.4,1.4-3.4c1.4,0,1.2,1.3,1.8,1.8c0.6,0.5,1,2.9,0.5,3.1c-0.5,0.3-1.7,0-1.9,0.5
		c0,0.1,0,0.1,0,0.3c-3,0.1-6.1,0.4-9.2,0.5c0.1,1.4,0.1,3,0.3,4.4c-16.5,1-33,2.5-49.5,4.4c0.1,0.6,0.1,1.4,0.3,2.1
		c1.2-0.1,2.3-0.3,3.5-0.4c1,1.6,1.9,3.2,2.9,4.8h0.1c0.3,2.3,0.5,4.5,0.8,6.9c-3.9,0.5-7.8,0.9-11.7,1.4c0.1,1.2,0.3,2.2,0.4,3.4
		c2.3,2.9,4.5,5.6,6.8,8.4c0.9,0,1.8-0.1,2.7-0.3c0.3,2.2,0.5,4.5,0.8,6.8c-1,0.1-2.2,0.3-3.2,0.4c0,0.8,0.1,1.7,0.3,2.5
		c1.2-0.1,2.2-0.3,3.4-0.4c0.4,0.9,0.8,1.7,1.2,2.5c-5.6,0.6-11,1.3-16.6,2.1c1.3,10.4,2.7,20.8,4.2,31.2c-1.6,0.3-3,0.4-4.5,0.6
		c-0.3-1.8-0.5-3.8-0.8-5.6c-0.1-1.2-0.3-2.2-0.4-3.2c-1.7,0.3-3.2,0.4-4.9,0.6c-1-7.4-2.2-14.7-3.2-22.1c1.2-0.3,2.2-0.4,3.2-0.5
		c-0.3-1.2-0.4-2.2-0.5-3.2c-2.5,0.3-4.8,0.6-7.3,1c0-0.5-0.1-0.9-0.1-1.3c-0.3-1.8-1.8-3.1-3.5-3.1c-0.1,0-0.4,0-0.5,0
		c0,0-0.1,0-0.3,0c-3.5-22.4-7-44.6-10.5-66.9c1.2-0.5,1.9-1.8,1.7-3.1c0-0.3-0.1-0.6-0.1-1c-0.4-2.2-0.6-4.4-1-6.6
		c-0.8,0.1-1.4,0.3-2.2,0.4c-0.6,0.1-1.4,0.3-2.1,0.4c-0.4-1.8-0.6-3.6-0.9-5.5c0-0.1-0.1-0.4-0.1-0.5c0.4,0.1,0.6,0.1,1,0.1
		c1,0,2.2-0.5,3-1.4c1.3-1.7,1-3.9-0.6-5.2c-1.4,1.8-2.9,3.5-4.3,5.3c-0.3-0.1-0.5-0.3-0.8-0.4c0.1-0.3,0.1-0.6,0.1-0.9
		c-0.1-0.8-0.8-1.3-1.6-1.3c-0.1,0-0.1,0-0.3,0c-0.8,0.1-1.4,1-1.3,1.8c0,0.3,0.1,0.5,0.4,0.8c-0.3,0.1-0.5,0.4-0.6,0.6
		c-1.8-1.2-3.8-2.5-5.7-3.6c-1.2,1.7-0.6,3.9,1,5.1c0.6,0.5,1.3,0.6,2.1,0.6c0.8,0,1.6-0.3,2.2-0.6c0,0.1,0,0.4,0,0.5
		c0.3,1.8,0.6,3.6,0.9,5.5c-0.6,0.1-1.4,0.3-2.1,0.4c-0.8,0.1-1.4,0.3-2.2,0.4c0.4,2.2,0.8,4.4,1.2,6.6
		C100.5,99.4,100.6,99.8,100.6,100.2z M273,156.7c0-0.8,0.6-1.3,1.3-1.3c4.3,0.1,8.6,0.4,12.9,0.5c0.6,0,1.2,0.6,1.2,1.4
		c-0.6,13.3-1.2,26.4-1.8,39.5c0,0.3-0.1,0.4-0.1,0.5c-4.8-0.3-9.6-0.4-14.3-0.6c-0.1-0.3-0.1-0.4-0.1-0.5
		C272.3,183,272.7,169.9,273,156.7z M250.8,156.5c0-0.6,0.6-1.3,1.3-1.3c4.3,0,8.6,0,12.9,0.1c0.8,0.1,1.3,0.6,1.3,1.4
		c-0.3,13.1-0.5,26.4-0.8,39.5c0,0.3-0.1,0.4-0.1,0.5c-4.8-0.1-9.6-0.1-14.4-0.3c-0.1-0.3-0.1-0.4-0.1-0.5
		C250.8,182.9,250.8,169.6,250.8,156.5z M217.6,154.3c7.7-0.4,15.5-0.5,23.1-0.6c0.8,0,1.3,0.5,1.3,1.3c0.1,13.9,0.3,27.8,0.4,41.7
		c-8.1,0.1-16.2,0.3-24.3,0.6c-0.6-13.9-1.2-27.8-1.7-41.6C216.3,154.9,216.9,154.3,217.6,154.3z M190.6,157.4
		c4.3-0.3,8.6-0.5,12.9-0.8c0.1,0,0.1,0,0.1,0c0.6,0,1.3,0.5,1.3,1.3c0.8,13.1,1.4,26.3,2.2,39.4c0.1,0.3,0,0.4,0,0.5
		c-4.8,0.3-9.6,0.5-14.4,0.9c0-0.1,0-0.3-0.4-0.5c-0.9-13.1-1.9-26.3-2.9-39.4C189.5,158,190,157.4,190.6,157.4z M167.9,160.2
		c4.2-0.4,8.4-0.8,12.7-1.2h0.1c0.6,0,1.3,0.6,1.3,1.3c1,13.1,2.2,26.3,3.2,39.4c0,0.3,0,0.4,0,0.5c-4.8,0.4-9.6,0.8-14.4,1.3
		c-0.1-0.1-0.1-0.3-0.1-0.6c-1.3-13-2.7-26.1-4-39.2C166.7,161,167.3,160.4,167.9,160.2z"/>
	<path class="st0" d="M501.1,251.3c-9.1-3-18.1-5.7-27.2-8.4c-6.4-65.8-41.3-123.3-92.1-160.1c-0.5,1.3-1.3,2.6-2.2,3.8
		c49.3,35.7,83.2,91.4,90.1,155c-1.8-0.5-3.5-1-5.3-1.4c-5.6-49.6-28.1-95.5-64.5-130.6c-7.4-7.3-15.3-13.9-23.7-19.9
		c-0.4,0.3-0.8,0.5-1.2,0.8l0.5,0.1l-0.4,2.6l-0.4,3.1l-0.4,2.6l-2.6-0.4h-0.1c-0.8,6.2-1.4,12.5-2.2,18.7c4.3,3.5,8.4,7.1,12.5,11
		c14,13.5,25.6,29,34.7,45.6c0.9-0.3,1.7-0.6,2.6-0.9l0.4-1.7l0.5-2.6l2.6,0.5c1.8,0.4,3.5,0.8,5.3,1.2l2.6,0.5l-0.5,2.6v0.1
		c0.1,0,0.1,0,0.3,0l2.6,0.5l-0.5,2.6l-4.5,20.4l-0.1,0.9c4.3,11.3,7.4,23,9.4,35.1c-123.6-29.9-249.9-29.9-373.6,0
		c5.6-33.9,20.4-65.5,42.9-91.8l-5.5-32.2c-36.5,35.1-59,81.2-64.6,131c-1.6,0.4-3.2,0.9-4.8,1.3c5.7-53.7,30.8-101.8,68.1-136.8
		c-1-0.8-1.9-2.1-2.1-3.4l-0.1-0.4C58.7,137.1,32.7,187,27.3,242.8c-9.1,2.6-18.2,5.5-27.3,8.4c8.6,27.8,17.3,55.9,25.9,83.7l0,0
		l0,0l13.8,6.2c19.9,55.1,60.8,100.2,113.1,125.7c-1.4,3.6-2.9,7.1-4.3,10.8c69.4,25.2,138,25.2,207.5,0c-1.6-4-3.1-8.1-4.8-12.1
		c50.9-25.7,90.8-70.2,110.6-124.4l13.6-6.1l0,0l0,0C484,306.8,492.5,279,501.1,251.3z M69.8,322.2c119.7-31.2,241.9-31.2,361.5,0
		c-16.5,52.9-55.8,95.9-106.2,117.6c-52.5,15.7-103.7,14.7-156.5-3.2C121.8,413.9,85.5,372.5,69.8,322.2z M389,289.9
		c3-14.8,4.4-22.2,7.4-37c0.1-0.5,0.8-0.8,1.6-0.8c3.5,0.8,5.3,1.2,9,1.8c0.8,0.1,1.2,0.8,1.2,1.3c-1.6,6.6-2.2,10-3.6,16.6
		c7.3-5.6,11.2-8.2,18.7-13.6c0.5-0.4,0.9-0.5,1.7-0.3c4.2,1,6.2,1.6,10.4,2.6c0.8,0.1,1,0.5,0.9,0.8c0,0.5-0.3,0.8-0.4,1
		c-8.2,5.3-12.3,8.1-20.4,13.6c4.2,8.2,6.5,12.6,11,22.5c0.1,0.3,0.1,0.5,0.1,0.6c-0.1,0.4-0.5,0.5-1,0.3c-4.4-1.2-6.6-1.7-11-2.9
		c-0.8-0.1-1-0.5-1.2-1c-3.6-8.2-5.6-12.2-9.4-20.3c-1.6,6.8-2.2,10.3-3.8,17c-0.1,0.5-0.8,0.9-1.6,0.8c-3.4-0.8-5.1-1-8.6-1.8
		C389.2,291.1,388.8,290.5,389,289.9z M353.5,267.8c0.4-2.6,0.5-4,1-6.6c1.8-12.6,12.3-15.3,23-13.5c4.9,0.8,8.7,2.2,10,2.9
		c0.9,0.4,1.6,0.8,1.2,1.6c-0.4,1.9-0.6,3-0.9,5.1c-0.1,0.6-0.5,1-1.6,0.8c-0.1,0-0.1,0-0.1-0.1c-2.6-0.6-6.2-1.6-10-2.2
		c-4.7-0.8-8.7,0.5-9.9,7.5c-0.5,2.6-0.6,3.9-1,6.6c-1.2,7,2.2,9.6,6.8,10.3c3.6,0.6,7.3,1,9.9,1.3c0.1,0,0.1,0,0.1,0.1
		c0.8,0.1,1.2,0.6,1,1.2c-0.4,2.1-0.5,3.1-1,5.1c-0.1,0.8-0.8,0.9-1.7,0.9c-1.6,0.1-5.3-0.1-9.9-0.8
		C360.5,286.2,351.7,280.6,353.5,267.8z M305.1,278.1c4.9-13,7.5-19.4,13-32.2c2.1-4.9,7.3-5.3,12.1-4.8c4.8,0.5,9.7,1.9,10.8,7.3
		c2.5,13.6,3.5,20.5,5.6,34.3c0,0.1,0.1,0.1,0,0.3c-0.3,0.6-0.6,0.8-1.3,0.6c-3.6-0.5-5.6-0.8-9.2-1.2c-0.6-0.1-1.2-0.5-1.2-1.2
		c-0.5-3.5-0.8-5.5-1.3-9c-5.5-0.6-8.2-0.9-13.6-1.6c-1.3,3.4-1.9,5.1-3.2,8.6c-0.1,0.5-0.8,0.9-1.4,0.8c-3.8-0.4-5.6-0.5-9.2-0.8
		c-0.6-0.1-1.2-0.4-1-0.9C305,278.2,305.1,278.2,305.1,278.1z M261,238.2c0-0.5,0.6-1,1.4-1c3.6,0.1,5.6,0.1,9.2,0.1
		c0.8,0,1.4,0.5,1.4,1c-0.1,5.7-0.3,8.6-0.5,14.3c6.8,0.1,10.1,0.4,16.9,0.8c0.4-5.7,0.5-8.6,0.8-14.3c0.1-0.5,0.6-1,1.6-0.9
		c3.6,0.1,5.6,0.4,9.2,0.5c0.8,0.1,1.4,0.5,1.3,1.2c-1.7,15.2-2.1,22.7-3.2,37.8c-0.1,0.5-0.6,1-1.4,1c-3.5-0.3-5.2-0.4-8.6-0.5
		c-0.8-0.1-1.2-0.5-1.2-1.2c0.4-6.2,0.5-9.2,0.8-15.5c-6.6-0.4-10-0.5-16.6-0.8c-0.1,6.2-0.4,9.2-0.5,15.5c0,0.5-0.5,1-1.3,1
		c-3.5-0.1-5.2-0.1-8.6-0.1c-0.8,0-1.3-0.5-1.3-1.2C260.6,261,260.7,253.3,261,238.2z M237.7,236.7c7.5-0.1,10.9,0.4,13.5,0.5
		c1,0.1,1.4,0.4,1.4,1c-0.6,2.2-0.6,3.2-0.6,5.2c0,0.5-0.5,1-1.4,1c-5.6,0-8.4,0-13.9,0.1c-3.2,0.1-4.4,0.9-4.3,3.8
		c0.1,1.9,0.1,2.9,0.1,4.9c7.1-0.1,10.7-0.1,17.7-0.1c0.8,0,1.4,0.5,1.4,1v5.1c0,0.5-0.5,1-1.3,1c-7,0-10.5,0-17.5,0.1
		c0.1,2.2,0.1,3.4,0.1,5.7c0.1,2.9,1.2,3.6,4.4,3.5c5.5-0.1,8.2-0.1,13.5-0.1c0.8,0,1.3,0.5,1.3,1v4.9c0,0.8-0.4,1-1.3,1.2
		c-2.3,0.3-5.7,0.6-12.7,0.8c-8.6,0.1-16.1-1.4-16.4-11.2c-0.3-7.1-0.4-10.7-0.6-17.7C220.7,238.9,228.6,236.8,237.7,236.7z
		 M185.6,239.5c3.6-0.4,5.5-0.5,9.1-0.8c0.8-0.1,1.4,0.4,1.6,1c0.8,11,1.2,16.6,1.9,27.7c0.1,2.9,1.4,3.5,4.5,3.4
		c4.5-0.3,6.9-0.4,11.4-0.5c0.8-0.1,1.3,0.4,1.4,1c0.1,1.9,0.1,3,0.1,4.9c0.1,0.8-0.4,1-1.3,1.2c-2.2,0.5-7.3,1-10.8,1.2
		c-8.6,0.5-16.2-0.5-17-10.3c-0.9-11-1.4-16.6-2.3-27.7C184.2,240.2,184.8,239.5,185.6,239.5z M164.8,241.3c4.9-0.5,9-0.4,10.4-0.1
		c1,0.1,1.6,0.3,1.7,1c0.1,2.1,0.3,3.1,0.5,5.2c0.1,0.6-0.4,1.2-1.2,1.2h-0.1c-2.6,0.1-6.5,0.1-10.3,0.6c-4.8,0.5-8.2,2.9-7.4,10
		c0.4,2.6,0.5,4,0.8,6.6c0.8,7.1,4.8,8.6,9.4,8.1c3.6-0.4,7.3-1,9.9-1.6h0.1c0.8-0.1,1.3,0.4,1.4,0.9c0.1,2.1,0.3,3.1,0.5,5.2
		c-0.3,0.8-0.6,1-1.7,1.3c-1.3,0.5-5.1,1.4-9.6,1.9c-10,1.2-20-1.8-21.7-14.4c-0.4-2.6-0.5-4-0.9-6.6
		C144.8,248.1,154.1,242.5,164.8,241.3z M98.1,252c3.9-0.8,6-1.2,9.9-1.9c0.6-0.1,1.2,0.1,1.6,0.6c4.2,5.3,6.1,8.1,10,13.5
		c0.5,0.5,0.6,0.8,1.2,0.5c0.5-0.1,0.6-0.1,0.8-1c1.8-6.5,2.9-9.6,4.9-16.2c0.1-0.5,0.5-1,1.2-1.2c3.9-0.6,6-0.9,9.9-1.6
		c0.6-0.1,1.2,0.1,1.2,0.6c0.5,0.5,0.5,0.8,0.5,0.8c-3.1,7.9-4.5,12-7.5,20c-0.9,2.6-2.2,3.9-3.8,4.8c1,5.8,1.6,8.8,2.5,14.7
		c0.1,0.5-0.4,1.2-1.2,1.2c-3.5,0.5-5.1,0.8-8.6,1.6c-0.8,0.1-1.4-0.3-1.6-0.8c-1-5.8-1.6-8.8-2.7-14.7c-1.7-0.3-3.4-1-5.2-3.2
		c-5.5-6.5-8.2-9.7-13.8-16.2c-0.1-0.1-0.1-0.3-0.1-0.4C97.1,252.6,97.5,252.2,98.1,252z M81.2,255.2c4.8-1,9-1.4,10.4-1.3
		c1,0,1.6,0.1,1.7,0.8c0.4,2.1,0.6,3.1,1,5.1c0.1,0.5-0.1,1.2-1,1.3c-0.1,0-0.1,0-0.1,0.1c-2.6,0.4-6.5,0.9-10.1,1.8
		c-4.5,1-7.9,3.9-6.2,10.8c0.5,2.6,0.9,3.9,1.6,6.5c1.7,6.9,5.7,7.9,10.3,6.9c3.5-0.8,7.1-1.8,9.6-2.5c0.1,0,0.1,0,0.1-0.1
		c0.8-0.1,1.3,0.1,1.6,0.8c0.4,2.1,0.6,3.1,1,5.1c0.1,0.8-0.3,1.2-1.2,1.6c-1.2,0.6-4.9,1.9-9.5,3c-9.9,2.2-20.1,0.5-23.4-12
		c-0.6-2.6-1-3.9-1.7-6.5C62,264.2,70.8,257.6,81.2,255.2z M154.1,462.9c-54.1-26.4-95.6-74.3-113.8-132.6c1.6-0.5,3-0.9,4.5-1.3
		c17.5,56.9,58.2,103.8,110.9,129.8C155.2,460.3,154.7,461.6,154.1,462.9z M180.5,469.4c-0.3,0.9-0.4,1.3-0.6,2.1
		c-1.2,4-4.3,5.6-9.1,4c-3-0.9-4.5-1.4-7.5-2.5c3.5-10.3,5.3-15.5,8.8-25.7c2.6,0.9,3.9,1.3,6.5,2.2c4.5,1.3,6,3.9,4.8,7.9
		c-0.1,0.4-0.1,0.5-0.3,0.9c-0.8,2.7-2.2,4.2-4.4,4.4C180.9,464.3,181.3,466.6,180.5,469.4z M195.2,469.8c-2.6-0.5-3.9-0.9-6.5-1.6
		c-0.8,3.1-1.2,4.7-1.9,7.7c3.4,0.8,5.1,1.2,8.3,1.9c-0.4,1.6-0.5,2.3-0.8,3.8c-5.3-1.2-8.1-1.8-13.4-3.2c2.9-10.5,4.3-15.7,7-26.3
		c4.8,1.3,7.1,1.8,12.1,3c-0.4,1.6-0.5,2.3-0.8,3.8c-3.1-0.6-4.7-1-7.8-1.8c-0.6,3-0.9,4.5-1.7,7.4c2.5,0.6,3.8,0.9,6.4,1.6
		C195.7,467.6,195.6,468.2,195.2,469.8z M215.2,464.5c-0.1,0.9-0.1,1.3-0.3,2.1c-0.4,2.7-1.7,4.4-3.9,4.9c2.2,1.3,2.7,3.4,2.3,6.2
		c-0.3,1.7-0.4,2.5-0.6,4.2c-0.1,1.3-0.3,2.2,0,3.4c-1.9-0.5-2.9-0.6-4.9-1c-0.1-0.8-0.3-1.2,0.1-3.4c0.3-1.7,0.4-2.5,0.6-4.2
		c0.4-2.5-0.4-3.5-2.6-3.9c-0.6-0.1-1-0.1-1.7-0.3c-0.8,4.3-1.2,6.5-2.1,10.9c-1.9-0.4-3-0.5-4.9-0.9c2.2-10.7,3.2-16,5.5-26.6
		c2.7,0.5,4,0.8,6.8,1.3C214.2,458,215.9,460.3,215.2,464.5z M228.7,486.8c-5.3-0.4-7.9-0.8-13.3-1.4c1.6-10.7,2.3-16.1,3.8-26.9
		c1.8,0.3,2.7,0.4,4.5,0.5c-1,9.2-1.6,13.9-2.7,23.1c3.2,0.4,4.8,0.5,8.1,0.8C229,484.5,228.9,485.3,228.7,486.8z M236,487.5
		c-1.9-0.1-3-0.1-4.9-0.4c0.8-10.8,1.2-16.2,1.9-27c1.8,0.1,2.7,0.3,4.5,0.3C236.9,471.1,236.7,476.6,236,487.5z M250.3,487.9
		c-2.5-7.8-3.6-11.8-5.7-19.8c-0.3,7.9-0.4,11.8-0.5,19.6c-1.8,0-2.7-0.1-4.5-0.1c0.5-10.9,0.8-16.2,1.3-27.2
		c2.2,0.1,3.4,0.1,5.7,0.1c1.7,6.5,2.6,9.9,4.5,16.4c0-6.5,0-9.7,0-16.2c1.6,0,2.5,0,4,0c0.1,10.9,0.3,16.2,0.4,27.2
		C253.4,487.9,252.4,487.9,250.3,487.9z M273,487.1c-0.1-1.3-0.1-1.9-0.3-3.4c-0.6-7.9,8.7-10.1,7.8-17.9c-0.1-2.5-1.2-3-2.6-2.9
		c-1.4,0.1-2.3,0.9-2.1,2.9c0.1,1.2,0.1,1.7,0.3,2.9c-1.8,0.1-2.6,0.3-4.4,0.4c-0.1-1-0.1-1.6-0.3-2.6c-0.4-4.3,1.8-7,6.1-7.4
		c4.4-0.5,7,1.7,7.5,6c1.2,8.4-8.1,12.7-7.7,17.2c0,0.1,0,0.4,0.1,0.5c3.8-0.4,5.6-0.5,9.4-1c0.3,1.6,0.3,2.3,0.5,3.9
		C281.8,486.3,278.8,486.6,273,487.1z M298.3,484.4c-4.8,0.8-7.9-1.3-8.6-5.6c-0.6-5.7-1-8.4-1.9-14c-0.6-4.3,1.4-7,5.8-7.8
		c4.4-0.8,7.3,1.2,8.1,5.5c1.2,5.6,1.7,8.3,2.7,13.9C305.3,480.6,303.1,483.6,298.3,484.4z M315.8,480.3c-1.9-8.1-2.9-12.1-4.8-20.1
		c-1.4,0.4-2.1,0.5-3.5,0.8c-0.3-1.2-0.4-1.7-0.8-2.9c3.5-0.8,3.9-2.6,4.2-4.4c1.2-0.3,1.8-0.4,3-0.8c2.7,10.5,4.2,15.7,6.9,26.3
		C318.8,479.7,317.7,479.9,315.8,480.3z M328.8,476.8c0.3-9.7,0.3-14.7-0.1-24.3c-3.5,1.2-5.3,1.7-8.8,2.7c-0.4-1.4-0.6-2.2-1-3.8
		c5.3-1.6,7.9-2.3,13.1-4.2c0.5,1.4,0.8,2.1,1.2,3.5c0.5,9.7,0.5,14.7,0.5,24.6C331.7,476,330.7,476.3,328.8,476.8z M349.6,461.7
		c-0.5-1.3-1-2.6-1.6-3.9c51.5-26.3,91.1-72.5,108.4-128.5c1.6,0.4,3,0.9,4.5,1.3C443,387.8,402.4,435.1,349.6,461.7z"/>
	
		<rect x="250.6" y="434.1" transform="matrix(0.4727 -0.8812 0.8812 0.4727 -250.5072 449.8377)" class="st0" width="0.1" height="0.4"/>
	<polygon class="st0" points="250.7,434.6 250.7,434.6 250.7,434.6 250.8,434.5 250.7,434.5 250.8,434.5 250.4,434.2 250.3,434.3 
		250.4,434.3 250.4,434.3 250.4,434.3 250.3,434.5 249.8,434.2 249.7,434.2 249.5,434.3 249.5,434.5 251.2,435.4 251.3,435.4 
		251.3,435.2 250.8,434.7 	"/>
	<path class="st0" d="M329.7,250.2c-0.1-0.1-0.3-0.5-0.8-0.6c-0.5-0.1-0.8,0.1-1,0.6c-2.2,5.6-3.4,8.4-5.6,13.9
		c3.9,0.4,5.8,0.5,9.9,1C331.3,259.1,330.7,256.1,329.7,250.2z"/>
	<polygon class="st0" points="244.1,408.6 249.7,397.5 250.2,397.8 250.3,397.8 250.4,397.7 250.4,397.5 248.6,396.6 248.5,396.6 
		248.5,396.8 249.1,397.3 249.1,397.3 249,397.5 249,397.5 248.9,397.7 249,397.7 248.9,397.8 248.9,397.8 248.9,397.8 243.5,408.3 
			"/>
	<polygon class="st0" points="243.4,418.5 243.4,419.1 243.9,418.7 	"/>
	<path class="st0" d="M248.6,413.8c-1.4,0.4-1.6,0.6-2.7,0.6c-1.3-0.1-4.2-0.8-4.2-0.8s-1.9-0.5-2.1,0.6c0,0,0,0,0,0.1l-5.7-0.4
		c1.4-3,2.2-6.2,2.2-9.6c-0.1-12.6-10.3-22.5-22.6-22.5s-22.4,9.9-22.4,22.4c0,12.3,10,22.5,22.5,22.5c6.2,0,11.7-2.5,15.9-6.5v0.1
		l0.6-0.3l0,0l0.3-0.1l0.4,0.9l0.9-0.4l0.4,0.9l0.9-0.4l0.4,0.9l0.9-0.4l0.4,0.9l0.9-0.4l0.4,0.9l0.9-0.4l0.4,0.9l0.9-0.4l0,0
		l0.4,0.9v0.1l0.9,0.4c0.1,0.1,0.4,0.1,0.5,0l-3.2,6l0.5,0.3l4-7.5l0.6-0.9c0.1,0,0.1,0.1,0.3,0.1c0.6,0.3,2.5,1,3.4,0.9
		c0.4,0,0.6-0.1,1-0.5c-0.1-0.1-0.3-0.3-0.4-0.4c0.5-0.5,0.9-1.2,1.3-1.9c0.6-1.3,0.4-2.9,0.3-3.9c-0.1-0.9-0.6-1.2,0.4-1.8
		c0.3-0.1,0.4-0.4,0.5-0.5c0.3,0,0.5,0,0.8,0C249.7,413.9,249.4,413.7,248.6,413.8z M223.1,413.1l-4.2-3.4l-2.1-2.9l3.2,1.6l6,4.9
		L223.1,413.1z M225.2,418.3l-0.3-0.4l0.3-0.1l0.1,0.3L225.2,418.3L225.2,418.3z M221.7,417.2L221.7,417.2L221.7,417.2L221.7,417.2z
		 M218.2,413.3l-0.6-1.7l1,1.4C218.5,413,218.3,413.1,218.2,413.3z M221.4,416.9l-0.3-0.4l0.1-0.1L221.4,416.9L221.4,416.9z
		 M218.9,412.9c0,0-0.1,0-0.3,0l-1.3-1.8l-0.6-1.7l0.4,1l-1.8-2.6l-0.3-1.2l0.9,0.6l0.1,0.4l2.9,2.3l2.2,3L218.9,412.9z
		 M232.1,411.4c-0.3,0.5-0.5,1.2-0.6,1.7l-11.2-4.9l-2.9-2.3l3.5,0.5L232.1,411.4z M221.7,406.5l11.4,1.8c-0.1,0.9-0.5,1.9-0.9,2.9
		L221.7,406.5z M226.8,413.4l-6-4.8l10.5,4.7c-0.1,0.1-0.1,0.4-0.3,0.5L226.8,413.4z M216.1,404.8l0.6,0.6l-0.9-0.1l-0.3-0.4l0,0
		l-0.3-0.3l0.3-0.1L216.1,404.8l-0.5,0.1L216.1,404.8z M215.1,403.5l0.1,0.1h-0.1V403.5z M215,403.1h0.1v0.1L215,403.1z
		 M215.2,404.3l0.1,0.1L215.2,404.3L215.2,404.3z M215.2,403.3l0.1-0.3l0.4-0.1l-0.3,0.4L215.2,403.3L215.2,403.3z M215.1,402.7
		h-0.3l0.1-0.3l0.4-0.1L215.1,402.7z M215.1,405.5l0.1,0.4l-0.4-0.1v-0.4L215.1,405.5z M215.1,405.1h0.3l0.3,0.4l-0.4-0.1
		L215.1,405.1z M215.5,404.3l-0.1-0.1l0.1-0.1l0.4,0.1L215.5,404.3z M215.5,403.8L215.5,403.8v-0.4l0.4,0.1L215.5,403.8z
		 M216.3,403.5l0.9,0.1l-0.9,0.4l-0.4-0.1L216.3,403.5z M216.1,403.4l-0.5-0.1l0.4-0.4l0.9-0.1L216.1,403.4z M215.9,402.7l-0.5,0.1
		l0.1-0.4l0.9-0.4L215.9,402.7z M215,402.4l0.1-0.5l0.8-0.5l-0.4,0.9L215,402.4z M215,401.7l-0.4,0.4l-0.1-0.5l0.6-0.6L215,401.7z
		 M214.6,402.2l0.4-0.3l-0.1,0.4l-0.3,0.1L214.6,402.2L214.6,402.2z M214.7,405.9l0.1,0.4l-0.4-0.3v-0.3L214.7,405.9z M214.6,405.5
		L214.6,405.5l0.1-0.1L214.6,405.5z M214.8,406.5l0.1,0.9l-0.6-0.8l0.1-0.5L214.8,406.5z M214.8,405.9l0.4,0.1l0.4,0.9l-0.6-0.5
		L214.8,405.9z M215.5,406.1l-0.1-0.5l0.5,0.1l0.5,0.8L215.5,406.1z M216.5,406.8l1.8,2.6l-2.3-2.1l-0.4-1L216.5,406.8z M216,405.6
		l1,0.1l2.6,2.1l-3-1.4L216,405.6z M217.3,405.6l-0.9-0.6l1.2-0.1l2.9,1.3L217.3,405.6z M217.4,404.7l-0.3-0.1l-1,0.1l-0.4-0.4
		l0.5-0.1l0.9,0.4l-0.8-0.4l1-0.4l3.2,0.5L217.4,404.7z M217.8,403.7l3.4-1.3l12.1-1.2c0.1,0.6,0.1,1.2,0.1,1.8l-12.1,1.2
		L217.8,403.7z M217.4,403.5l-1-0.1l0.9-0.6l3.2-0.4L217.4,403.5z M216.1,402.7l0.6-0.9l3.1-1.2l-2.6,1.8L216.1,402.7z M216.6,401.7
		l-1,0.4l0.4-0.9l2.6-1.9L216.6,401.7z M215.1,401.6l0.1-1.2l2.1-2.5l-1.3,3L215.1,401.6z M215.1,400.4l-0.6,0.9l-0.1-1.2l1.4-3
		L215.1,400.4z M214.3,402.1l-0.3,0.3l-0.1-0.3l0.3-0.4L214.3,402.1z M213.8,401.8l-0.1-0.5l0.4-0.9l0.1,1L213.8,401.8z
		 M213.9,402.4L213.9,402.4L213.9,402.4L213.9,402.4z M213.7,402.1l-0.1-0.3l0.1-0.4l0.1,0.5L213.7,402.1z M213.7,401.1l-0.4-1
		l0.5-3.2l0.3,3.4L213.7,401.1z M213.5,401.6l-0.1,0.4l-0.4-0.4l0.1-0.9L213.5,401.6z M213,402.2l0.1-0.4l0.3,0.4l-0.3,0.1v0.1H213
		l0.1-0.1L213,402.2z M212.9,401.3l-0.6-0.9l-0.4-3.2l1.2,3.1L212.9,401.3z M211.8,404.2v0.1l-0.1-0.1H211.8z M211.4,404.2l-0.4-0.1
		l0.4-0.1l0.3,0.1L211.4,404.2z M211.8,403.7L211.8,403.7L211.8,403.7L211.8,403.7z M212,404.6L212,404.6L212,404.6L212,404.6z
		 M211.7,403.1l-0.3-0.4l0.4,0.1l0.1,0.3L211.7,403.1L211.7,403.1z M211.7,405h0.3l-0.1,0.3l-0.4,0.1L211.7,405z M212,405.3h0.3
		l-0.1,0.3l-0.4,0.1L212,405.3z M212.1,402.6l-0.1-0.4l0.4,0.3v0.3L212.1,402.6z M212,402.1l-0.4-0.9l0.6,0.5l0.1,0.5L212,402.1z
		 M211.7,402.2l0.1,0.4l-0.5-0.1l-0.5-0.6L211.7,402.2z M211.4,403.1l-0.5,0.1l-0.6-0.6l0.9,0.1L211.4,403.1z M211.1,403.5l0.4-0.1
		l0.3,0.3l-0.3,0.1L211.1,403.5l0.3,0.3l-0.5,0.1l-0.9-0.4L211.1,403.5L211.1,403.5z M210.9,404.2l0.5,0.1l-0.3,0.3l0.4-0.3l0.1,0.3
		l-0.1,0.1l-0.4-0.1l-0.1,0.1l-0.9-0.1L210.9,404.2z M211.4,404.8l-0.4,0.4l-0.9,0.1l0.8-0.6L211.4,404.8z M211.2,405.5l0.5-0.1
		l-0.1,0.4l-0.9,0.4L211.2,405.5z M211.7,406l0.5-0.1l-0.1,0.5l-0.8,0.5L211.7,406z M212.2,406.4l0.4-0.4l0.1,0.5l-0.6,0.6
		L212.2,406.4z M212.6,405.9l-0.4,0.3l0.1-0.4l0.3-0.1L212.6,405.9L212.6,405.9z M212.5,402.4l-0.1-0.4l0.4,0.3v0.3L212.5,402.4z
		 M212.4,401.7l-0.1-0.9l0.6,0.8l-0.1,0.5L212.4,401.7z M212.2,401.6l-0.9-0.6l-1.2-3.1l1.9,2.6L212.2,401.6z M211.6,402l-0.9-0.4
		l-1.9-2.6l2.5,1.9L211.6,402z M211.2,402.5l-1.2-0.1l-2.5-2.1l3,1.3L211.2,402.5z M210.8,403.3l-1.2,0.1l-3-1.4l3.2,0.5
		L210.8,403.3z M210.7,404l-0.9,0.4l-3.2-0.5l3.1-0.4L210.7,404z M210.7,404.7l-0.9,0.6l-3.2,0.4l3.1-1.2L210.7,404.7z M209.8,405.6
		l1.2-0.1l-0.6,0.9l-3.1,1.2L209.8,405.6z M210.4,406.5l1-0.4l-0.4,0.9l-2.6,1.8L210.4,406.5z M211.2,407.3l0.8-0.6l-0.1,1.2
		l-2.1,2.5L211.2,407.3z M212.1,407.8l0.6-0.9l0.1,1.2l-1.3,3L212.1,407.8z M212.7,406.1l0.3-0.3l0.1,0.3l-0.3,0.4L212.7,406.1z
		 M213.3,406.3l0.1,0.5l-0.4,0.9l-0.1-1L213.3,406.3z M213.1,405.9v-0.1h0.1L213.1,405.9z M213.1,404.8l-0.1-0.1l-0.1-0.1l-0.1-0.1
		l-0.1-0.3V404l0.1-0.3l0.1-0.3l0.1-0.1l0.1-0.1l0.3-0.1h0.3h0.1l0.4,0.1l0.1,0.1l0.1,0.1l0.1,0.3v0.3l-0.1,0.3l-0.1,0.3l-0.1,0.1
		l-0.1,0.1l-0.3,0.1h-0.3L213.1,404.8z M214.2,405.7l-0.1,0.1L214.2,405.7L214.2,405.7z M214,406l-0.1,0.4l-0.3-0.4l0.3-0.1L214,406
		z M213.5,406l0.1,0.3l-0.1,0.4V406L213.5,406z M213.8,406.4l0.4,0.4l-0.1,0.9l-0.4-0.9L213.8,406.4z M214.2,406.9l0.6,0.9l0.4,3.2
		l-1.2-3.1L214.2,406.9z M221.3,413l-1.9-2.7l3.5,2.9L221.3,413z M233.4,406.3c-0.1,0.6-0.1,1.3-0.4,1.8l-12-1.8l-3.2-1.6l3.6-0.4
		l0.6,0.1l11.3-1.2c0.1,0.3,0.1,0.6,0.1,0.9C233.5,404.8,233.4,405.6,233.4,406.3z M233.4,401.1l-11.4,1.2l10.8-4
		C233.1,399.1,233.3,400.1,233.4,401.1z M232.5,398.1l-11.3,4.2l-3.6,0.4l2.9-2.1l11.4-4.3C232.1,396.8,232.4,397.4,232.5,398.1z
		 M230.5,393.1l-0.3,0.1c0.5,0.8,0.9,1.8,1.4,2.6l-10.7,4.2l6.1-4.5l-6.6,4.8l-3.4,1.3l2.3-2.9l9.9-7.1
		C229.8,392.1,230,392.5,230.5,393.1z M229.1,391.6l-9.2,6.8l7.3-8.8C227.8,390.1,228.6,390.7,229.1,391.6z M219.2,398.7l-3,2.1
		l1.6-3.2l7.7-9.5c0.5,0.4,0.9,0.6,1.4,1.2L219.2,398.7z M225.5,387.9l-7.4,9l4.8-10.5C223.8,386.8,224.7,387.3,225.5,387.9z
		 M222.6,386.1l-4.9,11.2l-2.3,2.9l0.5-3.5l5.1-11.2C221.4,385.7,222.1,386,222.6,386.1z M220.7,385.3l-4.7,10.5l1.8-11.4
		C218.7,384.7,219.8,384.9,220.7,385.3z M217.7,384.5l-1.8,12l-1.6,3.2l-0.4-3.6l1.9-12C216.5,384.3,217.2,384.3,217.7,384.5z
		 M213.7,384.2c0.6-0.1,1.3-0.1,2.1,0l-1.8,11.4l-1.2-11.4H213.7z M212.5,384.2l1.2,12.1l-0.5,3.5l-1.3-3.4l-1.2-12.1
		C211.3,384.2,212,384.2,212.5,384.2z M210.4,384.4l1.2,11.4l-4-10.8C208.5,384.7,209.5,384.5,210.4,384.4z M207.5,385.1l4.2,11.3
		l0.4,3.6l-2.1-2.9l-4.3-11.4C206.2,385.5,206.9,385.2,207.5,385.1z M205.3,385.7l4.2,10.8l-6.8-9.4
		C203.5,386.6,204.6,386.2,205.3,385.7z M202.6,387.3l7.1,10l1.3,3.4l-2.9-2.3l-7.1-9.9C201.6,388.1,202,387.8,202.6,387.3z
		 M201,388.6l6.8,9.4l-9-7.3C199.5,389.9,200.3,389.2,201,388.6z M198.7,390.7l9.5,7.8l2.1,2.9l-3.2-1.6l-9.5-7.8
		C197.9,391.7,198.2,391.2,198.7,390.7z M197.3,392.2l9,7.3l-10.5-4.7C196.1,393.9,196.6,393,197.3,392.2z M195.5,394.9l11.3,5.1
		l2.7,2.2l-3.6-0.5l-11-5.1C195.1,396.1,195.3,395.5,195.5,394.9z M194.9,396.9l10.4,4.7l-11.3-1.8
		C194.3,398.8,194.5,397.8,194.9,396.9z M205.1,403.8l-11.4,1.2c-0.1-0.3-0.1-0.5-0.1-0.8c0-0.6,0.1-1.4,0.1-2.2l11,1.8l-10.9-2.1
		c0.1-0.6,0.1-1.2,0.4-1.8L206,402l3.2,1.6l-3.5,0.4l3.5,0.5l-3.4,1.3l-12.1,1.2c-0.1-0.6-0.1-1.3-0.1-1.8l12.1-1.2L205.1,403.8z
		 M193.8,407.3l11.4-1.2l-10.8,4C194,409.2,193.9,408.2,193.8,407.3z M206,406l3.6-0.4l-2.9,2.1l-11.4,4.3c-0.3-0.5-0.4-1.2-0.6-1.8
		L206,406z M196.6,415c-0.5-0.9-0.9-1.8-1.4-2.6l10.8-4.2L196.6,415l10-7l3.4-1.3l-2.3,2.9l-9.9,7C197.4,416,197.1,415.6,196.6,415z
		 M197.9,416.6l9.4-6.8l-7.3,9C199.4,418.2,198.6,417.4,197.9,416.6z M201.6,420.3c-0.5-0.4-0.9-0.6-1.4-1.2l7.8-9.5l3-2.2l-1.6,3.4
		L201.6,420.3l7.4-9l-4.8,10.5C203.3,421.5,202.3,420.9,201.6,420.3z M204.6,422l4.9-11.2l2.3-2.9l-0.5,3.5l-5.1,11.2
		C205.7,422.4,205.1,422.1,204.6,422z M206.5,422.8l4.7-10.5l-1.8,11.4C208.5,423.5,207.4,423.1,206.5,422.8z M213.5,424.1
		c-0.6,0.1-1.3,0.1-2.1,0l1.7-10.3l-1.8,10.1c-0.6-0.1-1.3-0.1-1.8-0.4l1.9-12l1.6-3.2l0.1,0.6l-0.1-0.9l0.4-0.9l0.4,1l-0.5,3
		l0.1,0.8l-0.1,0.6l1.2,11.4L213.5,424.1L213.5,424.1z M214.6,424.1l-1.2-12.2l0.5-3.5l1.3,3.4l1.2,12.2
		C215.7,424.1,215.1,424.1,214.6,424.1z M219.6,423.1c-0.9,0.4-1.9,0.5-2.9,0.6l-1.2-11.4L219.6,423.1l-4.2-11.3l-0.4-3.6l2.1,2.9
		l0.9,2.3c-0.1,0.1-0.1,0.3-0.1,0.5c0,0.8-0.1,1.6-0.1,1.8l0,0l0,0l0,0v0.1l0.5-0.4l0.4-0.1l0.3,0.8l0,0v0.1h0.1l0,0l2.3,6.2
		C220.9,422.8,220.3,423,219.6,423.1z M221.7,422.4l-2.3-6.2l0.6-0.3l0.3,0.8l0,0l0,0l0.1,0.1l0.6-0.3l0.5,0.6l0,0l0,0l2.7,3.8
		C223.5,421.5,222.5,421.8,221.7,422.4z M224.4,421.1l-2.7-3.8l0.9-0.4l0.3,0.5h-0.1v0.1h0.1l0.1,0.3l0.9-0.4l0.1,0.3l-0.1,0.1
		l0.1,0.3l0.1-0.1l0.1,0.4l0.4-0.1l1.3,1.7C225.5,420.3,225.1,420.5,224.4,421.1z M226.1,419.6l-0.9-1.2h0.1l0.3,0.5l0.9-0.4
		l0.1,0.1l-0.3,0.1v0.1l0.3-0.1l0.1,0.4C226.5,419.2,226.4,419.5,226.1,419.6z M245.4,417.2c0.1,0,0.4,0.1,0.6,0
		C245.8,417.3,245.5,417.3,245.4,417.2z M246.4,418.9c-0.4,0.1-0.6,0.1-0.9,0l-0.1,0.1c-0.4,0.3-0.1,0.5,0,0.6c-0.1,0-0.3,0-0.5,0
		c-0.1,0.3-0.3,0.6-0.4,0.6c-0.3,0.1-0.1,0.5-0.4,0.8c-0.1,0.3-0.1,0.4-0.3,0.4c0.6,0,1.2,0.1,1.4,0.4c-0.3-0.1-0.6-0.1-1-0.3
		c0,0.1-0.5,0.6-1.2,0.4c-0.3-0.1-0.4-0.4-0.6-0.6l0.9-1.7h0.1V419l-0.5,0.4h-0.1l-0.8,1.4c-0.1-0.4-0.4-0.8-0.5-1.3
		c-0.4-1.6,0.1-2.6,0.3-3.1c0.1-0.3,0.3-0.5,0.5-0.8c0,0,0-0.1,0.1-0.1c0.3-0.1,0.5-0.4,0.8-0.4c0.6-0.3,1.7,0.3,1.9,0.8
		c0.4,0.5,0.4,1.2,0.1,1.3l0,0l-0.1,0.1c-0.3,0.1-0.1,0.5,0,0.5v0.1c0,0,0,0,0.1,0c0.1,0.3,0.1,0.5-0.3,0.8c0.4,0.1,0.6,0.1,0.9,0
		c0.5,0,0.6,0,0.6,0.1C246.7,418.9,246.5,418.9,246.4,418.9z"/>
	<path class="st0" d="M272.9,377.3c-0.1-0.1-0.1-0.4-0.1-0.5c-0.1-0.1,0-0.3,0-0.4l-0.3,0.4L272.9,377.3z"/>
	<line class="st1" x1="272.8" y1="376.4" x2="272.9" y2="376.2"/>
	<path class="st0" d="M273.4,375.3l-0.4,0.5c0.3-0.3,0.6-0.4,1-0.5H273.4z"/>
	<path class="st0" d="M273,377.7l-0.1-0.4C272.9,377.4,272.9,377.7,273,377.7z"/>
	<path class="st0" d="M272.9,376.2l0.1-0.4C272.9,376,272.9,376.1,272.9,376.2z"/>
	<path class="st0" d="M275.5,377.4l-0.1,0.4C275.5,377.7,275.5,377.4,275.5,377.4z"/>
	<path class="st0" d="M273,376.2c-0.1,0.1-0.1,0.4-0.1,0.5c0,0.1,0.1,0.4,0.1,0.5l0.1,0.4c0,0.1,0.1,0.1,0.3,0.3
		c-0.1-0.1-0.3-0.1-0.4-0.3l0.4,0.5h0.6h0.4c0.1,0,0.3,0,0.3,0h0.4l0.3-0.5l0.1-0.4c0.1-0.1,0.1-0.3,0.1-0.5l0,0
		c0,0.1,0,0.4-0.1,0.5l0.4-0.5l-0.4-0.4c0-0.1,0-0.1,0-0.1l0,0c0-0.1,0-0.1,0-0.1V376c-0.1-0.1-0.3-0.3-0.4-0.4l0,0l0,0
		c-0.1-0.1-0.4-0.1-0.5-0.1h-0.3h-0.1h-0.1c-0.4,0.1-0.6,0.3-0.9,0.5L273,376.2z M274.2,376.2c0.4,0,0.5,0.3,0.6,0.5
		c-0.1,0.3-0.3,0.5-0.6,0.5c-0.3,0-0.5-0.3-0.6-0.5C273.7,376.5,274,376.2,274.2,376.2z M273.6,376.9c0,0.4,0.3,0.5,0.6,0.5
		s0.6-0.3,0.6-0.5l0,0c0,0.3-0.3,0.6-0.6,0.6S273.6,377.1,273.6,376.9L273.6,376.9z"/>
	<path class="st0" d="M276.3,376.4c-0.1-0.1-0.1-0.4-0.1-0.5s0-0.3,0.1-0.5l-0.4,0.5L276.3,376.4z"/>
	<path class="st0" d="M276.7,374.4l-0.4,0.5c0.4-0.3,0.8-0.4,1-0.5H276.7z"/>
	<path class="st0" d="M277.7,374.5h-0.3c-0.4,0.1-0.6,0.3-0.9,0.5l-0.1,0.4c-0.1,0.1-0.1,0.4-0.1,0.5c0,0.1,0.1,0.4,0.1,0.5l0.1,0.4
		c0,0.1,0.1,0.1,0.3,0.3c-0.1-0.1-0.3-0.1-0.4-0.3l0.4,0.5h0.6h0.1h0.3c0.3,0,0.6-0.3,0.9-0.5l0.1-0.4c0.1-0.1,0.1-0.3,0.1-0.4l0,0
		c0,0.1,0,0.3-0.1,0.5l0.4-0.5l-0.4-0.4c0-0.1,0-0.1,0-0.3c0-0.3,0-0.3-0.1-0.4l-0.4-0.5H277.7L277.7,374.5z M276.9,375.8
		c0-0.4,0.4-0.5,0.6-0.5c0.4,0,0.6,0.4,0.6,0.5c0,0.3-0.3,0.6-0.6,0.6C277.3,376.5,276.9,376.1,276.9,375.8z M277.6,376.6
		c0.3,0,0.6-0.3,0.6-0.6C278.4,376.4,278,376.6,277.6,376.6z"/>
	<path class="st0" d="M277.9,377.4h0.6l0.3-0.5C278.5,377.3,278.1,377.4,277.9,377.4z"/>
	<path class="st0" d="M276.4,376.9l-0.1-0.4C276.3,376.6,276.3,376.7,276.4,376.9z"/>
	<path class="st0" d="M276.4,374.9c-0.1,0.3-0.1,0.3-0.1,0.4L276.4,374.9z"/>
	<path class="st0" d="M278.9,376.6l-0.1,0.4C278.9,376.7,278.9,376.6,278.9,376.6z"/>
	<path class="st0" d="M278.8,372.9l-0.4,0.5l0.4,0.5c-0.1-0.1-0.1-0.4-0.1-0.5C278.6,373.2,278.6,373,278.8,372.9z"/>
	<path class="st0" d="M278.8,372.5c0.4-0.3,0.6-0.4,1-0.5h-0.6L278.8,372.5z"/>
	<path class="st0" d="M279.9,374.8h-0.4C279.7,374.8,279.8,374.8,279.9,374.8z"/>
	<path class="st0" d="M278.9,374.3l0.4,0.5h0.3C279.3,374.7,279,374.5,278.9,374.3z"/>
	<path class="st0" d="M278.9,374.3l-0.1-0.4C278.8,374.2,278.8,374.3,278.9,374.3z"/>
	<path class="st0" d="M278.8,372.9l0.1-0.4C278.8,372.7,278.8,372.7,278.8,372.9z"/>
	<path class="st0" d="M281.4,372.9l-0.1-0.4c-0.1-0.1-0.3-0.3-0.4-0.4l0,0l0,0c-0.1-0.1-0.4-0.1-0.5-0.1h-0.4
		c-0.4,0.1-0.6,0.3-0.9,0.5l-0.1,0.4c-0.1,0.1-0.1,0.4-0.1,0.5s0.1,0.4,0.1,0.5l0.1,0.4c0.3,0.4,0.6,0.5,0.9,0.5h0.4
		c0.1,0,0.3,0,0.4,0h0.3l0.3-0.5l0.1-0.4c0.1-0.1,0.1-0.3,0.1-0.4v0.1c0,0,0,0.3-0.1,0.5l0.4-0.5l-0.3-0.4
		C281.4,373.1,281.4,373,281.4,372.9z M280.1,372.9c0.4,0,0.6,0.4,0.6,0.6c0,0.3-0.3,0.6-0.6,0.6c-0.3,0-0.6-0.3-0.6-0.6
		S279.8,372.9,280.1,372.9z"/>
	<path class="st0" d="M278.5,370.5c-0.1-0.1-0.1-0.4-0.1-0.5c0.1-0.3,0.1-0.4,0.1-0.5l-0.4,0.5L278.5,370.5z"/>
	<path class="st0" d="M278.6,369.1c0.3-0.3,0.6-0.5,1-0.5H279L278.6,369.1z"/>
	<path class="st0" d="M281.4,370.1c0,0.1-0.1,0.4-0.1,0.5l0.4-0.5l-0.4-0.5C281.4,369.7,281.4,370,281.4,370.1z"/>
	<line class="st1" x1="278.8" y1="370.9" x2="279" y2="371.2"/>
	<path class="st0" d="M278.6,369.1l-0.1,0.4C278.5,369.5,278.6,369.2,278.6,369.1z"/>
	<path class="st0" d="M281.2,370.8C281.2,370.8,281.2,370.6,281.2,370.8"/>
	<path class="st0" d="M281.2,370.8c0,0-0.1,0.1-0.1,0.3L281.2,370.8z"/>
	<path class="st0" d="M278.6,369.5c-0.1,0.1-0.1,0.4-0.1,0.5c0,0.1,0.1,0.4,0.1,0.5c-0.1,0.3,0,0.3,0.1,0.4c0.3,0.3,0.5,0.4,0.8,0.5
		c-0.3,0-0.4-0.1-0.5-0.1l0.1,0.3h0.5h0.1h0.3h0.6l0.3-0.5l0.1-0.4c0.1-0.1,0.1-0.4,0.1-0.5s-0.1-0.3-0.1-0.4s0-0.3-0.1-0.3v-0.1
		c-0.1-0.1-0.3-0.3-0.4-0.4l0,0l0,0c-0.1-0.1-0.4-0.1-0.5-0.1h-0.3h-0.1c-0.4,0.1-0.6,0.3-0.9,0.5L278.6,369.5z M280.1,369.3
		c0,0,0.1,0,0.1,0.1l0,0c0,0,0,0.1,0.1,0.1c0,0,0,0,0,0.1c0,0.1,0,0.1,0,0.3c0-0.1,0-0.1,0-0.3c0,0,0,0,0-0.1c0,0,0-0.1-0.1-0.1l0,0
		C280.2,369.5,280.2,369.5,280.1,369.3c-0.1,0-0.1,0-0.3,0C279.9,369.3,280.1,369.3,280.1,369.3z M279.2,370.1
		c0,0.4,0.3,0.5,0.6,0.5C279.5,370.6,279.3,370.3,279.2,370.1c0-0.3,0.4-0.6,0.6-0.6c0.4,0,0.6,0.4,0.6,0.5c0,0.3-0.3,0.6-0.6,0.6
		c0.4,0,0.6-0.3,0.6-0.5l0,0c0,0.3-0.1,0.6-0.6,0.6C279.4,370.8,279.2,370.4,279.2,370.1L279.2,370.1z"/>
	<path class="st0" d="M280.2,369.5l-0.1-0.1"/>
	<path class="st0" d="M280.1,369.3c-0.1,0-0.1,0-0.3,0"/>
	<path class="st0" d="M280.3,369.7C280.3,369.7,280.5,369.7,280.3,369.7"/>
	<path class="st0" d="M280.3,369.6C280.3,369.5,280.2,369.5,280.3,369.6"/>
	<path class="st0" d="M280.5,369.7c0,0.1,0,0.1,0,0.3"/>
	<path class="st0" d="M280.3,369.6c0,0,0,0.1,0.1,0.1"/>
	<path class="st0" d="M275.8,367.4l0.4,0.5c-0.1-0.1-0.1-0.4-0.1-0.5c-0.1-0.1,0-0.3,0-0.4L275.8,367.4z"/>
	<path class="st0" d="M276.2,366.9L276,367"/>
	<path class="st0" d="M276.7,366l-0.4,0.5c0.3-0.3,0.5-0.4,1-0.5H276.7z"/>
	<path class="st0" d="M277.3,368.8c-0.5,0-0.8-0.1-1-0.5l0.4,0.5H277.3z"/>
	<path class="st0" d="M276.2,367.9c0,0.3,0.1,0.4,0.1,0.4L276.2,367.9z"/>
	<path class="st0" d="M276.2,366.9c0,0,0.1-0.3,0.1-0.4L276.2,366.9z"/>
	<path class="st0" d="M276.6,366.5l-0.1,0.4c-0.1,0.1-0.1,0.4-0.1,0.5c0,0.1,0.1,0.4,0.1,0.5l0.1,0.4c0.3,0.4,0.6,0.5,0.9,0.5h0.4
		h0.6l0.3-0.5l0.1-0.4v-0.1l0.3-0.3l-0.1-0.1c0-0.1-0.1-0.4-0.1-0.5l-0.1-0.4c-0.1-0.1-0.3-0.3-0.4-0.4l0,0l0,0
		c-0.1-0.1-0.4-0.1-0.5-0.1h-0.3h-0.1C277.1,366.1,276.8,366.2,276.6,366.5z M277.5,368.2c-0.4,0-0.6-0.4-0.6-0.6l0,0
		c0,0.4,0.3,0.5,0.6,0.5c-0.3,0-0.6-0.3-0.6-0.6s0.4-0.5,0.6-0.5c0.4,0,0.6,0.4,0.6,0.5c0,0.3-0.3,0.6-0.6,0.6
		c0.4,0,0.6-0.3,0.6-0.5l0,0C278.1,367.8,277.9,368.2,277.5,368.2z"/>
	<path class="st0" d="M272.9,366.9c-0.1-0.1-0.1-0.4-0.1-0.5c0-0.1,0.1-0.3,0.1-0.5l-0.4,0.5L272.9,366.9z"/>
	<path class="st0" d="M274.2,365.1h-0.1h-0.5l-0.4,0.5C273.3,365.3,273.7,365.1,274.2,365.1z"/>
	<path class="st0" d="M274.6,367.9h0.6l0.3-0.5C275.3,367.8,274.9,367.9,274.6,367.9z"/>
	<path class="st0" d="M273.2,367.4L273,367C273,367.3,273,367.3,273.2,367.4z"/>
	<path class="st0" d="M273,365.4l-0.1,0.4C273,365.8,273,365.7,273,365.4z"/>
	<path class="st0" d="M273,366.5c0,0.1,0.1,0.4,0.1,0.5l0.1,0.4c0.1,0.3,0.5,0.4,0.6,0.5c-0.4,0-0.6-0.3-0.8-0.5l0.4,0.5h0.5h0.1
		h0.1h0.1h0.1c0.3,0,0.6-0.3,0.9-0.5v-0.1c0,0,0.1-0.1,0.1-0.3l0.4-0.5l-0.4-0.5c0.1,0.1,0.1,0.4,0.1,0.5c0-0.1-0.1-0.4-0.1-0.5
		s-0.1-0.3-0.1-0.4l-0.4-0.5h-0.6l0,0h-0.3c-0.4,0.1-0.6,0.3-0.9,0.5l-0.1,0.4C273,366.1,273,366.4,273,366.5z M274.3,366
		c0.3,0,0.5,0.3,0.6,0.5c-0.1,0.4-0.4,0.5-0.6,0.5c-0.4,0-0.5-0.3-0.6-0.5C273.8,366.2,274.1,366,274.3,366z M273.7,366.5
		c0,0.4,0.4,0.6,0.6,0.6c0.4,0,0.6-0.4,0.6-0.6c0,0,0,0,0,0.1c0.1,0.3-0.3,0.6-0.6,0.6S273.7,366.9,273.7,366.5
		C273.7,366.6,273.7,366.6,273.7,366.5z"/>
	<path class="st0" d="M269.4,366.9c-0.1-0.1-0.1-0.4-0.1-0.5c0-0.1,0-0.3,0.1-0.5l-0.4,0.5L269.4,366.9z"/>
	<path class="st0" d="M272.1,366c0.1,0.1,0.1,0.4,0.1,0.5c-0.1,0.1-0.1,0.4-0.1,0.5l0.4-0.5L272.1,366z"/>
	<path class="st0" d="M271,367.9h0.6l0.3-0.5C271.6,367.8,271.2,367.9,271,367.9z"/>
	<path class="st0" d="M269.5,367.4l-0.1-0.4C269.4,367.3,269.4,367.3,269.5,367.4z"/>
	<path class="st0" d="M269.5,365.4c0.3-0.3,0.6-0.4,0.9-0.4h-0.6L269.5,365.4C269.4,365.6,269.5,365.6,269.5,365.4
		c-0.1,0.3-0.1,0.4-0.1,0.4L269.5,365.4z"/>
	<path class="st0" d="M272.1,367c-0.1,0.3-0.3,0.3-0.1,0.4L272.1,367z"/>
	<path class="st0" d="M270.7,367.9L270.7,367.9h0.3c0.3,0,0.6-0.3,0.9-0.5l0.1-0.4c0.1-0.1,0.1-0.4,0.1-0.5c0-0.1-0.1-0.4-0.1-0.5
		c0-0.1-0.1-0.3-0.1-0.4l-0.4-0.5h-0.6l0,0h-0.3c-0.4,0.1-0.6,0.3-0.9,0.5l-0.1,0.4c-0.1,0.1-0.1,0.4-0.1,0.5c0,0.1,0.1,0.4,0.1,0.5
		l0.1,0.4c0.1,0.3,0.4,0.4,0.6,0.5c-0.4-0.1-0.6-0.3-0.8-0.5l0.4,0.5h0.5h0.1l0,0C270.6,367.9,270.6,367.9,270.7,367.9L270.7,367.9z
		 M270.7,366c0.3,0,0.5,0.3,0.6,0.5c-0.1,0.4-0.4,0.5-0.6,0.5c-0.4,0-0.5-0.3-0.6-0.5C270.2,366.2,270.4,366,270.7,366z
		 M270.1,366.6L270.1,366.6c0,0.3,0.4,0.5,0.6,0.5c0.4,0,0.6-0.4,0.6-0.6c0,0,0,0,0,0.1c0.1,0.3-0.3,0.6-0.6,0.6
		C270.3,367.3,270.1,366.9,270.1,366.6z"/>
	<path class="st0" d="M266,367.5c-0.1-0.1-0.1-0.4-0.1-0.5s0-0.4,0.1-0.5l-0.4,0.5L266,367.5z"/>
	<path class="st0" d="M266.2,366.1c0.1-0.3,0.6-0.5,1-0.5h-0.6L266.2,366.1z"/>
	<path class="st0" d="M267.2,368.4h-0.4C266.9,368.4,267.1,368.4,267.2,368.4z"/>
	<path class="st0" d="M266.5,368.4h0.3c-0.1,0-0.3-0.1-0.4-0.3L266.5,368.4z"/>
	<path class="st0" d="M266.4,368.2l-0.3-0.3C266.2,368,266.3,368.2,266.4,368.2z"/>
	<path class="st0" d="M266.2,367.9l-0.1-0.4C266,367.8,266,367.9,266.2,367.9z"/>
	<path class="st0" d="M268.5,366.1l0.1,0.4C268.6,366.4,268.5,366.2,268.5,366.1z"/>
	<path class="st0" d="M266.2,366.1c-0.1,0.1-0.1,0.3-0.1,0.4L266.2,366.1z"/>
	<path class="st0" d="M268.6,367.7l-0.1,0.4C268.5,367.9,268.6,367.8,268.6,367.7z"/>
	<path class="st0" d="M268,368.4h0.3l0.3-0.5l0.1-0.4c0.1-0.1,0.1-0.3,0.1-0.5l0,0c0,0.1,0,0.4-0.1,0.5l0.4-0.5l-0.4-0.4
		c0-0.1,0-0.1,0-0.1l-0.1-0.4l0,0l0,0l-0.4-0.5h-0.5h-0.1h-0.1h-0.1c-0.4,0.1-0.6,0.3-0.9,0.5l-0.1,0.4c-0.1,0.1-0.1,0.4-0.1,0.5
		s0.1,0.4,0.1,0.5l0.1,0.4c0.3,0.4,0.6,0.5,0.9,0.5h0.4C267.7,368.4,267.8,368.4,268,368.4z M266.7,367.1L266.7,367.1
		c0,0.3,0.3,0.5,0.6,0.5C267.1,367.7,266.8,367.4,266.7,367.1c0-0.3,0.4-0.6,0.6-0.6c0.4,0,0.6,0.4,0.6,0.6c0,0.3-0.3,0.6-0.6,0.6
		c0.4,0,0.6-0.3,0.6-0.5l0,0c0,0.3-0.3,0.6-0.6,0.6S266.7,367.4,266.7,367.1z"/>
	<path class="st0" d="M254.1,397.4c0.4-0.4,10.7-14.4,11-14.7c0.1-0.1,1-0.6,2.1-1c1.6-0.6,3.5-1.3,3.6-1.6c0-0.1,0.1-0.3,0.3-0.4
		l0.1,0.1c0.1,0.1,0.4-0.1,0.5-0.3s0-0.3-0.1-0.5c0.5-0.6,0.9-1.6,0.5-2.7c-0.6-2.1-1.3-2.2-1.3-2.2l-0.5,2.5l-1.8,0.6l-0.3-0.1
		c-0.1-0.3-0.3-0.6-0.4-0.9c0.1,0,0.8-2.6,0.8-2.6s-0.9,0.1-1.4,0.5c-0.6,0.4-1.6,1.6-1.9,2.1l-1.6-0.5L263,381
		c0,0-11.2,13.5-11.7,13.9l0,0c0.5-0.6,1.4-0.8,2.2-0.3l0.1,0.1c-0.6-0.5-1.8-0.4-2.3,0.4c-0.4,0.5-0.4,1.2-0.1,1.8
		c-0.4-0.5-0.4-1.2-0.1-1.7c-0.1,0.1-0.1,0.3-0.1,0.4c-0.1,0.5-0.1,1.4,0.6,2.1C252.8,398.5,253.7,397.8,254.1,397.4z M253.4,395.2
		c0.5,0.4,0.5,1,0.1,1.6c-0.4,0.5-1,0.5-1.6,0.1c-0.5-0.4-0.5-1-0.1-1.6S252.9,394.8,253.4,395.2z M253.8,396.9
		c-0.3,0.4-0.5,0.5-0.9,0.5C253.3,397.4,253.5,397.2,253.8,396.9z M253.7,393l9.2-11c0.1-0.3,0.6-0.4,0.9-0.1
		c0.4,0.3,0.5,0.6,0.3,0.9l-8.7,11.6c-0.1,0.3-0.9,0.1-1.2-0.1C253.8,393.9,253.5,393.3,253.7,393z M251.6,397.4
		C251.6,397.4,251.6,397.3,251.6,397.4C251.6,397.3,251.6,397.4,251.6,397.4L251.6,397.4z"/>
	<path class="st0" d="M251.2,395.1c0,0,0,0.1-0.1,0.1C251.2,395.2,251.3,395.1,251.2,395.1C251.3,394.9,251.2,395.1,251.2,395.1z"/>
	<path class="st0" d="M270.2,374.7L270.2,374.7L270.2,374.7v-0.1v-0.1h-0.1v-0.1l0.1-0.1V374l-0.3,0.1l0,0h0.1l-0.1-0.1l0,0v-0.1
		l0,0v-0.1h-0.1v-0.1h0.1v-0.1l-0.1,0.1l0,0h0.1l-0.1-0.1l0,0v-0.1l0,0v-0.3h-0.1V373l-0.1-0.3h0.1h-0.1v-0.1h0.1l-0.1-0.1v-0.3
		l-0.1,0.1l0,0h0.1l-0.1-0.1h-0.1v-0.1h0.1h-0.3l0,0l-0.1-0.3l0.1-0.1H269l0,0v-0.1h0.1v-0.1H269v-0.1l0.1-0.1L269,371h-0.1v-0.1
		v-0.1h0.1v-0.1h-0.1v-0.1l0.1-0.1l-0.1-0.1h-0.1l0,0h0.1v-0.1h-0.1V370l0,0v-0.1h-0.1v-0.1v-0.1h0.3l-0.1-0.1h-0.1v-0.1l0,0l0,0
		c0.4-0.1,0.6-0.4,0.6-0.4c-0.1-0.3-0.5-0.3-1-0.1l0.1,0.1l-0.1,0.1c0,0-0.1,0-0.1-0.1l-0.1-0.1c-0.5,0.1-0.8,0.5-0.6,0.8
		c0,0.1,0.3,0,0.5,0l0.1,0.1l0,0l0,0l0,0v0.1h0.1v0.1l0.1,0.3h-0.1h0.1v0.1l0,0v0.1h0.1v0.1v0.1l0,0l0,0l0,0v0.1h0.1v0.1l0.1,0.3
		l0,0v0.1l0,0l0,0l0,0v0.1h0.1v0.1l0,0v0.1l0,0l0.1,0.3l0,0v0.1h0.1v0.1l0,0v0.1l0.1,0.1v0.1l0,0v0.1h0.1l0.1,0.1v0.1l0,0l0.1,0.1
		v0.1l0,0v0.1h0.1v0.1h-0.1h0.1l0.1,0.3h-0.1h0.1v0.1l0,0l0,0l0.1,0.1v0.1l0,0l0,0l0,0l0.1,0.1v0.1l0,0l0,0L270.2,374.7l0.6-0.3
		L270.2,374.7h0.1H270.2z"/>
	<path class="st0" d="M227,366.4c-0.1,0.1-0.3,0.1-0.3,0.1s-0.8,1.2-1.4,1.4c-0.5,0.3-1.2,0.1-1.6,0.1h-0.1l-0.1-0.3l0,0l-0.1-0.3
		c0,0-0.3-0.3-0.4-0.1l-1.7,0.5c0,0-0.3,0.3-0.1,0.4l1.2,3.8c0,0,0.3,0.3,0.4,0.1l1.7-0.5c0,0,0.3-0.3,0.1-0.4l0,0
		c0.5-0.4,1.2-0.8,1.8-1c0.8-0.4,2.2,0.3,2.9,0.8l0,0l-0.1,0.1l0.8,2.6h-0.1c-0.9,0-1.6,0.6-1.6,1.6v1.3c0,0.9,0.6,1.6,1.6,1.6h0.6
		l-0.1,0.1h0.1v0.1l0,0l-0.1,0.1l0,0l0,0l0,0l-0.1,0.3l0,0l0,0l0,0L230,379h0.1l0,0l0,0v0.1l0,0l-0.1,0.1l0,0l-0.1,0.1h0.1l0,0h-0.1
		v0.1l-0.1,0.1l0,0l-0.1,0.1h0.1v0.1l0,0l0,0l-0.1,0.1l0,0l0,0l0,0l0,0l-0.1,0.1l0,0v0.1h-0.1l0.1,0.1v0.1l0,0l-0.1,0.1l0,0v0.1l0,0
		l0,0l-0.1,0.3h-0.1h0.1v0.1l0,0l0,0l-0.1,0.1l0,0l-0.1,0.3l0,0l0,0l0,0v0.1l-0.1,0.1l0,0l0,0l-0.1,0.1l0,0l-0.1,0.1h0.1l0,0
		l-0.1-0.1v0.1l0,0l-0.1,0.1h-0.3l0.1,0.1l-0.1,0.1c-0.3-0.1-0.5-0.3-0.6-0.3c-0.1,0.3,0.1,0.5,0.5,0.9h0.1c-0.1-0.1-0.1-0.1,0-0.1
		c0.1,0,0.1,0,0,0.1c0.5,0.3,1,0.4,1.2,0.1c0,0-0.3-0.3-0.6-0.5v-0.1h0.1h0.1l-0.1-0.1l0.1-0.1l0,0l0,0l0.1-0.1h0.1l0.1-0.1
		l-0.1-0.1l0,0l0.1,0.1v-0.3l0,0l0,0l0.1,0.1v-0.1l0,0l0,0l0.1,0.1v-0.1l-0.1-0.1v-0.1l0.1,0.1v-0.3h-0.1l0,0l0,0l0.1-0.1h-0.1v-0.1
		l0,0h0.1l-0.1-0.1v-0.1h0.1l0.1-0.1l-0.1-0.1v-0.1l0,0v-0.1l0,0v-0.1l0.1,0.1l0.1-0.1l-0.1-0.1V380h0.1v-0.1l0,0v-0.1l0.1,0.1v-0.1
		l0,0l0.1-0.1h0.1v-0.1l0,0l0,0l0.1,0.1v-0.1l0,0l0,0l0.1,0.1l0.1-0.3l-0.1-0.1l0,0l0.1,0.1v-0.1h-0.1v-0.1l0,0h0.3l-0.3-0.1v-0.1
		l0.1,0.1v-0.1l-0.1-0.1v-0.1l0,0l0.1-0.1h-0.1l0,0h0.1l0.1-0.1l-0.1-0.1V378l0,0h0.1l-0.1-0.1v-0.1l0.1,0.1l0.1-0.1l-0.1-0.1l0,0
		h0.1l0.3,0.9l1.7,5.2l0.1,0.1l0.3,0.6l0.4,0.9l0.1,0.5l0.3,0.6c0,0,0.5,3.1,2.1,7.5c1.6,4.4,2.5,6.4,2.5,6.4
		c0.1,0.1,0.1,0.4,0.3,0.4c0.1,0.1,0.5,0.1,0.5,0.1l0,0l0,0c0,0.1,0,0.1,0,0.3l0.4-0.1l0,0c0.1,0,0.1,0,0.1,0c0-0.1,0-0.3,0-0.4
		l0.8-0.3l0.1-0.1c0,0.1,0,0.3,0,0.4l0.1-0.1c0-0.1,0-0.3,0-0.3s0.1,0,0.1-0.1v0.4c0,0,0.4-0.1,0.5-0.4c0.1-0.4,0-0.5,0-0.5l0,0
		c0,0-0.4-2.1-1.8-6.5c-0.9-2.5-1.6-4.4-2.1-5.7l-0.6-2.1c0,0.1,0.1,0.6,0.4,1.3c-0.3-0.5-0.4-0.9-0.4-0.9l-0.1-0.4l-2.1-6.5
		l-0.1-0.3l0.1,0.1l-0.4-1.2h4.7c0,0,0-0.3,1.6-0.3c0.6,0,1,0,1.2,0.1l0,0c0,0.3,0.1,0.4,0.4,0.4c0.3,0,0.4-0.1,0.4-0.4v-1.4h14.7
		l1.8,0.4l2.3-0.6v-0.9l-2.3-0.5l-1.8,0.4h-14.7v-1.4c0-0.3-0.1-0.4-0.4-0.4c-0.3,0-0.3,0.1-0.4,0.3l0,0c0,0,0,0.3-1.3,0.3
		c-1.3,0-1.4-0.3-1.4-0.3H233l-0.8-2.3l0,0l-0.4-0.8c0,0,0.1,0,0.3,0l-0.1-0.4h-0.1l0,0c0-0.1-0.1-0.1-0.1-0.1c0-0.1,0-0.3,0-0.4
		c0-0.5,0.5-1.2,0.9-1.3c0.8-0.4,1.7-0.3,2.9,0.1c1.6,0.4,3.1,1.6,3.2,1.6c0.1,0,0.1,0,0.1,0h0.1c0,0,0,0,0-0.1h0.1
		c0.4-0.3-0.4-1.2-1.8-2.1c-1.2-0.9-2.6-1.8-3.6-2.3c-0.6-0.3-1.6-0.4-2.5-0.3c-0.3,0-0.5,0-0.8,0c-0.1,0-0.3,0-0.4,0.1
		c-1.7,0.3-3.2,0.6-3.2,0.6L227,366.4z M235.2,382.7L235.2,382.7C235.2,382.9,235.4,382.9,235.2,382.7
		C235.4,382.9,235.2,382.9,235.2,382.7c0,0.1,0.1,0.3,0.1,0.3c-0.1,0-0.3-0.3-0.4-0.5C235.1,382.6,235.2,382.7,235.2,382.7
		L235.2,382.7z M234.7,381.7c0,0.1,0,0.1,0.1,0.3C234.7,381.8,234.7,381.7,234.7,381.7C234.7,381.6,234.7,381.7,234.7,381.7z
		 M233.1,379.2L233.1,379.2L233.1,379.2L233.1,379.2L233.1,379.2z M231.3,373.8L231.3,373.8c0-0.3-0.1-0.4-0.1-0.6
		C231.2,373.4,231.2,373.5,231.3,373.8z M231.1,372.2c-0.1-0.4-0.3-0.8-0.4-1h0.1C230.9,371.4,230.9,371.8,231.1,372.2z
		 M229.8,374.4h0.4l0.3,1h-0.6c-0.3,0-0.4-0.3-0.4-0.5C229.4,374.5,229.5,374.4,229.8,374.4z M229.8,377.8c-0.3,0-0.4-0.1-0.4-0.5
		c0-0.3,0.1-0.5,0.4-0.5h1l0.1,0.3l0.3,0.8l-0.4-0.3l-0.1,0.1l-0.1,0.1L229.8,377.8L229.8,377.8z M230.4,378.2L230.4,378.2
		L230.4,378.2L230.4,378.2L230.4,378.2z M238.2,377.8h-3.5l-0.4-1h3.9c0.3,0,0.4,0.1,0.4,0.5C238.6,377.5,238.5,377.8,238.2,377.8z
		 M238.2,374.4c0.3,0,0.4,0.3,0.4,0.5c0,0.3-0.1,0.5-0.4,0.5h-4.3l-0.4-1H238.2z"/>
	<path class="st0" d="M240.7,409.9c-0.3,0-0.4,1.3-0.4,1.8l0.9-0.4C241.2,410.7,240.9,409.9,240.7,409.9z"/>
	<path class="st0" d="M212.7,380.3c0,0.4,0.3,0.6,0.6,0.6s0.6-0.3,0.6-0.6s-0.3-0.6-0.6-0.6C213,379.6,212.7,379.9,212.7,380.3z"/>
	<path class="st0" d="M215.1,380.8c0.1,0.1,0.3,0.1,0.5,0.1c0.4,0,0.6-0.3,0.6-0.6s-0.3-0.6-0.6-0.6s-0.8,0.3-0.6,0.6
		C215,380.4,215,380.6,215.1,380.8L215.1,380.8L215.1,380.8z"/>
	<path class="st0" d="M216.9,380.5c0,0.4,0.3,0.6,0.6,0.6c0.4,0,0.6-0.3,0.6-0.6c0-0.4-0.3-0.6-0.6-0.6
		C217.2,379.9,216.9,380.1,216.9,380.5z"/>
	<path class="st0" d="M219.2,381.4C219.2,381.4,219.1,381.3,219.2,381.4"/>
	<path class="st0" d="M219,380.9c0,0.3,0.1,0.4,0.3,0.5l0,0c0.1,0.1,0.3,0.1,0.4,0.1c0.4,0,0.6-0.3,0.6-0.6c0-0.4-0.3-0.6-0.6-0.6
		S218.9,380.6,219,380.9z"/>
	<path class="st0" d="M221.1,381.9C221.1,382.1,221.1,382.1,221.1,381.9c0.1,0.1,0.3,0.3,0.5,0.3c0.4,0,0.6-0.3,0.6-0.6
		s-0.3-0.6-0.6-0.6s-0.8,0.3-0.6,0.6C220.9,381.7,220.9,381.8,221.1,381.9z"/>
	<path class="st0" d="M224.2,382.3c0-0.4-0.3-0.6-0.6-0.6s-0.8,0.3-0.6,0.6c0,0.1,0,0.3,0.1,0.4c0.1,0.1,0.3,0.3,0.5,0.3
		C223.9,383,224.2,382.7,224.2,382.3z"/>
	<path class="st0" d="M226,383c-0.1-0.3-0.3-0.4-0.6-0.4s-0.6,0.3-0.6,0.6c0,0.1,0,0.3,0.1,0.4c0,0.1,0,0.1,0,0.1
		c0.1,0.1,0.3,0.1,0.5,0.1c0.4,0,0.6-0.3,0.6-0.6l0,0C226,383.1,226,383.1,226,383L226,383z"/>
	<path class="st0" d="M227.2,383.8c-0.4,0-0.8,0.4-0.6,0.6c0,0.4,0.3,0.6,0.6,0.6c0.4,0,0.5-0.3,0.6-0.5c0,0,0,0,0-0.1s0-0.1,0-0.1
		C227.7,384,227.6,383.8,227.2,383.8z"/>
	<path class="st0" d="M228.9,386.4c0.4,0,0.6-0.3,0.6-0.6s-0.3-0.6-0.6-0.6s-0.8,0.3-0.6,0.6c0,0.1,0,0.1,0,0.3l0,0l0,0l0,0
		C228.3,386.2,228.6,386.4,228.9,386.4z"/>
	<path class="st0" d="M230.9,386.9c-0.1-0.3-0.3-0.4-0.6-0.4s-0.6,0.3-0.6,0.6s0.3,0.6,0.6,0.6s0.6-0.3,0.6-0.6l0,0
		C230.9,387,230.9,387,230.9,386.9L230.9,386.9z"/>
	<path class="st0" d="M231.2,388.8L231.2,388.8c0.1,0.3,0.4,0.4,0.6,0.4s0.5-0.1,0.6-0.5l0,0l0,0c0,0,0,0,0-0.1
		c0-0.4-0.3-0.6-0.6-0.6s-0.8,0.4-0.6,0.6v0.1V388.8L231.2,388.8z"/>
	<path class="st0" d="M233,390.9c0.3,0,0.5-0.1,0.6-0.5l0,0l0,0c0,0,0,0,0-0.1c0-0.4-0.3-0.6-0.6-0.6s-0.6,0.4-0.6,0.6
		c0,0,0,0,0,0.1l0,0l0,0l0,0l0,0v0.1l0,0C232.5,390.8,232.8,390.9,233,390.9z"/>
	<path class="st0" d="M234.1,392.7c0.3,0,0.5-0.1,0.6-0.4l0,0c0,0,0.1,0,0.1-0.1c0,0,0-0.1-0.1-0.1c0-0.4-0.3-0.6-0.6-0.6
		s-0.6,0.3-0.6,0.6S233.7,392.7,234.1,392.7z"/>
	<path class="st0" d="M235.2,394.4c0.3,0,0.4-0.1,0.5-0.3c0,0,0.1,0,0.1-0.1c0,0,0,0,0-0.1v-0.1c0-0.4-0.3-0.6-0.6-0.6
		c-0.4,0-0.8,0.4-0.6,0.6v0.1l0,0l0,0C234.7,394.2,234.8,394.4,235.2,394.4z"/>
	<path class="st0" d="M236,396.4c0.4,0,0.6-0.3,0.6-0.6s-0.3-0.6-0.6-0.6s-0.8,0.4-0.6,0.6C235.4,396.1,235.6,396.4,236,396.4z"/>
	<path class="st0" d="M236.5,398.5c0.3,0,0.4-0.1,0.5-0.3c0,0,0.1,0,0.1-0.1c0,0,0,0,0-0.1v-0.1c0-0.4-0.3-0.6-0.6-0.6
		s-0.6,0.3-0.6,0.6C235.9,398.2,236.1,398.5,236.5,398.5z"/>
	<path class="st0" d="M237,410.5c0.3,0,0.4-0.1,0.5-0.3c0,0,0.1,0,0.1-0.1c0,0,0,0,0-0.1v-0.1c0-0.4-0.3-0.6-0.6-0.6
		s-0.8,0.4-0.6,0.6C236.4,410.3,236.7,410.5,237,410.5z"/>
	<path class="st0" d="M237.4,412.6c0.4,0,0.6-0.3,0.6-0.6s-0.3-0.6-0.6-0.6c-0.3,0-0.5,0.1-0.6,0.4l0,0l0,0c0,0.1,0,0.1,0,0.3
		C236.8,412.4,237,412.6,237.4,412.6z"/>
	<path class="st0" d="M236.8,411.7C236.7,411.8,236.8,411.8,236.8,411.7L236.8,411.7z"/>
	<path class="st0" d="M211.3,379.6c-0.4,0-0.6,0.3-0.6,0.6c0,0.3,0.1,0.5,0.4,0.6c0,0,0,0,0.1,0l0,0l0,0l0,0l0,0h0.1
		c0.4,0,0.6-0.3,0.6-0.6c0-0.1,0-0.3-0.1-0.4c0,0,0,0-0.1-0.1C211.7,379.6,211.4,379.6,211.3,379.6z"/>
	<path class="st0" d="M209.9,380.5c0-0.4-0.3-0.6-0.6-0.6c-0.4,0-0.6,0.4-0.6,0.6c0,0.3,0.1,0.5,0.4,0.6c0,0,0,0,0.1,0l0,0l0,0l0,0
		l0,0h0.1C209.6,381.2,209.9,380.9,209.9,380.5z"/>
	<path class="st0" d="M207,381.7L207,381.7L207,381.7L207,381.7L207,381.7L207,381.7C207,381.7,207.2,381.7,207,381.7
		c0.1,0,0.3,0,0.3,0c0.4,0,0.6-0.3,0.6-0.6s-0.3-0.6-0.6-0.6s-0.8,0.3-0.6,0.6C206.6,381.3,206.8,381.6,207,381.7z"/>
	<path class="st0" d="M206,381.7c0-0.4-0.3-0.6-0.6-0.6s-0.6,0.3-0.6,0.6c0,0.3,0.1,0.5,0.4,0.6l0,0l0,0l0,0c0.1,0,0.1,0,0.3,0
		C205.7,382.3,206,382.1,206,381.7z"/>
	<path class="st0" d="M204.2,382.5c0-0.4-0.3-0.6-0.6-0.6h-0.1l0,0c0,0,0,0-0.1,0c-0.3,0.1-0.5,0.3-0.4,0.6c0,0.3,0.1,0.5,0.4,0.6
		l0,0l0,0c0.1,0,0.1,0,0.3,0C203.9,383.1,204.2,382.9,204.2,382.5z"/>
	<path class="st0" d="M202.2,383.4c0-0.3-0.1-0.5-0.5-0.6l0,0l0,0c0,0,0,0-0.1,0c-0.4,0-0.8,0.4-0.6,0.6c0,0.4,0.3,0.6,0.6,0.6
		C202,384,202.2,383.8,202.2,383.4z"/>
	<path class="st0" d="M200,385.2c0.3,0,0.5-0.3,0.5-0.6s-0.3-0.6-0.6-0.6c-0.4,0-0.8,0.3-0.6,0.6c0,0.4,0.3,0.6,0.6,0.6H200
		L200,385.2z"/>
	<path class="st0" d="M197.5,385.7c0,0.4,0.3,0.6,0.6,0.6v0.1c0.1,0,0.1,0,0.1,0v-0.1c0.3,0,0.5-0.3,0.5-0.6s-0.3-0.6-0.6-0.6
		S197.4,385.5,197.5,385.7z"/>
	<path class="st0" d="M197.3,387.1c0-0.4-0.3-0.6-0.6-0.6s-0.8,0.4-0.6,0.6c0,0.4,0.3,0.6,0.6,0.6c0.1,0,0.1,0,0.3,0v0.1v-0.1
		C197.1,387.7,197.3,387.4,197.3,387.1z"/>
	<path class="st0" d="M195.2,389.4c0.1,0,0.1,0,0.3,0l0,0l0,0c0.3-0.1,0.4-0.3,0.4-0.6s-0.3-0.6-0.6-0.6s-0.6,0.3-0.6,0.6
		S194.8,389.4,195.2,389.4z"/>
	<path class="st0" d="M194,391.2c0.4,0,0.6-0.3,0.6-0.6s-0.3-0.6-0.6-0.6l0,0c0,0,0,0-0.1,0c-0.1,0-0.1,0-0.1,0
		c-0.3,0.1-0.5,0.3-0.4,0.6C193.4,390.9,193.6,391.2,194,391.2z"/>
	<path class="st0" d="M192.2,392.1c0,0.4,0.3,0.6,0.6,0.6c0.1,0,0.1,0,0.3,0l0.1,0.1l-0.1-0.3c0.3-0.1,0.4-0.3,0.4-0.5
		c0-0.4-0.3-0.6-0.6-0.6S192.2,391.8,192.2,392.1z"/>
	<path class="st0" d="M192.6,394c0-0.4-0.3-0.6-0.6-0.6s-0.8,0.4-0.6,0.6c0,0.4,0.3,0.6,0.6,0.6S192.6,394.4,192.6,394z"/>
	<path class="st0" d="M191.2,395.3c-0.4,0-0.6,0.3-0.6,0.6s0.3,0.6,0.6,0.6c0.1,0,0.3,0,0.3-0.1l0,0l0,0l0,0l0,0l0,0l0,0
		c0.1-0.1,0.3-0.3,0.3-0.5C191.8,395.6,191.6,395.3,191.2,395.3z"/>
	<path class="st0" d="M191,398.3L191,398.3"/>
	<path class="st0" d="M190.9,398.5L190.9,398.5"/>
	<path class="st0" d="M191.2,397.9c0-0.4-0.3-0.6-0.6-0.6s-0.6,0.3-0.6,0.6s0.3,0.6,0.6,0.6c0.1,0,0.3,0,0.4-0.1l0,0l0,0l0,0
		C191,398.3,191.2,398.2,191.2,397.9z"/>
	<path class="st0" d="M190.1,409.5c-0.4,0-0.6,0.3-0.6,0.6c0,0.4,0.3,0.6,0.6,0.6s0.6-0.3,0.6-0.6
		C190.8,409.8,190.5,409.5,190.1,409.5z"/>
	<path class="st0" d="M189.9,411.4c-0.3,0-0.4,0.1-0.5,0.3l0,0c-0.1,0.1-0.1,0.3-0.1,0.4c0,0.4,0.3,0.6,0.6,0.6s0.6-0.3,0.6-0.6
		S190.3,411.4,189.9,411.4z"/>
	<path class="st0" d="M189.7,413.5c-0.4,0-0.6,0.3-0.6,0.6c0,0.4,0.3,0.6,0.6,0.6c0.1,0,0.4,0,0.4-0.1h0.1l0,0
		c0.1-0.1,0.1-0.3,0.1-0.5C190.4,413.8,190.1,413.5,189.7,413.5z"/>
	<path class="st0" d="M189.9,415.6c-0.4,0-0.8,0.4-0.6,0.6c0,0.4,0.3,0.6,0.6,0.6s0.6-0.3,0.6-0.6
		C190.5,415.9,190.3,415.6,189.9,415.6z"/>
	<path class="st0" d="M285,380.1c0-0.4-0.3-0.6-0.6-0.6c0,0,0,0-0.1,0l0,0l0,0c-0.3,0.1-0.4,0.3-0.4,0.5v0.1c0,0.4,0.3,0.6,0.6,0.6
		S285,380.5,285,380.1z"/>
	<path class="st0" d="M282.3,380.9c0.4,0,0.6-0.3,0.6-0.6s-0.3-0.6-0.6-0.6s-0.6,0.3-0.6,0.6S281.9,380.9,282.3,380.9z"/>
	<path class="st0" d="M280.8,380.4c0-0.4-0.3-0.6-0.6-0.6s-0.6,0.3-0.6,0.6c0,0.1,0,0.3,0.1,0.3l-0.1,0.1c0,0.1,0.1,0.1,0.1,0.1h0.1
		c0.1,0.1,0.3,0.1,0.4,0.1v0.1c0,0.1,0.1,0.1,0.1,0.1c0.1,0,0.1-0.1,0.1-0.1V381C280.7,380.9,280.8,380.6,280.8,380.4z"/>
	<path class="st0" d="M278.9,380.8c0-0.4-0.3-0.6-0.6-0.6s-0.6,0.4-0.6,0.6c0,0.1,0,0.1,0,0.3l0,0c-0.1,0-0.1,0.1-0.1,0.1
		c0,0.1,0.1,0.1,0.1,0.1h0.1c0.1,0.1,0.1,0.1,0.3,0.1v0.1c0,0.1,0.1,0.1,0.1,0.1c0.1,0,0.1-0.1,0.1-0.1v-0.1
		C278.6,381.4,278.9,381.2,278.9,380.8z"/>
	<path class="st0" d="M276.9,381.4c0-0.4-0.3-0.6-0.6-0.6s-0.6,0.3-0.6,0.6v0.1l0,0c-0.1,0-0.1,0.1-0.1,0.1c0,0.1,0.1,0.1,0.1,0.1
		h0.1c0.1,0.1,0.3,0.3,0.4,0.3l0,0c0,0.1,0.1,0.1,0.1,0.1l0.1-0.1l0,0C276.7,381.9,276.9,381.8,276.9,381.4z"/>
	<path class="st0" d="M273.7,382.3c-0.1,0-0.1,0.1-0.1,0.1l0.1,0.1h0.1c0,0.3,0.3,0.4,0.4,0.4h0.1l0,0h0.1c0.4,0,0.6-0.3,0.6-0.6
		s-0.3-0.6-0.6-0.6c-0.1,0-0.3,0-0.3,0h-0.1c-0.1,0-0.1,0.1-0.1,0.1l0,0C273.8,381.9,273.8,382.1,273.7,382.3L273.7,382.3z"/>
	<path class="st0" d="M271.9,383.2c0,0.1,0,0.1,0,0.1l0,0c0.1,0.3,0.3,0.4,0.6,0.4c0.1,0,0.1,0,0.1,0l0,0c0.3-0.1,0.4-0.3,0.4-0.6
		s-0.3-0.6-0.6-0.6c-0.1,0-0.1,0-0.1,0l0,0C272,382.7,271.9,383,271.9,383.2z"/>
	<path class="st0" d="M271.5,384.3c0-0.4-0.3-0.6-0.6-0.6s-0.6,0.3-0.6,0.6s0.3,0.6,0.6,0.6S271.5,384.7,271.5,384.3z"/>
	<path class="st0" d="M269.1,384.8c-0.4,0-0.6,0.4-0.6,0.6c0,0.3,0.1,0.5,0.3,0.5c0,0,0,0.1,0.1,0.1c0,0.1,0.1,0.1,0.1,0l0,0h0.1
		c0.1,0,0.3,0,0.3-0.1l0.1,0.1c0,0.1,0.1,0.1,0.1,0c0.1,0,0.1-0.1,0-0.1l0,0c0.1-0.1,0.1-0.3,0.1-0.5
		C269.8,385.1,269.5,384.8,269.1,384.8z"/>
	<path class="st0" d="M267.7,387.7c0.4,0,0.6-0.3,0.6-0.6c0-0.4-0.3-0.6-0.6-0.6s-0.8,0.3-0.6,0.6
		C267.1,387.4,267.3,387.7,267.7,387.7z"/>
	<path class="st0" d="M266.9,388.6c0-0.4-0.3-0.6-0.6-0.6s-0.6,0.3-0.6,0.6c0,0.4,0.3,0.6,0.6,0.6S266.9,389,266.9,388.6z"/>
	<path class="st0" d="M265,390.8c0.4,0,0.6-0.3,0.6-0.6s-0.3-0.6-0.6-0.6s-0.6,0.3-0.6,0.6S264.6,390.8,265,390.8z"/>
	<path class="st0" d="M263.3,391.8c0,0.3,0.1,0.5,0.4,0.6l0,0h0.1l0,0h0.1c0.4,0,0.6-0.3,0.6-0.6c0-0.4-0.3-0.6-0.6-0.6
		S263.3,391.6,263.3,391.8z"/>
	<path class="st0" d="M262.4,393.6c0,0.4,0.3,0.5,0.5,0.6l0,0c0,0.1,0,0.1,0.1,0.1s0.1,0,0.1-0.1l0,0c0.1,0,0.3-0.1,0.4-0.3h0.1
		c0.1,0,0.1,0,0.1-0.1s0-0.1-0.1-0.1l0,0v-0.1c0-0.4-0.3-0.6-0.6-0.6S262.3,393.3,262.4,393.6z"/>
	<path class="st0" d="M261.5,395.5c0,0.3,0.1,0.5,0.4,0.6l0,0c0,0.1,0,0.1,0.1,0.1s0.1,0,0.1-0.1c0.3,0,0.4-0.1,0.5-0.3
		c0.1,0,0.1,0,0.1-0.1s0-0.1,0-0.1v-0.1c0-0.4-0.3-0.6-0.6-0.6C261.7,394.8,261.5,395.2,261.5,395.5z"/>
	<path class="st0" d="M261,397.4L261,397.4C261,397.5,261,397.5,261,397.4c0,0.3,0,0.3,0,0.3c0.1,0.1,0.3,0.3,0.4,0.4v0.1
		c0,0.1,0,0.1,0.1,0.1s0.1,0,0.1-0.1v-0.1c0.1,0,0.3,0,0.4-0.1h0.1c0.1,0,0.1,0,0.1-0.1s0-0.1,0-0.1c0-0.1,0-0.1,0-0.3
		c0-0.4-0.3-0.6-0.6-0.6S260.8,397.2,261,397.4z"/>
	<path class="st0" d="M261.1,409c-0.4,0-0.5,0.3-0.6,0.5c0,0,0,0,0,0.1s0,0.1,0,0.1c0,0.3,0.1,0.4,0.4,0.5l0,0c0,0.1,0,0.1,0.1,0.1
		s0.1,0,0.1-0.1c0.3,0,0.4-0.1,0.5-0.3c0.1,0,0.1,0,0.1-0.1s0-0.1,0-0.1v-0.1C261.7,409.2,261.5,409,261.1,409z M261.1,409.2
		L261.1,409.2L261.1,409.2z"/>
	<path class="st0" d="M261.1,409.2L261.1,409.2"/>
	<path class="st0" d="M261.5,411.6c0-0.4-0.3-0.6-0.6-0.6s-0.6,0.4-0.6,0.6c0,0.4,0.3,0.6,0.6,0.6c0,0.1,0,0.1,0.1,0.1
		c0.1,0,0.1,0,0.1-0.1l0,0c0.1,0,0.3-0.1,0.4-0.4l0,0C261.6,411.8,261.6,411.8,261.5,411.6C261.6,411.6,261.6,411.6,261.5,411.6z"/>
	<path class="st0" d="M260.8,413.1c-0.4,0-0.8,0.3-0.6,0.6c0,0,0,0,0,0.1l0,0l0,0c0,0.3,0.3,0.4,0.5,0.4l0,0c0,0.1,0.1,0.1,0.1,0.1
		c0.1,0,0.1-0.1,0.1-0.1l0,0c0.3,0,0.4-0.1,0.5-0.4v-0.1l0,0c0,0,0,0,0-0.1C261.5,413.4,261.2,413.1,260.8,413.1z"/>
	<path class="st0" d="M261.5,415.7c0-0.4-0.3-0.6-0.6-0.6s-0.6,0.4-0.6,0.6c0,0.4,0.3,0.6,0.6,0.6c0,0.1,0.1,0.1,0.1,0.1
		c0.1,0,0.1-0.1,0.1-0.1l0,0c0.1,0,0.3-0.1,0.4-0.4l0,0C261.6,416,261.6,415.9,261.5,415.7C261.6,415.7,261.5,415.7,261.5,415.7z"/>
	<path class="st0" d="M285.6,380.4c0,0.1,0,0.1,0.1,0.1l0,0c0,0.1,0.1,0.3,0.4,0.4l0,0c0,0.1,0,0.1,0.1,0.1s0.1,0,0.1-0.1
		c0.4,0,0.6-0.3,0.6-0.6s-0.3-0.6-0.6-0.6S285.6,379.9,285.6,380.4C285.6,380.3,285.6,380.3,285.6,380.4z"/>
	<path class="st0" d="M288.5,379.9L288.5,379.9c-0.1,0-0.1,0-0.1,0c-0.3,0-0.5,0.1-0.6,0.4c0,0,0,0,0,0.1c0,0,0,0,0,0.1l0,0
		c0,0.3,0.1,0.5,0.4,0.6c0,0,0,0,0.1,0c0,0,0,0,0.1,0l0,0c0.4,0,0.6-0.3,0.6-0.6C289,380.3,288.9,380,288.5,379.9
		C288.6,379.9,288.6,379.9,288.5,379.9z"/>
	<path class="st0" d="M289.8,381L289.8,381c0,0.1,0.1,0.4,0.3,0.4v0.1c0,0.1,0,0.1,0.1,0.1c0.1,0,0.1,0,0.1-0.1l0,0h0.1
		c0.4,0,0.6-0.3,0.6-0.6c0-0.4-0.3-0.6-0.6-0.6s-0.6,0.3-0.6,0.5C289.7,380.8,289.7,380.8,289.8,381C289.7,381,289.7,381,289.8,381z
		"/>
	<path class="st0" d="M292.1,382.3c0.1,0,0.1,0,0.1-0.1l0,0h0.1c0.4,0,0.6-0.3,0.6-0.6s-0.3-0.6-0.6-0.6s-0.6,0.3-0.6,0.5
		c-0.1,0-0.1,0-0.1,0.1s0,0.1,0.1,0.1l0,0c0,0.1,0.1,0.3,0.3,0.4L292.1,382.3C292,382.3,292,382.3,292.1,382.3z"/>
	<path class="st0" d="M294.1,383.1c0.1,0,0.1,0,0.1-0.1c0.4,0,0.6-0.3,0.6-0.6s-0.3-0.6-0.6-0.6c-0.4,0-0.5,0.3-0.6,0.5
		c0,0,0,0,0,0.1l0,0l0,0v0.1c0,0.3,0.1,0.4,0.4,0.5l0,0C294,383.1,294,383.1,294.1,383.1z"/>
	<path class="st0" d="M295.9,383.9L295.9,383.9C295.9,383.9,296,383.9,295.9,383.9c0.5,0,0.8-0.3,0.8-0.6s-0.3-0.6-0.6-0.6
		s-0.6,0.3-0.6,0.6c0,0.3,0.1,0.5,0.4,0.6l0,0H295.9z"/>
	<path class="st0" d="M298.5,384.4c0-0.4-0.3-0.6-0.6-0.6c-0.4,0-0.6,0.3-0.6,0.6s0.3,0.6,0.6,0.6
		C298.3,385.1,298.5,384.8,298.5,384.4z"/>
	<path class="st0" d="M300.1,385.7c0-0.4-0.3-0.6-0.6-0.6c-0.4,0-0.6,0.3-0.6,0.6s0.3,0.6,0.6,0.6
		C299.8,386.4,300.1,386.1,300.1,385.7z"/>
	<path class="st0" d="M301,387.7c0.4,0,0.6-0.3,0.6-0.6c0-0.4-0.3-0.6-0.6-0.6s-0.8,0.3-0.6,0.6C300.3,387.4,300.6,387.7,301,387.7z
		"/>
	<path class="st0" d="M302.4,387.9c-0.4,0-0.8,0.3-0.6,0.6c0,0.1,0,0.3,0.1,0.3v0.1v0.1l0,0c0.1,0.1,0.3,0.1,0.4,0.1
		c0.4,0,0.6-0.3,0.6-0.6S302.8,387.9,302.4,387.9z"/>
	<path class="st0" d="M303.6,390.8c0.4,0,0.6-0.3,0.6-0.6s-0.3-0.6-0.6-0.6s-0.6,0.4-0.6,0.6C302.9,390.5,303.2,390.8,303.6,390.8z"
		/>
	<path class="st0" d="M284.3,381.3c-12.3,0-22.5,10-22.5,22.5c0,12.3,10,22.5,22.5,22.5s22.5-10,22.5-22.5
		C306.8,391.4,296.7,381.3,284.3,381.3z M299.9,391.2l-9.2,6.8l7.3-8.8C298.5,389.6,299.3,390.4,299.9,391.2z M290.1,398.3l-3,2.1
		l1.6-3.2l7.7-9.5c0.5,0.4,0.9,0.6,1.4,1.2L290.1,398.3z M286.7,400.9l-0.4,0.9l-0.5,0.1l0.1-0.5L286.7,400.9z M285.9,401.3l0.1-1.2
		l2.1-2.5l-1.3,3L285.9,401.3z M285.5,405.5v0.1l0.4,0.1l0.4,0.9l-0.6-0.5l-0.1-0.3l-0.3-0.3v-0.3L285.5,405.5z M285.3,405.2v-0.1
		h0.1L285.3,405.2z M285.9,403.3V403l0.1,0.1L285.9,403.3z M286,404.2L286,404.2L286,404.2L286,404.2z M285.6,402.5l0.1-0.3l0.4-0.1
		l-0.3,0.4L285.6,402.5L285.6,402.5z M285.9,405.1l0.1,0.4l-0.4-0.1V405L285.9,405.1z M285.6,402.1l-0.3,0.1V402l0.4-0.3
		L285.6,402.1z M286.2,405.1l0.5,0.1l0.5,0.8l-0.9-0.4L286.2,405.1z M286,405l-0.1-0.3h0.3l0.3,0.4L286,405z M286.2,402.9h-0.3
		l0.1-0.3l0.4-0.1L286.2,402.9z M286.3,403l0.4,0.1l-0.4,0.3l-0.1-0.1L286.3,403z M286.4,402.9l0.4-0.4l0.9-0.1l-0.8,0.6
		L286.4,402.9z M286.7,402.4l-0.5,0.1l0.1-0.4l0.9-0.4L286.7,402.4z M285.6,401.4l-0.4,0.4l-0.1-0.5l0.6-0.6L285.6,401.4z
		 M285.3,403.1l0.1,0.3v0.3l-0.1,0.3l-0.1,0.3l-0.1,0.3l-0.1,0.1l-0.3,0.1h-0.3l-0.4-0.1l-0.1-0.1l-0.1-0.1l-0.1-0.1l-0.1-0.3v-0.3
		l0.1-0.3l0.1-0.3l0.1-0.1l0.1-0.1l0.3-0.1h0.3h0.1l0.4,0.1L285.3,403.1L285.3,403.1z M285,405.3L285,405.3L285,405.3L285,405.3z
		 M284.9,405.6l-0.1,0.4l-0.3-0.4l0.3-0.1L284.9,405.6z M284.2,405.7l0.1,0.3l-0.1,0.4l-0.1-0.5L284.2,405.7z M284,405.5L284,405.5
		L284,405.5L284,405.5z M283.6,401.7l-0.4-0.4l-0.1-0.9l0.6,0.8L283.6,401.7z M283.8,402v0.1h-0.1L283.8,402z M283.4,402v0.3
		l-0.3-0.1l-0.1-0.4L283.4,402z M282.7,403.8v0.1l-0.1-0.1H282.7z M282.3,403.8l-0.4-0.1l0.4-0.1l0.3,0.1L282.3,403.8z M282.7,403.3
		L282.7,403.3L282.7,403.3L282.7,403.3z M282.8,404.2v0.1V404.2L282.8,404.2z M282.5,402.7l-0.3-0.4l0.4,0.1l0.1,0.3L282.5,402.7
		L282.5,402.7z M282.5,404.6h0.3l-0.1,0.3l-0.4,0.1L282.5,404.6z M282.8,405h0.3l-0.1,0.3l-0.4,0.1L282.8,405z M283.2,405.3l0.3-0.1
		v0.3l-0.4,0.3L283.2,405.3z M283.2,402.2v0.3l-0.3-0.1l-0.1-0.4L283.2,402.2z M282.7,401.8l-0.4-0.9l0.6,0.5l0.1,0.5L282.7,401.8z
		 M282.7,402.2l-0.5-0.1l-0.5-0.6l0.9,0.4L282.7,402.2z M282.3,402.9l-0.5,0.1l0.1,0.1l0.4-0.1l0.3,0.3l-0.3,0.1l-0.4-0.3l0.3,0.3
		l-0.5,0.1l-0.9-0.4l1-0.1l-0.6-0.6l0.9,0.1L282.3,402.9z M281.8,403.8l0.5,0.1l-0.3,0.3l0.4-0.3l0.1,0.3l-0.1,0.1l-0.4-0.1
		l-0.1,0.1l-0.9-0.1L281.8,403.8z M282.3,404.6l-0.4,0.4l-0.9,0.1l0.8-0.6L282.3,404.6z M282,405.1l0.5-0.1l-0.1,0.4l-0.9,0.4
		L282,405.1z M282.9,405.5l-0.1,0.5l-0.8,0.5l0.4-0.9L282.9,405.5z M283,406.1l0.4-0.4l0.1,0.5l-0.6,0.6L283,406.1z M283.8,401.8
		l0.1-0.4l0.3,0.4L284,402L283.8,401.8z M284.5,401.8l-0.1-0.3l0.1-0.4l0.1,0.5L284.5,401.8z M284.7,402v0.1h-0.1L284.7,402z
		 M284.9,402l-0.1-0.3l0.3-0.4l0.1,0.4L284.9,402z M284.6,401.6l-0.1-0.5l0.4-0.9l0.1,1L284.6,401.6z M284.5,400.7l-0.4-1l0.5-3.2
		l0.3,3.4L284.5,400.7z M284.3,401.2l-0.1,0.4l-0.4-0.4l0.1-0.9L284.3,401.2z M283.7,400.9L283,400l-0.4-3.2l1.2,3.1L283.7,400.9z
		 M282,400.5l0.4,1l-0.9-0.4l-1.9-2.6L282,400.5l-1.2-3.1l1.9,2.6l0.1,1.2L282,400.5z M281.9,402.2l-1.2-0.1l-2.5-2.1l3,1.3
		L281.9,402.2z M281.5,402.9l-1.2,0.1l-3-1.4l3.2,0.5L281.5,402.9z M280.5,403.1l1,0.5l-0.9,0.4l-3.2-0.5L280.5,403.1z M281.5,404.4
		l-0.9,0.6l-3.2,0.4l3.1-1.2L281.5,404.4z M280.6,405.2l1.2-0.1l-0.6,0.9l-3.1,1.2L280.6,405.2z M281.2,406.1l1-0.4l-0.4,0.9
		l-2.6,1.8L281.2,406.1z M282,406.9l0.8-0.6l-0.1,1.2l-2.1,2.5L282,406.9z M282.9,407.4l0.6-0.9l0.1,1.2l-1.3,3L282.9,407.4z
		 M283.6,405.7l0.3-0.3l0.1,0.3l-0.3,0.4L283.6,405.7z M284.1,406l0.1,0.5l-0.4,0.9l-0.1-1L284.1,406z M284.2,406.8l0.4,1l-0.5,3.2
		l-0.3-3.4L284.2,406.8z M284.5,406.4l0.1-0.4l0.4,0.4l0.1-0.5l0.4,0.4l0.1,0.9l-0.6-0.8l-0.1,0.9L284.5,406.4z M285,406.6l0.6,0.9
		l0.4,3.2l-1.2-3.1L285,406.6z M286.6,407l1.2,3.1l-1.8-2.6l-0.3-1.2L286.6,407z M286.3,405.9l0.9,0.4l1.8,2.6l-2.3-1.9L286.3,405.9
		z M286.8,405.2l1,0.1l2.6,2.1l-3-1.4L286.8,405.2z M287.2,404.6l1.2-0.1l2.9,1.3l-3.1-0.5L287.2,404.6z M287.6,405.2l-0.9-0.1
		l-0.3-0.4l0.5-0.1L287.6,405.2z M286.4,404.6l-0.3-0.3l0.3-0.1l0.4,0.3L286.4,404.6z M286.3,403.9l-0.1-0.1l0.1-0.1l0.4,0.1
		L286.3,403.9z M286.6,403.5l0.4-0.4l0.9,0.1l-0.9,0.4L286.6,403.5z M287.2,403l0.9-0.6l3.2-0.4l-3.1,1.2L287.2,403z M286.9,402.4
		l0.6-0.9l-1,0.4l0.4-0.9l2.6-1.9l-1.9,2.5l3.1-1.2l-2.6,1.8L286.9,402.4z M296.3,387.4l-7.4,9l4.8-10.5
		C294.6,386.2,295.5,386.8,296.3,387.4z M293.3,385.8l-4.9,11.2l-2.3,2.9v0.1l-0.8,0.9l-0.1-1.2l1.3-2.9l0.1-0.5l5.1-11.2
		C292.1,385.5,292.8,385.7,293.3,385.8z M291.5,385.1l-4.7,10.5l1.8-11.4C289.5,384.4,290.6,384.7,291.5,385.1z M288.4,384.2
		l-1.8,12l-1.6,3.2l-0.4-3.6l1.9-12C287.2,383.9,287.9,383.9,288.4,384.2z M284.3,383.9c0.6-0.1,1.4-0.1,2.1,0l-1.8,11.4l-1.2-11.4
		H284.3z M283.3,383.9l1.2,12.1l-0.5,3.5l-1.3-3.4l-1.2-12.1C282.1,383.9,282.8,383.9,283.3,383.9z M281.2,383.9l1.2,11.4l-4-10.8
		C279.3,384.2,280.3,384,281.2,383.9z M278.4,384.8l4.2,11.3l0.4,3.6l-2.1-2.9l-4.3-11.4C277.1,385.2,277.7,384.9,278.4,384.8z
		 M276.2,385.5l4.2,10.8l-6.8-9.4C274.3,386.4,275.4,386,276.2,385.5z M271.9,388.2c0.5-0.4,0.9-0.6,1.6-1.2l7.1,9.9l1.3,3.4
		l-2.9-2.2L271.9,388.2l6.8,9.4l-9-7.3C270.2,389.5,271,388.7,271.9,388.2z M269.5,390.4l9.5,7.8l2.1,2.9l-3.2-1.6l-9.5-7.8
		C268.6,391.3,269,390.8,269.5,390.4z M268.1,392l9,7.3l-10.5-4.7C266.9,393.6,267.5,392.7,268.1,392z M266.3,394.6l11.3,5.1
		l2.7,2.2l-3.6-0.5l-11-5.1C265.9,395.7,266.2,395.1,266.3,394.6z M265.8,396.5l10.4,4.7l-11.3-1.8
		C265.1,398.5,265.4,397.4,265.8,396.5z M264.5,401.6l10.3,1.7L264.5,401.6c0.3-0.8,0.3-1.4,0.5-1.9l11.8,1.9l3.2,1.6l-3.5,0.4
		l-0.6-0.1l-11.4,1.2v-0.8h-0.1C264.3,403.1,264.5,402.4,264.5,401.6z M264.3,404.8l12.2-1.2l3.5,0.5l-3.4,1.3l-12.2,1.2
		C264.3,406,264.3,405.3,264.3,404.8z M264.6,406.9l11.4-1.2l-10.8,4C264.9,408.8,264.7,407.8,264.6,406.9z M276.8,405.6l3.6-0.4
		l-2.9,2.1l-11.4,4.3c-0.3-0.5-0.4-1.2-0.6-1.8L276.8,405.6z M276.8,407.7l-9.4,6.8c-0.5-0.9-0.9-1.8-1.4-2.6L276.8,407.7z
		 M267.5,414.7l10-7.1l3.4-1.3l-2.3,2.9l-9.9,7.1C268.2,415.7,268,415.3,267.5,414.7z M268.8,416.3l9.4-6.8l-7.3,9
		C270.1,417.8,269.4,417,268.8,416.3z M278.8,409.2l2.9-2.1l-1.6,3.2l-7.7,9.5c-0.5-0.4-0.9-0.6-1.4-1.2L278.8,409.2z M272.4,420
		l7.4-9l-4.8,10.5C274.1,421.2,273.2,420.7,272.4,420z M275.4,421.7l4.9-11.2l2.3-2.9l-0.5,3.5l-5.1,11.2
		C276.6,422.1,275.9,421.8,275.4,421.7z M277.2,422.5l4.7-10.5l-1.8,11.4C279.2,423.3,278.1,422.9,277.2,422.5z M280.2,423.3l1.9-12
		l1.6-3.2l0.4,3.6l-2.1,12C281.4,423.5,280.7,423.5,280.2,423.3z M284.3,423.7c-0.8,0.1-1.4,0-2.1,0l1.8-11.4l1.2,11.4H284.3z
		 M285.4,423.8l-1.2-12.2l0.5-3.5l1.3,3.4l1.2,12.2C286.6,423.8,285.9,423.8,285.4,423.8z M287.5,423.5l-1.2-11.4l4,10.8
		C289.4,423.3,288.4,423.4,287.5,423.5z M290.3,422.6l-4.2-11.3l-0.4-3.6l2.1,2.9l4.3,11.4C291.6,422.2,291,422.5,290.3,422.6z
		 M292.5,422.1l-4.2-10.8l6.8,9.4C294.4,421.2,293.3,421.6,292.5,422.1z M295.3,420.7l-7.1-10l-1.3-3.4l2.9,2.3l7.1,9.9
		C296.3,419.9,295.9,420.2,295.3,420.7z M297,419.2l-6.8-9.4l9,7.3C298.5,417.9,297.7,418.7,297,419.2z M299.3,417l-9.5-7.8
		l-2.1-2.9l3.2,1.6l9.5,7.8C300.1,416.3,299.7,416.6,299.3,417z M300.6,415.6l-9-7.3l10.5,4.7C301.8,413.9,301.2,414.8,300.6,415.6z
		 M302.3,412.7l-11.2-4.9l-2.9-2.3l3.5,0.5l11.2,5.1C302.7,411.6,302.4,412.2,302.3,412.7z M303.1,410.9l-10.5-4.7l11.4,1.8
		C303.8,409,303.5,410,303.1,410.9z M304.2,405.9c-0.1,0.6-0.1,1.3-0.4,1.8l-12-1.8l-3.1-1.4h-0.5l-0.3-0.1l-1,0.1l-0.4-0.4l0.5-0.1
		l0.9,0.4l-0.8-0.4l1-0.4l3.1,0.5l0.9-0.1l0.6,0.1l11.3-1.2c0.1,0.3,0.1,0.6,0.1,0.9C304.4,404.4,304.2,405.2,304.2,405.9z
		 M292.1,403.8l-3.5-0.5l3.4-1.3l12.1-1.2c0.1,0.6,0.1,1.3,0.1,1.8L292.1,403.8z M304.1,400.5l-11.3,1.2l10.7-4
		C303.8,398.6,304,399.6,304.1,400.5z M303.3,397.7l-11.3,4.2l-3.6,0.4l2.9-2.1l11.4-4.3C302.9,396.4,303.2,397,303.3,397.7z
		 M291.9,399.6l9.2-6.8c0.5,0.8,0.9,1.8,1.4,2.6L291.9,399.6z M291.2,399.9l-3.4,1.3l2.3-2.9l9.9-7.1c0.4,0.5,0.6,0.9,1.2,1.6
		L291.2,399.9z"/>
	<path class="st0" d="M271.9,388.2L271.9,388.2L271.9,388.2z"/>
	<polygon class="st0" points="292.8,404 304.2,405.9 292.9,404 	"/>
	<polygon class="st0" points="291.4,404 288.6,404.3 288.8,404.4 291.5,404 	"/>
	<line class="st1" x1="288" y1="404.3" x2="288" y2="404.3"/>
	<path class="st0" d="M275.9,403.4l-1.2-0.1L275.9,403.4z"/>
	<path class="st0" d="M282,404.2L282,404.2L282,404.2z"/>
	<polygon class="st0" points="285.5,405.9 285.6,405.9 285.5,405.6 285.5,405.6 	"/>
	<polygon class="st0" points="286.4,396.9 286,399.9 286,399.9 286.6,396.8 	"/>
	<path class="st0" d="M196.6,415L196.6,415L196.6,415z"/>
	<polygon class="st0" points="213.3,411.2 213.1,409 213.3,411.4 	"/>
	<polygon class="st0" points="222,404.4 233.4,406.3 222.1,404.4 	"/>
	<path class="st0" d="M217.2,404.6L217.2,404.6L217.2,404.6z"/>
	<path class="st0" d="M227.2,395.5l3.1-2.2l0,0L227.2,395.5z"/>
	<line class="st1" x1="215.6" y1="405" x2="215.6" y2="405"/>
	<path class="st0" d="M216,407.7l0.6,1.7L216,407.7z"/>
	<polygon class="st0" points="204.7,403.8 205.1,403.8 205.1,403.8 	"/>
	<path class="st0" d="M213.3,412.6l-0.1,1.2L213.3,412.6z"/>
	<path class="st0" d="M297.1,462.9c-0.4-1.9-1.4-2.5-2.9-2.2c-1.4,0.3-2.2,1.2-1.9,3c1,5.8,1.4,8.7,2.3,14.6c0.3,1.9,1.4,2.5,3,2.2
		s2.3-1.2,2.1-3.1C298.6,471.6,298.1,468.6,297.1,462.9z"/>
	<path class="st0" d="M173.8,463.8c-0.8-0.4-1.2-0.5-1.9-0.8c-1,3.1-1.6,4.8-2.6,7.9c1,0.4,1.7,0.5,2.7,0.9c1.6,0.5,2.7,0.1,3.2-1.8
		c0.3-0.9,0.4-1.3,0.6-2.2C176.6,465.4,176,464.5,173.8,463.8z"/>
	<path class="st0" d="M177.3,453.2c-0.8-0.3-1.3-0.4-2.1-0.6c-0.9,2.7-1.3,4.2-2.2,6.9c0.6,0.3,1,0.4,1.8,0.5c1.7,0.5,3,0.1,3.5-1.9
		c0.1-0.5,0.3-0.9,0.4-1.4C179.2,454.7,178.8,453.7,177.3,453.2z"/>
	<path class="st0" d="M208.7,461c-0.8-0.3-1.2-0.4-2.1-0.5c-0.6,3.2-0.9,4.9-1.6,8.2c0.8,0.1,1,0.3,1.8,0.4c1.7,0.3,3-0.3,3.2-2.3
		c0.1-1,0.3-1.6,0.4-2.6C210.8,462.1,210.3,461.2,208.7,461z"/>
	<path class="st0" d="M164.7,322.4c-3.4,0-5.2,2.1-5.2,5.6v11.6c0,3.5,1.8,5.6,5.2,5.6c3.4,0,5.2-2.1,5.2-5.6v-7h-4.9v3.2h1.6v4
		c0,1.7-0.6,2.2-1.8,2.2s-1.8-0.6-1.8-2.2v-12c0-1.6,0.6-2.2,1.8-2.2s1.8,0.6,1.8,2.2v2.3h3.4V328
		C169.9,324.5,168,322.4,164.7,322.4z"/>
	<polygon class="st0" points="175.6,322.7 172.1,322.7 172.1,344.8 181.3,344.8 181.3,341.7 175.6,341.7 	"/>
	<path class="st0" d="M193.1,339.6V328c0-3.5-1.9-5.6-5.3-5.6c-3.5,0-5.3,2.1-5.3,5.6v11.6c0,3.5,1.9,5.6,5.3,5.6
		C191.3,345.2,193.1,343.1,193.1,339.6z M189.6,339.8c0,1.6-0.6,2.2-1.8,2.2s-1.8-0.6-1.8-2.2v-12c0-1.6,0.6-2.2,1.8-2.2
		s1.8,0.6,1.8,2.2V339.8z"/>
	<path class="st0" d="M206.1,339.6v-1.8c0-2.3-0.8-4-2.6-4.8c1.6-0.6,2.2-2.1,2.2-4.4v-0.8c0-3.4-1.6-5.1-5.2-5.2h-5.2v22.2h5.5
		C204.3,344.8,206.1,343,206.1,339.6z M198.8,325.9L198.8,325.9l1.6-0.1c1.3,0,1.8,0.8,1.8,2.3v1.3c0,1.8-0.8,2.3-2.1,2.3h-1.3
		V325.9z M198.8,334.9L198.8,334.9l1.6-0.1c1.6,0,2.2,0.6,2.2,2.7v1.9c0,1.7-0.6,2.2-1.8,2.2h-1.9L198.8,334.9L198.8,334.9z"/>
	<path class="st0" d="M211.1,340.9h4.3l0.6,4h3.5l-3.8-22.2h-5.1l-3.5,22.2h3.2L211.1,340.9z M213.3,326.7l1.7,11.2h-3.4
		L213.3,326.7z"/>
	<polygon class="st0" points="230.3,341.7 224.6,341.7 224.6,322.7 221.1,322.7 221.1,344.8 230.3,344.8 	"/>
	<polygon class="st0" points="239.6,329.1 242.2,344.8 245.5,344.8 248,328.9 248,344.9 251.2,344.9 251.2,322.7 246.4,322.7 
		244.1,338.4 241.5,322.6 236.7,322.6 236.7,344.8 239.6,344.8 	"/>
	<path class="st0" d="M258.9,345.2c3.5,0,5.3-2.1,5.3-5.6V328c0-3.5-1.9-5.6-5.3-5.6c-3.5,0-5.3,2.1-5.3,5.6v11.6
		C253.5,343.1,255.5,345.2,258.9,345.2z M257.1,327.9c0-1.6,0.6-2.2,1.8-2.2c1.2,0,1.8,0.6,1.8,2.2v12c0,1.6-0.6,2.2-1.8,2.2
		c-1.2,0-1.8-0.6-1.8-2.2V327.9z"/>
	<polygon class="st0" points="274.1,344.9 277.5,322.7 274.2,322.7 271.6,340.8 269,322.7 265.5,322.7 268.9,344.9 	"/>
	<polygon class="st0" points="288.6,341.7 282.7,341.7 282.7,335.2 287.5,335.2 287.5,332 282.7,332 282.7,325.7 288.6,325.7 
		288.6,322.6 279.2,322.6 279.2,344.8 288.6,344.8 	"/>
	<polygon class="st0" points="293.8,329.1 296.4,344.8 299.6,344.8 302,328.9 302,344.9 305.3,344.9 305.3,322.7 300.5,322.7 
		298.1,338.4 295.7,322.6 290.8,322.6 290.8,344.8 293.8,344.8 	"/>
	<polygon class="st0" points="317.4,341.7 311.4,341.7 311.4,335.2 316.2,335.2 316.2,332 311.4,332 311.4,325.7 317.4,325.7 
		317.4,322.6 307.9,322.6 307.9,344.8 317.4,344.8 	"/>
	<polygon class="st0" points="322.7,328.8 327.1,344.9 330.7,344.9 330.7,322.7 327.6,322.7 327.6,335.9 324,322.7 319.6,322.7 
		319.6,344.9 322.7,344.9 	"/>
	<polygon class="st0" points="335.7,344.8 339.2,344.8 339.2,325.8 342.8,325.8 342.8,322.7 332,322.7 332,325.8 335.7,325.8 	"/>
</g>
</svg>
