<?xml version="1.0" encoding="utf-8"?>
<!-- Generator: Adobe Illustrator 18.1.1, SVG Export Plug-In . SVG Version: 6.00 Build 0)  -->
<svg version="1.2" baseProfile="tiny" id="Ebene_1" xmlns="http://www.w3.org/2000/svg" xmlns:xlink="http://www.w3.org/1999/xlink"
	 x="0px" y="0px" width="283.5px" height="141.7px" viewBox="0 0 283.5 141.7" xml:space="preserve">
<g>
	<path fill="#87888A" d="M48.1,85.6c0-0.1,0.1-0.2,0.2-0.2l0,0c2.8,0.1,5.6,0.1,8.5,0.1c3,0,5.6,0,8,0c3.1,0,5.2-0.4,6.3-1.1
		c1.1-0.7,1.7-2.2,1.7-4.3c0-0.7-0.1-1.3-0.2-1.9c-0.1-0.6-0.4-1.1-0.8-1.6c-0.4-0.4-1-0.8-1.7-1.1c-0.7-0.3-1.7-0.5-3-0.6L57.6,74
		c-2-0.2-3.6-0.6-5-1.3c-1.4-0.7-2.5-1.6-3.3-2.6c-0.8-1-1.5-2.2-1.9-3.5c-0.4-1.3-0.6-2.6-0.6-4v-1.4c0-3.8,1.2-6.8,3.7-9
		c2.5-2.2,6.5-3.2,12.2-3.2c2.5,0,5.2,0,7.9,0c2.7,0,5.6,0.1,8.9,0.2l0,0c0.1,0,0.2,0.1,0.2,0.3c0,0,0,0,0,0l0,0l-1.3,6.8l0,0
		c0,0.1-0.1,0.2-0.2,0.2c0,0,0,0,0,0l0,0c-2.1-0.1-4-0.1-5.6-0.1c-1.7,0-3.2,0-4.5,0c-1.3,0-2.5,0-3.5,0c-1,0-2,0-2.8,0
		c-2.7,0-4.6,0.4-5.6,1.1c-1.1,0.7-1.6,2-1.6,3.8c0,0.7,0.1,1.4,0.2,1.9c0.1,0.6,0.4,1,0.8,1.4c0.4,0.4,1,0.7,1.7,1
		c0.8,0.3,1.8,0.5,3,0.6l9.2,0.9c2.4,0.2,4.3,0.7,5.8,1.6c1.5,0.8,2.6,1.8,3.4,3c0.8,1.2,1.3,2.4,1.6,3.7c0.3,1.3,0.4,2.6,0.4,3.8
		v1.2c0,4-1.3,7.1-4,9.3c-2.7,2.2-6.8,3.3-12.4,3.3c-2.4,0-5.1,0-8.3,0c-3,0-9.1-0.1-9.1-0.1c-0.1,0-0.3-0.1-0.3-0.3c0,0,0,0,0,0
		L48.1,85.6z"/>
	<path fill="#87888A" d="M149.8,93.8c0,0.1-0.1,0.3-0.3,0.3c0,0,0,0,0,0c-2.5-0.1-4.6-0.4-6.5-0.9c-2.4-0.6-4.4-1.8-5.9-3.4
		c-1.5-1.6-2.6-3.7-3.4-6.4c-0.7-2.7-1.1-6-1.1-10.1v-4.6c0-4.1,0.4-7.4,1.1-10.1c0.7-2.7,1.8-4.8,3.4-6.4c1.5-1.6,3.5-2.7,5.9-3.4
		c1.9-0.5,4-0.8,6.5-0.9c0,0,0,0,0,0c0.1,0,0.3,0.1,0.3,0.3l0,6.8c0,0.1-0.1,0.2-0.2,0.3c0,0,0,0,0,0c-1.2,0.1-2.3,0.2-3.1,0.4
		c-1.4,0.3-2.4,0.9-3.2,1.9c-0.8,1-1.3,2.3-1.6,4.1c-0.3,1.8-0.4,4.1-0.4,7.1v4.6c0,3,0.1,5.4,0.4,7.1c0.3,1.8,0.8,3.1,1.6,4.1
		c0.8,1,1.8,1.6,3.2,1.9c0.9,0.2,1.9,0.3,3.1,0.4l0,0c0,0,0,0,0,0c0.1,0,0.2,0.1,0.2,0.3l0,0.1v6.6L149.8,93.8z"/>
	<path fill="#87888A" d="M154,94c-0.1,0-0.3-0.1-0.3-0.3l0,0V87l0-0.1c0-0.1,0.1-0.2,0.2-0.3l0,0c1.2-0.1,2.3-0.2,3.1-0.4
		c1.4-0.3,2.4-0.9,3.2-1.9c0.8-1,1.3-2.3,1.6-4.1c0.3-1.8,0.4-4.1,0.4-7.1v-4.6c0-3-0.1-5.4-0.4-7.1c-0.3-1.8-0.8-3.1-1.6-4.1
		c-0.8-1-1.8-1.6-3.2-1.9c-0.9-0.2-1.9-0.3-3.1-0.4c0,0,0,0,0,0c-0.1,0-0.2-0.1-0.2-0.3l0-0.2v-6.4l0-0.2c0-0.1,0.1-0.3,0.3-0.3
		c0,0,0,0,0,0c2.5,0.1,4.6,0.4,6.5,0.9c2.4,0.6,4.4,1.8,5.9,3.4c1.5,1.6,2.6,3.7,3.4,6.4c0.7,2.7,1.1,6,1.1,10.1v4.6
		c0,4.1-0.4,7.4-1.1,10.1c-0.7,2.7-1.8,4.8-3.4,6.4c-1.5,1.6-3.5,2.7-5.9,3.4C158.7,93.6,156.5,93.9,154,94L154,94z"/>
	<path fill="#87888A" d="M228.7,92.7c-0.1,0-0.3-0.1-0.3-0.3l0-28.8c0-1.4-0.1-2.6-0.2-3.7c-0.1-1.1-0.5-2-1-2.7
		c-0.6-0.7-1.4-1.3-2.5-1.6c-1.1-0.4-2.6-0.5-4.5-0.5c-1.8,0-3.2,0.2-4.3,0.5c-1.1,0.3-1.9,0.8-2.5,1.4c-0.6,0.6-1,1.4-1.1,2.4
		c-0.2,0.9-0.3,2-0.3,3.2l0,30c0,0.1-0.1,0.3-0.3,0.3h-7.5H204c-0.1,0-0.3-0.1-0.3-0.3l0-0.4V63.7c0-1.4-0.1-2.6-0.2-3.7
		c-0.1-1.1-0.5-2-1-2.7c-0.6-0.7-1.4-1.3-2.5-1.6c-1.1-0.4-2.6-0.5-4.5-0.5c-1.9,0-3.4,0.2-4.5,0.5c-1.1,0.4-1.9,0.9-2.5,1.6
		c-0.5,0.7-0.9,1.6-1,2.7c-0.1,1.1-0.2,2.3-0.2,3.7l0,28.8c0,0.1-0.1,0.3-0.3,0.3h-7.2h-0.6c-0.1,0-0.3-0.1-0.3-0.3v-0.3V61.9
		c0-5.2,1.4-8.8,4.2-11c2.8-2.1,6.9-3.2,12.3-3.2c2.7,0,5.2,0.4,7.4,1.3c2.2,0.9,3.8,2.1,4.9,3.6c1.1-1.5,2.7-2.7,4.9-3.6
		c2.2-0.9,4.7-1.3,7.4-1.3c5.4,0,9.5,1.1,12.3,3.2c2.8,2.1,4.2,5.8,4.2,11v30.5c0,0.1-0.1,0.3-0.3,0.3H228.7z"/>
	<path fill="#87888A" d="M116.4,92.7c-0.1,0-0.3-0.1-0.3-0.3l0-28.8c0-1.4-0.1-2.6-0.2-3.7c-0.2-1.1-0.6-2-1.2-2.7
		c-0.6-0.7-1.6-1.3-2.9-1.6c-1.3-0.4-3.1-0.5-5.5-0.5c-2.3,0-4.1,0.2-5.5,0.5c-1.3,0.4-2.3,0.9-2.9,1.6c-0.6,0.7-1,1.6-1.2,2.7
		c-0.2,1.1-0.2,2.3-0.2,3.7l0,28.8c0,0.1-0.1,0.3-0.3,0.3h-7.8c-0.1,0-0.3-0.1-0.3-0.3l0-30.5c0-5.1,1.5-8.7,4.4-10.9
		c2.9-2.2,7.5-3.3,13.7-3.3c6.2,0,10.8,1.1,13.7,3.3c2.9,2.2,4.4,5.8,4.4,10.9v30.5c0,0.1-0.1,0.3-0.3,0.3H116.4z"/>
</g>
</svg>
